<?xml version="1.0" standalone="no"?>
<!DOCTYPE svg PUBLIC "-//W3C//DTD SVG 1.1//EN" "http://www.w3.org/Graphics/SVG/1.1/DTD/svg11.dtd" >
<svg xmlns="http://www.w3.org/2000/svg">
<metadata></metadata>
<defs>
<font id="inglebybold" horiz-adv-x="1515" >
<font-face units-per-em="2048" ascent="1638" descent="-410" />
<missing-glyph horiz-adv-x="389" />
<glyph unicode="&#xfb01;" horiz-adv-x="1206" />
<glyph unicode="&#xfb02;" horiz-adv-x="1206" />
<glyph unicode="&#xfb03;" horiz-adv-x="1804" d="M68 0v59l32 4q14 2 30.5 4.5t33.5 4.5q4 8 12 34.5t8 59.5v672h-116l6 57q20 0 41 2q37 4 69 16v154q0 47 39 101.5t92.5 101.5t107.5 78.5t87 31.5q51 0 107.5 -15t94.5 -40t48 -58.5t-29 -70.5q-18 -18 -43.5 -26.5t-49.5 -8.5t-42 6.5t-25 14.5q-27 41 -42 67.5 t-54 26.5q-29 0 -49 -36t-20 -107v-213h378v194q0 47 47.5 101.5t118 101.5t154.5 78.5t158 31.5q51 0 116.5 -15t114.5 -39.5t69.5 -58.5t-18.5 -71q-23 -25 -50.5 -37t-52 -15t-44 0t-25.5 11q-35 41 -77 81t-85 40q-33 0 -68.5 -8t-66.5 -26.5t-50 -48.5t-19 -75v-245 h184q2 -6 2 -15v-18q-10 -12 -18.5 -21.5t-14.5 -15.5q-8 -8 -14 -12h-139v-672q0 -16 2 -32.5t6 -31.5q4 -16 10 -30q18 -4 35.5 -5t34.5 -4l32 -4v-59h-460v59q14 2 32 4q14 2 32 4.5t34 4.5q4 8 12 34.5t8 59.5v672h-378v-672q0 -16 2 -32.5t6 -31.5q4 -16 10 -30 q18 -4 35.5 -5t34.5 -4l32 -4v-59h-458zM1257 858q0 8 3 16q20 2 57 11q59 12 217 59q16 -18 31 -35q12 -14 23 -29.5t16 -23.5v-690q0 -35 8 -61.5t12 -32.5q14 -2 30.5 -4t33.5 -5q18 -4 36 -6v-57h-460v57q18 2 36 6q16 2 32 4.5t30 4.5q4 8 12 34.5t8 59.5v600 q0 10 -3 19.5t-7 17.5t-8 14h-102q-4 12 -4.5 22.5t-0.5 18.5z" />
<glyph unicode="&#xfb04;" horiz-adv-x="1802" d="M63 0v59q16 2 33 4q14 2 30.5 4.5t33.5 4.5q4 8 12 34.5t8 59.5v672h-117l7 57q20 0 41 2q37 4 69 16v154q0 47 39 101.5t92.5 101.5t107.5 78.5t87 31.5q51 0 107.5 -15t94 -40t48 -58.5t-28.5 -70.5q-18 -18 -44 -26.5t-49.5 -8.5t-42 6.5t-24.5 14.5q-27 41 -42 67.5 t-54 26.5q-29 0 -49.5 -36t-20.5 -107v-213h375v165q0 47 34 106.5t94.5 112t143 88t179.5 35.5q53 0 105 -8t95 -24l99 32q16 -18 30 -34q12 -14 23.5 -29.5t15.5 -24.5v-1173q0 -35 8.5 -61.5t12.5 -32.5q14 -2 30.5 -4t32.5 -5q18 -4 37 -6v-57h-459v57q16 2 35 6 q16 2 31.5 4.5t30.5 4.5q4 8 12 34.5t8 59.5v1034q0 68 -52 101.5t-120 33.5q-33 0 -68.5 -9t-66.5 -30.5t-50.5 -58.5t-19.5 -92v-225h185q2 -6 2 -15v-18q-10 -12 -18.5 -21.5t-14.5 -15.5q-8 -8 -14 -12h-140v-672q0 -16 2 -32.5t7 -31.5q4 -16 10 -30q18 -4 35.5 -5 t33.5 -4q16 -2 33 -4v-59h-459v59q16 2 33 4q14 2 30.5 4.5t33.5 4.5q4 8 12 34.5t8 59.5v672h-375v-672q0 -16 2.5 -32.5t6.5 -31.5q4 -16 10 -30q18 -4 35.5 -5t33.5 -4q16 -2 33 -4v-59h-459z" />
<glyph horiz-adv-x="2048" />
<glyph horiz-adv-x="2048" />
<glyph unicode="&#xd;" horiz-adv-x="567" />
<glyph unicode=" "  horiz-adv-x="389" />
<glyph unicode="&#x09;" horiz-adv-x="389" />
<glyph unicode="&#xa0;" horiz-adv-x="389" />
<glyph unicode="!" horiz-adv-x="520" d="M125 100q0 49 30.5 89t90.5 40h10q59 0 90 -39.5t31 -89.5q0 -47 -34 -86t-87 -39h-10q-53 0 -87 39t-34 86zM137 1217q-2 35 28 72.5t81 49.5q31 8 60.5 8.5t51 -9t32.5 -29t9 -52.5l-106 -905q-10 -2 -23 -6q-10 -4 -25.5 -7t-37.5 -7z" />
<glyph unicode="&#x22;" horiz-adv-x="651" d="M59 1262q8 78 38 101t61 23q14 0 32.5 -5t34 -18t23.5 -38t4 -63q-2 -33 -12.5 -76t-24.5 -86t-27.5 -79t-19.5 -54q-12 -4 -25 -9q-10 -4 -25.5 -7t-31.5 -3q-8 61 -16 119q-6 49 -10.5 102.5t-0.5 92.5zM426 1262q8 78 37.5 101t62.5 23q14 0 34 -5t35 -18t23.5 -38 t4.5 -63q-2 -33 -13.5 -76t-25 -86t-27.5 -79t-20 -54q-12 -4 -25 -9q-10 -4 -24.5 -7t-30.5 -3q-10 61 -19 119q-6 49 -11 102.5t-1 92.5z" />
<glyph unicode="#" horiz-adv-x="1005" d="M23 340v100h170l96 394h-162v98h186l101 401h108l-100 -401h276l101 401h108l-100 -401h162v-98h-187l-100 -394h182v-100h-207l-84 -340h-108l84 340h-273l-88 -340h-108l88 340h-145zM299 440h274l101 394h-277z" />
<glyph unicode="$" horiz-adv-x="974" d="M86 1016q0 82 41 145.5t97.5 105.5t113.5 63.5t90 21.5v86l109 41v-123q63 0 107 -4t77 -13.5t60.5 -24t58.5 -32.5l4 -244q-20 -6 -39 -5t-33 5q-18 4 -33 11q0 88 -46 150.5t-156 68.5v-457q16 -12 33.5 -23.5t37.5 -25.5q172 -115 238.5 -226.5t66.5 -205.5 q0 -53 -25.5 -110.5t-74.5 -107t-118.5 -85t-157.5 -45.5v-72l-109 -41v106q-98 0 -160.5 10.5t-99.5 24.5q-43 16 -66 37v242q12 2 27.5 2t30.5 -4q16 -4 33 -8q0 -39 13 -77t39.5 -68t65.5 -48t90 -18q6 0 16.5 -2.5t10.5 4.5v536q-39 27 -67.5 47.5t-79.5 55.5 q-27 18 -61 45.5t-63.5 65.5t-50 86t-20.5 110zM315 1069q0 -41 16.5 -73.5t39.5 -55.5q25 -27 57 -49v364q-37 -10 -59.5 -34.5t-34.5 -53t-15.5 -55.5t-3.5 -43zM537 90q72 29 96 83t24 128q0 61 -30.5 114.5t-89.5 104.5v-430z" />
<glyph unicode="%" horiz-adv-x="1277" d="M86 1061q0 59 22.5 113.5t59.5 94.5t87 63.5t105 23.5q43 0 84 -15q35 -6 91.5 -14t136.5 -9t186.5 5t241.5 29l-789 -1352h-127l729 1249q-92 -27 -174 -28.5t-153 8.5q23 -35 38 -75t15 -83q0 -61 -21.5 -114.5t-59.5 -94.5t-88 -64.5t-105 -23.5t-105.5 22.5 t-88.5 60.5t-61.5 90t-23.5 114zM229 1061q0 -92 36 -154.5t93 -62.5q59 0 98.5 65.5t39.5 159.5q0 86 -36 146.5t-100 70.5h-2q-57 0 -93 -65.5t-36 -159.5zM616 270q0 61 23 113.5t61.5 90.5t88 60.5t104.5 22.5t105.5 -23.5t88 -64.5t59 -94t21.5 -115 q0 -59 -22.5 -111.5t-60 -90.5t-88 -60.5t-105.5 -22.5t-105.5 24t-88.5 63.5t-59.5 94t-21.5 113.5zM760 270q-2 -94 34 -159.5t93 -65.5t97 61.5t42 155.5q0 94 -40 159.5t-97 65.5t-93 -62.5t-36 -154.5z" />
<glyph unicode="&#x26;" horiz-adv-x="1058" d="M71.5 384q18.5 73 76 133.5t153.5 94.5q-66 121 -92.5 229.5t-7 192.5t91.5 137.5t203 63.5q121 10 203.5 -24.5t127.5 -93t51.5 -130.5t-25.5 -138.5t-99.5 -118.5t-171.5 -68q-10 4 -16.5 12t-10.5 16q-6 8 -10 19q57 31 90 75.5t46 94t7 98.5t-27.5 88t-58.5 63.5 t-84 24.5q-82 0 -115.5 -50t-29.5 -133t43 -186.5t103.5 -211t150.5 -208t184 -174.5q37 55 22.5 116t-47 110t-66.5 80l-34 30q4 12 10 25q10 23 31 41q119 -10 176.5 -65.5t69.5 -128t-11.5 -148.5t-68.5 -125q23 -14 47 -27q23 -12 49.5 -25.5t54.5 -27.5l-63 -96 q-45 25 -86 52.5t-82 55.5q-55 -43 -139 -68.5t-195 -25.5q-129 0 -223 39t-150.5 99.5t-76 135t-1 147.5zM252 395q-10 -86 27.5 -161.5t113.5 -127t166 -51.5q70 0 118 16.5t83 49.5q-72 51 -128.5 97t-105.5 95t-93 106.5t-91 131.5q-80 -70 -90 -156z" />
<glyph unicode="'" horiz-adv-x="348" d="M35 983q12 10 31.5 27.5t38 41t33 50t18.5 55.5q-33 0 -52.5 11.5t-31 30t-15.5 40t-4 39.5q0 12 4 30.5t17.5 35t37 28.5t62.5 12t63.5 -13t37 -32.5t16.5 -39t4 -31.5q0 -61 -23.5 -113.5t-58.5 -93.5t-74 -69.5t-69 -45.5l-19 19q-4 4 -7 6t-5 6q-4 4 -4 6z" />
<glyph unicode="(" horiz-adv-x="446" d="M76 463q-10 117 7 229.5t56 221t94.5 212t120.5 199.5l64 -47q-92 -180 -137 -386t-29 -425q10 -164 53 -314.5t115 -287.5l-62 -49q-102 143 -184 305t-98 342z" />
<glyph unicode=")" horiz-adv-x="444" d="M27 -135q70 137 112.5 287.5t53.5 314.5q16 219 -29 425t-137 386l61 47q66 -96 122 -199.5t95 -212t57.5 -221t8.5 -229.5q-16 -180 -98.5 -342t-186.5 -305z" />
<glyph unicode="*" horiz-adv-x="782" d="M25 1040l63 140q33 -10 70 -23q31 -10 71.5 -28.5t85.5 -41.5q-6 59 -13 123t-11 121h182q2 -35 2 -76q0 -35 -2 -81t-10 -97q55 27 118.5 57.5t116.5 55.5l50 -158q-37 -14 -78 -24q-35 -10 -81 -20.5t-95 -20.5q49 -41 102 -83t100 -83l-123 -109q-31 27 -63 60 q-29 29 -62.5 64.5t-64.5 80.5q-43 -53 -89 -110.5t-87 -110.5l-125 127q29 27 61 55q29 25 66 55.5t78 61.5q-59 14 -132 31.5t-130 33.5z" />
<glyph unicode="+" horiz-adv-x="815" d="M47 444v107h307v307h107v-307h307v-107h-307v-307h-107v307h-307z" />
<glyph unicode="," horiz-adv-x="348" d="M-6 -193q35 18 67 48q29 25 56.5 60.5t44.5 84.5q-31 0 -51.5 11.5t-34 27.5t-19.5 34.5t-6 30.5q0 14 6 35t20.5 41.5t39 34.5t63.5 14q41 0 65.5 -16t37 -38.5t16.5 -44t4 -30.5q0 -74 -41 -136t-90 -107q-57 -53 -131 -97z" />
<glyph unicode="-" horiz-adv-x="681" d="M61 391l13 103l528 55l-22 -156q-59 6 -138 8q-66 2 -162 1t-219 -11z" />
<glyph unicode="." horiz-adv-x="356" d="M57 100q0 49 31 89t90 40h10q59 0 90 -39.5t31 -89.5q0 -47 -34 -86t-87 -39h-10q-53 0 -87 39t-34 86z" />
<glyph unicode="/" horiz-adv-x="528" d="M51 0l332 1331h111l-332 -1331h-111z" />
<glyph unicode="0" horiz-adv-x="1157" d="M100 541q0 123 27 227t84 181t143 121t207 44h2q127 4 218 -38t149.5 -119.5t85 -184t26.5 -231.5q0 -121 -30.5 -224.5t-92 -179.5t-151.5 -119t-207 -43q-121 0 -207 43t-143 119t-84 179.5t-27 224.5zM324 539q0 -248 56 -367t179 -119t190.5 119t67.5 369 q0 252 -67.5 373.5t-190.5 121.5t-179 -121.5t-56 -373.5v-2z" />
<glyph unicode="1" horiz-adv-x="622" d="M18 924q53 29 109 61q47 29 106.5 61.5t116.5 67.5l60 -49v-891q0 -41 10 -72q6 -16 12 -30q70 -6 121 -19v-53h-496v53q55 12 121 19q6 14 12 30q4 14 8.5 33t4.5 39v684q0 20 -5 31.5t-10 17.5q-8 8 -14 11l-125 -46z" />
<glyph unicode="2" horiz-adv-x="901" d="M47 154l72 26q12 10 51 44t90 84t107.5 112.5t102.5 131.5t77 138.5t31 134.5q0 78 -21.5 122t-55.5 61.5t-75 13.5t-80 -23q-47 -23 -71.5 -56.5t-36.5 -63.5q-14 -37 -17 -76q-18 -2 -37 0q-16 2 -32.5 5t-32.5 9l4 70q2 29 5 62.5t9 58.5q31 31 76 53q39 20 96.5 37.5 t134.5 17.5q61 0 124 -17.5t112 -52t80 -86t31 -118.5q0 -55 -27 -123q-16 -41 -46 -86t-70 -92t-85 -93.5t-90 -89.5q-106 -98 -231 -198h333q53 0 84 4t56 26q10 10 18 24.5t17 31.5q8 19 18 39q16 -4 32.5 -9.5l28.5 -9.5q14 -6 25 -12q-20 -39 -39 -82 q-16 -37 -30.5 -82t-22.5 -90h-643q-14 23 -27 47q-10 23 -23.5 49.5t-21.5 57.5z" />
<glyph unicode="3" horiz-adv-x="841" d="M18 -213q0 25 6.5 53.5t14.5 53.5q8 29 22 59q37 -45 80 -82q37 -31 87.5 -55.5t109.5 -24.5q68 0 112 31t68.5 79t34.5 105t10 113q0 57 -16.5 112.5t-48 99.5t-80.5 71.5t-113 29.5q-10 -6 -31.5 -17.5t-31.5 -17.5q-18 12 -35 27q-14 10 -27.5 24.5t-19.5 28.5 q14 6 33 15q33 14 83 16q8 0 45 18.5t78 56.5t74 94t33 130q0 111 -40 165t-101 54q-35 0 -78 -17.5t-74 -52.5q-23 -27 -37 -54.5t-24 -51.5q-10 -29 -19 -57q-18 4 -37 8q-16 4 -31.5 7t-23.5 7q2 45 6 82q4 33 6 64.5t6 46.5q29 31 74 53q39 20 97.5 37.5t138.5 17.5 q88 0 152.5 -22.5t107.5 -60.5t64.5 -87t21.5 -100q0 -98 -68.5 -192.5t-206.5 -147.5q86 -8 152.5 -42t111 -85t67 -114.5t22.5 -131.5q0 -80 -32 -159.5t-95.5 -143t-159.5 -103.5t-225 -40q-70 0 -119 15t-82 34q-37 23 -62 51z" />
<glyph unicode="4" horiz-adv-x="925" d="M37 205l522 776q16 27 28.5 50.5t20.5 39.5q8 20 15 35q35 -10 63.5 -19.5t50.5 -19.5q23 -10 43 -20v-768h127l-51 -134h-76v-340l-108 -96h-99v436h-503q-8 10 -15 19q-12 14 -18 41zM211 279h362v573q-29 -37 -58.5 -80t-60 -90t-60 -95t-56.5 -93q-63 -104 -127 -215 z" />
<glyph unicode="5" horiz-adv-x="866" d="M18 -213q0 25 6.5 53.5t14.5 53.5q8 29 22 59q37 -47 80 -84q37 -33 84 -58.5t101 -25.5q72 0 121 28.5t78.5 77t42 107.5t12.5 121q0 57 -16.5 114.5t-50.5 101.5t-84 71.5t-118 27.5q-31 0 -55.5 -6t-40.5 -14q-20 -8 -33 -19q-10 8 -18 21q-8 10 -17.5 25.5 t-13.5 37.5q31 10 55 21q23 10 39.5 19t20.5 18q8 33 12 98t4 142t-2 154t-4 134h428q8 0 20.5 7t22.5 18q12 10 27 24q6 -4 14 -12q6 -6 13.5 -16.5t17.5 -20.5q-14 -29 -27 -57q-12 -25 -25.5 -52.5t-25.5 -52.5h-313q-12 -94 -27.5 -187t-30.5 -186q117 -4 203 -38.5 t142.5 -90t85 -126t28.5 -144.5q0 -80 -33 -160t-98.5 -143.5t-161.5 -102t-223 -38.5q-70 0 -121 15t-86 34q-41 23 -70 51z" />
<glyph unicode="6" horiz-adv-x="997" d="M47 469q0 109 36 228.5t112.5 241.5t196.5 240.5t288 225.5l51 -82q-121 -88 -205 -192.5t-137 -216t-76.5 -223t-23.5 -212.5q0 -88 15 -163.5t44 -132t68 -88.5t86 -32q49 0 86 24t60.5 61.5t35.5 87t12 102.5t-8 105.5t-28.5 93.5t-55.5 66.5t-88 25.5q-23 0 -42 -6.5 t-36 -12.5q-20 -8 -37 -16q-8 6 -16 18q-14 20 -14 68q23 10 53 18q27 6 62.5 12.5t78.5 6.5q76 0 142.5 -19.5t116.5 -63.5t79 -116t29 -178q0 -90 -33 -157.5t-93.5 -113.5t-143 -70t-181.5 -24q-100 0 -181 38t-137.5 103.5t-86 157t-29.5 195.5z" />
<glyph unicode="7" horiz-adv-x="774" d="M-37 791q14 45 29 92q12 41 24.5 90t22.5 96l639 -20q18 -16 30.5 -34t20.5 -32q8 -16 14 -31q-37 -98 -79.5 -204.5t-90 -215t-95.5 -214t-93 -199.5q-106 -223 -217 -443q-31 12 -64 27q-29 12 -59.5 27.5t-52.5 31.5q133 215 252 424q51 88 103 184.5t101.5 189.5 t92.5 181t71 160h-344q-66 0 -92 -4t-51 -29q-10 -8 -17.5 -21t-13.5 -28q-8 -16 -14 -33l-53 -14q-10 2 -19 4q-20 4 -45 15z" />
<glyph unicode="8" horiz-adv-x="935" d="M51 344q0 86 34 146.5t79 99.5t89 60.5t66 31.5q-33 20 -65.5 46t-59 57.5t-45 69.5t-24.5 85q-10 78 16.5 136.5t75.5 96t112.5 56t129.5 18.5t129 -18.5t111.5 -56t75 -96t18.5 -136.5q-6 -45 -24.5 -84t-46.5 -71.5t-61.5 -60.5t-66.5 -48q25 -8 70 -29.5t91 -59.5 t79.5 -97.5t33.5 -145.5q0 -76 -33.5 -143.5t-90 -117.5t-130 -79t-155.5 -29q-80 0 -154 29t-130 79t-90 117.5t-34 143.5zM264 344q0 -59 11.5 -111.5t36 -91.5t61.5 -62.5t86 -23.5t86 23.5t61.5 62.5t36.5 91.5t12 111.5q0 82 -37.5 135t-82.5 84q-53 37 -119 55 q-8 -4 -33 -17t-51.5 -44t-47 -83t-20.5 -130zM319 942q0 -63 25 -104t53 -66q35 -29 78 -47q6 2 25.5 11t41 33t39 66t17.5 107q0 39 -6 80t-21.5 73.5t-42 53t-69.5 20.5t-70 -20.5t-42 -53t-21.5 -73.5t-6.5 -80z" />
<glyph unicode="9" horiz-adv-x="1001" d="M63 752q0 90 33 157.5t93.5 113.5t143.5 69.5t181 23.5q100 0 181 -38t137.5 -103.5t86 -156.5t29.5 -195q0 -109 -35.5 -229t-112.5 -241.5t-197 -240.5t-288 -225l-51 82q121 88 205 192.5t137 216t77 223t24 211.5q0 88 -15.5 164t-44.5 132.5t-67.5 88t-85.5 31.5 q-49 0 -86 -23.5t-60.5 -61.5t-36 -88t-12.5 -101q0 -53 8 -105.5t28.5 -93.5t55.5 -66.5t88 -25.5q20 0 41 5t37 11q20 8 37 19q6 -6 14 -19q6 -10 11.5 -27.5t5.5 -39.5q-25 -10 -56 -19q-27 -8 -61.5 -13t-77.5 -5q-76 0 -142.5 19.5t-116.5 63.5t-79 116t-29 178z" />
<glyph unicode=":" horiz-adv-x="471" d="M133 100q0 49 31 89t90 40h10q59 0 90 -39.5t31 -89.5q0 -47 -34 -86t-87 -39h-10q-53 0 -87 39t-34 86zM133 791q0 49 31 89t90 40h10q59 0 90 -40t31 -89q0 -47 -34 -86t-87 -39h-10q-53 0 -87 38.5t-34 86.5z" />
<glyph unicode=";" horiz-adv-x="471" d="M76 -199l47 -47q74 43 131 96q49 45 90 107.5t41 136.5q0 8 -4 29.5t-16.5 44t-37 39t-65.5 16.5q-39 0 -63.5 -14t-39 -34.5t-20.5 -41t-6 -35.5q0 -12 6 -30.5t19.5 -35t34 -27.5t51.5 -11q-16 -49 -44 -85t-57 -61q-33 -29 -67 -47zM133 791q0 49 31 89t90 40h10 q59 0 90 -40t31 -89q0 -47 -34 -86t-87 -39h-10q-53 0 -87 38.5t-34 86.5z" />
<glyph unicode="&#x3c;" horiz-adv-x="1034" d="M82 471v49l872 377v-106l-714 -295l714 -295v-107z" />
<glyph unicode="=" horiz-adv-x="1198" d="M162 293v106h874v-106h-874zM162 633v106h874v-106h-874z" />
<glyph unicode="&#x3e;" horiz-adv-x="1083" d="M115 94v107l714 295l-714 295v106l872 -377v-49z" />
<glyph unicode="?" horiz-adv-x="856" d="M62.5 1066q5.5 79 48.5 141.5t118.5 102.5t171.5 40q106 0 179 -27t118 -69t63.5 -91t18.5 -92q0 -86 -36.5 -140t-87 -97t-100.5 -85t-75 -106q-20 -49 -27.5 -93t-8.5 -81t1.5 -66.5t2.5 -50.5q-8 -2 -21 -6q-10 -4 -25.5 -7t-37.5 -7q-27 51 -41 114q-12 53 -13.5 126 t23.5 159q10 37 48 79t80 86t74.5 88t32.5 87q0 27 -6 59.5t-21.5 61.5t-44 47t-71.5 18q-72 0 -113 -36.5t-62.5 -89t-28.5 -107.5t-9 -92q-16 -4 -37 -8q-16 -4 -36.5 -7.5t-37.5 -7.5q-45 78 -39.5 157zM279 94q0 49 30.5 89t89.5 40h11q59 0 89.5 -40t30.5 -89 q0 -47 -33.5 -86t-86.5 -39h-11q-53 0 -86.5 39t-33.5 86z" />
<glyph unicode="@" horiz-adv-x="1679" d="M84 473q0 141 50 265t145.5 217.5t234.5 146.5t317 53q172 0 310.5 -49t237 -130t150.5 -185.5t52 -215.5q0 -121 -35 -216t-97.5 -160.5t-149.5 -101.5t-191 -36q-49 0 -121 16.5t-139 84.5q-23 -29 -53 -51q-27 -18 -63 -34t-81 -16q-51 0 -88 21.5t-60.5 55.5 t-33.5 76t-8 81q2 41 10 95t22.5 112.5t35 116t44.5 104.5q25 43 57 73.5t67.5 50t73.5 28t73 8.5h274q6 -4 12.5 -10.5l10.5 -10.5l12 -12l-152 -606q-8 -37 20 -67t74 -40t102 2.5t105.5 61.5t82 140t32.5 234q0 109 -38 200t-112.5 156.5t-184 101.5t-251.5 36 q-154 0 -265 -45t-182 -125t-104.5 -189.5t-33.5 -236.5t44 -235.5t120.5 -187.5t180 -123t220.5 -44q78 0 133 10.5t92 24.5q43 14 72 35q27 -10 49.5 -24.5t38.5 -24.5q20 -14 35 -27q-53 -27 -107.5 -44t-107.5 -26.5t-100.5 -12.5t-84.5 -3q-166 0 -304 53.5t-236 146.5 t-152.5 217t-54.5 265zM625 260q2 -53 23.5 -77.5t58.5 -24.5q35 0 64.5 20.5t52 52t39 69.5t24.5 73l5 21q5 20 13 51.5t18.5 72.5t20.5 84q25 98 55 223q-27 2 -53 2q-23 0 -49.5 -2t-50.5 -12q-68 -23 -95.5 -73t-54.5 -136q-41 -121 -57 -206t-14 -138z" />
<glyph unicode="A" horiz-adv-x="1476" d="M51 0v57q27 -4 55 6q25 10 53.5 34t53.5 77q131 276 243.5 573t223.5 578q25 6 47 14q20 6 43 11.5t41 5.5l444 -1159q14 -37 26.5 -60.5t30 -39t44 -25t71.5 -15.5v-57h-542v55q47 0 82 13q29 10 47 34q10 12 10 30q0 16 -8 38q-31 84 -62.5 171t-62.5 169h-410 q-33 -82 -63.5 -168t-59.5 -172q-12 -37 -2.5 -57.5t31 -32.5t51 -16.5t56.5 -6.5v-57h-443zM510 590h352q-29 92 -59 182q-27 78 -56.5 163t-54.5 150q-43 -125 -91 -247.5t-91 -247.5z" />
<glyph unicode="B" horiz-adv-x="1150" d="M100 0v53l113 25q2 4 12.5 29.5t10.5 64.5v987q0 18 -3.5 34.5t-7.5 29.5q-6 14 -10 28l-115 25v55h439q98 0 185 -16.5t151.5 -56t102.5 -105.5t38 -164q0 -35 -9.5 -75t-34 -76.5t-65.5 -67.5t-104 -47q72 -6 126 -42t91 -85t55.5 -105.5t18.5 -105.5 q0 -115 -37 -189.5t-100.5 -117.5t-150.5 -60.5t-188 -17.5h-518zM471 82h145q59 0 101.5 25.5t69 65.5t39 90t12.5 99q0 29 -8.5 79.5t-36 99.5t-81 85t-145.5 36h-96v-580zM471 743h33q280 0 280 246q0 57 -14 104.5t-45 82t-78 54t-110 19.5h-66v-506z" />
<glyph unicode="C" horiz-adv-x="1323" d="M57 666q0 143 60.5 268t164 219t243 148.5t298.5 54.5q117 0 223.5 -31t198.5 -86q-16 -90 -16 -184q0 -45 4 -90q-16 -2 -33 0q-14 2 -30.5 5t-28.5 11q-10 80 -49 143q-16 27 -41 53.5t-60 47t-80 33t-102 12.5q-109 0 -200 -47t-156.5 -129t-102.5 -192.5t-37 -235.5 q0 -127 37 -238t102.5 -191.5t156.5 -128t200 -47.5q57 0 102 12.5t79 33t58.5 46t41.5 54.5q39 63 51 145q10 6 26.5 9.5t30.5 5.5q16 2 35 2q-3 -35 -3 -69q0 -36 3 -70q6 -68 12 -138q-92 -55 -198.5 -86t-223.5 -31q-160 0 -299 54.5t-242.5 147.5t-164 219t-60.5 270z " />
<glyph unicode="D" horiz-adv-x="1423" d="M145 0v57l115 23q2 2 12.5 27.5t10.5 64.5v989q0 18 -4.5 34.5t-8.5 29.5q-6 14 -10 28l-115 21v57h553q160 0 282 -50t205 -139t126 -211t43 -265t-43 -265t-126 -211.5t-205 -139.5t-282 -50h-553zM514 80h199q106 0 180 44t119 122t64.5 185.5t19.5 234.5 q0 125 -19.5 232.5t-64.5 185t-119 121.5t-180 44h-199v-1169z" />
<glyph unicode="E" horiz-adv-x="1196" d="M145 0v55l113 23q2 2 12.5 27.5t10.5 64.5v989q0 18 -4.5 34.5t-8.5 29.5q-6 14 -10 28l-113 27v53h869q2 -45 8 -91t12 -83q8 -43 17 -84q-27 0 -44.5 2t-27.5 6q-12 4 -21 11q-4 16 -10 34q-10 33 -28 58q-14 20 -38 32.5t-49.5 19.5t-50 10t-43.5 3h-225v-508h279 q43 0 53 49.5t14 133.5l70 -11v-421l-70 -3q-4 76 -15 124.5t-52 48.5h-279v-582h317q18 0 44 2t52.5 7t50 16.5t38.5 31.5q18 25 24 62q4 18 7 39l83 -17q-6 -35 -12 -71q-4 -33 -7 -71t-3 -79h-963z" />
<glyph unicode="F" horiz-adv-x="1150" d="M145 0v57l115 23q2 2 12.5 27.5t10.5 64.5v987q0 18 -4.5 34.5t-8.5 29.5q-6 14 -10 28l-113 27v53h869q2 -45 8 -91t12 -83q8 -43 17 -84q-27 0 -44.5 2t-27.5 6q-12 4 -20 11q-4 16 -11 34q-10 33 -28 58q-14 20 -38 32.5t-49.5 19.5t-50 10t-43.5 3h-225v-508h279 q43 0 53 49.5t14 133.5l70 -11v-421l-70 -3q-4 76 -15 124.5t-52 48.5h-279l-2 -490q0 -39 10 -66q6 -14 13 -26l116 -23v-57h-508z" />
<glyph unicode="G" horiz-adv-x="1437" d="M57 668q0 143 60.5 269t164 219t243 147.5t298.5 54.5q117 0 227.5 -32t202.5 -89q-4 -2 -9 -37t-9 -81t-5 -91t7 -63q-16 0 -33 2q-14 2 -29.5 5t-31.5 9q-12 80 -51 145q-16 27 -41 53.5t-60 47t-81 33t-103 12.5q-109 0 -199 -47t-155.5 -128t-102.5 -191.5 t-37 -237.5t37 -236.5t102.5 -192.5t155.5 -130.5t199 -47.5q33 0 77 6.5t83 18.5t65.5 27.5t26.5 33.5v246q0 68 -27 85q-23 15 -77 15q-13 0 -27 -1v71h456l7 -51q-10 -4 -26.5 -8t-33.5 -8q-20 -6 -39 -9v-417q-55 -27 -125 -47q-61 -16 -147 -31t-197 -15 q-160 0 -299 54.5t-242.5 147.5t-164 219t-60.5 270z" />
<glyph unicode="H" horiz-adv-x="1601" d="M150 0v57l114 23q2 2 12.5 27.5t10.5 64.5v989q0 18 -4 34.5t-9 29.5q-6 14 -10 28l-114 21v57h507v-57l-118 -23q-6 -12 -11 -26q-10 -27 -10 -64v-420h567v420q0 18 -4 34.5t-8 29.5q-6 14 -10 28l-115 21v57h508v-57l-119 -23q-6 -12 -10 -26q-10 -27 -10 -64v-989 q0 -39 10 -66q6 -14 12 -26l117 -23v-57h-508v57l115 23q2 2 12 27.5t10 64.5v490h-567v-490q0 -39 10 -66q6 -14 13 -26l116 -23v-57h-507z" />
<glyph unicode="I" horiz-adv-x="798" d="M145 0v57l115 23q2 2 12.5 27.5t10.5 64.5v989q0 18 -4.5 34.5t-8.5 29.5q-6 14 -10 28l-115 21v57h508v-57l-118 -23q-6 -12 -11 -26q-10 -27 -10 -64v-989q0 -39 10 -66q6 -14 13 -26l116 -23v-57h-508z" />
<glyph unicode="J" horiz-adv-x="712" d="M102 1274v57h508v-57l-57 -12q-23 -4 -41 -7.5t-20 -3.5q-6 -12 -11 -26q-10 -27 -10 -64v-995q0 -47 5 -86t5 -76q0 -61 -33.5 -119.5t-79.5 -108.5t-92.5 -88t-72.5 -55q-14 6 -24.5 14.5t-18.5 14.5q-8 8 -15 14q12 25 28.5 60t31 69.5t24 64.5t9.5 44v1247 q0 18 -4.5 34.5t-8.5 29.5q-6 14 -10 28z" />
<glyph unicode="K" horiz-adv-x="1370" d="M102 0v57l115 23q2 2 12.5 27.5t10.5 64.5v989q0 18 -4.5 34.5t-8.5 29.5q-6 14 -10 28l-115 21v57h508v-57l-118 -23q-6 -12 -11 -26q-10 -27 -10 -64v-989q0 -39 10 -66q6 -14 13 -26l116 -23v-57h-508zM537 719q154 156 240.5 260t129.5 166.5t52.5 90.5t7.5 28 q-12 4 -32 6t-38 4t-33 3l-14 1v53h457v-51q-43 0 -87 -21.5t-81 -46.5q-43 -29 -84 -65q-160 -180 -247 -280.5t-83 -98.5q0 -27 22.5 -80t61.5 -118.5t88 -138.5t103.5 -138.5t108.5 -119.5t101 -81q25 -16 48.5 -21t39.5 -8q20 -2 39 0l-30 -63h-328q-43 33 -83 79 t-76 100t-67.5 111.5t-58.5 112.5q-63 129 -114 273q-8 6 -15.5 13t-13.5 13q-8 8 -14 17z" />
<glyph unicode="L" horiz-adv-x="1150" d="M143 0v55l115 23q2 2 12.5 27.5t10.5 64.5v991q0 18 -4.5 34.5t-8.5 29.5q-6 14 -10 28l-115 23v55h510v-55l-116 -23q-2 -2 -12.5 -27.5t-10.5 -64.5v-1079h248q31 0 63.5 3t61 10t53.5 19.5t39 32.5q10 10 14 25.5t8 32.5q4 16 5 35l88 -17q-6 -33 -13 -69 q-4 -31 -7 -72t-3 -82h-928z" />
<glyph unicode="M" horiz-adv-x="1812" d="M61 0v57q31 2 62 7.5t56.5 17.5t42 33.5t20.5 56.5q23 242 42 483.5t29 477.5q1 6 1 12q0 33 -20 55q-24 26 -52 43q-35 18 -76 25q-10 10 -15.5 21t-9.5 22q-4 10 -4 20h391q0 -27 4 -55q4 -25 10.5 -54.5t18.5 -60.5q86 -217 167 -430t163 -428l323 858 q10 29 15.5 59.5t7.5 55.5q2 29 0 55h340l-4 -20q-4 -10 -7 -21.5t-14 -21.5q-25 -6 -47 -11q-18 -4 -33.5 -7t-17.5 -3l150 -1075q2 -18 6 -35.5t8 -30.5q4 -14 8 -26l125 -27v-53h-508v53q31 4 53 10q20 4 39 8.5t23 8.5q4 12 8 26q4 22 4 48v18q-29 219 -50.5 419 t-49.5 419q-96 -248 -197.5 -505t-200.5 -505h-106l-367 1012q-10 -94 -18 -200.5t-16.5 -216.5t-15.5 -218.5t-13 -204.5q-2 -23 7 -40t22 -28q14 -12 32 -22q16 -4 32.5 -8t33.5 -8q10 -4 26.5 -6.5t26.5 -6.5v-53h-455z" />
<glyph unicode="N" horiz-adv-x="1540" d="M109 0v55q27 0 54 2t47.5 13.5t34 35t13.5 64.5v948q0 39 -18.5 66.5t-40.5 46.5q-25 23 -58 37q-10 12 -13 22t-7 21q-4 10 -4 20h282l777 -991v819q0 37 -16.5 59.5t-41 34t-56.5 15.5t-63 6v57h439v-57q-23 -2 -50.5 -4t-51 -11.5t-40 -32t-16.5 -67.5v-1159h-119 l-799 1018v-848q0 -37 17.5 -58.5t43.5 -33.5t57.5 -16.5t62.5 -6.5v-55h-434z" />
<glyph unicode="O" d="M59 670q0 154 59.5 280.5t159 218t231.5 140.5t277 49q141 0 264.5 -46t213.5 -133t141 -211t51 -278q0 -172 -66.5 -305t-173 -223t-241.5 -137.5t-273 -47.5q-121 0 -235.5 47.5t-205.5 136.5t-146.5 217t-55.5 292zM319 672q0 -92 27 -199.5t79 -198t131 -151 t183 -60.5q86 0 167 41t143.5 121t100.5 197.5t38 269.5q0 113 -27.5 217.5t-83 185.5t-136.5 129t-187 48q-90 0 -169 -46t-138.5 -128t-93.5 -191.5t-34 -234.5z" />
<glyph unicode="P" horiz-adv-x="1171" d="M145 0v57l115 23q2 2 12.5 27.5t10.5 64.5v989q0 18 -4.5 34.5t-8.5 29.5q-6 14 -10 28l-115 21v57h492q98 0 187 -15.5t157 -53t107.5 -102t39.5 -163.5q0 -106 -43 -179t-115.5 -119t-165.5 -66.5t-192 -20.5q-18 23 -26 41q-4 8 -4 17q70 8 127 23.5t98 50t63.5 93 t22.5 154.5q0 111 -64.5 184.5t-193.5 73.5h-121v-1077q0 -39 10 -66q6 -14 13 -26l116 -23v-57h-508z" />
<glyph unicode="Q" horiz-adv-x="1536" d="M59 670q0 154 59.5 280.5t159 218t231.5 140.5t277 49q141 0 264.5 -46t213.5 -133t141 -211t51 -278q0 -143 -47 -259t-125 -203t-181.5 -144t-215.5 -84q41 -10 79 -29.5t72 -40.5q66 -39 140.5 -72.5t162.5 -33.5q45 0 136 18q0 -10 -2 -18t-5.5 -17.5t-7.5 -15.5 q-37 -16 -82 -29q-39 -10 -90 -19t-112 -9q-84 0 -160 19.5t-145.5 53t-136 79.5t-132.5 98q-104 16 -202.5 70.5t-174 141.5t-122 206.5t-46.5 267.5zM319 672q0 -92 27 -199.5t79 -198t131 -151t183 -60.5q86 0 167 41t143.5 121t100.5 198t38 269q0 113 -27.5 217.5 t-83 185.5t-136.5 129t-187 48q-90 0 -169 -46t-138.5 -128t-93.5 -191.5t-34 -234.5z" />
<glyph unicode="R" horiz-adv-x="1294" d="M145 0v57l115 23q2 2 12.5 27.5t10.5 64.5v989q0 18 -4.5 34.5t-8.5 29.5q-6 14 -10 28l-115 21v57h492q111 0 201 -17.5t154.5 -56t100 -102t35.5 -158.5q0 -90 -39.5 -150.5t-94 -97t-107.5 -54t-80 -23.5q51 -18 90 -56t69.5 -86.5t54 -103.5t46.5 -109 q18 -47 38.5 -93t45.5 -83t53.5 -60.5t61.5 -23.5l-21 -57h-209q-61 0 -100 47t-66.5 116.5t-49 152.5t-48.5 153t-63.5 117t-92.5 47l-34 67q57 4 113.5 22.5t100.5 53.5t70.5 88.5t26.5 126.5q0 55 -19.5 102.5t-54.5 82t-87 55t-116 20.5h-102v-1079q0 -39 10 -66 q6 -14 13 -26l116 -23v-57h-508z" />
<glyph unicode="S" horiz-adv-x="974" d="M86 1001q0 84 41 150t105.5 112t145.5 69.5t163 23.5q78 0 134 -11.5t93 -25.5q43 -16 72 -37l-1 -32q-1 -31 -2 -72t-1 -81t2 -59q-23 -6 -41.5 -5t-30.5 5q-14 4 -27 13q0 39 -10 77.5t-35.5 70.5t-72 51.5t-117.5 19.5q-76 0 -132.5 -48t-56.5 -157q0 -35 19.5 -69.5 t52.5 -68.5t75 -66t87 -62q61 -41 124.5 -88t114 -102.5t83 -120t32.5 -140.5q0 -84 -32.5 -152.5t-95 -117.5t-154 -76t-209.5 -27q-96 0 -155.5 10.5t-94.5 24.5q-39 16 -60 37q0 55 2 107q0 41 1 83t-3 58q23 2 41.5 0t28.5 -6q12 -4 21 -10q2 -25 12 -63t35.5 -74 t69.5 -60.5t116 -24.5q106 0 168.5 68t62.5 172q0 57 -23.5 104.5t-62.5 88t-89 76.5t-101 73q-55 37 -108.5 77t-94.5 84t-66.5 94t-25.5 107z" />
<glyph unicode="T" horiz-adv-x="1349" d="M55 1108q4 33 11 70q4 31 8 70.5t4 82.5h1194q0 -41 3 -81t7 -70q6 -37 12 -70q-39 -14 -65 -20q-14 -4 -25 -5q-2 20 -6 39q-4 16 -8 33t-14 27q-29 41 -79 53t-112 12h-194v-1079q0 -39 10 -66q6 -14 12 -26l119 -23v-55h-510v55h-2t6 2t32.5 7.5t73.5 13.5 q2 2 12.5 27.5t10.5 64.5v1079h-195q-63 0 -110 -12t-76 -53q-10 -10 -13 -26.5t-7 -33.5q-4 -18 -4 -39q-12 0 -29 5q-14 4 -31.5 7t-34.5 11z" />
<glyph unicode="U" horiz-adv-x="1466" d="M61 1278v53h508v-53l-118 -27q-6 -12 -11 -26q-10 -27 -10 -66v-649q0 -119 25.5 -201t70.5 -132t105.5 -71.5t128.5 -21.5q63 0 128.5 18.5t119 65.5t87 130t33.5 212v649q0 37 -13 59.5t-34.5 34t-50.5 15.5t-59 6v57h440v-57q-29 0 -59.5 -4t-57 -16.5t-43 -35 t-16.5 -59.5v-680q0 -119 -27.5 -202.5t-71.5 -140t-101.5 -88.5t-118 -48t-117 -20.5t-101.5 -4.5q-29 0 -77 4.5t-103 20.5t-112.5 48t-103.5 88.5t-75.5 139t-29.5 203.5v680q0 18 -4.5 34.5t-8.5 31.5q-6 14 -10 28z" />
<glyph unicode="V" horiz-adv-x="1454" d="M33 1274v57h542v-55q-47 0 -81 -12q-30 -10 -48 -34q-10 -13 -9 -32q0 -16 7 -37q14 -41 34 -95t53.5 -152.5t90 -257t146.5 -410.5q10 27 36.5 97.5t60.5 162.5t72 195.5t71.5 196.5t58.5 164t35 99q12 37 3 57.5t-30.5 33t-51.5 16.5t-56 6v57h444v-57q-29 4 -57 -6 q-25 -10 -53.5 -35t-53.5 -76q-131 -276 -244.5 -573t-224.5 -578q-14 -8 -35 -16q-39 -14 -94 -15l-444 1160q-14 37 -26.5 60.5t-30 38.5t-44 24.5t-71.5 15.5z" />
<glyph unicode="W" horiz-adv-x="2080" d="M117 1276v57h542v-55q-45 -2 -75 -14q-30 -10 -48 -34q-12 -16 -12 -39q0 -13 4 -28q6 -35 17.5 -89t38 -155.5t72.5 -262t124 -408.5q12 29 41 106.5t66 178t77 211t74 204.5q-31 84 -52 135.5t-39.5 84t-37 53t-45.5 43.5l43 69h426v-55q-41 0 -69 -12q-24 -10 -44 -34 q-15 -18 -15 -49q0 -9 1 -20q4 -37 22.5 -92t54.5 -153.5t92.5 -256t137.5 -401.5q10 27 32 96.5t47.5 160.5t54 192.5t54 193.5t45 162t30.5 98q12 37 4 57.5t-28.5 33t-49.5 16.5t-55 6v57h436v-57q-11 1 -22 1q-22 0 -42 -5q-27 -8 -53.5 -34t-44.5 -79 q-29 -88 -51.5 -155.5t-45 -133t-47 -139.5t-57 -172t-78 -231t-106.5 -320q-14 -8 -35 -16q-39 -15 -94 -15q-111 283 -185.5 478.5t-123.5 330.5q-43 -98 -80 -191t-74 -187.5t-73.5 -193.5t-79.5 -206q-14 -8 -35 -16q-39 -14 -94 -15l-373 1160q-14 37 -26.5 60.5 t-30 38.5t-44 24.5t-71.5 15.5z" />
<glyph unicode="X" d="M45 0v59q45 2 92 15q39 10 83 33.5t79 66.5l365 459q-92 127 -192.5 263t-197.5 259q-41 53 -76.5 75.5t-64.5 33.5q-33 8 -59 6v61h530v-61q-18 -2 -37 -6q-33 -6 -65 -11q-2 2 1 -8t9 -28.5t15.5 -40t21.5 -39.5q39 -61 68.5 -106.5t55 -82.5t52.5 -73.5t61 -83.5 q35 43 83.5 106.5t95.5 122.5q53 68 110 141q21 26 21 44q0 11 -8 19q-20 22 -54 33q-41 10 -106 13v61h526v-59q-47 -4 -92 -17q-39 -10 -83 -33.5t-79 -64.5l-360 -442q96 -133 190 -271.5t195 -267.5q41 -53 76.5 -77.5t64.5 -32.5q33 -10 59 -5v-61h-530v61q18 2 37 7 q16 4 32.5 5t32.5 5q2 -4 -1 7t-9 29.5t-15 40t-22 40.5q-41 61 -68.5 108t-52 87t-50 79t-60.5 86q-35 -45 -85 -109.5t-97 -126.5q-53 -72 -113 -149q-14 -23 -14 -38t7 -27.5t22.5 -20.5t31.5 -12q39 -10 100 -11v-61h-526z" />
<glyph unicode="Y" horiz-adv-x="1312" d="M41 1270v61h500v-61q2 0 -15.5 -2t-40.5 -6q-25 -4 -59 -9q37 -76 84 -161q41 -74 94 -170.5t115 -200.5q55 115 106.5 219t106.5 221q12 29 11 46.5t-7 27.5q-8 10 -21 16q-16 4 -35.5 6.5t-39.5 6.5q-23 4 -47 6v61h479v-61q-27 0 -53.5 -2t-53 -13.5t-50 -33 t-44.5 -62.5q-68 -129 -116 -218t-79.5 -151.5t-51 -102.5t-29 -69.5t-12.5 -55t-3 -56.5v-334q0 -39 11 -66q4 -14 10 -26l119 -19v-61h-508v61l114 19q2 4 11.5 28.5t9.5 63.5v393q-2 4 -25.5 53.5t-64.5 129t-98.5 185t-125.5 222.5q-14 23 -29.5 41t-27.5 31 q-16 14 -31 24q-12 2 -28 4q-14 2 -34 5.5t-42 9.5z" />
<glyph unicode="Z" horiz-adv-x="1044" d="M45 117l645 1132l-381 -10q-47 0 -76.5 -14.5t-45 -38t-20.5 -52t-5 -55.5q-14 2 -29 4q-31 4 -63 13q4 14 4 51t-2 76t-5.5 71.5t-3.5 36.5h781q45 -66 67 -98q12 -20 19 -33l-654 -1120l443 10q96 0 136 51.5t40 116.5l94 10q-4 -25 -5 -58.5t-3 -70.5t-2 -72.5v-66.5 h-846q-25 27 -41 48.5t-26 37.5q-12 18 -21 31z" />
<glyph unicode="[" horiz-adv-x="458" d="M96 -264v1743h330v-86l-172 -33v-1505l172 -33v-86h-330z" />
<glyph unicode="\" horiz-adv-x="493" d="M33 1331h110l332 -1331h-110z" />
<glyph unicode="]" horiz-adv-x="456" d="M33 -178l170 12v1546l-170 13v86h321v-1743h-321v86z" />
<glyph unicode="^" horiz-adv-x="983" d="M29 713l442 669h39l442 -669h-127l-336 514l-333 -514h-127z" />
<glyph unicode="_" horiz-adv-x="1024" d="M-16 -328h1056v-112h-1056v112z" />
<glyph unicode="`" horiz-adv-x="278" d="M8 1356l121 71l172 -342l-51 -24q-43 41 -86 93t-78 97q-41 53 -78 105z" />
<glyph unicode="a" horiz-adv-x="882" d="M51 240q0 61 18.5 110t71.5 72q59 23 128 41t126 29q68 12 133 22v281q0 61 -39 61q-37 0 -72.5 -15.5t-70.5 -39t-69.5 -53t-67.5 -58.5q-25 -2 -50.5 13.5t-39 40t-9 55t37 59.5t101 52.5t183.5 33.5q14 2 33.5 2h30.5q49 0 95 -11t82 -42t57.5 -86t21.5 -145v-490 q0 -27 12 -56.5t65 -82.5q0 -2 -6 -10q-4 -6 -14 -16.5t-27 -29.5q-51 4 -111.5 21.5t-113.5 44.5q-59 -27 -116.5 -40t-104.5 -19q-47 -7 -93 -7h-12q-43 0 -76.5 24t-56 60.5t-35 84t-12.5 94.5zM256 252q0 -86 30.5 -132t100.5 -46q35 0 75 9t66 21v338q-16 0 -42.5 -4 t-56.5 -10t-60.5 -16.5t-53.5 -22.5q-39 -20 -49 -56t-10 -81z" />
<glyph unicode="b" horiz-adv-x="1073" d="M12 1320.5v18.5t2 17q20 4 58 12q33 8 85 21.5t132 40.5q16 -18 30 -37q12 -16 23.5 -30.5t15.5 -23.5v-520q25 14 60 34.5t71.5 41t72.5 35t61 14.5q37 0 94 -20.5t109.5 -70.5t90 -137t37.5 -220q0 -90 -19.5 -182.5t-64.5 -167t-119.5 -122t-187.5 -47.5 q-18 0 -57 10.5t-80 24.5q-47 16 -102 37q-25 -16 -51.5 -28.5t-49.5 -22.5q-25 -10 -49 -21q-14 6 -24.5 12.5t-18.5 10.5q-8 6 -14 10q12 53 16 99q2 25 2 47v1091q0 10 -3 19.5t-7 17.5l-8 16h-101q-4 10 -4 20.5zM358 233q0 -47 21.5 -78.5t51.5 -50t58.5 -26.5t40.5 -8 q45 0 81 36.5t59.5 95t36 130t12.5 143.5q0 63 -9.5 123.5t-28.5 108t-48 76t-68 28.5q-41 0 -80 -13.5t-69 -28.5t-46 -27q-13 -10 -13 -11h1v-498z" />
<glyph unicode="c" horiz-adv-x="888" d="M43 479q0 86 25.5 163t76 138.5t123 102.5t166.5 53q34 5 65 5q52 -1 99 -13q76 -20 132 -59.5t88 -92.5t32 -108q0 -41 -41 -57.5t-127 -16.5q-18 55 -44 104.5t-56 85.5q-31 38 -67 58q-30 17 -62 17q-6 0 -13 -1q-47 -4 -77.5 -34.5t-51 -80t-29 -113t-8.5 -134.5 q0 -96 26 -172t67 -129.5t91 -81t99 -27.5q29 0 71 10t79 23q43 14 90 35l12 -25q10 -20 14 -37q-59 -33 -127 -57q-59 -23 -133 -40.5t-153 -17.5q-74 0 -140.5 43t-117 114t-80 161t-29.5 184z" />
<glyph unicode="d" horiz-adv-x="1054" d="M76 426q0 90 19.5 182t64.5 167t119.5 122t185.5 47q20 0 55 -11t70 -24q39 -16 82 -35v373q0 16 -8 37q-4 8 -9 16h-102q-4 12 -5 21.5t-1 17.5t2 17q23 4 59 12q33 8 85 21.5t132 40.5q16 -20 31 -37q12 -16 23.5 -29.5t15.5 -24.5v-1181q0 -37 13.5 -58.5t29.5 -33.5 q20 -14 45 -19q-4 -12 -10 -22q-4 -10 -10.5 -22.5t-16.5 -25.5q-47 6 -94 15q-41 8 -87 19.5t-85 27.5q-2 0 -4 8q-4 12 -4 45q-27 -14 -64 -33.5t-73.5 -38t-70.5 -31t-56 -12.5q-37 0 -94.5 20.5t-109.5 71t-90 137.5t-38 220zM311 446q0 -63 9.5 -124.5t28 -108.5 t47 -77t67.5 -30q41 0 78 12.5t65 28.5q35 18 64 41v521q0 35 -19.5 60.5t-46 42.5t-56.5 25.5t-50 8.5q-47 0 -82 -36t-57.5 -93.5t-35 -129t-12.5 -141.5z" />
<glyph unicode="e" horiz-adv-x="923" d="M47 430q-1 19 -1 38q0 73 18 141q24 85 75 152.5t126 114t171 62.5q29 3 56 3q148 0 244 -83q114 -98 149 -297q-16 -18 -31 -37q-12 -16 -26.5 -33.5t-26.5 -31.5h-525q0 -72 21.5 -137.5t59.5 -116.5t89.5 -83t106.5 -34h9q26 0 62 10q42 12 81 23q45 14 92 33 q6 -12 12 -23q10 -23 14 -39q-59 -35 -127 -59q-57 -23 -132 -40.5t-152 -17.5q-66 0 -130.5 42t-116.5 109t-85 146.5t-33 157.5zM274 524q98 4 181.5 7.5t179.5 7.5q27 0 27 53q0 35 -12.5 84t-37.5 92q-26 42 -66 70q-33 23 -74 23q-9 0 -19 -1q-55 -6 -90 -43t-54.5 -87 t-27 -105.5t-7.5 -100.5z" />
<glyph unicode="f" horiz-adv-x="667" d="M70 0v59l32 4q14 2 31 4.5t33 4.5q4 8 12 34.5t8 59.5v672h-116l6 57q20 0 41 2q37 4 69 16v201q0 47 39 101.5t92.5 101.5t107.5 78.5t87 31.5q51 0 114.5 -15t110.5 -39.5t65 -58.5q6 -11 6 -22q0 -24 -26 -49q-18 -18 -45.5 -27.5t-53.5 -12.5t-46.5 0t-26.5 11 q-35 41 -64.5 75t-68.5 34q-29 0 -49 -36t-20 -107v-260h223q2 -6 2 -15v-18q-10 -12 -18.5 -21.5t-14.5 -15.5q-8 -8 -14 -12h-178v-672q0 -16 2 -32.5t6 -31.5q4 -16 10 -30q18 -4 35.5 -5t34.5 -4l32 -4v-59h-458z" />
<glyph unicode="g" horiz-adv-x="968" d="M37 580q-2 19 -2 38q0 43 13 86q18 60 60 109t107.5 84t149.5 47q16 2 32.5 3t36.5 1q127 0 217 -57q41 2 87 12t85 21q45 12 90 26q0 -66 -16 -103.5t-59 -53.5q-18 6 -46 13t-53 11q16 -18 29 -41q10 -20 19.5 -49t9.5 -65q0 -72 -30 -134.5t-82 -108.5t-127 -75 t-163 -31q-10 -10 -17 -26.5t-8 -35t8 -33.5t34 -23q68 -23 156.5 -42.5t167.5 -41t134.5 -45t57.5 -52.5q1 -9 1 -19q0 -63 -23 -129q-27 -75 -87.5 -138.5t-156 -103.5t-230.5 -40q-92 0 -162.5 20.5t-118 55.5t-71 80t-23.5 94q0 66 50.5 123t128.5 94q-29 25 -56.5 70 t-27.5 104q27 4 55 17q23 10 51.5 28.5t52.5 46.5q-104 29 -182 99.5t-92 163.5zM245 690q-1 -18 -1 -36q0 -25 2 -48q10 -88 50 -145.5t132 -57.5q57 0 91 25t49.5 63.5t17.5 82.5q1 22 1 43t-1 42q-2 33 -11.5 73t-31 74t-57.5 52q-22 12 -53 12q-18 0 -40 -4 q-51 -10 -81.5 -35.5t-47 -61.5t-19.5 -79zM262 -127q0 -41 13.5 -80t41 -69.5t70.5 -49t100 -18.5t98.5 20.5t68 55.5t40 83t15.5 101q0 8 -17.5 18.5t-45.5 19.5t-64.5 18.5t-73.5 17.5q-88 18 -203 37q-23 -23 -33 -65t-10 -89z" />
<glyph unicode="h" horiz-adv-x="1179" d="M61 1341q0 8 2 17q20 2 58 10q33 6 85 19.5t132 39.5q14 -18 29 -34q10 -14 22 -28.5t19 -25.5v-540q33 18 78.5 43.5t93.5 49.5q49 22 94 38q40 14 67 14h7q78 -18 124 -53t69.5 -85t30.5 -116.5t7 -152.5v-371q0 -33 10 -64q4 -16 10 -30q16 0 34 -1t34 -3q18 -2 39 -5 v-63h-430v59q8 2 18 4q8 2 19.5 4.5t23.5 4.5q4 8 11.5 34.5t7.5 59.5v201q0 117 -3 196.5t-12.5 129.5t-30 72.5t-53.5 22.5q-61 0 -125.5 -24.5t-123.5 -50.5v-547q0 -33 10 -64q6 -16 12 -30q12 -2 26.5 -3t24.5 -3q12 -2 25 -7v-59h-434v57q12 2 28 6q14 2 30.5 4.5 t35.5 4.5q4 8 12 34.5t8 59.5v1081q0 10 -3 19.5t-7 17.5l-8 16h-102q-4 12 -4.5 22.5t-0.5 18.5z" />
<glyph unicode="i" horiz-adv-x="598" d="M61 839.5q0 -10.5 5 -22.5h102q4 -6 8 -14t7 -17.5t3 -19.5v-600q0 -33 -8 -59.5t-12 -34.5l-94 -15v-57h458v57l-102 15q-4 6 -12 32.5t-8 61.5v690q-4 8 -15.5 23.5t-23.5 29.5q-14 16 -31 35q-158 -47 -217 -59q-37 -8 -58 -11q-2 -8 -2 -16v-18.5zM170 1231 q0 51 38 88t93 37q53 0 92 -37t39 -88q0 -53 -39 -89t-92 -36q-55 0 -93 36t-38 89z" />
<glyph unicode="j" horiz-adv-x="454" d="M25 839.5q0 -10.5 4 -22.5h102q4 -6 8 -14t7.5 -17.5t3.5 -19.5v-852q0 -29 -11.5 -61.5t-28 -65.5t-36 -59.5t-35.5 -42.5q8 -12 16 -23q6 -10 11.5 -17t7.5 -10q39 18 92 47t102 64t83 75q32 38 32 76q0 32 -7 100q-5 48 -5 101v758q-4 8 -15.5 23.5t-23.5 29.5 q-14 16 -31 35q-158 -47 -217 -59q-37 -8 -57 -11q-2 -8 -2 -16v-18.5zM133 1231q0 51 38 88t93 37q53 0 92 -37t39 -88q0 -53 -39 -89t-92 -36q-55 0 -93 36t-38 89z" />
<glyph unicode="k" horiz-adv-x="1163" d="M61 1341q0 8 2 17q20 2 58 10q59 12 217 59q16 -18 31 -34q12 -14 23 -29.5t16 -24.5v-1173q0 -35 8 -61.5t12 -32.5q14 -2 30.5 -4t33.5 -5q18 -4 36 -6v-57h-458v57q16 2 34 6q16 2 32 4.5t30 4.5q4 8 12 34.5t8 59.5v1083q0 10 -3 19.5t-7 17.5t-8 14h-102 q-4 12 -4.5 22.5t-0.5 18.5zM494 445.5v15.5q0 8 2 14q78 74 129 139.5t82 114.5q37 57 55 107l-19 6q-10 4 -24 6t-37 2q-10 0 -17.5 -1t-15.5 -1q-8 -2 -16 -2q-4 10 -3 24.5t1 24.5q0 12 2 25h428q2 -10 2 -19.5v-19.5t-2 -23q-25 0 -49 -8q-23 -6 -47.5 -19.5 t-46.5 -35.5q-63 -66 -115.5 -122.5t-89.5 -97.5q-43 -49 -78 -90q72 -76 131 -147.5t100 -130.5q49 -68 88 -131q70 -6 121 -19v-57h-338q-14 53 -45 121q-27 57 -74 136t-122 171q-2 8 -2 17.5z" />
<glyph unicode="l" horiz-adv-x="595" d="M61 1341q0 8 2 17q20 2 58 10q59 12 217 59q16 -18 31 -34q12 -14 23 -29.5t16 -24.5v-1173q0 -35 8 -61.5t12 -32.5q14 -2 30.5 -4t33.5 -5q18 -4 36 -6v-57h-458v57q16 2 34 6q16 2 32 4.5t30 4.5q4 8 12 34.5t8 59.5v1083q0 10 -3 19.5t-7 17.5t-8 14h-102 q-4 12 -4.5 22.5t-0.5 18.5z" />
<glyph unicode="m" horiz-adv-x="1708" d="M41 850q0 8 2 16q31 8 76 19q39 10 97 25.5t138 41.5q12 -20 23 -37q10 -16 17 -29.5t12 -23.5v-63q27 16 67.5 41.5t85.5 49.5t87 40q37 15 66 14h7q86 -18 138 -66.5t75 -99.5q31 20 76 49t92 55q47 28 91 46q40 17 67 16h6q78 -18 124 -58t70.5 -93.5t31.5 -119 t7 -136.5v-363q0 -35 8 -61.5t13 -32.5q29 -4 59.5 -9t62.5 -14v-57h-471v63q14 2 29 7q27 6 55 10q4 8 12.5 34.5t8.5 59.5v193q0 117 -3 196.5t-13.5 129.5t-30 72.5t-51.5 22.5q-12 0 -29 -2t-37 -8t-45 -16t-48.5 -22.5t-43 -23.5t-27.5 -18q2 -18 3 -43.5t2 -80 t1 -148.5v-252q0 -35 11 -65q4 -16 10 -29q27 -4 55 -10q16 -4 33 -7v-63h-438v63q14 2 30 7q27 6 56 10q4 8 12 34.5t8 59.5v193q0 117 -3 196.5t-13.5 129.5t-29.5 72.5t-52 22.5q-12 0 -28.5 -2t-37.5 -8q-25 -6 -54.5 -20.5t-54 -26.5t-40 -21.5t-10.5 -7.5v-528 q0 -33 10 -63q4 -16 10 -31q25 -4 53 -10q14 -4 29 -7v-63h-465v57q23 6 55.5 12.5t67.5 10.5q4 8 10 34.5t6 59.5v584q0 16 -8 37l-8 16h-119q-4 12 -5 21.5t-1 17.5z" />
<glyph unicode="n" horiz-adv-x="1179" d="M61 858q0 8 2 16q20 2 58 11q33 6 85 19.5t132 39.5q14 -18 29 -35q10 -14 22 -28.5t19 -24.5v-78q33 18 78.5 47t93.5 57q49 28 94 46q41 17 68 16h6q76 -14 121.5 -48t70.5 -85t32 -119.5t7 -154.5v-371q0 -33 10 -64q4 -16 10 -30q18 0 39 -1t37.5 -3t26.5 -4l10 -1 v-63h-436v63q8 0 18 3q8 2 19.5 3t23.5 3q4 8 11.5 34.5t7.5 59.5v201q0 117 -3 196.5t-12.5 129.5t-30 72.5t-53.5 22.5q-47 0 -115.5 -27.5t-133.5 -68.5v-526q0 -33 10 -64q6 -16 12 -30q14 -2 27.5 -3t23.5 -3q12 -2 25 -5v-61h-434v57q12 2 28 6q14 2 30.5 4.5 t35.5 4.5q4 8 12 34.5t8 59.5v598q0 10 -3 19.5t-7 17.5l-8 16h-102q-4 12 -4.5 22.5t-0.5 18.5z" />
<glyph unicode="o" horiz-adv-x="1089" d="M70 459q0 106 42 195t110.5 151.5t158.5 97.5t188 35q225 0 336 -125t111 -340q0 -121 -44 -213t-116 -154.5t-162 -95.5t-182 -33q-96 0 -177 33t-140.5 94.5t-92 150.5t-32.5 204zM299 457q0 -63 13.5 -134t44 -129.5t77.5 -97.5t115 -39q106 0 169.5 106.5t63.5 313.5 q0 76 -13 147.5t-43 125.5q-30 52 -77 82q-39 25 -94 25q-11 0 -23 -1q-113 -10 -173 -118.5t-60 -280.5z" />
<glyph unicode="p" horiz-adv-x="1087" d="M45 847.5v18.5t2 17q20 2 57 10q59 12 218 59q16 -20 30 -41q12 -18 23.5 -38.5t15.5 -43.5q27 14 62.5 34t72.5 38.5t71 30.5t56 12q37 0 94.5 -20.5t109.5 -70.5t90 -137t38 -220q0 -90 -19.5 -182.5t-64.5 -167t-119.5 -122t-185.5 -47.5q-20 0 -53 10.5t-66 23 t-58.5 22.5t-27.5 12v-278q0 -35 8.5 -62t12.5 -33q14 -2 30.5 -4t32.5 -4q18 -4 37 -6v-57h-459v57q16 2 35 6q16 2 31.5 4t30.5 4q4 8 12 35t8 60v1007q0 10 -3 19.5t-7 17.5t-8 14h-103q-4 12 -4 22.5zM391 205q2 -33 21.5 -57.5t46 -40t55.5 -23.5t49 -8q45 0 81 35.5 t58.5 93t35 128t12.5 142.5q0 63 -9.5 125t-28 109t-47 76.5t-67.5 29.5q-41 0 -78 -12t-65 -29q-35 -18 -64 -41v-528z" />
<glyph unicode="q" horiz-adv-x="1044" d="M63 426q0 90 19.5 182t65 167t120 122t187.5 47q61 0 129.5 -22.5t128 -52t105.5 -59.5t65 -44v-768v-55v-176q0 -35 8 -62t12 -33q14 -2 30.5 -4t33.5 -4q18 -4 37 -6v-57h-459v57q16 2 35 6q16 2 31.5 4t29.5 4q4 8 12.5 35t8.5 60v139v196q-25 -14 -61 -35.5 t-72.5 -41t-72.5 -34t-61 -14.5q-37 0 -94 20.5t-109.5 71t-90.5 137.5t-38 220zM299 446q0 -63 9 -123.5t28.5 -106.5t48.5 -73.5t68 -27.5q41 0 79.5 12t68.5 27.5t47 27.5q12 8 12 8.5t-1 -0.5v498q0 47 -21.5 79t-51 50.5t-58.5 26.5t-41 8q-47 0 -81.5 -37t-58 -95 t-36 -131t-12.5 -143z" />
<glyph unicode="r" horiz-adv-x="817" d="M61 858q0 8 2 16q20 2 58 11q59 12 217 59q16 -18 31 -35q12 -14 23 -29.5t16 -23.5v-117q37 51 94 109q16 16 37.5 32.5t44 28t47 15.5t47.5 -2q16 -4 32.5 -20.5t32.5 -33.5q18 -20 35 -43q-18 -47 -37.5 -77.5t-35.5 -51.5q-20 -23 -37 -37q-33 39 -58.5 58.5 t-53.5 18.5t-62.5 -23.5t-85.5 -67.5v-479q0 -35 8 -61.5t12 -32.5q14 -2 30.5 -4t33.5 -5q18 -4 36 -6v-57h-458v57q16 2 34 6q16 2 32 4.5t30 4.5q4 8 12 34.5t8 59.5v600q0 10 -3 19.5t-7 17.5t-8 14h-102q-4 12 -4.5 22.5t-0.5 18.5z" />
<glyph unicode="s" horiz-adv-x="774" d="M45 686q0 59 35 106.5t90 81t123.5 51t136.5 17.5q72 0 121 -15.5t80 -33.5q37 -23 57 -47q-14 -27 -24 -53q-10 -23 -17.5 -52.5t-5.5 -56.5q-18 0 -32.5 2t-24.5 6q-12 4 -21 8q0 29 -10 58.5t-30.5 53.5t-52.5 38t-75 14t-73.5 -17.5t-49 -44t-21.5 -58t9 -60.5 q16 -41 65.5 -70.5t102.5 -60.5q51 -29 104.5 -59.5t96.5 -68.5t70.5 -85t27.5 -104q0 -70 -35 -119t-90 -81t-124.5 -46.5t-139.5 -14.5t-123 14.5t-90 33.5q-43 23 -74 49q14 33 23 65q8 29 14 60.5t4 58.5q23 0 36 -3t24 -7q10 -4 18 -8q2 -20 8 -52t26.5 -61t60.5 -50.5 t110 -21.5q85 0 115 47q22 34 21 76q0 17 -3 35q-6 31 -19.5 52.5t-36 40t-54 37.5t-74.5 44q-41 23 -89.5 51.5t-90.5 64.5t-70.5 82t-28.5 103z" />
<glyph unicode="t" horiz-adv-x="647" d="M12 834l11 57q25 0 47 4q20 4 39.5 7t35.5 11l-12 197q0 2 22.5 17.5t51.5 35t54.5 37t33.5 21.5q23 -6 41 -18.5t33 -22.5v-260h229q2 -2 2 -9q0 -14 -4 -20q-4 -8 -15.5 -16.5t-21.5 -18.5q-12 -10 -27 -22h-163v-623q0 -63 27.5 -85t62.5 -22q20 0 44.5 4.5t47.5 10.5 q25 6 49 14l8 -72q-66 -25 -121 -43q-49 -16 -97 -29.5t-73 -13.5q-68 0 -119 45.5t-51 108.5l-2 705h-133z" />
<glyph unicode="u" horiz-adv-x="1024" d="M4 862v58h354q-4 -18 -8 -43q-4 -23 -6 -56t-2 -76v-192q0 -119 3 -203t14.5 -138t32 -78.5t54.5 -24.5q29 0 65 14t69 33q37 23 77 49v540q0 41 -7 73t-17 54q-10 27 -25 48h295q-6 -20 -12 -46q-10 -51 -10 -129v-598q0 -27 1 -42t10 -25t26.5 -19.5t52.5 -21.5 q0 -8 -4 -19q-6 -20 -29 -45q-41 0 -86 5q-39 4 -90 8t-105 14v104q-27 -14 -66.5 -38.5t-83.5 -47t-86 -36.5q-30 -10 -52 -11q-9 0 -17 2q-86 16 -134 54.5t-69.5 91.5t-25.5 120.5t-4 141.5v362q0 16 -3 32t-7 30q-6 16 -11 33z" />
<glyph unicode="v" horiz-adv-x="1140" d="M14 862v58h480v-62q-53 0 -67.5 -12t-10.5 -47q2 -25 12 -62t25.5 -80t33 -91t35.5 -93q41 -109 94 -227q10 25 26.5 63.5t36 85.5t40 98.5t41.5 102.5q47 117 100 252l-110 10v62h372v-60q-35 0 -58.5 -7t-40.5 -18.5t-28.5 -26.5t-21.5 -32q-12 -16 -33.5 -60 t-50.5 -103.5t-60.5 -130t-64.5 -140.5q-76 -166 -166 -365h-74l-377 863q-27 4 -51 8q-23 4 -44 7t-38 7z" />
<glyph unicode="w" horiz-adv-x="1710" d="M12 862v58h480v-62q-53 0 -67.5 -12t-10.5 -47q2 -25 12 -61t24.5 -79t31 -89t34.5 -91q39 -104 90 -221q53 141 88 244.5t56 173.5q23 80 34 135l181 72q6 -25 19 -64t29.5 -88t36 -103.5t37.5 -107.5q43 -127 97 -270q10 25 24.5 62.5t31.5 84.5t36.5 99.5t38.5 101.5 q43 117 90 250l-102 10v62h383v-60q-47 0 -78 -7t-49.5 -18.5t-28.5 -26.5t-17 -32l-331 -799h-95l-247 631l-217 -631h-101l-377 863q-27 4 -51 8q-23 4 -44 7t-38 7z" />
<glyph unicode="x" horiz-adv-x="1171" d="M68 0v53q29 4 53 10q23 4 46 8.5t40 6.5q20 12 59 53q35 35 91.5 103.5t146.5 189.5q-45 68 -100.5 141.5t-104.5 134.5q-57 72 -119 144q-18 2 -37.5 6t-36.5 8q-20 6 -38 10v52h366q6 -35 29 -86q18 -43 54 -109t99 -156q49 66 84 121q14 25 27.5 49.5t21 46t8.5 40 t-7 28.5q-6 6 -15.5 9t-19.5 5t-21 0v52h410v-52q-29 -4 -55 -10q-23 -4 -47.5 -8t-40.5 -6q-20 -12 -58 -53q-33 -35 -89 -103.5t-146 -187.5q59 -86 116 -166q49 -68 104.5 -139.5t96.5 -116.5q14 -2 34.5 -6t39.5 -9q23 -6 45 -12v-51h-371q2 0 -42 92t-136 258 q-45 -63 -78 -119q-29 -47 -46 -94q-9 -26 -9 -44q0 -15 6 -25q8 -12 29 -17q8 -2 20 0v-51h-409z" />
<glyph unicode="y" horiz-adv-x="1136" d="M23 862v58h469v-62q-53 0 -67.5 -12t-10.5 -47q6 -49 42 -131t76 -162q49 -94 109 -197q45 92 79 188.5t58 174.5q27 92 49 176l-110 10v62h393v-60q-33 0 -53.5 -5t-42 -27.5t-47 -68.5t-65.5 -130t-99.5 -211t-147.5 -312q-78 -164 -142 -253t-113.5 -132t-83 -51 t-50.5 -8q-39 0 -62.5 21.5t-35.5 48.5q-16 31 -23 71q14 0 62.5 13.5t110 49.5t122 97.5t99.5 159.5l-383 717q-27 4 -52 8q-23 4 -44 7t-37 7z" />
<glyph unicode="z" horiz-adv-x="800" d="M27 117l505 723l-190 -6q-70 -4 -107.5 -37t-37.5 -84q-8 -4 -19 -6q-10 -2 -24.5 -1t-36.5 7q2 25 2 58.5v66.5v82h538q23 -23 39.5 -45.5t28.5 -43.5q14 -23 25 -45l-502 -704l246 6q70 2 116.5 45t46.5 94q14 4 28.5 5t25.5 1q12 0 24 -2q-2 -27 -6 -65.5t-10 -75.5 q-8 -43 -17 -90h-600q-23 25 -36 46.5t-23 37.5q-10 18 -16 33z" />
<glyph unicode="{" horiz-adv-x="491" d="M41 606q80 49 114.5 141.5t34.5 186.5v207q0 53 -1 107.5t4.5 99.5t20.5 75.5t50 36.5q49 10 97.5 19.5t87.5 17.5q45 8 88 19l-11 -84q-66 -12 -100.5 -37t-51 -62t-19.5 -87t-3 -113v-189q0 -117 -31.5 -183.5t-70.5 -101.5q-45 -41 -103 -53q57 -14 103 -53 q39 -35 70.5 -101.5t31.5 -183.5v-186q0 -63 3 -113.5t19.5 -87.5t51.5 -61.5t100 -36.5l11 -84q-43 10 -88 18q-39 8 -87.5 17.5t-97.5 19.5q-35 6 -50 37t-20.5 76t-4.5 98t1 107v207q0 47 -8 95t-26.5 92t-47 79.5t-67.5 60.5z" />
<glyph unicode="|" horiz-adv-x="290" d="M84 -164v1495h123v-1495h-123z" />
<glyph unicode="}" horiz-adv-x="491" d="M-45 -301l10 84q66 12 100.5 36.5t51 61.5t19.5 87t3 114v188q0 117 29 183.5t63 101.5q39 39 93 53q-53 12 -93 54q-35 35 -63.5 101t-28.5 183v187q0 63 -3 113t-19.5 87t-51 61.5t-100.5 37.5l-10 84q41 -10 86 -19q39 -8 88 -17.5t98 -19.5q35 -6 50.5 -36.5 t20.5 -75.5t4 -99.5t-1 -105.5v-207q0 -47 8 -95t26.5 -92t46.5 -80t69 -61q-80 -49 -115 -141t-35 -186v-207q0 -53 1 -107.5t-4 -99.5t-20.5 -76t-50.5 -37q-49 -10 -98 -19t-88 -18q-45 -8 -86 -18z" />
<glyph unicode="~" horiz-adv-x="1155" d="M66 453q16 61 53 110q33 41 93 76t163 35q74 0 130 -29t105 -62.5t97.5 -61t105.5 -27.5q33 0 66.5 15t62.5 40.5t49.5 57.5t28.5 65h41l45 -58q-12 -61 -49 -110q-33 -41 -94.5 -76t-169.5 -35q-76 0 -132.5 28t-103.5 61.5t-90 62t-92 28.5q-41 0 -77 -17t-65.5 -43 t-51 -57.5t-34.5 -60.5h-41z" />
<glyph unicode="&#xa1;" horiz-adv-x="520" d="M123 -344q-4 -33 8 -52.5t33.5 -28.5t51.5 -9t60 8q51 12 81 50t28 73l-70 885q-23 -4 -39 -7.5t-26 -7.5q-12 -4 -21 -6zM145 813q0 47 34 86t87 39h10q53 0 87 -39t34 -86q0 -49 -30.5 -89t-90.5 -40h-10q-59 0 -90 40t-31 89z" />
<glyph unicode="&#xa2;" horiz-adv-x="901" d="M43 479q0 86 25.5 163t76 138.5t123 102.5t166.5 53q113 14 207 -21l27 62h96l-43 -103q59 -41 94 -95t35 -111q0 -41 -41 -57.5t-127 -16.5q-10 25 -19.5 48.5t-19.5 45.5l-227 -547q33 -29 69.5 -42t71.5 -13q29 0 71 10t79 23q43 14 90 35l12 -25q10 -20 14 -37 q-59 -33 -127 -57q-59 -23 -133 -40.5t-153 -17.5q-35 0 -60 9l-31 -74h-96l45 108q-49 31 -90 80.5t-71.5 109.5t-47 129t-16.5 140zM274 496q0 -86 20.5 -157t55.5 -122l236 563q-33 39 -69 60.5t-77 17.5q-47 -4 -77.5 -34.5t-51 -80t-29 -112.5t-8.5 -135z" />
<glyph unicode="&#xa3;" horiz-adv-x="1339" d="M-2 6l55 55q49 47 98.5 94.5t89.5 114t65.5 163.5t25.5 245h-158q2 12 3 23.5t5 19.5q2 8 6 18l140 21q0 326 121.5 492.5t365.5 166.5q88 0 149.5 -32.5t90 -77.5t23.5 -93.5t-50 -76.5q-29 -16 -53.5 -21.5t-45 -4.5t-31.5 7t-11 10q-4 78 -33 133.5t-94 55.5 q-74 0 -117 -42t-65.5 -116t-28.5 -176t-6 -221h391v-10q0 -8 -4 -17q-10 -10 -23.5 -19t-25.5 -20q-14 -10 -31 -20h-305q0 -119 -25.5 -205t-61.5 -147.5t-76 -103.5t-71 -68q14 2 44 10t75 14t105.5 7t134.5 -9q92 -14 175 -42t146.5 -42t102.5 -2t45 78q6 61 -25 90 t-70 39q-45 10 -104 6q-12 16 -18 35q-4 16 -4 34.5t16 41.5q16 25 37.5 37t40.5 16q23 6 43 4q51 0 93 -19.5t69.5 -53t43 -78t15.5 -95.5q0 -74 -23.5 -124t-66.5 -80.5t-102.5 -44t-131.5 -13.5q-45 0 -92 4t-98 13q-29 4 -59.5 10t-65.5 12q-70 14 -143.5 26.5 t-141.5 12.5q-66 0 -137.5 -19.5t-122.5 -66.5z" />
<glyph unicode="&#xa4;" horiz-adv-x="1163" d="M113 870l98 86l156 -204q82 61 202 61q117 0 203 -63q35 49 78 105t78 101l96 -86q-31 -31 -63 -61q-29 -27 -63 -56.5t-69 -54.5q37 -45 59.5 -100.5t22.5 -112.5q0 -59 -23.5 -116.5t-58.5 -98.5q35 -27 72 -56.5t66 -55.5q35 -31 63 -62l-102 -88l-158 209 q-84 -59 -201 -59q-115 0 -200 57q-37 -47 -78 -103.5t-78 -103.5l-94 88q29 31 61 62q29 27 62.5 56.5t68.5 53.5q-41 43 -63.5 100.5t-22.5 116.5t23.5 113.5t62.5 101.5q-37 27 -72.5 55.5t-64.5 55.5q-33 29 -61 59zM365 485q0 -51 16 -95t44 -76.5t64.5 -51t79.5 -18.5 q41 0 79 18.5t65.5 51t44 76.5t16.5 95q0 49 -16.5 93.5t-44 77t-65.5 51t-79 18.5q-43 0 -79.5 -18.5t-64.5 -51t-44 -76.5t-16 -94z" />
<glyph unicode="&#xa5;" horiz-adv-x="1312" d="M61 1282v49h498v-49q-29 -4 -65.5 -11t-67.5 -11q2 -6 16.5 -34t36 -68t48 -89t53.5 -100q63 -119 143 -267l229 459q23 45 1.5 70.5t-58.5 36.5q-43 12 -104 14v49h460v-49q-16 0 -42.5 -2t-58.5 -13.5t-62.5 -35t-53.5 -68.5q-94 -188 -145 -289.5t-76 -149.5 t-30 -58.5t-5 -12.5h252v-86h-268v-205h268v-86h-268v-106q0 -39 10 -70q6 -16 12 -28q31 -4 68 -10.5t66 -12.5v-49h-508v49q29 6 66.5 12.5t66.5 10.5q6 12 12 28q4 14 8 32t4 38v106h-258v86h258v205h-258v86h230l-269 506q-23 29 -41 47.5t-32 30.5q-16 14 -29 23l-45 9 t-62 13z" />
<glyph unicode="&#xa6;" horiz-adv-x="290" d="M84 -164v662h123v-662h-123zM84 668v663h123v-663h-123z" />
<glyph unicode="&#xa7;" horiz-adv-x="864" d="M72 678q0 74 36.5 118t81.5 66q53 27 119 37q-66 16 -119 49q-45 29 -81.5 77t-36.5 126q0 59 26.5 107.5t75.5 83t116.5 53t151.5 18.5q80 0 136.5 -21.5t93.5 -54t54 -69.5t17 -70q-2 -10 -10 -18q-6 -8 -18.5 -17.5t-30.5 -19.5q-25 -12 -49.5 -16.5t-42.5 -6.5 q-23 -2 -41 2q0 59 -16 107q-14 41 -44 73.5t-83 32.5q-45 0 -74 -14t-46.5 -34.5t-23.5 -42t-6 -34.5q0 -47 39 -87t97.5 -78.5t126 -78.5t126 -83t97 -92.5t38.5 -108.5q0 -76 -32.5 -118t-73.5 -64q-48 -25 -107 -35q35 -12 73 -31.5t68.5 -50.5t51 -73t20.5 -101 q0 -117 -101 -184.5t-269 -67.5q-78 0 -134.5 20.5t-93.5 51t-54 66.5t-17 69q2 10 10 18q6 8 17.5 17.5t31.5 19.5q25 10 48.5 15.5t41.5 7.5q23 2 41 -2q2 -59 19 -105q14 -39 42.5 -70.5t81.5 -31.5q45 0 75 13t47.5 31.5t23.5 39t6 35.5q0 43 -39 83.5t-97.5 80.5 t-127 80t-126.5 84t-97 92.5t-39 105.5zM230.5 744.5q-1.5 -27.5 13 -56.5t41 -57.5t65.5 -52.5q37 -25 77 -38.5t76 -15.5t63.5 7.5t43.5 31.5q33 45 3.5 108.5t-107.5 110.5q-76 49 -150.5 52.5t-107.5 -39.5q-16 -23 -17.5 -50.5z" />
<glyph unicode="&#xa8;" horiz-adv-x="655" d="M35 1251q0 14 5 31.5t15.5 34t28.5 28t47 11.5h8q27 0 46.5 -11.5t29.5 -28t15.5 -33.5t5.5 -32q0 -14 -5.5 -31.5t-15.5 -34t-29.5 -27.5t-46.5 -11h-8q-29 0 -47 11t-28.5 27.5t-15.5 34t-5 31.5zM420 1251q0 14 5 31.5t15.5 34t28.5 28t47 11.5h6q29 0 47.5 -11.5 t29.5 -28t16.5 -33.5t5.5 -32q0 -14 -5.5 -31.5t-16.5 -34t-29.5 -27.5t-47.5 -11h-6q-29 0 -47 11t-28.5 27.5t-15.5 34t-5 31.5z" />
<glyph unicode="&#xa9;" horiz-adv-x="1191" d="M53 514q0 111 42 207t115 169t171 115t213 42q113 0 212 -42t172 -115t115 -169t42 -207t-42 -208t-115 -170t-172 -114.5t-212 -41.5q-115 0 -213 41.5t-171 114.5t-115 170t-42 208zM113 514q0 -98 40 -186t105.5 -152.5t152.5 -102.5t183 -38t184 38t154.5 102.5 t105.5 152.5t39 186t-40 185t-105.5 153t-153.5 103.5t-182 37.5q-96 0 -183 -37.5t-153.5 -103.5t-106.5 -153t-40 -185zM252 506q0 74 27.5 138.5t77 112.5t119 76.5t153.5 28.5q121 0 229 -67q-2 -23 -4 -45q-2 -20 -2 -46t4 -53q-10 -4 -20 -4t-21.5 2t-21.5 8 q-10 37 -33 66q-18 25 -51 45t-86 20q-102 0 -145.5 -78.5t-43.5 -203.5q0 -127 43 -206t146 -79q53 0 85.5 20.5t51.5 45.5q23 28 33 65q4 2 15 3t21 3q12 2 27 2q-4 -23 -4 -48t2 -48q2 -27 4 -51q-51 -29 -109.5 -45t-119.5 -16q-84 0 -153.5 27.5t-119 75.5t-77 112.5 t-27.5 138.5z" />
<glyph unicode="&#xaa;" horiz-adv-x="727" d="M54 691.5q-9 62.5 7.5 118.5t63.5 71q59 18 119.5 36.5t107.5 34.5q55 18 109 37v244q0 12 -6 22.5t-29 10.5q-76 0 -146.5 -39t-119.5 -78q-4 -4 -12.5 -4t-16.5 12q-4 8 -13 28.5t-9 43.5q0 14 19 31.5t52 35t78 30.5t96 17q43 4 88 1t82 -26.5t60.5 -71.5t23.5 -136 v-414q0 -10 1 -18t9.5 -20.5t24.5 -31t47 -48.5q-2 -8 -6 -17q-4 -8 -9 -16t-9 -15q-8 0 -17 2q-8 2 -18 3.5t-23 5.5q-33 8 -74.5 20t-72.5 31q-51 -23 -100.5 -35t-90.5 -18q-47 -8 -88 -9q-53 0 -86 49.5t-42 112zM206 736q1 -34 11 -63.5t29 -41.5q27 -16 58.5 -17.5 t61 7t54 19.5t41.5 17v230v31q-23 -6 -55 -17q-29 -10 -70 -25.5t-94 -37.5q-20 -10 -28.5 -39t-7.5 -63z" />
<glyph unicode="&#xab;" horiz-adv-x="714" d="M51 496q0 27 2 36q0 8 2 17l287 217l49 -43q-53 -55 -104 -117.5t-86 -109.5q35 -45 86 -108.5t104 -117.5l-49 -45l-287 217q-2 8 -2 17q-2 10 -2 37zM342 496q0 27 2 36q0 8 2 17l287 217l49 -43q-53 -55 -104.5 -117.5t-85.5 -109.5q35 -45 86 -108.5t104 -117.5 l-49 -45l-287 217q-2 8 -2 17q-2 10 -2 37z" />
<glyph unicode="&#xac;" horiz-adv-x="833" d="M49 444v107h721v-410h-106v303h-615z" />
<glyph unicode="&#xad;" horiz-adv-x="681" d="M61 391l13 103l528 55l-22 -156q-59 6 -138 8q-66 2 -162 1t-219 -11z" />
<glyph unicode="&#xae;" horiz-adv-x="913" d="M33 1124q0 88 30.5 165t86 134.5t132.5 91t167 33.5t168.5 -33.5t137 -91t91.5 -134.5t33 -165q0 -86 -33 -162.5t-91.5 -134t-137 -90t-168.5 -32.5t-167 32.5t-132.5 90t-86 134t-30.5 162.5zM92 1124q0 -76 29 -142.5t77 -115.5t112.5 -77.5t138.5 -28.5 q72 0 138 28.5t117.5 77.5t82 116t30.5 142q0 76 -30.5 143.5t-82 117t-118 78t-137.5 28.5q-74 0 -138.5 -28.5t-112.5 -78t-77 -117t-29 -143.5zM256 885v35q29 4 42 12t13 33v335q0 10 -2 17.5t-4 11.5t-4 6q-23 4 -29 5t-16 6v34h186q84 0 134.5 -29.5t50.5 -95.5 q0 -98 -105 -122l90 -152q14 -27 27.5 -40t24.5 -17q10 -6 20 -4l-4 -35h-92q-16 0 -28.5 8t-24.5 35l-99 219q49 6 70.5 32.5t21.5 82.5q0 29 -20.5 51t-73.5 22h-33v-348q0 -16 1 -35.5t12 -23.5q6 -4 18 -5t23 -3v-35h-199z" />
<glyph unicode="&#xaf;" horiz-adv-x="681" d="M123 1141l35 108h600l-35 -108h-600z" />
<glyph unicode="&#xb0;" horiz-adv-x="819" d="M195 1079q0 63 24.5 117.5t66.5 95.5t98 64.5t118 23.5q61 0 117.5 -23.5t99.5 -64.5t67.5 -96.5t24.5 -118.5t-23.5 -119.5t-64.5 -98.5t-96.5 -66.5t-118.5 -24.5q-66 0 -123 24.5t-99 66.5t-66.5 98.5t-24.5 121.5zM291 1079q0 -45 16.5 -85t46 -69.5t68.5 -47 t84 -17.5t83 17.5t65.5 48t44 69.5t16.5 82t-17.5 82t-46 67.5t-68.5 45t-83 16.5t-81 -16.5t-66.5 -45t-45 -66.5t-16.5 -81z" />
<glyph unicode="&#xb1;" horiz-adv-x="817" d="M49 0v106h721v-106h-721zM70 459v106h286v287h107v-287h287v-106h-287v-287h-107v287h-286z" />
<glyph unicode="&#xb2;" horiz-adv-x="757" d="M59 795l64 16q90 45 164 98q63 47 120.5 106.5t73.5 127.5q14 68 -21.5 99.5t-84.5 31.5q-53 0 -99 -29q-23 -14 -36 -29.5t-23 -29.5q-10 -16 -16 -33q-18 0 -37 2q-33 0 -53 4q0 29 2 55q2 23 5 45.5t9 38.5q29 16 66 29q33 10 78.5 19.5t105.5 9.5q119 0 194.5 -48 t75.5 -130q0 -37 -22 -84q-31 -66 -90.5 -119t-120 -93t-107.5 -63.5t-53 -25.5h205q57 -4 93.5 6t63.5 51q29 4 68 -16q-12 -27 -25 -54q-10 -23 -21 -50.5t-17 -51.5h-506q-10 18 -21 39q-10 16 -19 36.5t-16 41.5z" />
<glyph unicode="&#xb3;" horiz-adv-x="788" d="M100 702q0 16 4.5 35t8.5 37q6 20 12 43q29 -20 63 -37q29 -14 65 -25.5t77 -11.5q92 0 141 43t49 95q0 47 -48 82.5t-146 37.5q-8 -4 -20.5 -8t-18.5 -8q-18 14 -33 27q-14 10 -26.5 21t-16.5 18q10 4 25 8q20 4 67 8q4 0 31.5 6t60.5 21.5t57.5 40t22.5 61.5 q-2 41 -32.5 64.5t-71.5 23.5q-27 0 -55.5 -9t-54 -26.5t-44 -42t-27.5 -57.5q-12 0 -24 2q-10 2 -21.5 3t-21.5 5q2 33 4 62q2 23 3 45t5 30q25 16 60 29q29 10 73.5 20.5t106.5 10.5q135 0 202.5 -45.5t67.5 -102.5q0 -45 -47 -90t-139 -74q123 -10 185.5 -60t62.5 -114 q0 -39 -25 -76.5t-75 -66.5t-124.5 -47t-175.5 -18q-53 0 -91 6t-64 14q-31 8 -52 20z" />
<glyph unicode="&#xb4;" horiz-adv-x="288" d="M-23 1085l173 342l143 -71q-39 -51 -80 -105q-35 -45 -78 -97t-84 -93z" />
<glyph unicode="&#xb5;" horiz-adv-x="1024" d="M4 862v58h354q-4 -18 -8 -43q-4 -23 -6 -56t-2 -76v-192q0 -119 3 -203t14.5 -138t32 -78.5t54.5 -24.5q29 0 65 14t69 33q37 23 77 49v540q0 41 -7 73t-17 54q-10 27 -25 48h295q-6 -20 -12 -46q-10 -51 -10 -129v-598q0 -27 1 -42t10 -25t26.5 -19.5t52.5 -21.5 q0 -8 -4 -19q-6 -20 -29 -45q-41 0 -86 5q-39 4 -90 8t-105 14v104q-27 -14 -66.5 -38.5t-83.5 -47t-86 -37t-69 -8.5q-4 2 -9 2t-9 3q2 -18 4 -69.5t6 -105.5q4 -63 8 -137q-47 -18 -98 -26.5t-94 -12.5q-51 -4 -99 0q16 37 29 80q10 37 19.5 84t9.5 101v483v6v362 q0 16 -3 32t-7 30q-6 16 -11 33z" />
<glyph unicode="&#xb6;" horiz-adv-x="935" d="M41 1053q0 135 97.5 206.5t267.5 71.5h55h422v-53q-23 -4 -46.5 -7t-50.5 -7q-6 -14 -12 -31q-4 -14 -8 -31.5t-4 -38.5v-995q0 -20 4 -38.5t8 -33.5q6 -16 12 -30q27 -2 50.5 -5.5t46.5 -7.5v-53h-228v1243h-88v-1243h-227v53q23 4 46.5 7t49.5 6q6 14 13 30q8 27 12 72 v1075h-53q-66 0 -111 -59.5t-45 -141.5q0 -47 9 -89t27.5 -74.5t47.5 -52t67 -19.5q-2 -12 -6 -23q-4 -10 -8 -21t-8 -20q-70 0 -131.5 22.5t-107.5 64.5t-73.5 98.5t-27.5 124.5z" />
<glyph unicode="&#xb7;" horiz-adv-x="409" d="M78 537q0 49 30.5 84.5t90.5 35.5h10q59 0 90 -35.5t31 -84.5q0 -47 -34 -82t-87 -35h-10q-53 0 -87 34.5t-34 82.5z" />
<glyph unicode="&#xb8;" horiz-adv-x="446" d="M49 -406l21 48q25 0 57.5 2t62 12t50 29.5t24.5 52.5q2 74 -86 74q-4 0 -18 18q-8 8 -15 20l76 150h51l-41 -139q20 0 50 -4t58 -15.5t46 -33t16 -58.5q-4 -49 -36.5 -85t-82 -57.5t-110.5 -25.5t-123 12z" />
<glyph unicode="&#xb9;" horiz-adv-x="575" d="M63 1243q35 8 76 25q35 14 81 35.5t99 52.5l43 -21v-514q0 -27 7.5 -44t9.5 -21q16 -4 32.5 -6t32.5 -7q18 -4 37 -6v-59h-395v57q16 4 35 8q16 4 33.5 6.5t33.5 6.5q0 2 9.5 19.5t9.5 45.5v269q0 35 -5 55t-9 31q-8 12 -15 18q-27 -2 -50.5 -4t-47.5 -4z" />
<glyph unicode="&#xba;" horiz-adv-x="876" d="M60 1013q1 91 42 167.5t122 127t204 48.5q100 4 173 -20.5t118 -71.5t66.5 -114t21.5 -144q0 -76 -24.5 -139.5t-72.5 -108.5t-119 -70.5t-163 -25.5q-123 0 -205 52t-123 130t-40 169zM238 1006q0 -78 14 -128.5t38.5 -80t59.5 -42t76 -12.5q39 0 76 12.5t65.5 42t45 80 t16.5 128.5t-16.5 130t-45 82.5t-65.5 44t-76 13.5q-41 0 -76 -13.5t-59.5 -44t-38.5 -82.5t-14 -130z" />
<glyph unicode="&#xbb;" horiz-adv-x="706" d="M20 270q53 53 104.5 117t88.5 109q-37 47 -88 109.5t-105 117.5l52 43l284 -217q0 -8 2 -17q4 -20 4 -36t-4 -37q-2 -8 -2 -17l-284 -217zM311 270q53 53 104.5 117t88.5 109q-37 47 -88 109.5t-105 117.5l51 43l285 -217q0 -8 2 -17q4 -20 4 -36t-4 -37q-2 -8 -2 -17 l-285 -217z" />
<glyph unicode="&#xbc;" horiz-adv-x="1288" d="M27 1243q35 8 75 25q35 14 81 35.5t100 52.5l43 -21v-514q0 -27 7 -44t9 -21q16 -4 32.5 -6t33.5 -7q18 -4 36 -6v-59h-395v57q16 4 35 8q16 4 33.5 6.5t34.5 6.5q0 2 9 19.5t9 45.5v269q0 35 -5 55t-9 31q-8 12 -15 18q-27 -2 -50 -4t-48 -4zM166 0l878 1331h117 l-878 -1331h-117zM606 203l332 385q10 12 21.5 27.5t19.5 27.5q8 14 16 31q57 -20 88 -35q16 -8 27 -14v-371q25 4 53.5 11t50.5 11q-4 -23 -6 -43t-6 -34l-6 -31h-86v-27q0 -27 8 -47l8 -16q20 -4 39 -6t33 -6q16 -4 31 -7v-59h-393v57q16 4 34 9q16 4 34 6t34 6l6 18 q8 20 8 45v27h-321q-4 6 -10 12q-12 12 -15 23zM756 256h205v256q-53 -63 -102.5 -126.5t-102.5 -129.5z" />
<glyph unicode="&#xbd;" horiz-adv-x="1443" d="M27 1243q35 8 75 25q35 14 81 35.5t100 52.5l43 -21v-514q0 -27 7 -44t9 -21q16 -4 32.5 -6t33.5 -7q18 -4 36 -6v-59h-395v57q16 4 35 8q16 4 33.5 6.5t34.5 6.5q0 2 9 19.5t9 45.5v269q0 35 -5 55t-9 31q-8 12 -15 18q-27 -2 -50 -4t-48 -4zM166 0l878 1331h117 l-878 -1331h-117zM760 111l63 16q90 49 164 102q63 47 120.5 107.5t74.5 128.5q14 68 -22 99.5t-85 31.5q-53 0 -98 -29q-23 -14 -36 -29.5t-23 -29.5q-10 -16 -17 -33q-18 0 -37 2q-33 0 -53 4q0 29 2 56q2 23 5 45t9 39q29 16 66 28q33 10 79 19.5t105 9.5q119 0 195 -48 t76 -130q0 -37 -23 -84q-31 -66 -90 -119t-119.5 -93t-107.5 -63.5t-54 -25.5h205q57 -4 94 6t64 51q29 4 67 -16l-24 -54q-10 -23 -21.5 -50t-17.5 -52h-506q-10 18 -20 37q-10 16 -19.5 34.5t-15.5 39.5z" />
<glyph unicode="&#xbe;" horiz-adv-x="1409" d="M27 702q0 16 4 35t8 37q6 20 12 43q29 -20 64 -37q29 -14 64.5 -25.5t76.5 -11.5q92 0 141 43t49 95q0 47 -48 82.5t-146 37.5q-8 -4 -20.5 -8t-18.5 -8q-18 14 -33 27q-14 10 -26.5 21t-16.5 18q10 4 25 8q20 4 67 8q4 0 32 6t60.5 21.5t57 40t22.5 61.5 q-2 41 -32.5 64.5t-71.5 23.5q-27 0 -55.5 -9t-54 -26.5t-44 -42t-26.5 -57.5q-12 0 -25 2q-10 2 -21.5 3t-21.5 5q2 33 4 62q2 23 3 45t5 30q25 16 60 29q29 10 74 20.5t106 10.5q135 0 202.5 -45.5t67.5 -102.5q0 -45 -47 -90t-139 -74q123 -10 185.5 -60t62.5 -114 q0 -39 -24.5 -76.5t-75 -66.5t-125 -47t-175.5 -18q-53 0 -91 6t-64 14q-31 8 -51 20zM289 0l878 1331h117l-878 -1331h-117zM729 203l332 385q10 12 21.5 27.5t19.5 27.5q8 14 16 31q57 -20 88 -35q16 -8 27 -14v-371q25 4 53.5 11t50.5 11q-4 -23 -6 -43t-6 -34l-6 -31 h-86v-27q0 -27 8 -47l8 -16q20 -4 39 -6t33 -6q16 -4 31 -7v-59h-394v57q16 4 35 9q16 4 33.5 6t34.5 6l6 18q8 20 8 45v27h-321q-4 6 -11 12q-12 12 -14 23zM879 256h204v256q-53 -63 -102 -126.5t-102 -129.5z" />
<glyph unicode="&#xbf;" horiz-adv-x="856" d="M82 -164q0 -43 18.5 -92t63.5 -91t116.5 -68.5t180.5 -26.5q96 0 172 40t119 102t48 141t-40 157q-18 -4 -38 -7t-36 -7q-20 -4 -37 -9q-4 -37 -10 -92t-27.5 -107t-62.5 -89t-113 -37q-43 0 -71.5 18.5t-44 47t-21.5 60t-6 60.5q0 43 32.5 87t73.5 88t80 86t49 79 q25 86 23 159t-14 126q-14 63 -39 114q-23 -4 -38.5 -7t-25.5 -7q-12 -4 -20 -6q0 -20 2 -50t1 -67t-8.5 -81t-27.5 -93q-25 -63 -75 -105t-100 -85t-87 -97.5t-37 -140.5zM332 813q0 47 34 86t87 39h10q53 0 87 -39t34 -86q0 -49 -31 -89t-90 -40h-10q-59 0 -90 40t-31 89z " />
<glyph unicode="&#xc0;" horiz-adv-x="1501" d="M51 0v57q27 -4 55 6q25 10 53.5 34t53.5 77q131 276 243.5 573t223.5 578q25 6 47 14q20 6 43 11.5t41 5.5l444 -1159q14 -37 26.5 -60.5t30 -39t44 -25t71.5 -15.5v-57h-542v55q47 0 82 13q29 10 47 33.5t2 68.5q-31 84 -62.5 171t-62.5 169h-410q-33 -82 -63.5 -168 t-59.5 -172q-12 -37 -2.5 -57.5t31 -32.5t51 -16.5t56.5 -6.5v-57h-443zM510 590h352q-29 92 -59 182q-27 78 -56.5 163t-54.5 150q-43 -125 -91 -247.5t-91 -247.5zM561 1698l144 71l172 -342l-72 -24q-43 41 -86 93t-78 97q-41 53 -80 105z" />
<glyph unicode="&#xc1;" horiz-adv-x="1501" d="M51 0h443v57q-27 2 -56.5 6.5t-51 16.5t-31 32.5t2.5 57.5q29 86 60 172t63 168h410q31 -82 62.5 -169t62.5 -171q16 -45 -2.5 -68.5t-46.5 -33.5q-35 -12 -82 -13v-55h542v57q-45 6 -71.5 15.5t-44 25t-30 39t-26.5 60.5l-444 1159q-18 0 -40.5 -5t-43.5 -12 q-23 -8 -47 -14q-111 -281 -223.5 -577.5t-243.5 -573.5q-25 -53 -53.5 -76.5t-53.5 -34.5q-29 -10 -55 -6v-57zM510 590q43 125 91 248t91 247q25 -66 54.5 -150.5t56.5 -162.5q31 -90 59 -182h-352zM635 1427l172 342l143 -71q-39 -51 -80 -105q-35 -45 -77.5 -97 t-83.5 -93z" />
<glyph unicode="&#xc2;" horiz-adv-x="1499" d="M51 0v57q27 -4 55 6q25 10 53.5 34t53.5 77q131 276 243.5 573t223.5 578q25 6 47 14q20 6 43 11.5t41 5.5l444 -1159q14 -37 26.5 -60.5t30 -39t44 -25t71.5 -15.5v-57h-542v55q47 0 82 13q29 10 47 33.5t2 68.5q-31 84 -62.5 171t-62.5 169h-410q-33 -82 -63.5 -168 t-59.5 -172q-12 -37 -2.5 -57.5t31 -32.5t51 -16.5t56.5 -6.5v-57h-443zM506 1450l143 317h191l143 -317l-61 -25q-49 49 -95.5 115t-81.5 113q-37 -47 -84 -112.5t-96 -115.5zM510 590h352q-29 92 -59 182q-27 78 -56.5 163t-54.5 150q-43 -125 -91 -247.5t-91 -247.5z" />
<glyph unicode="&#xc3;" horiz-adv-x="1501" d="M51 0v57q27 -4 55 6q25 10 53.5 34t53.5 77q131 276 243.5 573t223.5 578q25 6 47 14q20 6 43 11.5t41 5.5l444 -1159q14 -37 26.5 -60.5t30 -39t44 -25t71.5 -15.5v-57h-542v55q47 0 82 13q29 10 47 33.5t2 68.5q-31 84 -62.5 171t-62.5 169h-410q-33 -82 -63.5 -168 t-59.5 -172q-12 -37 -2.5 -57.5t31 -32.5t51 -16.5t56.5 -6.5v-57h-443zM479 1446q6 49 23 86q12 33 35.5 59.5t58.5 26.5q41 0 96.5 -15.5t104.5 -31.5q57 -23 116 -47l78 94l43 -21q-4 -49 -18 -86q-12 -33 -35 -59.5t-63 -26.5q-72 0 -130.5 14.5t-101.5 30.5 q-51 20 -90 48l-74 -93zM510 590h352q-29 92 -59 182q-27 78 -56.5 163t-54.5 150q-43 -125 -91 -247.5t-91 -247.5z" />
<glyph unicode="&#xc4;" horiz-adv-x="1499" d="M51 0h443v57q-27 2 -56.5 6.5t-51 16.5t-31 32.5t2.5 57.5q29 86 60 172t63 168h410q31 -82 62.5 -169t62.5 -171q16 -45 -2.5 -68.5t-46.5 -33.5q-35 -12 -82 -13v-55h542v57q-45 6 -71.5 15.5t-44 25t-30 39t-26.5 60.5l-444 1159q-18 0 -40.5 -5t-43.5 -12 q-23 -8 -47 -14q-111 -281 -223.5 -577.5t-243.5 -573.5q-25 -53 -53.5 -76.5t-53.5 -34.5q-29 -10 -55 -6v-57zM444 1518q0 14 5.5 31.5t15.5 33.5t28.5 27.5t47.5 11.5h8q27 0 46 -11.5t29.5 -27.5t15.5 -33.5t5 -31.5t-5 -32t-15.5 -34t-29.5 -27.5t-46 -11.5h-8 q-29 0 -47.5 11.5t-28.5 27.5t-15.5 33.5t-5.5 32.5zM510 590q43 125 91 248t91 247q25 -66 54.5 -150.5t56.5 -162.5q31 -90 59 -182h-352zM866 1518q0 14 5.5 31.5t15.5 33.5t28.5 27.5t47.5 11.5h6q29 0 47 -11.5t29.5 -27.5t16.5 -33.5t5 -31.5t-5 -32t-16.5 -34 t-29.5 -27.5t-47 -11.5h-6q-29 0 -47.5 11.5t-28.5 27.5t-15.5 33.5t-5.5 32.5z" />
<glyph unicode="&#xc5;" horiz-adv-x="1511" d="M51 0v57q27 -4 55 6q25 10 53.5 34t53.5 77q131 276 243.5 573t223.5 578q25 6 47 14q20 6 43 11.5t41 5.5l444 -1159q14 -37 26.5 -60.5t30 -39t44 -25t71.5 -15.5v-57h-542v55q47 0 82 13q29 10 47 33.5t2 68.5q-31 84 -62.5 171t-62.5 169h-410q-33 -82 -63.5 -168 t-59.5 -172q-12 -37 -2.5 -57.5t31 -32.5t51 -16.5t56.5 -6.5v-57h-443zM510 590h352q-29 92 -59 182q-27 78 -56.5 163t-54.5 150q-43 -125 -91 -247.5t-91 -247.5zM514 1591q0 33 20.5 60.5t53.5 49t77 34t91 12.5t91 -12.5t77.5 -34t53 -49t19.5 -60.5t-19.5 -60.5 t-53 -49t-77.5 -33.5t-91 -12t-91 12t-77 33.5t-53.5 49.5t-20.5 60zM655 1591q0 -14 5.5 -30.5t17.5 -30.5t30.5 -24.5t43.5 -10.5q41 0 72.5 25.5t31.5 70.5q0 41 -28.5 66.5t-71.5 28.5q-41 0 -71 -26t-30 -69z" />
<glyph unicode="&#xc6;" horiz-adv-x="1861" d="M41 0v55q55 10 93 19.5t78 42.5t91 102.5t130 198.5t194.5 330.5t285.5 500.5q-31 4 -64.5 11.5t-62.5 13.5v57h889q2 -45 8.5 -91t12.5 -83q8 -43 16 -84q-27 0 -44 2t-28 6q-12 4 -20 11q-4 16 -10 34q-10 33 -29 58q-14 20 -37.5 32.5t-49.5 19.5t-50.5 10t-42.5 3 h-225v-508h278q43 0 53.5 49.5t14.5 133.5l69 -11v-421l-69 -3q-4 76 -15.5 124.5t-52.5 48.5h-278v-582h317q18 0 44 2t52.5 7t50 16.5t37.5 31.5q18 25 25 62q4 18 6 39l84 -17q-6 -35 -12 -71q-4 -33 -7.5 -71t-3.5 -79h-960v55l113 23q2 2 12 27.5t10 64.5v330h-364 l-197 -332q-27 -45 -15.5 -67.5t38 -32t58.5 -10.5t46 -3v-55h-469zM623 580h321v561z" />
<glyph unicode="&#xc7;" horiz-adv-x="1320" d="M57 666q0 143 60.5 268t164 219t243 148.5t298.5 54.5q117 0 223.5 -31t198.5 -86q-23 -133 -12 -274q-16 -2 -33 0q-14 2 -30.5 5t-28.5 11q-10 80 -49 143q-16 27 -41 53.5t-60 47t-80 33t-102 12.5q-109 0 -200 -47t-156.5 -129t-102.5 -192.5t-37 -235.5 q0 -127 37 -238t102.5 -191.5t156.5 -128t200 -47.5q57 0 102 12.5t79 33t58.5 46t41.5 54.5q39 63 51 145q10 6 26.5 9.5t30.5 5.5q16 2 35 2q-6 -70 0 -138.5t12 -138.5q-92 -55 -198.5 -86t-223.5 -31q-47 0 -90 7l-2 -93q20 0 50 -3t57.5 -14t46 -31.5t16.5 -57.5 q-4 -49 -40 -85t-89 -57.5t-117.5 -25.5t-126.5 12l21 56q25 0 59.5 1t65.5 9t53.5 26.5t26.5 51.5q2 37 -26 45t-71 8q-4 0 -18 18q-8 8 -14 21l51 127q-133 23 -246 84t-195.5 150t-130 202t-47.5 240z" />
<glyph unicode="&#xc8;" horiz-adv-x="1196" d="M145 0v55l113 23q2 2 12.5 27.5t10.5 64.5v989q0 18 -4.5 34.5t-8.5 29.5q-6 14 -10 28l-113 27v53h869q2 -45 8 -91t12 -83q8 -43 17 -84q-27 0 -44.5 2t-27.5 6q-12 4 -21 11q-4 16 -10 34q-10 33 -28 58q-14 20 -38 32.5t-49.5 19.5t-50 10t-43.5 3h-225v-508h279 q43 0 53 49.5t14 133.5l70 -11v-421l-70 -3q-4 76 -15 124.5t-52 48.5h-279v-582h317q18 0 44 2t52.5 7t50 16.5t38.5 31.5q18 25 24 62q4 18 7 39l83 -17q-6 -35 -12 -71q-4 -33 -7 -71t-3 -79h-963zM438 1698l144 71l172 -342l-72 -24q-43 41 -86 93t-78 97 q-41 53 -80 105z" />
<glyph unicode="&#xc9;" horiz-adv-x="1196" d="M145 0h963q0 41 3 79t7 71q6 37 12 71l-83 17q-2 -20 -7 -39q-6 -37 -24 -62q-14 -20 -38 -31.5t-50.5 -16.5t-52 -7t-44.5 -2h-317v582h279q41 0 52 -48.5t15 -124.5l70 3v421l-70 11q-4 -84 -14 -133.5t-53 -49.5h-279v508h225q18 0 43 -3t50.5 -10t49 -19.5 t38.5 -32.5q18 -25 28 -58q6 -18 10 -34q8 -6 21 -11q10 -4 27.5 -6t44.5 -2q-8 41 -17 84q-6 37 -12 83t-8 91h-869v-53l113 -27q4 -14 10 -28q4 -12 8.5 -28.5t4.5 -35.5v-989q0 -39 -10.5 -64.5t-12.5 -27.5l-113 -23v-55zM553 1427l172 342l143 -71q-39 -51 -80 -105 q-35 -45 -77.5 -97t-83.5 -93z" />
<glyph unicode="&#xca;" horiz-adv-x="1196" d="M145 0v55l113 23q2 2 12.5 27.5t10.5 64.5v989q0 18 -4.5 34.5t-8.5 29.5q-6 14 -10 28l-113 27v53h869q2 -45 8 -91t12 -83q8 -43 17 -84q-27 0 -44.5 2t-27.5 6q-12 4 -21 11q-4 16 -10 34q-10 33 -28 58q-14 20 -38 32.5t-49.5 19.5t-50 10t-43.5 3h-225v-508h279 q43 0 53 49.5t14 133.5l70 -11v-421l-70 -3q-4 76 -15 124.5t-52 48.5h-279v-582h317q18 0 44 2t52.5 7t50 16.5t38.5 31.5q18 25 24 62q4 18 7 39l83 -17q-6 -35 -12 -71q-4 -33 -7 -71t-3 -79h-963zM383 1450l143 317h191l143 -317l-61 -25q-49 49 -95.5 115t-80.5 113 q-37 -47 -84 -112.5t-97 -115.5z" />
<glyph unicode="&#xcb;" horiz-adv-x="1196" d="M145 0h963q0 41 3 79t7 71q6 37 12 71l-83 17q-2 -20 -7 -39q-6 -37 -24 -62q-14 -20 -38 -31.5t-50.5 -16.5t-52 -7t-44.5 -2h-317v582h279q41 0 52 -48.5t15 -124.5l70 3v421l-70 11q-4 -84 -14 -133.5t-53 -49.5h-279v508h225q18 0 43 -3t50.5 -10t49 -19.5 t38.5 -32.5q18 -25 28 -58q6 -18 10 -34q8 -6 21 -11q10 -4 27.5 -6t44.5 -2q-8 41 -17 84q-6 37 -12 83t-8 91h-869v-53l113 -27q4 -14 10 -28q4 -12 8.5 -28.5t4.5 -35.5v-989q0 -39 -10.5 -64.5t-12.5 -27.5l-113 -23v-55zM301 1518q0 14 5 31.5t15.5 33.5t29 27.5 t46.5 11.5h9q27 0 46 -11.5t29.5 -27.5t15.5 -33.5t5 -31.5t-5 -32t-15.5 -34t-29.5 -27.5t-46 -11.5h-9q-29 0 -47 11.5t-28.5 27.5t-15.5 33.5t-5 32.5zM723 1518q0 14 5 31.5t15.5 33.5t29 27.5t46.5 11.5h6q29 0 47.5 -11.5t29.5 -27.5t16.5 -33.5t5.5 -31.5t-5.5 -32 t-16.5 -34t-29.5 -27.5t-47.5 -11.5h-6q-29 0 -47 11.5t-28.5 27.5t-15.5 33.5t-5 32.5z" />
<glyph unicode="&#xcc;" horiz-adv-x="802" d="M145 0v57l115 23q2 2 12.5 27.5t10.5 64.5v989q0 18 -4.5 34.5t-8.5 29.5q-6 14 -10 28l-115 21v57h508v-57l-118 -23q-6 -12 -11 -26q-10 -27 -10 -64v-989q0 -39 10 -66q6 -14 13 -26l116 -23v-57h-508zM213 1698l143 71l172 -342l-71 -24q-43 41 -86 93t-78 97 q-41 53 -80 105z" />
<glyph unicode="&#xcd;" horiz-adv-x="796" d="M145 0h508v57l-116 23l-13 26q-10 27 -10 66v989q0 37 10 64q4 14 11 26l118 23v57h-508v-57l115 -21q4 -14 10 -28q4 -12 8.5 -28.5t4.5 -35.5v-989q0 -39 -10.5 -64.5t-12.5 -27.5l-115 -23v-57zM287 1427l172 342l143 -71q-39 -51 -80 -105q-35 -45 -78 -97t-84 -93z " />
<glyph unicode="&#xce;" horiz-adv-x="798" d="M145 0v57l115 23q2 2 12.5 27.5t10.5 64.5v989q0 18 -4.5 34.5t-8.5 29.5q-6 14 -10 28l-115 21v57h508v-57l-118 -23q-6 -12 -11 -26q-10 -27 -10 -64v-989q0 -39 10 -66q6 -14 13 -26l116 -23v-57h-508zM158 1450l143 317h191l143 -317l-62 -25q-49 49 -95 115t-81 113 q-37 -47 -84 -112.5t-96 -115.5z" />
<glyph unicode="&#xcf;" horiz-adv-x="796" d="M72 1518q0 14 5 31.5t15 33.5t28.5 27.5t47.5 11.5h8q27 0 46.5 -11.5t29.5 -27.5t15 -33.5t5 -31.5t-5 -32t-15 -34t-29.5 -27.5t-46.5 -11.5h-8q-29 0 -47.5 11.5t-28.5 27.5t-15 33.5t-5 32.5zM145 0h508v57l-116 23l-13 26q-10 27 -10 66v989q0 37 10 64q4 14 11 26 l118 23v57h-508v-57l115 -21q4 -14 10 -28q4 -12 8.5 -28.5t4.5 -35.5v-989q0 -39 -10.5 -64.5t-12.5 -27.5l-115 -23v-57zM494 1518q0 14 5 31.5t15 33.5t28.5 27.5t47.5 11.5h6q29 0 47.5 -11.5t29.5 -27.5t16 -33.5t5 -31.5t-5 -32t-16 -34t-29.5 -27.5t-47.5 -11.5h-6 q-29 0 -47.5 11.5t-28.5 27.5t-15 33.5t-5 32.5z" />
<glyph unicode="&#xd0;" horiz-adv-x="1423" d="M145 0v57l115 23q2 2 12.5 27.5t10.5 64.5v518l-138 -6v94h138v383q0 18 -4.5 34.5t-8.5 29.5q-6 14 -10 28l-115 21v57h553q160 0 282 -50t205 -139t126 -211t43 -265t-43 -265t-126 -211.5t-205 -139.5t-282 -50h-553zM514 80h199q106 0 180 44t119 122t64.5 185.5 t19.5 234.5q0 125 -19.5 232.5t-64.5 185t-119 121.5t-180 44h-199v-467l168 4v-94h-168v-612z" />
<glyph unicode="&#xd1;" horiz-adv-x="1540" d="M109 0v55q27 0 54 2t47.5 13.5t34 35t13.5 64.5v948q0 39 -18.5 66.5t-40.5 46.5q-25 23 -58 37q-10 12 -13 22t-7 21q-4 10 -4 20h282l777 -991v819q0 37 -16.5 59.5t-41 34t-56.5 15.5t-63 6v57h439v-57q-23 -2 -50.5 -4t-51 -11.5t-40 -32t-16.5 -67.5v-1159h-119 l-799 1018v-848q0 -37 17.5 -58.5t43.5 -33.5t57.5 -16.5t62.5 -6.5v-55h-434zM479 1446q6 49 23 86q12 33 35.5 59.5t58.5 26.5q41 0 96.5 -15.5t104.5 -31.5q57 -23 116 -47l78 94l43 -21q-4 -49 -18 -86q-12 -33 -35 -59.5t-63 -26.5q-72 0 -130.5 14.5t-101.5 30.5 q-51 20 -90 48l-74 -93z" />
<glyph unicode="&#xd2;" d="M59 670q0 154 59.5 280.5t159 218t231.5 140.5t277 49q141 0 264.5 -46t213.5 -133t141 -211t51 -278q0 -172 -66.5 -305t-173 -223t-241.5 -137.5t-273 -47.5q-121 0 -235.5 47.5t-205.5 136.5t-146.5 217t-55.5 292zM319 672q0 -92 27 -199.5t79 -198t131 -151 t183 -60.5q86 0 167 41t143.5 121t100.5 197.5t38 269.5q0 113 -27.5 217.5t-83 185.5t-136.5 129t-187 48q-90 0 -169 -46t-138.5 -128t-93.5 -191.5t-34 -234.5zM582 1698l143 71l172 -342l-72 -24q-43 41 -86 93t-77 97q-41 53 -80 105z" />
<glyph unicode="&#xd3;" d="M59 670q0 -164 55.5 -292t146.5 -217t206 -136.5t235 -47.5q137 0 272.5 47.5t242 137.5t173 223t66.5 305q0 154 -51 278t-141 211t-213.5 133t-264.5 46q-145 0 -277 -49t-231.5 -140.5t-159 -218.5t-59.5 -280zM319 672q0 125 34 234.5t93.5 191.5t138.5 128t169 46 q106 0 187 -48t136.5 -129t83 -185.5t27.5 -217.5q0 -152 -38 -269.5t-100.5 -197.5t-143.5 -121t-167 -41q-104 0 -183 60.5t-131 151t-79 198t-27 199.5zM676 1427l172 342l143 -71q-39 -51 -80 -105q-35 -45 -77.5 -97t-83.5 -93z" />
<glyph unicode="&#xd4;" d="M59 670q0 154 59.5 280.5t159 218t231.5 140.5t277 49q141 0 264.5 -46t213.5 -133t141 -211t51 -278q0 -172 -66.5 -305t-173 -223t-241.5 -137.5t-273 -47.5q-121 0 -235.5 47.5t-205.5 136.5t-146.5 217t-55.5 292zM319 672q0 -92 27 -199.5t79 -198t131 -151 t183 -60.5q86 0 167 41t143.5 121t100.5 197.5t38 269.5q0 113 -27.5 217.5t-83 185.5t-136.5 129t-187 48q-90 0 -169 -46t-138.5 -128t-93.5 -191.5t-34 -234.5zM526 1450l144 317h190l144 -317l-62 -25q-49 49 -95 115t-81 113q-37 -47 -84 -112.5t-96 -115.5z" />
<glyph unicode="&#xd5;" d="M59 670q0 154 59.5 280.5t159 218t231.5 140.5t277 49q141 0 264.5 -46t213.5 -133t141 -211t51 -278q0 -172 -66.5 -305t-173 -223t-241.5 -137.5t-273 -47.5q-121 0 -235.5 47.5t-205.5 136.5t-146.5 217t-55.5 292zM319 672q0 -92 27 -199.5t79 -198t131 -151 t183 -60.5q86 0 167 41t143.5 121t100.5 197.5t38 269.5q0 113 -27.5 217.5t-83 185.5t-136.5 129t-187 48q-90 0 -169 -46t-138.5 -128t-93.5 -191.5t-34 -234.5zM526 1446q6 49 23 86q12 33 35.5 59.5t58.5 26.5q41 0 96.5 -15.5t104.5 -31.5q57 -23 117 -47l77 94l43 -21 q-4 -49 -18 -86q-12 -33 -34.5 -59.5t-63.5 -26.5q-72 0 -130.5 14.5t-101.5 30.5q-51 20 -90 48l-74 -93z" />
<glyph unicode="&#xd6;" d="M59 670q0 -164 55.5 -292t146.5 -217t206 -136.5t235 -47.5q137 0 272.5 47.5t242 137.5t173 223t66.5 305q0 154 -51 278t-141 211t-213.5 133t-264.5 46q-145 0 -277 -49t-231.5 -140.5t-159 -218.5t-59.5 -280zM319 672q0 125 34 234.5t93.5 191.5t138.5 128t169 46 q106 0 187 -48t136.5 -129t83 -185.5t27.5 -217.5q0 -152 -38 -269.5t-100.5 -197.5t-143.5 -121t-167 -41q-104 0 -183 60.5t-131 151t-79 198t-27 199.5zM457 1518q0 14 5 31.5t15 33.5t28.5 27.5t47.5 11.5h8q27 0 46.5 -11.5t29.5 -27.5t15 -33.5t5 -31.5t-5 -32 t-15 -34t-29.5 -27.5t-46.5 -11.5h-8q-29 0 -47.5 11.5t-28.5 27.5t-15 33.5t-5 32.5zM879 1518q0 14 5 31.5t15 33.5t28.5 27.5t47.5 11.5h6q29 0 47.5 -11.5t29.5 -27.5t16 -33.5t5 -31.5t-5 -32t-16 -34t-29.5 -27.5t-47.5 -11.5h-6q-29 0 -47.5 11.5t-28.5 27.5 t-15 33.5t-5 32.5z" />
<glyph unicode="&#xd7;" horiz-adv-x="1382" d="M377 246l250 250l-250 249l69 70l250 -250l250 250l70 -70l-250 -249l250 -250l-70 -70l-250 250l-250 -250z" />
<glyph unicode="&#xd8;" d="M59 662q0 154 65.5 280.5t171 217.5t240 140.5t271.5 49.5q193 0 328 -68q14 16 24 39q10 18 17.5 41.5t7.5 50.5l153 -57q-10 -16 -24 -39l-35 -45t-49 -58q109 -88 168 -224t59 -308t-68.5 -305t-178 -223.5t-244 -137.5t-263.5 -47q-80 0 -157.5 18.5t-143.5 49.5 q-12 -10 -20 -27q-18 -29 -35 -94l-147 57q12 23 28 45l31.5 45t40.5 48q-104 92 -172 231t-68 320zM319 657q0 -90 28 -196.5t75 -194.5q70 94 149.5 205t159.5 226.5t156 229t141 214.5q-53 59 -116.5 93t-137.5 34q-104 0 -188 -48.5t-143.5 -131t-91.5 -194.5t-32 -237z M494 170q47 -53 108 -86t137 -33q100 0 183.5 42t142.5 124t91 201t32 270q0 92 -24.5 191.5t-59.5 171.5q-68 -90 -145.5 -202t-158.5 -228.5t-160 -233.5t-146 -217z" />
<glyph unicode="&#xd9;" horiz-adv-x="1466" d="M61 1278v53h508v-53l-118 -27q-6 -12 -11 -26q-10 -27 -10 -66v-649q0 -119 25.5 -201t70.5 -132t105.5 -71.5t128.5 -21.5q63 0 128.5 18.5t119 65.5t87 130t33.5 212v649q0 37 -13 59.5t-34.5 34t-50.5 15.5t-59 6v57h440v-57q-29 0 -59.5 -4t-57 -16.5t-43 -35 t-16.5 -59.5v-680q0 -119 -27.5 -202.5t-71.5 -140t-101.5 -88.5t-118 -48t-117 -20.5t-101.5 -4.5q-29 0 -77 4.5t-103 20.5t-112.5 48t-103.5 88.5t-75.5 139t-29.5 203.5v680q0 18 -4.5 34.5t-8.5 31.5q-6 14 -10 28zM561 1698l144 71l172 -342l-72 -24q-43 41 -86 93 t-78 97q-41 53 -80 105z" />
<glyph unicode="&#xda;" horiz-adv-x="1466" d="M61 1278l113 -25q4 -14 10 -28q4 -14 8.5 -30.5t4.5 -35.5v-680q0 -121 29.5 -203.5t75.5 -139t103.5 -88.5t112.5 -48t103.5 -20.5t76.5 -4.5q45 0 101.5 4.5t117 20.5t118 48t101.5 88.5t71.5 140t27.5 202.5v680q0 37 16.5 59.5t43 35t57 16.5t59.5 4v57h-440v-57 q31 -2 59.5 -6t50 -15.5t34.5 -34t13 -59.5v-649q0 -129 -33.5 -212t-87 -130t-119 -65.5t-128.5 -18.5q-68 0 -128.5 21.5t-105.5 71.5t-70.5 132t-25.5 201v649q0 39 10 66q4 14 11 26l118 27v53h-508v-53zM676 1427l172 342l143 -71q-39 -51 -80 -105q-35 -45 -77.5 -97 t-83.5 -93z" />
<glyph unicode="&#xdb;" horiz-adv-x="1466" d="M61 1278v53h508v-53l-118 -27q-6 -12 -11 -26q-10 -27 -10 -66v-649q0 -119 25.5 -201t70.5 -132t105.5 -71.5t128.5 -21.5q63 0 128.5 18.5t119 65.5t87 130t33.5 212v649q0 37 -13 59.5t-34.5 34t-50.5 15.5t-59 6v57h440v-57q-29 0 -59.5 -4t-57 -16.5t-43 -35 t-16.5 -59.5v-680q0 -119 -27.5 -202.5t-71.5 -140t-101.5 -88.5t-118 -48t-117 -20.5t-101.5 -4.5q-29 0 -77 4.5t-103 20.5t-112.5 48t-103.5 88.5t-75.5 139t-29.5 203.5v680q0 18 -4.5 34.5t-8.5 31.5q-6 14 -10 28zM526 1450l144 317h190l144 -317l-62 -25 q-49 49 -95 115t-81 113q-37 -47 -84 -112.5t-96 -115.5z" />
<glyph unicode="&#xdc;" horiz-adv-x="1466" d="M61 1278l113 -25q4 -14 10 -28q4 -14 8.5 -30.5t4.5 -35.5v-680q0 -121 29.5 -203.5t75.5 -139t103.5 -88.5t112.5 -48t103.5 -20.5t76.5 -4.5q45 0 101.5 4.5t117 20.5t118 48t101.5 88.5t71.5 140t27.5 202.5v680q0 37 16.5 59.5t43 35t57 16.5t59.5 4v57h-440v-57 q31 -2 59.5 -6t50 -15.5t34.5 -34t13 -59.5v-649q0 -129 -33.5 -212t-87 -130t-119 -65.5t-128.5 -18.5q-68 0 -128.5 21.5t-105.5 71.5t-70.5 132t-25.5 201v649q0 39 10 66q4 14 11 26l118 27v53h-508v-53zM457 1518q0 14 5 31.5t15 33.5t28.5 27.5t47.5 11.5h8 q27 0 46.5 -11.5t29.5 -27.5t15 -33.5t5 -31.5t-5 -32t-15 -34t-29.5 -27.5t-46.5 -11.5h-8q-29 0 -47.5 11.5t-28.5 27.5t-15 33.5t-5 32.5zM879 1518q0 14 5 31.5t15 33.5t28.5 27.5t47.5 11.5h6q29 0 47.5 -11.5t29.5 -27.5t16 -33.5t5 -31.5t-5 -32t-16 -34t-29.5 -27.5 t-47.5 -11.5h-6q-29 0 -47.5 11.5t-28.5 27.5t-15 33.5t-5 32.5z" />
<glyph unicode="&#xdd;" horiz-adv-x="1312" d="M41 1270q23 -6 42 -9.5t34 -5.5q16 -2 28 -4q14 -10 31 -24q12 -12 27.5 -30.5t29.5 -41.5q68 -117 125.5 -222.5t98.5 -185t64.5 -129t25.5 -53.5v-393q0 -39 -9.5 -63.5t-11.5 -28.5l-114 -19v-61h508v61l-119 19q-6 12 -10 26q-10 27 -11 66v334q0 31 3 56.5t12.5 55 t29 69.5t51 102.5t80 151.5t115.5 218q20 41 44 62.5t50.5 33t53 13.5t53.5 2v61h-479v-61q25 -2 47 -6q20 -4 39.5 -6.5t35.5 -6.5q12 -6 21 -16q6 -10 7 -27.5t-11 -46.5q-55 -117 -106.5 -221t-106.5 -219q-61 104 -114.5 200.5t-94.5 170.5q-47 86 -84 161q35 4 59 9 q23 4 40.5 6t15.5 2v61h-500v-61zM594 1427l172 342l143 -71q-39 -51 -80 -105q-35 -45 -77.5 -97t-83.5 -93z" />
<glyph unicode="&#xde;" horiz-adv-x="1017" d="M31 -344q20 4 43 10q41 10 71 17q2 2 12.5 27.5t10.5 66.5v1327q0 18 -3 35.5t-7 29.5q-6 14 -11 27q-18 2 -39.5 6t-37.5 8q-20 6 -39 11v55h508v-55l-41 -11q-18 -4 -40 -8t-38 -6q-2 -4 -10.5 -27.5t-8.5 -64.5v-170h103q98 0 183 -15.5t148.5 -53.5t100.5 -102.5 t37 -162.5q0 -90 -34 -153.5t-94.5 -103.5t-143.5 -58.5t-183 -18.5q-12 12 -19 22.5t-12 18.5q-6 9 -8 19q137 16 201.5 80.5t64.5 187.5q0 55 -14 102t-43 82t-76 54.5t-110 19.5h-101v-1075q0 -39 11 -66q4 -14 10 -28q16 -4 35.5 -8.5t38.5 -8.5q23 -6 43 -10v-53h-508 v53z" />
<glyph unicode="&#xdf;" horiz-adv-x="1007" d="M25 0v57l96 19l10 30q4 14 7 33t3 39l4 799q0 119 41 204t101.5 140t130 82t129.5 27q123 0 199.5 -45.5t116.5 -104.5t50.5 -118.5t-0.5 -88.5q-4 -14 -16 -22q-10 -8 -30.5 -14.5t-57.5 -6.5q-43 0 -78 -37t-47 -94t4.5 -124t73.5 -124q47 -49 96 -90t88 -87 t63.5 -102.5t24.5 -133.5q0 -23 -9 -67t-40 -87t-91 -76t-163 -33q-61 0 -109.5 26t-78 62.5t-40.5 81.5t2 82t51 62.5t106 25.5q-14 -74 -13 -131q2 -49 20.5 -89t71.5 -40q37 0 61.5 15.5t40 38t22.5 47t7 43.5q0 61 -27.5 108t-69.5 88t-91 82t-91 88t-69.5 105.5 t-27.5 136.5q0 63 18 111.5t50 84t73 60t86 37.5q0 119 -32 174t-118 67q-66 8 -107.5 -13t-64 -65t-31 -110t-8.5 -141v-834q0 -39 11 -74q4 -18 10 -32q37 -6 43 -7.5t7 0t7 0t43 -7.5v-57h-458z" />
<glyph unicode="&#xe0;" horiz-adv-x="882" d="M51 240q0 61 18.5 110t71.5 72q59 23 128 41t126 29q68 12 133 22v281q0 61 -39 61q-37 0 -72.5 -15.5t-70.5 -39t-69.5 -53t-67.5 -58.5q-25 -2 -50.5 13.5t-39 40t-9 55t37 59.5t101 52.5t183.5 33.5q14 2 33.5 2h30.5q49 0 95 -11t82 -42t57.5 -86t21.5 -145v-490 q0 -27 12 -56.5t65 -82.5q0 -2 -6 -10q-4 -6 -14 -16.5t-27 -29.5q-51 4 -111.5 21.5t-113.5 44.5q-59 -27 -116.5 -40t-104.5 -19q-53 -8 -105 -7q-43 0 -76.5 24t-56 60.5t-35 84t-12.5 94.5zM252 1356l143 71l172 -342l-71 -24q-43 41 -86 93t-78 97q-41 53 -80 105z M256 252q0 -86 30.5 -132t100.5 -46q35 0 75 9t66 21v338q-16 0 -42.5 -4t-56.5 -10t-60.5 -16.5t-53.5 -22.5q-39 -20 -49 -56t-10 -81z" />
<glyph unicode="&#xe1;" horiz-adv-x="882" d="M51 240q0 -47 12.5 -94.5t35 -84t56 -60.5t76.5 -24q51 -2 105 7q47 6 104.5 19t116.5 40q53 -27 113.5 -44t111.5 -22q16 18 26.5 28.5t14.5 17.5q6 8 6 10q-53 53 -65 82.5t-12 56.5v490q0 90 -21.5 145t-57.5 86t-82 42t-95 11h-30t-34 -2q-115 -10 -183.5 -33.5 t-101 -52.5t-37 -59.5t9 -55t39 -40t50.5 -13.5q33 29 67.5 58.5t69.5 53t71 39t72 15.5q39 0 39 -61v-281q-66 -10 -133 -22q-57 -10 -125.5 -29t-128.5 -41q-53 -23 -71.5 -72t-18.5 -110zM256 252q0 45 10 81t49 56q23 12 53.5 22.5t60.5 16.5t56.5 10t42.5 4v-338 q-27 -12 -66.5 -21t-74.5 -9q-70 0 -100.5 46t-30.5 132zM336 1085l172 342l143 -71q-39 -51 -80 -105q-35 -45 -77.5 -97t-83.5 -93z" />
<glyph unicode="&#xe2;" horiz-adv-x="882" d="M51 240q0 61 18.5 110t71.5 72q59 23 128 41t126 29q68 12 133 22v281q0 61 -39 61q-37 0 -72.5 -15.5t-70.5 -39t-69.5 -53t-67.5 -58.5q-25 -2 -50.5 13.5t-39 40t-9 55t37 59.5t101 52.5t183.5 33.5q14 2 33.5 2h30.5q49 0 95 -11t82 -42t57.5 -86t21.5 -145v-490 q0 -27 12 -56.5t65 -82.5q0 -2 -6 -10q-4 -6 -14 -16.5t-27 -29.5q-51 4 -111.5 21.5t-113.5 44.5q-59 -27 -116.5 -40t-104.5 -19q-53 -8 -105 -7q-43 0 -76.5 24t-56 60.5t-35 84t-12.5 94.5zM215 1087l143 318h191l143 -318l-61 -24q-49 49 -95.5 114.5t-80.5 112.5 q-37 -47 -84 -112.5t-97 -114.5zM256 252q0 -86 30.5 -132t100.5 -46q35 0 75 9t66 21v338q-16 0 -42.5 -4t-56.5 -10t-60.5 -16.5t-53.5 -22.5q-39 -20 -49 -56t-10 -81z" />
<glyph unicode="&#xe3;" horiz-adv-x="882" d="M51 240q0 61 18.5 110t71.5 72q59 23 128 41t126 29q68 12 133 22v281q0 61 -39 61q-37 0 -72.5 -15.5t-70.5 -39t-69.5 -53t-67.5 -58.5q-25 -2 -50.5 13.5t-39 40t-9 55t37 59.5t101 52.5t183.5 33.5q14 2 33.5 2h30.5q49 0 95 -11t82 -42t57.5 -86t21.5 -145v-490 q0 -27 12 -56.5t65 -82.5q0 -2 -6 -10q-4 -6 -14 -16.5t-27 -29.5q-51 4 -111.5 21.5t-113.5 44.5q-59 -27 -116.5 -40t-104.5 -19q-53 -8 -105 -7q-43 0 -76.5 24t-56 60.5t-35 84t-12.5 94.5zM174 1194q6 49 23 86q12 33 35.5 59.5t58.5 26.5q41 0 96 -15.5t105 -31.5 q57 -23 116 -47l78 94l43 -20q-4 -49 -18 -86q-12 -33 -35 -59.5t-64 -26.5q-72 0 -130 14t-101 31q-51 20 -90 47l-74 -92zM256 252q0 -86 30.5 -132t100.5 -46q35 0 75 9t66 21v338q-16 0 -42.5 -4t-56.5 -10t-60.5 -16.5t-53.5 -22.5q-39 -20 -49 -56t-10 -81z" />
<glyph unicode="&#xe4;" horiz-adv-x="882" d="M51 240q0 -47 12.5 -94.5t35 -84t56 -60.5t76.5 -24q51 -2 105 7q47 6 104.5 19t116.5 40q53 -27 113.5 -44t111.5 -22q16 18 26.5 28.5t14.5 17.5q6 8 6 10q-53 53 -65 82.5t-12 56.5v490q0 90 -21.5 145t-57.5 86t-82 42t-95 11h-30t-34 -2q-115 -10 -183.5 -33.5 t-101 -52.5t-37 -59.5t9 -55t39 -40t50.5 -13.5q33 29 67.5 58.5t69.5 53t71 39t72 15.5q39 0 39 -61v-281q-66 -10 -133 -22q-57 -10 -125.5 -29t-128.5 -41q-53 -23 -71.5 -72t-18.5 -110zM123 1251q0 14 5 31.5t15.5 34t28.5 28t47 11.5h8q27 0 46.5 -11.5t29.5 -28 t15.5 -33.5t5.5 -32q0 -14 -5.5 -31.5t-15.5 -34t-29.5 -27.5t-46.5 -11h-8q-29 0 -47 11t-28.5 27.5t-15.5 34t-5 31.5zM256 252q0 45 10 81t49 56q23 12 53.5 22.5t60.5 16.5t56.5 10t42.5 4v-338q-27 -12 -66.5 -21t-74.5 -9q-70 0 -100.5 46t-30.5 132zM545 1251 q0 14 5 31.5t15 34t28.5 28t47.5 11.5h6q29 0 47.5 -11.5t29.5 -28t16 -33.5t5 -32q0 -14 -5 -31.5t-16 -34t-29.5 -27.5t-47.5 -11h-6q-29 0 -47.5 11t-28.5 27.5t-15 34t-5 31.5z" />
<glyph unicode="&#xe5;" horiz-adv-x="882" d="M51 240q0 61 18.5 110t71.5 72q59 23 128 41t126 29q68 12 133 22v281q0 61 -39 61q-37 0 -72.5 -15.5t-70.5 -39t-69.5 -53t-67.5 -58.5q-25 -2 -50.5 13.5t-39 40t-9 55t37 59.5t101 52.5t183.5 33.5q14 2 33.5 2h30.5q49 0 95 -11t82 -42t57.5 -86t21.5 -145v-490 q0 -27 12 -56.5t65 -82.5q0 -2 -6 -10q-4 -6 -14 -16.5t-27 -29.5q-51 4 -111.5 21.5t-113.5 44.5q-59 -27 -116.5 -40t-104.5 -19q-53 -8 -105 -7q-43 0 -76.5 24t-56 60.5t-35 84t-12.5 94.5zM244 1202q2 66 65.5 110t159.5 44t160.5 -44t64.5 -110t-64.5 -109.5 t-160.5 -43.5t-159.5 44t-65.5 109zM256 252q0 -86 30.5 -132t100.5 -46q35 0 75 9t66 21v338q-16 0 -42.5 -4t-56.5 -10t-60.5 -16.5t-53.5 -22.5q-39 -20 -49 -56t-10 -81zM383 1202q0 -41 23.5 -70.5t66.5 -31.5q23 0 38 11t25.5 26.5t14.5 33t4 31.5q0 31 -19.5 64.5 t-66.5 33.5t-66.5 -33.5t-19.5 -64.5z" />
<glyph unicode="&#xe6;" horiz-adv-x="1384" d="M51 238q0 61 18.5 110t71.5 72q59 23 128 41t126 28q68 12 133 23v281q0 61 -39 61q-37 0 -72.5 -15.5t-70.5 -39t-69.5 -53t-67.5 -58.5q-25 -2 -50.5 13.5t-39 40t-9 55t37 59.5t101 52.5t183.5 33.5q14 2 33.5 2h30.5q57 0 108 -26.5t74 -75.5q76 72 188 94 q92 16 167 -4.5t132.5 -70.5t95 -127t54.5 -175q-10 -8 -21 -18q-10 -10 -24.5 -22.5t-30.5 -29.5l-518 -28q0 -59 19.5 -126t55 -122t84 -91t103.5 -36q29 0 71 10t81 23q45 14 92 33q6 -12 12 -23q10 -23 14 -39q-59 -35 -127 -59q-57 -23 -131.5 -40.5t-152.5 -17.5 q-12 0 -19 2q-53 4 -88 28t-59 52q-8 8 -15.5 17.5t-15.5 19.5q-94 -45 -170 -68.5t-129 -33.5q-63 -12 -115 -15q-43 0 -76.5 24t-56 60.5t-35 83.5t-12.5 95zM256 252q0 -86 30.5 -130t100.5 -44q47 0 101.5 20.5t119.5 51.5q-37 68 -58.5 146.5t-21.5 152.5 q-23 -4 -52.5 -10.5t-59 -13.5t-56 -17.5t-45.5 -18.5q-39 -20 -49 -56t-10 -81zM725 532q45 4 98 13q47 6 109.5 13t138.5 17q23 4 25 16.5t2 37.5q0 35 -10.5 78t-33 79.5t-59.5 58t-90 15.5q-55 -6 -90 -42t-54.5 -84t-27.5 -102t-8 -100z" />
<glyph unicode="&#xe7;" horiz-adv-x="888" d="M43 479q0 86 25.5 163t76 138.5t123 102.5t166.5 53q88 12 164 -7.5t132 -59.5t88 -93t32 -108q0 -41 -41 -57.5t-127 -16.5q-18 55 -44 104.5t-56.5 86t-66.5 57t-75 16.5q-47 -4 -77.5 -34.5t-51 -80t-29 -113t-8.5 -134.5q0 -96 26 -172t67 -129.5t91 -81t99 -27.5 q29 0 71 10t79 23q43 14 90 35l12 -25q10 -20 14 -37q-51 -29 -110 -51q-51 -20 -117 -37.5t-137 -23.5l-2 -91q20 0 50 -3t57.5 -14t46 -31.5t16.5 -57.5q-4 -49 -40 -85t-89.5 -57.5t-118 -25.5t-125.5 12l20 56q25 0 60 1t65.5 9t53 26.5t26.5 51.5q2 37 -25.5 45 t-70.5 8q-4 0 -18 18q-8 8 -15 21l45 114q-72 4 -135 49.5t-111.5 115t-77 157.5t-28.5 180z" />
<glyph unicode="&#xe8;" horiz-adv-x="923" d="M47 430q-6 94 17.5 179t74.5 152.5t126 114t171 62.5q186 18 300 -80t149 -297q-16 -18 -31 -37q-12 -16 -26.5 -33.5t-26.5 -31.5h-525q0 -72 21.5 -137.5t59.5 -116.5t89.5 -83t106.5 -34q29 -2 71 9.5t81 23.5q45 14 92 33q6 -12 12 -23q10 -23 14 -39 q-59 -35 -127 -59q-57 -23 -132 -40.5t-152 -17.5q-66 0 -130.5 42t-116.5 109t-85 146.5t-33 157.5zM252 1356l143 71l172 -342l-71 -24q-43 41 -86 93t-78 97q-41 53 -80 105zM274 524q98 4 181.5 7.5t179.5 7.5q27 0 27 53q0 35 -12.5 84t-38 92t-65.5 70.5t-93 21.5 q-55 -6 -90 -43t-54.5 -87t-27 -105.5t-7.5 -100.5z" />
<glyph unicode="&#xe9;" horiz-adv-x="923" d="M47 430q0 -78 33 -157.5t85 -146.5t116.5 -109t130.5 -42q78 0 152.5 17.5t131.5 40.5q68 25 127 59q-4 16 -14 39q-6 10 -12 23q-47 -18 -92 -33q-39 -12 -81 -23.5t-71 -9.5q-55 2 -106.5 34t-89.5 83t-59.5 116.5t-21.5 137.5h525q12 14 26.5 31.5t26.5 33.5 q14 18 31 37q-35 199 -148.5 297t-300.5 80q-96 -16 -171 -62.5t-126 -114t-74.5 -152.5t-17.5 -179zM274 524q0 45 7.5 100.5t27 105.5t54.5 87t90 43q53 6 93 -21.5t65.5 -70.5t38 -92t12.5 -84q0 -53 -27 -53q-96 -4 -179 -7.5t-182 -7.5zM336 1085l172 342l143 -71 q-39 -51 -80 -105q-35 -45 -77.5 -97t-83.5 -93z" />
<glyph unicode="&#xea;" horiz-adv-x="923" d="M47 430q-6 94 17.5 179t74.5 152.5t126 114t171 62.5q186 18 300 -80t149 -297q-16 -18 -31 -37q-12 -16 -26.5 -33.5t-26.5 -31.5h-525q0 -72 21.5 -137.5t59.5 -116.5t89.5 -83t106.5 -34q29 -2 71 9.5t81 23.5q45 14 92 33q6 -12 12 -23q10 -23 14 -39 q-59 -35 -127 -59q-57 -23 -132 -40.5t-152 -17.5q-66 0 -130.5 42t-116.5 109t-85 146.5t-33 157.5zM236 1087l143 318h190l144 -318l-62 -24q-49 49 -95 114.5t-81 112.5q-37 -47 -84 -112.5t-96 -114.5zM274 524q98 4 181.5 7.5t179.5 7.5q27 0 27 53q0 35 -12.5 84 t-38 92t-65.5 70.5t-93 21.5q-55 -6 -90 -43t-54.5 -87t-27 -105.5t-7.5 -100.5z" />
<glyph unicode="&#xeb;" horiz-adv-x="923" d="M47 430q0 -78 33 -157.5t85 -146.5t116.5 -109t130.5 -42q78 0 152.5 17.5t131.5 40.5q68 25 127 59q-4 16 -14 39q-6 10 -12 23q-47 -18 -92 -33q-39 -12 -81 -23.5t-71 -9.5q-55 2 -106.5 34t-89.5 83t-59.5 116.5t-21.5 137.5h525q12 14 26.5 31.5t26.5 33.5 q14 18 31 37q-35 199 -148.5 297t-300.5 80q-96 -16 -171 -62.5t-126 -114t-74.5 -152.5t-17.5 -179zM143 1251q0 14 5.5 31.5t15.5 34t28.5 28t47.5 11.5h8q27 0 46 -11.5t29.5 -28t15.5 -33.5t5 -32q0 -14 -5 -31.5t-15.5 -34t-29.5 -27.5t-46 -11h-8q-29 0 -47.5 11 t-28.5 27.5t-15.5 34t-5.5 31.5zM274 524q0 45 7.5 100.5t27 105.5t54.5 87t90 43q53 6 93 -21.5t65.5 -70.5t38 -92t12.5 -84q0 -53 -27 -53q-96 -4 -179 -7.5t-182 -7.5zM565 1251q0 14 5 31.5t15.5 34t29 28t47.5 11.5h6q29 0 47 -11.5t29.5 -28t16.5 -33.5t5 -32 q0 -14 -5 -31.5t-16.5 -34t-29.5 -27.5t-47 -11h-6q-29 0 -47.5 11t-29 27.5t-15.5 34t-5 31.5z" />
<glyph unicode="&#xec;" horiz-adv-x="598" d="M61 858q0 8 2 16q20 2 58 11q59 12 217 59q16 -18 31 -35q12 -14 23 -29.5t16 -23.5v-690q0 -35 8 -61.5t12 -32.5l102 -15v-57h-458v57l94 15q4 8 12 34.5t8 59.5v600q0 10 -3 19.5t-7 17.5t-8 14h-102q-4 12 -4.5 22.5t-0.5 18.5zM88 1356l143 71l172 -342l-71 -24 q-43 41 -86 93t-78 97q-41 53 -80 105z" />
<glyph unicode="&#xed;" horiz-adv-x="598" d="M61 839.5q0 -10.5 5 -22.5h102q4 -6 8 -14t7 -17.5t3 -19.5v-600q0 -33 -8 -59.5t-12 -34.5l-94 -15v-57h458v57l-102 15q-4 6 -12 32.5t-8 61.5v690q-4 8 -15.5 23.5t-23.5 29.5q-14 16 -31 35q-158 -47 -217 -59q-37 -8 -58 -11q-2 -8 -2 -16v-18.5zM131 1085l172 342 l143 -71q-39 -51 -79 -105q-35 -45 -78 -97t-84 -93z" />
<glyph unicode="&#xee;" horiz-adv-x="598" d="M55 1087l144 318h190l143 -318l-61 -24q-49 49 -95 114.5t-81 112.5q-37 -47 -84 -112.5t-96 -114.5zM61 858q0 8 2 16q20 2 58 11q59 12 217 59q16 -18 31 -35q12 -14 23 -29.5t16 -23.5v-690q0 -35 8 -61.5t12 -32.5l102 -15v-57h-458v57l94 15q4 8 12 34.5t8 59.5v600 q0 10 -3 19.5t-7 17.5t-8 14h-102q-4 12 -4.5 22.5t-0.5 18.5z" />
<glyph unicode="&#xef;" horiz-adv-x="598" d="M-12 1251q0 14 5 31.5t15 34t28.5 28t47.5 11.5h8q27 0 46.5 -11.5t29.5 -28t15 -33.5t5 -32q0 -14 -5 -31.5t-15 -34t-29.5 -27.5t-46.5 -11h-8q-29 0 -47.5 11t-28.5 27.5t-15 34t-5 31.5zM61 839.5q0 -10.5 5 -22.5h102q4 -6 8 -14t7 -17.5t3 -19.5v-600 q0 -33 -8 -59.5t-12 -34.5l-94 -15v-57h458v57l-102 15q-4 6 -12 32.5t-8 61.5v690q-4 8 -15.5 23.5t-23.5 29.5q-14 16 -31 35q-158 -47 -217 -59q-37 -8 -58 -11q-2 -8 -2 -16v-18.5zM410 1251q0 14 5 31.5t15 34t28.5 28t47.5 11.5h6q29 0 47.5 -11.5t29.5 -28t16 -33.5 t5 -32q0 -14 -5 -31.5t-16 -34t-29.5 -27.5t-47.5 -11h-6q-29 0 -47.5 11t-28.5 27.5t-15 34t-5 31.5z" />
<glyph unicode="&#xf0;" horiz-adv-x="1034" d="M82.5 546.5q13.5 104.5 55.5 188.5t106.5 137.5t140.5 53.5q43 0 80 -6.5t65 -12.5q33 -8 62 -18q0 -25 -8.5 -41.5t-18.5 -26.5q-10 -12 -24 -18q-16 8 -33 16q-16 6 -33.5 12.5t-40.5 6.5q-45 0 -71.5 -57.5t-37 -143.5t-2 -186.5t33 -186.5t68.5 -143.5t105 -57.5 q47 0 84 32t61.5 88.5t38 132t13.5 163.5q0 78 -13.5 162t-45 171t-84 176t-131.5 177q-49 -23 -97.5 -43t-87.5 -32l-49 45l162 102q-59 55 -139 111l51 82q27 -16 60.5 -37t62.5 -41q35 -23 69 -49l172 108l48 -127q-14 -10 -35 -18q-16 -8 -40 -19.5t-50 -23.5 q209 -195 299 -390.5t90 -363.5q0 -104 -30 -195.5t-86 -157t-137 -103.5t-181 -38q-98 0 -172 25t-126.5 71t-87 113.5t-55.5 155.5q-25 102 -11.5 206.5z" />
<glyph unicode="&#xf1;" horiz-adv-x="1179" d="M61 858q0 8 2 16q20 2 58 11q33 6 85 19.5t132 39.5q14 -18 29 -35q10 -14 22 -28.5t19 -24.5v-78q33 18 78.5 47t94 56.5t93.5 46t74 16.5q76 -14 121.5 -48t70.5 -85t32 -119.5t7 -154.5v-371q0 -33 10 -64q4 -16 10 -30q18 0 39 -1t37.5 -3t26.5 -4l10 -1v-63h-436v63 q8 0 18 3q8 2 19.5 3t23.5 3q4 8 11.5 34.5t7.5 59.5v201q0 117 -3 196.5t-12.5 129.5t-30 72.5t-53.5 22.5q-47 0 -115.5 -27.5t-133.5 -68.5v-526q0 -33 10 -64q6 -16 12 -30q14 -2 27.5 -3t23.5 -3q12 -2 25 -5v-61h-434v57q12 2 28 6q14 2 30.5 4.5t35.5 4.5 q4 8 12 34.5t8 59.5v598q0 10 -3 19.5t-7 17.5l-8 16h-102q-4 12 -4.5 22.5t-0.5 18.5zM297 1194q6 49 22 86q12 33 36 59.5t59 26.5q41 0 96 -15.5t104 -31.5q57 -23 117 -47l78 94l43 -20q-4 -49 -18 -86q-12 -33 -35 -59.5t-64 -26.5q-72 0 -130 14t-101 31 q-51 20 -90 47l-74 -92z" />
<glyph unicode="&#xf2;" horiz-adv-x="1089" d="M70 459q0 106 42 195t110.5 151.5t158.5 97.5t188 35q225 0 336 -125t111 -340q0 -121 -44 -213t-116 -154.5t-162 -95.5t-182 -33q-96 0 -177 33t-140.5 94.5t-92 150.5t-32.5 204zM299 457q0 -63 13.5 -134t44 -129.5t77.5 -97.5t115 -39q106 0 169.5 106.5t63.5 313.5 q0 76 -13 147.5t-43 125t-77 83t-117 23.5q-113 -10 -173 -118.5t-60 -280.5zM354 1356l144 71l172 -342l-72 -24q-43 41 -86 93t-78 97q-41 53 -80 105z" />
<glyph unicode="&#xf3;" horiz-adv-x="1089" d="M70 459q0 -115 32.5 -204t92 -150.5t140.5 -94.5t177 -33q92 0 182 33t162 95.5t116 154.5t44 213q0 215 -111 340t-336 125q-98 0 -188 -35t-158.5 -97.5t-110.5 -151.5t-42 -195zM299 457q0 172 60.5 280.5t172.5 118.5q70 6 117 -23.5t77 -83t43 -125t13 -147.5 q0 -207 -63.5 -313.5t-169.5 -106.5q-68 0 -115 39t-77.5 97.5t-44 129t-13.5 134.5zM418 1085l172 342l143 -71q-39 -51 -80 -105q-35 -45 -78 -97t-83 -93z" />
<glyph unicode="&#xf4;" horiz-adv-x="1089" d="M70 459q0 106 42 195t110.5 151.5t158.5 97.5t188 35q225 0 336 -125t111 -340q0 -121 -44 -213t-116 -154.5t-162 -95.5t-182 -33q-96 0 -177 33t-140.5 94.5t-92 150.5t-32.5 204zM297 1087l143 318h191l143 -318l-61 -24q-49 49 -95.5 114.5t-80.5 112.5 q-37 -47 -84 -112.5t-97 -114.5zM299 457q0 -63 13.5 -134t44 -129.5t77.5 -97.5t115 -39q106 0 169.5 106.5t63.5 313.5q0 76 -13 147.5t-43 125t-77 83t-117 23.5q-113 -10 -173 -118.5t-60 -280.5z" />
<glyph unicode="&#xf5;" horiz-adv-x="1089" d="M70 459q0 106 42 195t110.5 151.5t158.5 97.5t188 35q225 0 336 -125t111 -340q0 -121 -44 -213t-116 -154.5t-162 -95.5t-182 -33q-96 0 -177 33t-140.5 94.5t-92 150.5t-32.5 204zM276 1194q6 49 23 86q12 33 35.5 59.5t58.5 26.5q41 0 96.5 -15.5t104.5 -31.5 q57 -23 117 -47l77 94l43 -20q-4 -49 -18 -86q-12 -33 -34.5 -59.5t-63.5 -26.5q-72 0 -130.5 14t-101.5 31q-51 20 -90 47l-74 -92zM299 457q0 -63 13.5 -134t44 -129.5t77.5 -97.5t115 -39q106 0 169.5 106.5t63.5 313.5q0 76 -13 147.5t-43 125t-77 83t-117 23.5 q-113 -10 -173 -118.5t-60 -280.5z" />
<glyph unicode="&#xf6;" horiz-adv-x="1089" d="M70 459q0 -115 32.5 -204t92 -150.5t140.5 -94.5t177 -33q92 0 182 33t162 95.5t116 154.5t44 213q0 215 -111 340t-336 125q-98 0 -188 -35t-158.5 -97.5t-110.5 -151.5t-42 -195zM221 1251q0 14 5 31.5t15.5 34t29 28t46.5 11.5h9q27 0 46 -11.5t29.5 -28t15.5 -33.5 t5 -32q0 -14 -5 -31.5t-15.5 -34t-29.5 -27.5t-46 -11h-9q-29 0 -47 11t-28.5 27.5t-15.5 34t-5 31.5zM299 457q0 172 60.5 280.5t172.5 118.5q70 6 117 -23.5t77 -83t43 -125t13 -147.5q0 -207 -63.5 -313.5t-169.5 -106.5q-68 0 -115 39t-77.5 97.5t-44 129t-13.5 134.5z M643 1251q0 14 5 31.5t15.5 34t29 28t46.5 11.5h6q29 0 47.5 -11.5t30 -28t16.5 -33.5t5 -32q0 -14 -5 -31.5t-16.5 -34t-30 -27.5t-47.5 -11h-6q-29 0 -47 11t-28.5 27.5t-15.5 34t-5 31.5z" />
<glyph unicode="&#xf7;" horiz-adv-x="1382" d="M147 446h1078v107h-1078v-107zM571 186q0 45 28 77t81 32h10q53 0 81 -32t28 -77q0 -43 -31 -71.5t-78 -28.5h-10q-47 0 -78 28.5t-31 71.5zM571 809q0 45 28 77t81 32h10q53 0 81 -32t28 -77q0 -43 -31 -71.5t-78 -28.5h-10q-47 0 -78 28.5t-31 71.5z" />
<glyph unicode="&#xf8;" horiz-adv-x="1085" d="M74 459q0 106 43 195t113.5 151.5t160.5 97.5t184 35q59 0 106.5 -10t92.5 -31q16 31 28.5 69t12.5 48l105 -47q-8 -18 -19 -39q-10 -16 -21.5 -36t-21.5 -36q164 -123 164 -383q0 -121 -46 -213t-119 -154.5t-163 -95.5t-178 -33q-100 0 -186 43q-16 -31 -23.5 -61.5 t-7.5 -40.5l-115 37q10 16 21 37q18 33 45 74q-80 59 -128 158.5t-48 234.5zM299 457q0 -70 13.5 -132.5t35.5 -115.5q18 33 43 75t53.5 89t58 95t58.5 95q68 109 137 223q-27 33 -64.5 52.5t-80.5 19.5q-53 0 -100 -29.5t-81 -83t-53.5 -127t-19.5 -161.5zM399 133 q25 -29 65 -52.5t81 -23.5q45 0 88 20.5t76.5 70t54 129t20.5 200.5q0 8 -1 36t-5 61.5t-11 68.5t-19 62q-39 -68 -98.5 -164.5t-114.5 -188.5q-66 -106 -136 -219z" />
<glyph unicode="&#xf9;" horiz-adv-x="1024" d="M4 862v58h354q-4 -18 -8 -43q-4 -23 -6 -56t-2 -76v-192q0 -119 3 -203t14.5 -138t32 -78.5t54.5 -24.5q29 0 65 14t69 33q37 23 77 49v540q0 41 -7 73t-17 54q-10 27 -25 48h295q-6 -20 -12 -46q-10 -51 -10 -129v-598q0 -27 1 -42t10 -25t26.5 -19.5t52.5 -21.5 q0 -8 -4 -19q-6 -20 -29 -45q-41 0 -86 5q-39 4 -90 8t-105 14v104q-27 -14 -66.5 -38.5t-83.5 -47t-86 -37t-69 -8.5q-86 16 -134 54.5t-69.5 91.5t-25.5 120.5t-4 141.5v362q0 16 -3 32t-7 30q-6 16 -11 33zM272 1356l144 71l172 -342l-72 -24q-43 41 -86 93t-78 97 q-41 53 -80 105z" />
<glyph unicode="&#xfa;" horiz-adv-x="1024" d="M4 862l94 -22q4 -16 11 -33q4 -14 7 -29.5t3 -32.5v-362q0 -74 4 -141.5t25.5 -120.5t69.5 -91t134 -55q27 -6 69 8.5t86 37t84 47t66 38.5v-104q53 -10 104.5 -14t90.5 -8q45 -4 86 -5q23 25 29 45q4 10 4 19q-35 12 -52.5 21.5t-26.5 19.5t-10 25t-1 42v598 q0 78 10 129q6 25 12 46h-295q14 -20 25 -48q10 -23 17 -54.5t7 -72.5v-540q-41 -27 -77 -49q-33 -18 -69 -32.5t-65 -14.5q-35 0 -55 24.5t-31.5 78.5t-14.5 138t-3 203v192q0 43 2 76t6 56q4 25 8 43h-354v-58zM356 1085l172 342l144 -71q-39 -51 -80 -105 q-35 -45 -78 -97t-84 -93z" />
<glyph unicode="&#xfb;" horiz-adv-x="1024" d="M4 862v58h354q-4 -18 -8 -43q-4 -23 -6 -56t-2 -76v-192q0 -119 3 -203t14.5 -138t32 -78.5t54.5 -24.5q29 0 65 14t69 33q37 23 77 49v540q0 41 -7 73t-17 54q-10 27 -25 48h295q-6 -20 -12 -46q-10 -51 -10 -129v-598q0 -27 1 -42t10 -25t26.5 -19.5t52.5 -21.5 q0 -8 -4 -19q-6 -20 -29 -45q-41 0 -86 5q-39 4 -90 8t-105 14v104q-27 -14 -66.5 -38.5t-83.5 -47t-86 -37t-69 -8.5q-86 16 -134 54.5t-69.5 91.5t-25.5 120.5t-4 141.5v362q0 16 -3 32t-7 30q-6 16 -11 33zM236 1087l143 318h190l144 -318l-62 -24q-49 49 -95 114.5 t-81 112.5q-37 -47 -84 -112.5t-96 -114.5z" />
<glyph unicode="&#xfc;" horiz-adv-x="1024" d="M4 862l94 -22q4 -16 11 -33q4 -14 7 -29.5t3 -32.5v-362q0 -74 4 -141.5t25.5 -120.5t69.5 -91t134 -55q27 -6 69 8.5t86 37t84 47t66 38.5v-104q53 -10 104.5 -14t90.5 -8q45 -4 86 -5q23 25 29 45q4 10 4 19q-35 12 -52.5 21.5t-26.5 19.5t-10 25t-1 42v598 q0 78 10 129q6 25 12 46h-295q14 -20 25 -48q10 -23 17 -54.5t7 -72.5v-540q-41 -27 -77 -49q-33 -18 -69 -32.5t-65 -14.5q-35 0 -55 24.5t-31.5 78.5t-14.5 138t-3 203v192q0 43 2 76t6 56q4 25 8 43h-354v-58zM180 1251q0 14 5 31.5t15.5 34t29 28t46.5 11.5h9 q27 0 46 -11.5t29.5 -28t15.5 -33.5t5 -32q0 -14 -5 -31.5t-15.5 -34t-29.5 -27.5t-46 -11h-9q-29 0 -47 11t-28.5 27.5t-15.5 34t-5 31.5zM602 1251q0 14 5 31.5t15.5 34t29 28t46.5 11.5h7q29 0 47 -11.5t29.5 -28t16.5 -33.5t5 -32q0 -14 -5 -31.5t-16.5 -34t-29.5 -27.5 t-47 -11h-7q-29 0 -47 11t-28.5 27.5t-15.5 34t-5 31.5z" />
<glyph unicode="&#xfd;" horiz-adv-x="1157" d="M23 862q16 -4 37.5 -7t43.5 -7q25 -4 52 -8l383 -717q-39 -98 -99.5 -159.5t-122 -97.5t-109.5 -49.5t-63 -13.5q6 -41 23 -71q12 -27 35.5 -48.5t62.5 -21.5q16 0 50 8t83.5 51t114 132.5t141.5 252.5q88 184 147.5 311.5t99.5 211.5t65.5 130t47 68.5t42 27.5t53.5 5 v60h-393v-62l110 -10q-23 -84 -49 -176q-25 -78 -58.5 -174.5t-78.5 -188.5q-59 102 -109 197q-41 80 -76.5 162t-41.5 131q-4 35 10 47t68 12v62h-469v-58zM500 1085l172 342l143 -71q-39 -51 -80 -105q-35 -45 -78 -97t-84 -93z" />
<glyph unicode="&#xfe;" horiz-adv-x="1028" d="M47 1219v57h457v-57l-94 -15q-4 -8 -12.5 -34.5t-8.5 -59.5v-281q27 14 63.5 34t73.5 38.5t71 30.5t56 12q37 0 94.5 -20.5t109.5 -70.5t90 -137t38 -220q0 -90 -19.5 -182.5t-64.5 -167t-119.5 -122t-185.5 -47.5q-20 0 -53 10.5t-66 23t-58.5 22.5t-27.5 12v-278 q0 -35 8.5 -62t12.5 -33q14 -2 30.5 -4t32.5 -4q18 -4 37 -6v-57h-459v57q16 2 35 6q16 2 31.5 4t30.5 4q4 8 12 35t8 60v1007q0 4 -1 9t1 10v317q0 35 -8 61.5t-12 32.5zM389 205q2 -33 21.5 -57.5t46 -40t56.5 -23.5t50 -8q45 0 81 35.5t58.5 93t35 128t12.5 142.5 q0 63 -9.5 125t-28 109t-47 76.5t-67.5 29.5q-41 0 -79 -12t-66 -29q-35 -18 -64 -41v-528z" />
<glyph unicode="&#xff;" horiz-adv-x="1157" d="M23 862q16 -4 37.5 -7t43.5 -7q25 -4 52 -8l383 -717q-39 -98 -99.5 -159.5t-122 -97.5t-109.5 -49.5t-63 -13.5q6 -41 23 -71q12 -27 35.5 -48.5t62.5 -21.5q16 0 50 8t83.5 51t114 132.5t141.5 252.5q88 184 147.5 311.5t99.5 211.5t65.5 130t47 68.5t42 27.5t53.5 5 v60h-393v-62l110 -10q-23 -84 -49 -176q-25 -78 -58.5 -174.5t-78.5 -188.5q-59 102 -109 197q-41 80 -76.5 162t-41.5 131q-4 35 10 47t68 12v62h-469v-58zM303 1251q0 14 5 31.5t15.5 34t29 28t46.5 11.5h9q27 0 46 -11.5t29.5 -28t15.5 -33.5t5 -32q0 -14 -5 -31.5 t-15.5 -34t-29.5 -27.5t-46 -11h-9q-29 0 -47 11t-28.5 27.5t-15.5 34t-5 31.5zM725 1251q0 14 5 31.5t15.5 34t29 28t46.5 11.5h6q29 0 47.5 -11.5t29.5 -28t16.5 -33.5t5.5 -32q0 -14 -5.5 -31.5t-16.5 -34t-29.5 -27.5t-47.5 -11h-6q-29 0 -47 11t-28.5 27.5t-15.5 34 t-5 31.5z" />
<glyph unicode="&#x152;" horiz-adv-x="1787" d="M59 666q0 143 54.5 268t150.5 218t231.5 147.5t299.5 54.5q100 0 196 -23h623q2 -45 8 -91t12 -83q8 -43 17 -84q-27 0 -44.5 2t-27.5 6q-12 4 -20 11q-4 16 -11 34q-10 33 -28 58q-14 20 -38 32.5t-49.5 19.5t-50 10t-43.5 3h-225v-508h279q43 0 53 49.5t14 133.5 l70 -11v-421l-70 -3q-4 76 -15 124.5t-52 48.5h-279v-582h318q18 0 43.5 2t52 7t50.5 16.5t38 31.5q18 25 24 62q4 18 7 39l84 -17q-6 -35 -13 -71q-4 -33 -7 -71t-3 -79h-717q-92 -25 -196 -25q-176 0 -313.5 54.5t-230.5 147.5t-142.5 219t-49.5 270zM317 666 q0 -113 30 -222.5t88.5 -195.5t144.5 -139.5t200 -53.5q53 0 103 13v1196q-25 4 -50.5 7t-52.5 3q-115 0 -200.5 -53.5t-144 -139.5t-88.5 -194.5t-30 -220.5z" />
<glyph unicode="&#x153;" horiz-adv-x="1724" d="M70 459q0 106 42 195t110.5 151.5t158.5 97.5t188 35q123 0 208 -39t136 -111q49 57 119 95.5t156 54.5q186 18 307 -80t156 -297q-16 -18 -31 -37q-12 -16 -26.5 -33.5t-26.5 -31.5h-559q0 -66 25.5 -130.5t66.5 -117.5t95.5 -87t109.5 -36q29 -2 70.5 9.5t80.5 23.5 q45 14 92 33q6 -12 13 -23q10 -23 14 -39q-59 -35 -127 -59q-57 -23 -132 -40.5t-153 -17.5q-72 0 -142.5 49.5t-123.5 125.5q-70 -90 -172 -131.5t-213 -41.5q-96 0 -177 33t-140.5 94.5t-92 150.5t-32.5 204zM299 457q0 -63 13.5 -134t44 -129.5t77.5 -97.5t115 -39 q106 0 169.5 106.5t63.5 313.5q0 76 -13 147.5t-43 125t-77 83t-117 23.5q-113 -10 -173 -118.5t-60 -280.5zM1006 524q98 4 198.5 7.5t196.5 7.5q27 0 26 53q0 35 -14 84t-43 92t-71 70.5t-95 21.5q-55 -6 -93 -43t-60.5 -87t-33.5 -105.5t-11 -100.5z" />
<glyph unicode="&#x178;" horiz-adv-x="1312" d="M41 1270q23 -6 42 -9.5t34 -5.5q16 -2 28 -4q14 -10 31 -24q12 -12 27.5 -30.5t29.5 -41.5q68 -117 125.5 -222.5t98.5 -185t64.5 -129t25.5 -53.5v-393q0 -39 -9.5 -63.5t-11.5 -28.5l-114 -19v-61h508v61l-119 19q-6 12 -10 26q-10 27 -11 66v334q0 31 3 56.5t12.5 55 t29 69.5t51 102.5t80 151.5t115.5 218q20 41 44 62.5t50.5 33t53 13.5t53.5 2v61h-479v-61q25 -2 47 -6q20 -4 39.5 -6.5t35.5 -6.5q12 -6 21 -16q6 -10 7 -27.5t-11 -46.5q-55 -117 -106.5 -221t-106.5 -219q-61 104 -114.5 200.5t-94.5 170.5q-47 86 -84 161q35 4 59 9 q23 4 40.5 6t15.5 2v61h-500v-61zM360 1518q0 14 5.5 31.5t15.5 33.5t28.5 27.5t47.5 11.5h8q27 0 46 -11.5t29.5 -27.5t15.5 -33.5t5 -31.5t-5 -32t-15.5 -34t-29.5 -27.5t-46 -11.5h-8q-29 0 -47.5 11.5t-28.5 27.5t-15.5 33.5t-5.5 32.5zM782 1518q0 14 5.5 31.5 t15.5 33.5t28.5 27.5t47.5 11.5h6q29 0 47 -11.5t29.5 -27.5t16.5 -33.5t5 -31.5t-5 -32t-16.5 -34t-29.5 -27.5t-47 -11.5h-6q-29 0 -47.5 11.5t-28.5 27.5t-15.5 33.5t-5.5 32.5z" />
<glyph unicode="&#x2c6;" horiz-adv-x="444" d="M-18 1090l143 317h190l144 -317l-62 -25q-49 49 -95 114.5t-81 112.5q-37 -47 -84 -112.5t-96 -114.5z" />
<glyph unicode="&#x2dc;" horiz-adv-x="647" d="M47 1194q6 49 23 86q12 33 35.5 59.5t58.5 26.5q41 0 96 -15.5t105 -31.5q57 -23 116 -47l78 94l43 -20q-4 -49 -18 -86q-12 -33 -35 -59.5t-64 -26.5q-72 0 -130 14t-101 31q-51 20 -90 47l-74 -92z" />
<glyph unicode="&#x2000;" horiz-adv-x="884" />
<glyph unicode="&#x2001;" horiz-adv-x="1769" />
<glyph unicode="&#x2002;" horiz-adv-x="884" />
<glyph unicode="&#x2003;" horiz-adv-x="1769" />
<glyph unicode="&#x2004;" horiz-adv-x="589" />
<glyph unicode="&#x2005;" horiz-adv-x="442" />
<glyph unicode="&#x2006;" horiz-adv-x="294" />
<glyph unicode="&#x2007;" horiz-adv-x="294" />
<glyph unicode="&#x2008;" horiz-adv-x="221" />
<glyph unicode="&#x2009;" horiz-adv-x="353" />
<glyph unicode="&#x200a;" horiz-adv-x="98" />
<glyph unicode="&#x2010;" horiz-adv-x="681" d="M61 391l13 103l528 55l-22 -156q-59 6 -138 8q-66 2 -162 1t-219 -11z" />
<glyph unicode="&#x2011;" horiz-adv-x="681" d="M61 391l13 103l528 55l-22 -156q-59 6 -138 8q-66 2 -162 1t-219 -11z" />
<glyph unicode="&#x2012;" horiz-adv-x="681" d="M61 391l13 103l528 55l-22 -156q-59 6 -138 8q-66 2 -162 1t-219 -11z" />
<glyph unicode="&#x2013;" horiz-adv-x="1024" d="M23 399v107h978v-107h-978z" />
<glyph unicode="&#x2014;" horiz-adv-x="1187" d="M23 399v107h1142v-107h-1142z" />
<glyph unicode="&#x2018;" horiz-adv-x="342" d="M47 1063q0 61 23.5 113.5t58.5 93.5t74 69.5t69 44.5q8 -10 17 -18q6 -8 12 -14t6 -4q-12 -10 -31.5 -27.5t-38 -41.5t-33 -50.5t-18.5 -54.5q33 0 52.5 -11.5t31 -30t15.5 -40t4 -39.5q0 -12 -4 -30.5t-17.5 -35t-37 -29t-62.5 -12.5q-41 0 -64.5 13.5t-36 33t-16.5 39 t-4 31.5z" />
<glyph unicode="&#x2019;" horiz-adv-x="348" d="M35 983q12 10 31.5 27.5t38 41t33 50t18.5 55.5q-33 0 -52.5 11.5t-31 30t-15.5 40t-4 39.5q0 12 4 30.5t17.5 35t37 28.5t62.5 12t63.5 -13t37 -32.5t16.5 -39t4 -31.5q0 -61 -23.5 -113.5t-58.5 -93.5t-74 -69.5t-69 -45.5l-19 19q-4 4 -7 6t-5 6q-4 4 -4 6z" />
<glyph unicode="&#x201a;" horiz-adv-x="348" d="M35 -180q12 10 31.5 27.5t38 41t33 50t18.5 55.5q-33 0 -52.5 11t-31 29.5t-15.5 40t-4 40.5q0 12 4 30.5t17.5 35t37 28.5t62.5 12t63.5 -13t37 -32.5t16.5 -39t4 -32.5q0 -61 -23.5 -113t-58.5 -93t-74 -70t-69 -45q-10 10 -19 18q-4 4 -7 6.5t-5 6.5q-4 4 -4 6z" />
<glyph unicode="&#x201c;" horiz-adv-x="724" d="M35 1063q0 61 23.5 113.5t58.5 93.5t73.5 69.5t69.5 44.5q8 -10 16 -18q6 -8 12.5 -14t6.5 -4q-12 -10 -31.5 -27.5t-38 -41.5t-33 -50.5t-18.5 -54.5q33 0 52.5 -11.5t30.5 -30t15 -40t4 -39.5q0 -12 -4 -30.5t-17 -35t-36.5 -29t-62.5 -12.5q-41 0 -64.5 13.5t-36 33 t-16.5 39t-4 31.5zM403 1063q0 61 24 113.5t58.5 93.5t73.5 69.5t70 44.5q8 -10 16 -18q6 -8 12.5 -14t6.5 -4q-12 -10 -32 -27.5t-38.5 -41.5t-32.5 -50.5t-18 -54.5q33 0 52 -11.5t30.5 -30t15.5 -40t4 -39.5q0 -12 -4 -30.5t-17.5 -35t-37 -29t-62.5 -12.5 q-41 0 -64.5 13.5t-35.5 33t-16.5 39t-4.5 31.5z" />
<glyph unicode="&#x201d;" horiz-adv-x="708" d="M35 983q12 10 31.5 27.5t38 41t33 50t18.5 55.5q-33 0 -52.5 11.5t-31 30t-15.5 40t-4 39.5q0 12 4 30.5t17.5 35t37 28.5t62.5 12t63.5 -13t37 -32.5t16.5 -39t4 -31.5q0 -61 -23.5 -113.5t-58.5 -93.5t-74 -69.5t-69 -45.5l-19 19q-4 4 -7 6t-5 6q-4 4 -4 6zM403 983 q12 10 32 27.5t38.5 41t32.5 50t18 55.5q-33 0 -52 11.5t-30.5 30t-15.5 40t-4 39.5q0 12 4 30.5t17.5 35t37 28.5t62.5 12t63.5 -13t36.5 -32.5t16.5 -39t4.5 -31.5q0 -61 -24 -113.5t-58.5 -93.5t-73.5 -69.5t-70 -45.5q-10 10 -18 19q-4 4 -7 6t-5 6q-4 4 -5 6z" />
<glyph unicode="&#x201e;" horiz-adv-x="708" d="M35 -180q12 10 31.5 27.5t38 41t33 50t18.5 55.5q-33 0 -52.5 11t-31 29.5t-15.5 40t-4 40.5q0 12 4 30.5t17.5 35t37 28.5t62.5 12t63.5 -13t37 -32.5t16.5 -39t4 -32.5q0 -61 -23.5 -113t-58.5 -93t-74 -70t-69 -45q-10 10 -19 18q-4 4 -7 6.5t-5 6.5q-4 4 -4 6z M403 -180q12 10 32 27.5t38.5 41t32.5 50t18 55.5q-33 0 -52 11t-30.5 29.5t-15.5 40t-4 40.5q0 12 4 30.5t17.5 35t37 28.5t62.5 12t63.5 -13t36.5 -32.5t16.5 -39t4.5 -32.5q0 -61 -24 -113t-58.5 -93t-73.5 -70t-70 -45l-18 18q-4 4 -7 6.5t-5 6.5q-4 4 -5 6z" />
<glyph unicode="&#x2022;" horiz-adv-x="507" d="M84 592q0 72 50 119t122 47t123 -47t51 -119t-51 -120t-123 -48t-122 48t-50 120z" />
<glyph unicode="&#x2026;" horiz-adv-x="1927" d="M188 82q0 41 26 76t77 35h10q51 0 76.5 -35t25.5 -76t-28.5 -74t-73.5 -33h-10q-45 0 -74 33t-29 74zM854 82q0 41 25.5 76t76.5 35h11q51 0 76.5 -35t25.5 -76t-28.5 -74t-73.5 -33h-11q-45 0 -73.5 33t-28.5 74zM1522 82q0 41 25.5 76t76.5 35h10q51 0 77 -35t26 -76 t-29 -74t-74 -33h-10q-45 0 -73.5 33t-28.5 74z" />
<glyph unicode="&#x202f;" horiz-adv-x="353" />
<glyph unicode="&#x2039;" horiz-adv-x="432" d="M45 496q0 27 2 36q2 8 4 17l285 217l51 -43q-53 -55 -104.5 -117.5t-87.5 -109.5q37 -45 88 -108.5t104 -117.5l-51 -45l-285 217q-2 8 -4 17q-2 10 -2 37z" />
<glyph unicode="&#x203a;" horiz-adv-x="430" d="M45 270q53 53 104.5 117t86.5 109q-35 47 -86.5 109.5t-104.5 117.5l49 43l285 -217q0 -8 2 -17q4 -20 4 -36t-4 -37q-2 -8 -2 -17l-285 -217z" />
<glyph unicode="&#x205f;" horiz-adv-x="442" />
<glyph unicode="&#x20ac;" horiz-adv-x="1318" d="M-47 500l12 96h115q-2 35 -2 68.5t4 68.5l-129 -2l12 96h133q29 113 96.5 210.5t164 168t216 110.5t252.5 40q113 0 227.5 -29t202.5 -82q-4 -41 -6 -88q-2 -41 -2 -90t4 -98q-18 -2 -34 0q-14 2 -29.5 4t-26.5 8q-12 80 -51 143q-35 53 -104.5 99.5t-194.5 46.5 q-78 0 -151.5 -33t-136 -91.5t-108.5 -139t-67 -179.5l359 9l-47 -103h-326q-2 -70 0 -137l258 8l-49 -104h-195q20 -100 65.5 -181t107 -138.5t136 -88.5t154.5 -31q123 0 193.5 45.5t105.5 98.5q41 63 51 145q8 4 22.5 6t31.5 4q18 2 36 2q-4 -41 -4 -89t2 -89 q2 -49 6 -98q-88 -53 -202.5 -82t-227.5 -29q-133 0 -253.5 42t-218 114t-165 167t-94.5 202h-143z" />
<glyph unicode="&#x2122;" horiz-adv-x="1112" d="M33 1235l10 96h420l10 -96q-8 -4 -16 -6t-15 -4q-8 -2 -14 -2q-4 27 -12 45t-49 18h-54v-303q0 -12 4 -29q2 -8 5 -12q12 -2 25 -3t22 -3v-35h-219v33l45 8q2 2 5 13.5t3 27.5v303h-62q-43 0 -51 -18.5t-12 -44.5q-6 0 -15 2q-6 2 -14 4t-16 6zM459 901v35q16 -2 28 2 q10 2 19.5 8t11.5 19q12 78 21 141q8 53 13 101t7 59q0 12 -6 21t-14 13q-8 6 -23 9l-6 22h156v-22q0 -23 6 -37l94 -244q23 53 49.5 123t48.5 121q4 8 5 18t1 21v20h148l-10 -31q-8 0 -17 -2q-6 -2 -12 -5t-4 -7l45 -344l53 -8v-33h-215v33l62 8q-6 61 -15 115 q-6 45 -11 87t-7 58q-27 -66 -59.5 -150.5t-61.5 -150.5h-61l-99 266q-4 -18 -7 -45.5t-7 -57.5t-7 -56.5t-5 -44.5q-2 -12 7 -17.5t21 -7.5t31 -2v-35h-180z" />
<glyph unicode="&#xe000;" horiz-adv-x="921" d="M0 0v922h922v-922h-922z" />
</font>
</defs>
</svg>
