<?xml version="1.0" standalone="no"?>
<!DOCTYPE svg PUBLIC "-//W3C//DTD SVG 1.1//EN" "http://www.w3.org/Graphics/SVG/1.1/DTD/svg11.dtd" >
<svg xmlns="http://www.w3.org/2000/svg">
<metadata></metadata>
<defs>
<font id="inglebybold_italic" horiz-adv-x="681" >
<font-face units-per-em="2048" ascent="1638" descent="-410" />
<missing-glyph horiz-adv-x="417" />
<glyph unicode="&#xfb01;" horiz-adv-x="1091" />
<glyph unicode="&#xfb02;" horiz-adv-x="1071" />
<glyph unicode="&#xfb03;" horiz-adv-x="1630" d="M-96 -315q27 41 56.5 95t47.5 134l228 924h-115q2 10 7 20t9 21q6 10 13 22q16 -2 34 0q33 0 74 10q4 25 12 52q4 23 11.5 49t13.5 49q31 121 90 190.5t129 102t140.5 39t123.5 2.5q55 -4 99.5 -25.5t72.5 -52.5q66 70 147 90t165 20q76 0 133 -19t96 -48t58.5 -61.5 t19.5 -61.5q0 -43 -56.5 -73.5t-154.5 -30.5q-14 104 -41 160.5t-96 56.5q-66 0 -108 -49.5t-58 -114.5l-70 -268q27 2 53 4q23 2 50.5 2t52.5 2q4 -4 4 -13q0 -16 -8 -30q-14 -16 -31 -31q-8 -8 -21 -14h-118q-47 -186 -92.5 -368.5t-92.5 -369.5q-25 -98 -57.5 -171.5 t-70.5 -126t-77.5 -87t-76.5 -55.5q-16 4 -28.5 8t-20.5 8q-10 4 -17 9q27 41 56.5 95t48.5 134l227 924h-330q-47 -186 -92 -368.5t-92 -369.5q-25 -98 -57.5 -171.5t-70.5 -126t-78 -87t-77 -55.5q-16 4 -28.5 8t-20.5 8q-10 4 -16 9zM455 918h333q4 14 16.5 58t20.5 85 q16 92 1 143t-44.5 77t-62.5 31t-53 5q-41 0 -83 -33t-59 -98zM1130.5 57.5q-4.5 26.5 4.5 61.5q43 178 79 321q14 61 30 121t28 107t19 78.5t9 37.5q4 20 5.5 38t-13.5 14q-16 -4 -35.5 -11.5t-35.5 -17.5q-20 -10 -39 -23q-2 16 -3 28.5t-1 21.5v16q57 25 106 45 q41 16 81 31.5t52 15.5q41 0 71 -37t13 -104q-43 -178 -80 -322q-16 -61 -30.5 -120.5t-26.5 -107.5t-19.5 -80t-9.5 -38q-12 -51 8 -51q14 0 36 9t42 20q23 12 47 30q2 -16 4.5 -28.5t2.5 -20.5v-16q-57 -29 -109 -51q-43 -18 -86 -34t-63 -16t-39 9.5t-31 28t-16.5 45z " />
<glyph unicode="&#xfb04;" horiz-adv-x="1570" d="M-92 -315q27 41 56.5 95t47.5 134l228 924h-115q2 10 7 20t9 21q6 10 13 22q16 -2 34 0q33 0 74 10q4 25 12 52q4 23 11.5 49t13.5 49q31 121 90.5 190.5t129 102t140 39t123.5 2.5q55 -4 99.5 -25.5t72.5 -52.5q66 70 147 90t165 20q45 0 87 -11t77 -27q29 6 64.5 14 t82.5 24q10 -12 18 -20q8 -10 16.5 -18.5l16.5 -16.5l-6 -24q-4 -12 -8 -33t-10 -49l-283 -1129q-8 -29 -4 -41t14 -12t30.5 9t41.5 20q23 12 51 28q2 -16 4 -28.5t2 -20.5v-16q-63 -29 -117 -51q-45 -18 -87 -34t-54 -16q-20 0 -38.5 9.5t-31 28t-16.5 45t4 61.5l250 1014 q12 51 4 91t-29.5 67.5t-53 43t-66.5 15.5q-66 0 -108 -49.5t-58 -114.5l-70 -268l66 4q29 2 59.5 2t54.5 2q4 -4 5 -13q0 -16 -9 -30q-14 -16 -30 -31q-8 -8 -21 -14h-143q-47 -186 -92 -368.5t-93 -369.5q-25 -98 -57.5 -171.5t-70 -126t-77.5 -87t-77 -55.5 q-16 4 -28.5 8t-20.5 8q-10 4 -17 9q27 41 56.5 95t48.5 134l227 924h-330q-47 -186 -92 -368.5t-92 -369.5q-25 -98 -57.5 -171.5t-70.5 -126t-78 -87t-77 -55.5q-16 4 -28.5 8t-20.5 8q-10 4 -16 9zM459 918h334q4 14 16 58t20 85q16 92 1 143t-44.5 77t-62.5 31t-53 5 q-41 0 -83 -33t-59 -98z" />
<glyph horiz-adv-x="2048" />
<glyph horiz-adv-x="2048" />
<glyph unicode="&#xd;" horiz-adv-x="512" />
<glyph unicode=" "  horiz-adv-x="417" />
<glyph unicode="&#x09;" horiz-adv-x="417" />
<glyph unicode="&#xa0;" horiz-adv-x="417" />
<glyph unicode="!" d="M168 94q10 49 49 89t98 40q70 0 93.5 -36.5t11.5 -92.5q-10 -47 -52.5 -86t-95.5 -39q-57 0 -85.5 36t-18.5 89zM301 332l145 885q6 35 35 72.5t82 49.5q33 8 62.5 8.5t49 -9t28 -29t-2.5 -52.5l-299 -905q-12 -2 -28 -6q-14 -4 -31.5 -7t-40.5 -7z" />
<glyph unicode="&#x22;" horiz-adv-x="860" d="M303 948q2 61 8 119q4 49 12.5 102.5t18.5 92.5q25 78 59.5 101t65.5 23q14 0 31.5 -5t30 -18t15.5 -38t-9 -63q-8 -33 -28 -76t-42.5 -86t-44 -79t-31.5 -54l-27 -9q-12 -4 -27.5 -7t-31.5 -3zM674 948q2 61 8 119q4 49 10 102.5t17 92.5q25 78 59.5 101t67.5 23 q14 0 32.5 -5t30.5 -18t15.5 -38t-9.5 -63q-8 -33 -28.5 -76t-43 -86t-44 -79t-31.5 -54l-27 -9q-12 -4 -26.5 -7t-30.5 -3z" />
<glyph unicode="#" horiz-adv-x="1024" d="M16 340l35 100h168l152 394h-183l35 98h187l155 401h117l-156 -401h260l156 401h117l-156 -401h162l-35 -98h-166l-155 -394h182l-35 -100h-186l-131 -340h-117l131 340h-256l-135 -340h-115l133 340h-164zM334 440h258l156 394h-261z" />
<glyph unicode="$" horiz-adv-x="952" d="M57 43l39 274q16 4 31.5 3t26.5 -1q12 -2 24 -2q-4 -104 27 -175.5t119 -92.5l147 569q-10 14 -18.5 27.5t-18.5 26.5q-31 43 -62.5 89t-56 94t-40 97t-15.5 99q0 86 37 142t94.5 90t128 48.5t137.5 18.5l21 77h84l-21 -79q45 -4 90.5 -10.5t79.5 -14.5q41 -8 80 -18 l-47 -291q-41 -6 -59 0q-10 2 -19 8q10 63 0 117q-10 45 -41.5 84t-103.5 47l-121 -463q10 -12 19.5 -24.5t19.5 -24.5q37 -49 75 -100.5t68.5 -105.5t50 -110.5t19.5 -115.5q0 -78 -34 -141.5t-95 -109.5t-147.5 -73t-190.5 -33l-20 -78h-80l20 78q-57 4 -102 16.5 t-78 24.5q-37 14 -68 33zM403 45q49 4 88 28.5t66 59.5t40 79t13 87q0 63 -22.5 120.5t-57.5 112.5zM492 1063q0 -41 14 -82t37 -82l92 365q-72 -23 -107.5 -82.5t-35.5 -118.5z" />
<glyph unicode="%" horiz-adv-x="1193" d="M131 0l899 1239q-49 -10 -102 -16q-47 -4 -103.5 -3t-113.5 17q39 -82 18 -178q-12 -59 -46 -111.5t-80 -90.5t-101.5 -60.5t-110.5 -22.5t-100 23.5t-74 63.5t-39 94.5t2 113.5q12 61 47 113.5t81 90.5t100.5 60.5t109.5 22.5q59 0 111 -29q70 -12 151.5 -18t163.5 -4 t159 13t136 34l-981 -1352h-127zM323.5 909.5q22.5 -65.5 79.5 -65.5t109.5 61.5t75.5 155.5q20 94 -6.5 159.5t-83.5 65.5t-105.5 -62.5t-68.5 -154.5q-23 -94 -0.5 -159.5zM649 156.5q-10 54.5 2 113.5q12 61 47 113.5t81 90.5t100.5 60.5t109.5 22.5t100.5 -23.5 t75 -64.5t39.5 -94t-4 -115q-12 -59 -46 -111.5t-80 -90.5t-101 -60.5t-111 -22.5q-55 0 -100 24t-74 63.5t-39 94zM794.5 110.5q22.5 -65.5 79.5 -65.5t109.5 61.5t75.5 155.5q20 94 -6.5 159.5t-83.5 65.5t-105.5 -62.5t-68.5 -154.5q-23 -94 -0.5 -159.5z" />
<glyph unicode="&#x26;" horiz-adv-x="1069" d="M59 348q0 63 23.5 123.5t69 109t112 80t152.5 37.5q-39 55 -76 129t-37 146q0 141 150.5 203.5t441.5 62.5q0 -12 -2 -25q-2 -10 -4 -25t-8 -32q-111 -8 -184.5 -33.5t-117.5 -62.5t-61.5 -81t-17.5 -89q0 -66 20.5 -120t48.5 -85q-4 -14 -10 -26.5t-16 -30.5 q-70 0 -121 -28t-84 -72t-48.5 -100t-15.5 -112q0 -51 13.5 -99t41 -85t69.5 -58.5t98 -21.5q74 0 131 28t96 76t59.5 110.5t20.5 129.5q0 47 -10 99q-41 -4 -87.5 -7.5t-82.5 -7.5v64l522 100q10 -41 -7.5 -71.5t-49 -49t-72.5 -24.5t-78 2q29 -41 45 -85t16 -85 q0 -68 -34.5 -133.5t-102 -115.5t-169 -82t-236.5 -32q-98 0 -173 33t-124 87t-75 122t-26 137z" />
<glyph unicode="'" horiz-adv-x="475" d="M174 1012q33 25 62 49q25 23 49 47.5t37 50.5q-27 29 -48 51q-16 20 -30.5 40t-14.5 30q0 12 5.5 30.5t19.5 35t39.5 28.5t64.5 12t62.5 -13t35 -32.5t14.5 -39t3 -31.5q0 -55 -29.5 -102.5t-72.5 -85.5t-90.5 -65.5t-81.5 -41.5q-6 10 -13 18q-4 4 -8 13q-2 4 -4 6z" />
<glyph unicode="(" horiz-adv-x="565" d="M147 344q0 268 109 520t319 461l91 -31q-86 -109 -151.5 -232.5t-111 -257.5t-69 -274.5t-23.5 -281.5q0 -100 12.5 -200.5t36.5 -197.5l-98 -40q-59 135 -87 269t-28 265z" />
<glyph unicode=")" d="M68 -150q84 104 149.5 231.5t110.5 266.5t68.5 284.5t23.5 289.5q0 195 -47 370l98 35q59 -125 87 -256t28 -266q0 -137 -28 -273.5t-82 -265.5t-134 -243.5t-184 -208.5z" />
<glyph unicode="*" horiz-adv-x="804" d="M209 1071q14 43 39.5 60.5t60.5 17.5q43 0 84 -20.5t88 -45.5q-6 63 -13 129t-11 127q96 2 130 -43t34 -114q0 -25 -3.5 -51.5t-7.5 -55.5l244 117q20 -55 9 -92t-43 -60.5t-80 -38t-99 -24.5q47 -47 92 -94t92 -95q-39 -41 -88 -40q-55 0 -103 53t-91 114v3 q-43 -55 -91.5 -112.5t-91.5 -111.5q-35 35 -49 59.5t-14 43.5q0 47 48 96t108 92q-59 23 -123 44.5t-121 41.5z" />
<glyph unicode="+" horiz-adv-x="819" d="M49 444v107h307v307h107v-307h307v-107h-307v-307h-107v307h-307z" />
<glyph unicode="," horiz-adv-x="512" d="M-25 -184q35 29 66 55q27 23 52.5 50.5t37.5 53.5q-23 20 -41 43q-16 16 -27.5 36t-11.5 32t8.5 30.5t24.5 35t39.5 29t56.5 12.5q39 0 61.5 -12.5t34 -29t13.5 -33t2 -24.5q0 -53 -31 -104t-76 -93t-94 -73t-88 -43q-4 2 -10 8q-12 10 -17 27z" />
<glyph unicode="-" d="M61 391l13 94l528 64l-43 -156q-53 6 -127 8q-63 2 -155.5 1t-215.5 -11z" />
<glyph unicode="." horiz-adv-x="356" d="M49 100q8 49 44 89t95 40h11q59 0 84.5 -39.5t17.5 -89.5q-6 -47 -45 -86t-92 -39h-10q-53 0 -82 39t-23 86z" />
<glyph unicode="/" horiz-adv-x="925" d="M43 0l864 1331h131l-868 -1331h-127z" />
<glyph unicode="0" horiz-adv-x="1157" d="M85 316.5q-5 103.5 19 224.5q27 123 76 227t122 181t169 121t217 44q129 0 211 -43t124 -120t46 -181t-22 -229q-25 -121 -78.5 -224.5t-130 -179.5t-176 -119t-216.5 -43q-121 0 -198.5 43t-117.5 119t-45 179.5zM306.5 173q31.5 -120 154.5 -120t215 119t145 369 q53 252 12.5 373.5t-163.5 121.5t-206 -121.5t-136 -373.5q-53 -248 -21.5 -368z" />
<glyph unicode="1" horiz-adv-x="622" d="M-53 0l12 49q29 6 60.5 12.5t64.5 10.5q10 14 18 30q8 14 16.5 33t12.5 39l172 684q4 20 2 31.5t-6 17.5q-6 8 -12 11l-135 -37l-19 51q53 27 113 57q51 27 113.5 58.5t127.5 66.5l76 -49l-225 -891q-4 -20 -5 -38.5t1 -33.5q2 -16 4 -30q35 -4 64.5 -10.5t54.5 -12.5 l-13 -49h-497z" />
<glyph unicode="2" horiz-adv-x="901" d="M-53 154l76 26q14 10 62 44t111.5 84t135 112.5t135 131.5t112 138.5t64.5 134.5q18 78 8 122t-39.5 61.5t-71.5 13.5t-85 -23q-51 -23 -84 -56.5t-54 -63.5q-23 -37 -36 -76q-16 -2 -35 0q-16 2 -32.5 5t-31.5 9q10 35 21 70q10 29 21.5 62.5t23.5 58.5q39 31 90 53 q43 20 104.5 37.5t139.5 17.5q61 0 119.5 -17.5t99.5 -52t58.5 -86t0.5 -118.5q-12 -55 -57 -123q-25 -41 -67 -86t-93 -92t-108.5 -93.5t-112.5 -89.5q-131 -98 -281 -198h334q53 0 85 4t63 26l24.5 24.5t24.5 31.5q12 19 26 39q16 -4 30.5 -9.5t25.5 -9.5q12 -6 22 -12 q-31 -39 -59 -82q-25 -37 -50.5 -82t-43.5 -90h-641q-8 23 -17 47q-6 23 -11 49.5t-7 57.5z" />
<glyph unicode="3" horiz-adv-x="841" d="M-145 -215q6 25 19 53.5t28 52.5q16 29 37 60q25 -45 59 -82q29 -31 72 -55.5t102 -24.5q68 0 119 30.5t88 79t61.5 105.5t38.5 113q14 57 12 112.5t-23.5 99.5t-63.5 71.5t-105 29.5q-12 -6 -36.5 -17.5t-35.5 -17.5q-16 12 -28 27q-10 10 -20.5 24.5t-12.5 28.5 q16 6 37 14q37 14 86 17q8 0 50 18.5t92 56t97 94t66 130.5q29 111 2 165t-88 54q-35 0 -82 -17.5t-88 -52.5q-29 -27 -50.5 -54.5t-37.5 -51.5q-18 -29 -33 -57q-18 4 -35 8q-14 4 -28.5 7t-22.5 7q14 45 27 82q10 33 21 64.5t18 46.5q37 31 88 53q43 20 106.5 37.5 t143.5 17.5q88 0 147 -22.5t93 -60.5t42 -87t-4 -100q-25 -98 -117 -192.5t-243 -147.5q84 -8 141 -42t90 -85t39 -114.5t-10 -131.5q-20 -80 -71.5 -160t-131.5 -143.5t-186.5 -103t-235.5 -39.5q-70 0 -114 15t-70 34q-31 23 -49 51z" />
<glyph unicode="4" horiz-adv-x="925" d="M-14 205l704 776q25 27 42.5 50.5t29.5 39.5q14 20 24 35q68 -18 107 -39q23 -10 39 -20l-195 -768h144l-84 -134h-92l-82 -340l-138 -96h-98l111 436h-496q-4 10 -8 19q-8 20 -8 41zM176 279h354l144 573q-37 -37 -78 -80t-82 -90t-83 -95t-79 -93q-88 -104 -176 -215z " />
<glyph unicode="5" horiz-adv-x="866" d="M-133 -213q6 25 19.5 53.5t27.5 53.5q16 29 37 59q25 -47 57 -84q29 -33 70 -58.5t94 -25.5q72 0 128 28.5t97 77t68 107.5t43 121q14 57 12 114.5t-24.5 101.5t-65.5 71.5t-111 27.5q-31 0 -56 -6t-44 -14q-23 -8 -39 -19q-8 8 -14 21q-14 25 -14 63q35 10 61 21 q23 10 43 19t25 18q16 33 36.5 98t40 142t37 154t27.5 134h428q8 0 21.5 7t27.5 18q16 10 33 24q4 -4 10 -12q4 -6 10 -16.5t13 -20.5q-20 -29 -41 -57q-16 -25 -37 -52.5t-39 -52.5h-313q-35 -94 -75 -187t-77 -186q115 -4 192.5 -38.5t120.5 -90t54.5 -126t-7.5 -144.5 q-20 -80 -72.5 -160t-133 -143.5t-187 -102t-233.5 -38.5q-68 0 -116 15t-77 34q-37 23 -57 51z" />
<glyph unicode="6" horiz-adv-x="997" d="M36 273.5q-7 91.5 19 195.5q27 109 87.5 224.5t160.5 233t245.5 232.5t340.5 221l61 -57q-143 -88 -253.5 -192.5t-191.5 -216t-132 -223t-76 -212.5q-23 -88 -26 -163.5t11.5 -132t45 -88.5t78.5 -32q49 0 92 24t76.5 61.5t58 87t37.5 102.5q12 53 17 105.5t-5 93.5 t-39 66.5t-82 25.5q-23 0 -43 -6.5t-39 -12.5q-23 -8 -41 -16q-8 6 -12 18q-4 10 -4 26.5t6 41.5q27 10 59 18q29 6 66 12.5t80 6.5q76 0 136 -23.5t98 -72t49.5 -119t-11.5 -162.5q-23 -90 -73 -157.5t-121.5 -113.5t-160.5 -70t-188 -24q-100 0 -170.5 38t-109.5 103.5 t-46 157z" />
<glyph unicode="7" horiz-adv-x="753" d="M-160 -238q186 215 359 424q74 88 149.5 184.5t148 189.5t136 181t110.5 160q-162 0 -254 -1t-140 -4t-67.5 -9t-33.5 -19q-10 -8 -18.5 -21t-12.5 -28q-6 -16 -10 -33l-57 -14q-14 2 -29 4q-12 2 -27.5 5t-27.5 10q27 45 53 92q23 41 47 90t45 96l635 -20 q14 -16 22.5 -34t12.5 -32q6 -16 6 -31q-61 -98 -131 -204.5t-143.5 -215t-148.5 -214t-142 -199.5q-160 -223 -326 -443q-29 12 -57 27q-25 12 -51.5 27.5t-47.5 31.5z" />
<glyph unicode="8" horiz-adv-x="935" d="M-8.5 200.5q-16.5 67.5 2.5 143.5q20 86 68.5 146.5t103.5 99.5t104 60.5t74 31.5q-29 20 -54.5 46t-44 57.5t-27.5 69.5t-3 85q10 78 51 136.5t99.5 96t126 56t133.5 18.5t124 -18.5t97 -56t51.5 -96t-14.5 -136.5q-16 -45 -45 -84t-65 -71.5t-77 -60.5t-80 -48 q23 -8 64 -29.5t77 -59.5t54 -97.5t-2 -145.5q-18 -76 -68.5 -143.5t-120 -117.5t-150.5 -79t-163 -29q-80 0 -146.5 29t-109.5 79t-59.5 117.5zM189.5 232.5q-1.5 -52.5 12 -91.5t45.5 -62.5t81 -23.5t92 23.5t76.5 62.5t59.5 91.5t40 111.5q20 82 -4.5 135t-61.5 84 q-43 37 -106 55q-8 -4 -37 -17t-62.5 -44t-67.5 -83t-52 -130q-14 -59 -15.5 -111.5zM408 838q14 -41 36 -66q27 -29 66 -47q6 2 28.5 11t50 33t55.5 66t44 107q10 39 14.5 80t-4 73.5t-30 53t-64.5 20.5t-74.5 -20.5t-55 -53t-39 -73.5t-25.5 -80q-16 -63 -2 -104z" />
<glyph unicode="9" horiz-adv-x="1001" d="M90 -236q143 88 254 192.5t191.5 216.5t132 223.5t75.5 211.5q23 88 26 164t-11.5 132.5t-45 88t-77.5 31.5q-49 0 -92 -23.5t-77 -61.5t-58.5 -88t-36.5 -101q-12 -53 -17.5 -105.5t5 -93.5t39 -66.5t81.5 -25.5q20 0 42 5t40 11q23 8 41 19q6 -8 10 -19q4 -10 5 -26.5 t-5 -40.5q-27 -10 -59 -19q-29 -8 -65.5 -13t-79.5 -5q-76 0 -136.5 23.5t-98.5 71.5t-49.5 119t11.5 163q25 88 76 155.5t124 113.5t160 70.5t183 24.5q100 0 171 -38t109.5 -103.5t46 -156.5t-19.5 -196q-27 -109 -87 -224t-160.5 -233t-246 -232.5t-339.5 -221.5z" />
<glyph unicode=":" d="M98 100q8 49 44 89t96 40h10q59 0 84.5 -39.5t17.5 -89.5q-6 -47 -45 -86t-92 -39h-10q-53 0 -82 39t-23 86zM231 791q8 49 44 89t96 40h10q59 0 85 -40t17 -89q-6 -47 -45 -86t-92 -39h-10q-53 0 -82 38.5t-23 86.5z" />
<glyph unicode=";" d="M27 -184q4 -16 16 -27q6 -6 10 -8q39 12 88 43t94.5 73t76 93t30.5 104q0 8 -2 24.5t-13.5 33t-34 29t-61.5 12.5q-33 0 -56 -12.5t-39.5 -29t-25 -35t-8.5 -30.5t11.5 -31.5t27.5 -36.5q18 -23 41 -43q-12 -27 -37.5 -54t-52.5 -50q-31 -27 -65 -55zM215 788 q8 49 44 89.5t95 40.5h11q59 0 84.5 -40t17.5 -90q-6 -47 -45 -85.5t-92 -38.5h-11q-53 0 -81.5 38.5t-22.5 85.5z" />
<glyph unicode="&#x3c;" horiz-adv-x="1382" d="M291 471v49l872 377v-106l-714 -295l714 -295v-107z" />
<glyph unicode="=" horiz-adv-x="1382" d="M305 293v106h875v-106h-875zM305 633v106h875v-106h-875z" />
<glyph unicode="&#x3e;" horiz-adv-x="1382" d="M324 94v107l714 295l-714 295v106l872 -377v-49z" />
<glyph unicode="?" horiz-adv-x="1024" d="M199 94q12 49 52 89t99 40h10q59 0 81 -40t10 -89q-12 -47 -56.5 -86t-97.5 -39h-10q-53 0 -77 39t-11 86zM281.5 1073q-15.5 43 0 91t59.5 89t117.5 69t176.5 28q106 0 171.5 -29t99.5 -71t40 -91t-2 -88q-23 -94 -72 -151.5t-109.5 -100.5t-120.5 -82t-103 -94 q-37 -47 -55.5 -91t-29 -82t-13.5 -67.5t-9 -50.5q-8 -10 -18 -18t-24.5 -15.5t-37.5 -11.5q-20 61 -24 131q-4 59 12 136t72 157q31 45 73.5 82t85.5 73t81.5 72.5t58.5 81.5q12 27 17 65t-1 73.5t-27.5 60.5t-64.5 25q-72 0 -107.5 -47.5t-48.5 -102.5q-16 -68 -10 -149 q-78 4 -125 34.5t-62.5 73.5z" />
<glyph unicode="@" horiz-adv-x="1679" d="M84 473q0 141 50 265t145.5 217.5t234.5 146.5t317 53q172 0 310.5 -49t237 -130t150.5 -185.5t52 -215.5q0 -121 -40 -216t-108.5 -160.5t-162.5 -101.5t-205 -36q-47 0 -86 15.5t-68 34.5q-35 23 -63 51q-23 -29 -53 -51q-27 -18 -63 -34t-81 -16q-51 0 -88 21.5 t-60.5 55.5t-33.5 76t-8 81q2 41 10 95t22.5 112.5t35 116t44.5 104.5q25 43 60 73.5t75 50t80.5 28t75.5 8.5h254q6 -4 12.5 -10.5l10.5 -10.5l12 -12l-152 -606q-8 -37 20 -67t74 -40t102 2.5t105.5 61.5t82 140t32.5 234q0 109 -38 202t-112.5 161t-184 105.5 t-251.5 37.5q-154 0 -265 -47t-182 -129t-104.5 -193.5t-33.5 -238.5q0 -145 44 -256t120.5 -184.5t180 -111.5t220.5 -38q10 -16 13 -31.5t5 -29.5q2 -16 2 -31q-166 0 -304 53.5t-236 146.5t-152.5 217t-54.5 265zM625 260q2 -53 23.5 -77.5t58.5 -24.5q35 0 64.5 20.5 t52 55t41 82t30.5 100.5l4 18q4 19 12.5 47.5t17.5 65.5t19 76q23 90 51 202q-20 2 -43 2q-18 0 -41.5 -2t-48.5 -12q-68 -23 -104.5 -73t-65.5 -136q-41 -121 -57 -206t-14 -138z" />
<glyph unicode="A" horiz-adv-x="1394" d="M-20 0l10 57q31 0 56.5 3t49 15.5t45 36t45.5 62.5h-2l590 1014q12 14 23 37q18 39 41 100q12 4 34 10q18 4 47 10.5t70 12.5l164 -1192q4 -18 7.5 -45t15.5 -43q16 -16 39.5 -18.5t68.5 -2.5l-16 -57h-516l14 57q47 0 79 2t62 19h-2q25 14 26 46v13q0 27 -3 58 q-10 78 -22.5 158.5t-22.5 156.5h-369q-25 -47 -46.5 -88t-44 -85t-48 -96.5t-58.5 -121.5q-10 -23 3.5 -35t36 -18.5t47 -7.5t34.5 -1l-16 -57h-442zM559 590h313q-10 66 -17 122t-15.5 110.5t-15.5 110.5t-15 122q-61 -117 -124.5 -232.5t-125.5 -232.5z" />
<glyph unicode="B" horiz-adv-x="1177" d="M23 0l14 55l129 25q4 6 10 16q4 10 10.5 27.5t14.5 48.5q29 115 60.5 241t63 253t63.5 252.5t61 240.5q4 23 6 41.5t2 28.5q0 12 -2 22q-18 4 -37 9q-16 4 -36 8t-38 10l10 53h449q74 0 145.5 -15.5t126.5 -47t89 -81.5t34 -120q0 -16 -2 -34t-6 -36q-16 -63 -50 -109 t-80 -80t-98.5 -57.5t-103.5 -39.5q25 -6 73 -21.5t94 -48.5t81 -85t35 -132q0 -18 -2 -37.5t-6 -40.5q-23 -98 -75 -163.5t-128 -106.5t-172 -58.5t-207 -17.5h-528zM401 80h129q78 0 135.5 22.5t99.5 61.5t68.5 90t40.5 108q16 70 17 117q0 96 -57.5 139.5t-176.5 43.5 h-108q-37 -147 -74 -291t-74 -291zM565 741h33q86 0 147.5 23.5t104.5 59.5t67.5 80t36.5 87q10 45 11 80q0 70 -39 124t-142 54h-88q-33 -127 -65.5 -254t-65.5 -254z" />
<glyph unicode="C" horiz-adv-x="1343" d="M160 580q-1 9 -1 19q0 25 4 59q5 47 15 87q35 137 113 250t188.5 193t248.5 124t298 44q74 0 132.5 -9.5t105.5 -24.5t88 -38.5t82 -50.5l-66 -264h-92q6 30 6 69v20q-2 52 -29.5 100t-89 82t-172.5 34q-213 0 -352 -141.5t-201 -387.5q-22 -90 -22 -171v-7 q0 -102 24.5 -194t68.5 -163t105.5 -112t135.5 -41q88 0 155.5 30t114.5 74t75.5 98t41.5 103h98l-76 -299q-55 -25 -121 -45q-55 -16 -129.5 -29.5t-160.5 -13.5q-137 0 -244 48.5t-181.5 130.5t-115.5 192.5t-47 233.5z" />
<glyph unicode="D" horiz-adv-x="1388" d="M10 0l17 53q20 4 40.5 10.5t38.5 10.5q20 6 41 8q6 10 15 24q6 12 14 29t14 39v-2q61 248 124 493.5t124 493.5q4 29 4 51v13q-2 16 -4 30l-14 3q-14 4 -31.5 8l-35 8t-23.5 6l10 53h543q121 0 214 -37t157.5 -103.5t98.5 -160.5t34 -209q0 -37 -4.5 -75.5t-10.5 -79.5 q-25 -154 -94.5 -277t-177 -210t-250.5 -133t-317 -46h-527zM391 82h199q98 0 179 31.5t146.5 99.5t116.5 175t90 259q18 71 30 147q11 65 11 124v18q-2 72 -17.5 130t-49 99t-86 63.5t-127.5 22.5h-197q-74 -297 -148.5 -584.5t-146.5 -584.5z" />
<glyph unicode="E" horiz-adv-x="1163" d="M23 0l14 53q14 4 36.5 8.5t43.5 8.5q23 6 49 12q6 12 12 27q4 12 10.5 27.5t10.5 35.5q27 115 58.5 241t64 253t64.5 252.5t60 240.5q4 23 6.5 41.5t2.5 28.5q0 12 -2 22q-35 6 -72 17q-20 6 -39 10l12 53h873l-31 -221q-16 -8 -33.5 -11t-32.5 -7q-18 -4 -32 -5 q0 49 -4 81t-19.5 49.5t-46.5 24.5t-82 9h-254q-33 -127 -62.5 -254t-62.5 -254h195q51 0 83 11.5t52.5 34t32.5 56.5t26 79h66l-109 -443h-65q8 37 12 70t-3 57.5t-33.5 39t-80.5 14.5h-198l-70 -290t-72 -290h316q37 0 77 7t75.5 24.5t62.5 45t35 70.5q16 0 35 -2 q14 -2 30.5 -5t26.5 -7l-74 -215h-964z" />
<glyph unicode="F" horiz-adv-x="1144" d="M20 0l15 51q18 4 39.5 10.5t42.5 10.5q23 6 47 8l8 16q4 10 10 27.5t15 48.5q27 115 58.5 241t64 253t64.5 252.5t60 240.5q4 23 6.5 41.5t2.5 28.5q0 12 -2 22q-35 6 -72 17q-20 6 -39 10l12 53h873l-31 -221q-16 -8 -33.5 -11t-32.5 -7q-18 -4 -32 -5q0 49 -4.5 81 t-19.5 50.5t-46 25.5t-82 7h-254q-33 -127 -62.5 -254t-62.5 -254h195q51 0 82.5 11.5t52 34t33 56.5t26.5 79h66l-109 -443h-65q8 37 12 70t-3 57.5t-33.5 39t-80.5 14.5h-198q-31 -129 -62.5 -256t-60.5 -256q-4 -23 -5 -36.5t1 -21.5t4 -14q16 -4 37.5 -7t38.5 -8 q20 -4 39 -8l-15 -55h-500z" />
<glyph unicode="G" horiz-adv-x="1380" d="M160 580q0 31 4 78t14 87q35 137 113 250t188.5 193t248.5 124t298 44q74 0 132.5 -9.5t105.5 -24.5t88 -38.5t82 -50.5l-66 -264h-92q6 30 6 69v20q-2 52 -29.5 100t-89 82t-172.5 34q-215 0 -356 -140.5t-203 -388.5q-10 -45 -14 -85t-4 -85q0 -88 25.5 -180 t74.5 -166.5t122 -123t169 -48.5q78 0 127 29t78.5 76t47 108.5t29.5 126.5l15 74l-148 -6l23 96h485l-14 -76q-18 4 -39 2q-16 -2 -38.5 -9t-43.5 -29q-29 -29 -46 -88.5t-28 -118.5q-12 -70 -16 -150q-55 -35 -127 -59q-61 -23 -150.5 -40.5t-199.5 -17.5 q-137 0 -248 54.5t-189.5 140.5t-120.5 193.5t-42 216.5z" />
<glyph unicode="H" horiz-adv-x="1519" d="M23 0l14 51q18 4 39.5 10.5t42.5 10.5q23 6 47 8l8 16q4 10 10 27.5t15 48.5q29 115 61.5 240t65 253t64.5 253.5t56 240.5q4 23 6.5 41.5t2.5 28.5q0 12 -4 22q-18 4 -38 8.5t-36 8.5q-18 6 -35 10l12 53h500l-14 -53q-18 -2 -41 -8q-18 -4 -43 -10.5t-51 -10.5 q-6 -8 -13 -20q-4 -10 -10 -27.5t-12 -42.5q-14 -55 -31 -123q-14 -57 -32.5 -133t-41.5 -162h602q29 109 53.5 214.5t47.5 203.5q4 23 6 41.5t2 28.5q0 12 -4 22q-18 4 -38 8.5t-36 8.5q-18 6 -35 10l13 53h499l-14 -53q-18 -2 -41 -8q-18 -4 -43 -10.5t-51 -10.5 q-6 -8 -13 -20q-4 -10 -10 -27.5t-12 -42.5q-47 -190 -92 -371q-18 -78 -40 -160.5t-41.5 -163.5t-37.5 -156t-33 -136q-8 -29 -9 -47.5t1 -28.5q2 -12 4 -18q16 -4 38 -7t38 -8q20 -4 39 -8l-15 -55h-499l14 51q18 4 40 10.5t42 10.5q23 6 47 8l8 16q4 10 10.5 27.5 t14.5 48.5q29 115 60.5 237.5t66.5 252.5h-602q-33 -131 -64.5 -261.5t-54.5 -228.5q-8 -29 -9 -47.5t1 -28.5q2 -12 4 -18q16 -4 37.5 -7t38.5 -8q20 -4 39 -8l-15 -55h-499z" />
<glyph unicode="I" horiz-adv-x="743" d="M63 0l15 51q18 4 39.5 10.5t42.5 10.5q23 6 47 8l8 16q4 10 10 27.5t15 48.5q29 115 61.5 240t65 253t64.5 253.5t56 240.5q4 23 6.5 41.5t2.5 28.5q0 12 -4 22q-18 4 -38 8.5t-36 8.5q-18 6 -35 10l12 53h500l-14 -53q-18 -2 -41 -8q-18 -4 -43 -10.5t-52 -10.5 q-6 -8 -12 -20q-4 -10 -10 -27.5t-12 -42.5q-47 -190 -93 -371q-18 -78 -39.5 -160.5t-41 -163.5t-38 -156t-32.5 -136q-8 -29 -9 -47.5t1 -28.5q2 -12 4 -18q16 -4 37.5 -7t38.5 -8q20 -4 39 -8l-15 -55h-500z" />
<glyph unicode="J" horiz-adv-x="700" d="M33 -326q43 57 92 130t70 151q76 301 147.5 603t144.5 601q4 23 5.5 41.5t1.5 28.5q0 12 -2 22q-23 4 -43 11q-16 4 -36 8t-30 8l12 53h502l-14 -53q-16 -4 -39 -9t-45 -9q-25 -6 -54 -11q-4 -4 -11 -21.5t-23 -70.5q-72 -248 -131.5 -495.5t-118.5 -495.5 q-12 -49 -14.5 -89t-2.5 -73q0 -43 -45 -100.5t-104 -111.5t-119.5 -98t-91.5 -61q-25 12 -39 27q-8 8 -12 14z" />
<glyph unicode="K" horiz-adv-x="1382" d="M63 0l15 51q18 4 39.5 10.5t42.5 10.5q23 6 47 8l8 16q4 10 10 27.5t15 48.5q29 115 61.5 240t65 253t64.5 253.5t56 240.5q4 23 6.5 41.5t2.5 28.5q0 12 -4 22q-18 4 -38 8.5t-36 8.5q-18 6 -35 10l12 53h500l-14 -53q-18 -2 -41 -8q-18 -4 -43 -10.5t-52 -10.5 q-6 -8 -12 -20q-4 -10 -10 -27.5t-12 -42.5q-47 -190 -93 -371q-18 -78 -39.5 -160.5t-41 -163.5t-38 -156t-32.5 -136q-8 -29 -9 -47.5t1 -28.5q2 -12 4 -18q16 -4 37.5 -7t38.5 -8q20 -4 39 -8l-15 -55h-500zM682 698q53 53 115 117q53 53 121.5 123t146.5 147 q14 14 42 44t51.5 59t30.5 52.5t-18 25.5q-8 0 -17 2t-19 4t-23 4l12 55h408l-14 -65q-33 0 -52.5 -1t-35 -5.5t-31.5 -13.5t-43 -27q-16 -12 -63.5 -52.5t-107 -94.5t-123 -113.5t-116.5 -109.5t-87 -82t-32 -32q0 -106 43 -220t108.5 -211t145.5 -167.5t152 -89.5l-27 -47 h-243q-82 39 -136.5 104.5t-88 139t-50 148.5t-23 135.5t-6.5 98.5t3 38q-8 8 -11.5 15t-7.5 11q-4 6 -4 8z" />
<glyph unicode="L" horiz-adv-x="1062" d="M23 0l14 53q14 4 36.5 8.5t43.5 8.5q23 6 49 12q4 8 10 22q10 23 23 68q0 2 11 43t27.5 106.5t37 150.5t43 173t44 175t39 158t29.5 120t14 61q4 23 6.5 41.5t2.5 28.5q0 12 -4 22q-18 4 -38 8.5t-36 8.5q-18 6 -35 10l12 53h504l-14 -53q-18 -2 -41 -8q-18 -4 -43 -10.5 t-51 -10.5q-6 -8 -13 -20q-4 -10 -10 -27.5t-12 -42.5q-6 -23 -20.5 -82t-35 -139t-43 -175t-47.5 -190l-123 -491h263q37 0 76.5 7t75.5 24.5t62.5 45t34.5 70.5q16 0 35 -2q14 -2 30.5 -5t27.5 -7l-74 -215h-911z" />
<glyph unicode="M" horiz-adv-x="1798" d="M23 0l14 55q70 4 118 26.5t72 92.5q39 113 81 234.5t84 243.5t81 241t74 227q6 20 3 45t-13.5 47.5t-31 38t-46.5 15.5l-6 65h239q29 -6 53 -26q23 -16 42.5 -51t25.5 -95l90 -852q92 152 183.5 300.5t162.5 271.5q84 141 164 272q23 41 36 75t19 56q8 27 9 49h354 l-35 -65q-25 4 -45 0q-16 -4 -31.5 -15.5t-19.5 -33.5q-4 -25 -11.5 -83.5t-16.5 -136t-20.5 -169t-21.5 -183.5q-25 -217 -53 -473q-2 -23 -2 -39v-29q0 -14 2 -26q16 -4 35.5 -8t38.5 -9q23 -6 43 -10l-13 -51h-507l14 51q20 4 41 10q37 10 78 17l16 28q6 12 11 29t9 37 q29 217 51.5 422t49.5 422q-158 -248 -311.5 -508t-307.5 -508h-100l-125 977q-68 -193 -133.5 -404t-122.5 -403q-8 -27 -4 -44t12 -28q8 -12 23 -18q20 -10 37.5 -14.5t31.5 -8.5q16 -4 29 -6l-12 -51h-438z" />
<glyph unicode="N" horiz-adv-x="1445" d="M27 0l10 57q63 0 117.5 20.5t72.5 94.5l236 922q6 27 0 59.5t-25.5 61t-53.5 48t-83 19.5l-4 49q23 6 49 15q23 6 53.5 11t65.5 5q84 0 132 -28.5t75 -76.5q25 -47 59.5 -112.5t74.5 -140t83 -154.5t84 -156q96 -178 198 -372q57 221 104.5 425.5t90.5 413.5q8 37 0 58.5 t-26.5 34t-45 16.5t-55.5 6l14 55h439l-11 -55q-31 0 -62.5 -4t-59 -16.5t-49 -35t-29.5 -59.5l-293 -1161h-105l-536 1026q-55 -223 -105.5 -433t-99.5 -421q-8 -37 1 -59.5t28.5 -33.5t47 -15.5t56.5 -6.5l-10 -57h-438z" />
<glyph unicode="O" horiz-adv-x="1495" d="M168 590q0 156 63.5 294t172 241.5t255 163t312.5 59.5q129 0 232.5 -47.5t176.5 -130.5q72 -84 109 -196q33 -102 34 -218q0 -13 -1 -25q-6 -152 -72 -289t-174.5 -243.5t-250.5 -169t-300 -62.5q-127 0 -229.5 50.5t-175 135.5t-112.5 197.5t-40 239.5zM418 616 q-1 -25 -1 -50q1 -96 19 -179q24 -104 72 -179q50 -75 120 -115q61 -35 137 -35q11 0 23 1q94 6 179.5 60.5t151 141.5t106.5 201.5t47 239.5q2 31 2 61q0 83 -12 159q-16 104 -58 183q-40 79 -108 124q-60 40 -142 40q-11 0 -22 -1q-111 -6 -203 -67.5t-159.5 -155 t-106.5 -207t-45 -222.5z" />
<glyph unicode="P" horiz-adv-x="1075" d="M33 -6l14 51q18 4 40 10t42 11q23 6 47 8l8 16q4 10 10.5 27.5t14.5 48.5q29 115 61.5 240.5t65.5 255t64.5 256t56.5 241.5q4 23 6 41.5t2 28.5q0 12 -4 22q-18 4 -38 8.5t-36 8.5q-18 6 -35 10l13 53h428q109 0 189.5 -23.5t134.5 -64.5t81 -97t27 -122 q0 -113 -48.5 -202t-126 -150.5t-178 -94t-204.5 -32.5l-23 102q25 -4 54 -4q25 0 53 3q60 7 114 43t92.5 105.5t45.5 186.5v19q0 112 -64 178q-70 72 -233 71q-4 -8 -9 -20q-4 -10 -8 -27.5t-10 -42.5q-47 -193 -92 -375q-18 -78 -40 -160.5t-41.5 -164.5t-37.5 -157 t-33 -136q-8 -29 -9 -47.5t1 -28.5q2 -12 4 -18q16 -4 38 -7.5t38 -7.5q20 -4 39 -8l-15 -55h-499z" />
<glyph unicode="Q" horiz-adv-x="1497" d="M168 590q0 156 63.5 294t172 241.5t255 163t312.5 59.5q129 0 232.5 -47.5t176 -130.5t109.5 -196q33 -101 33 -218v-25q-6 -133 -58.5 -258t-141.5 -225.5t-207 -171t-253 -94.5q18 -4 48 -11.5t66 -22t71.5 -39t66.5 -61.5q37 -43 71 -80.5t73.5 -64.5t90 -42 t119.5 -15q29 0 71 2t99 18q-2 -10 -6 -20q-6 -16 -20 -39q-43 -8 -92 -17q-41 -6 -95.5 -10t-111.5 -4q-66 0 -121 7t-107.5 27.5t-105.5 59.5t-111 103q-33 35 -57.5 62.5t-57 54t-82.5 52t-134 58.5q-86 31 -154 89t-116 136t-73.5 171.5t-25.5 193.5zM418 616 q-1 -25 -1 -50q0 -96 19 -179q23 -104 72 -179t120 -115q61 -35 137 -35q11 0 23 1q94 6 179.5 60.5t151 141.5t106.5 201.5t47 239.5q2 31 2 61q0 82 -12 159q-17 104 -58 183t-108 124q-60 40 -142 40q-11 0 -22 -1q-111 -6 -203 -67.5t-159.5 -155t-106.5 -207 t-45 -222.5z" />
<glyph unicode="R" horiz-adv-x="1275" d="M63 0l15 51q18 4 39.5 10.5t42.5 10.5q23 6 47 8l8 16q4 10 10 27.5t15 48.5q29 115 61.5 240t65 253t64.5 253.5t56 240.5q4 23 6.5 41.5t2.5 28.5q0 12 -4 22q-18 4 -38 8.5t-36 8.5q-18 6 -35 10l12 53h428q231 0 340 -80q94 -69 94 -189q0 -19 -2 -38 q-6 -61 -36.5 -110.5t-75.5 -89.5t-101.5 -68.5t-115.5 -48.5q82 -23 125 -61t61 -83t18 -90t-8 -82q-21 -92 -21 -152q-1 -17 1 -31q8 -66 30.5 -100t50 -42.5t42.5 -8.5l-25 -57h-201q-66 0 -95.5 37t-36.5 92q-3 23 -3 48q0 33 6 69q10 62 21 116q16 68 20 124q1 10 1 18 q0 44 -16 76q-19 38 -69.5 60t-142.5 24l-22 79v2q57 0 117.5 16.5t110.5 51.5t86 87t44 122q3 24 3 45q-1 90 -55 131q-68 51 -231 51q-4 -8 -8 -20q-4 -10 -8 -27.5t-10 -42.5q-47 -190 -93 -371q-18 -78 -39.5 -160.5t-41 -163.5t-38 -156t-32.5 -136q-8 -29 -9 -47.5 t1 -28.5q2 -12 4 -18q16 -4 37.5 -7t38.5 -8q20 -4 39 -8l-15 -55h-500z" />
<glyph unicode="S" horiz-adv-x="952" d="M55 49l39 275q16 4 29.5 3t23.5 -1q10 -2 21 -2v-20q0 -93 33 -160q37 -74 135 -91q23 -4 44 -4q39 1 73 13q51 18 85.5 56t52 87t17.5 100t-16.5 100.5t-42 95.5t-56 90t-61.5 87t-62.5 89t-56 94t-40 97.5t-15.5 98.5q0 94 43 152.5t107.5 91t142.5 44t147 11.5 q49 0 100.5 -7.5t94.5 -15.5q49 -10 96 -22l-47 -291q-41 -6 -55 0q-8 2 -15 8q3 25 3 49q0 36 -7 68q-10 45 -43.5 85t-107.5 46q-14 1 -27 1q-42 1 -74 -13q-44 -18 -71 -49t-41.5 -70t-14.5 -76q0 -78 44.5 -152.5t103.5 -152.5q37 -49 75 -100.5t68.5 -105.5t50 -110.5 t19.5 -115.5q0 -82 -38 -147.5t-105.5 -111.5t-161.5 -72t-207 -26q-66 0 -117 11.5t-88 25.5q-43 16 -78 37z" />
<glyph unicode="T" horiz-adv-x="1273" d="M274 1102l35 229h1178l-31 -229q-10 -4 -25.5 -6t-31.5 -4q-18 -2 -37 -2q8 51 13 82.5t-9 49t-54 22.5t-120 5h-186q-68 -266 -123 -487q-25 -94 -47.5 -188.5t-43 -175.5t-34 -141t-19.5 -85t-7 -42t-1 -28q0 -12 4 -22q18 -4 37 -8t35 -9q18 -6 37 -10l-13 -53h-503 l14 53q18 2 41 8q18 4 43 9.5t51 11.5l10 20q4 10 11.5 26.5t13.5 43.5q6 23 20.5 81t34 138t43 174t47.5 191q55 223 123 493h-176q-78 0 -124 -6t-70.5 -24.5t-32.5 -49t-8 -79.5q-18 0 -37 2q-16 2 -31.5 4t-26.5 6z" />
<glyph unicode="U" horiz-adv-x="1583" d="M240 309q0 23 5 73t17 97q39 154 81 323t81 322q9 37 9 65q-1 30 -11 49q-20 36 -96 36l14 57h500l-17 -57q-53 0 -83.5 -11.5t-48 -27.5t-23.5 -36.5t-11 -39.5l-161 -649q-25 -98 -25 -176q0 -123 65.5 -188.5t172.5 -65.5q70 0 139.5 19.5t131.5 68.5t113.5 132 t84.5 210q33 125 60.5 241.5t49.5 209.5q25 106 45 198q5 20 5 35q0 20 -7 32q-12 24 -35.5 34t-50 12t-45.5 2l14 57h439l-17 -57q-29 0 -58.5 -2t-57 -12.5t-49 -34t-31.5 -66.5q-37 -152 -70 -285q-14 -57 -28.5 -115.5t-29 -111.5t-25.5 -97t-17 -71q-43 -168 -119 -268 t-165 -152.5t-184 -68t-179 -15.5q-29 0 -92.5 8.5t-128 41t-113.5 99t-49 185.5z" />
<glyph unicode="V" horiz-adv-x="1415" d="M172 1274l14 57h516l-16 -57h-35.5t-43 -2t-41 -7t-29.5 -14q-21 -15 -23 -45q-1 -11 0 -25q0 -20 2 -44q29 -227 62.5 -439.5t66.5 -439.5q63 111 122.5 216.5t120 214t124 221t135.5 239.5q10 18 14 31.5t4 31.5q0 25 -15 37.5t-36.5 17.5t-43 6t-32.5 1l15 57h442 l-8 -57q-39 0 -68.5 -4t-53.5 -18.5t-45.5 -39t-45.5 -63.5q-119 -197 -208 -346.5t-154.5 -262t-112.5 -192.5t-80 -135q-29 -47 -47.5 -81t-29.5 -57.5t-18.5 -40t-11.5 -28.5q-8 -4 -26 -10q-16 -4 -41 -10t-66 -11l-178 1190q-4 31 -10 51.5t-23 36.5q-12 12 -32.5 16.5 t-63.5 4.5z" />
<glyph unicode="W" horiz-adv-x="1939" d="M172 1274l14 57h516l-16 -57h-35.5t-43 -2t-41 -7t-29.5 -14q-21 -15 -23 -45q-1 -11 0 -25q0 -20 2 -44q29 -227 62.5 -439.5t66.5 -439.5q74 129 141.5 252t139.5 252q-16 109 -30.5 222.5t-25.5 184.5q-2 14 1 42t21.5 55.5t56.5 48t106 20.5h194l-16 -57 q-57 0 -86 -14.5t-39 -36t-9 -45t3 -41.5q14 -129 29.5 -260t31 -249t27.5 -215.5t20 -158.5q63 111 123 216.5t120 214t123.5 221t135.5 239.5q8 14 13.5 32.5t5.5 30.5q0 25 -15.5 37.5t-37 17.5t-43 6t-31.5 1l14 57h442l-12 -57q-39 0 -66.5 -3t-50 -15.5t-42 -36 t-44.5 -62.5q-119 -197 -209 -347.5t-157.5 -264t-114.5 -195.5t-80 -137q-29 -47 -47 -81t-29.5 -57.5t-18.5 -40t-11 -28.5q-8 -4 -27 -10q-16 -4 -41 -10t-66 -11l-92 635l-233 -397q-29 -47 -47.5 -81t-29.5 -57.5t-18.5 -40t-11.5 -28.5q-8 -4 -26 -10q-16 -4 -41 -10 t-66 -11l-178 1190q-4 31 -10 51.5t-23 36.5q-12 12 -32.5 16.5t-63.5 4.5z" />
<glyph unicode="X" horiz-adv-x="1458" d="M-145 0l10 55q162 0 289 117q59 55 141 134t156 153l178 178q-51 98 -101 194q-41 82 -86 170.5t-77 153.5q-35 66 -73 94.5t-108 28.5l13 53h532l-14 -55q-23 -4 -45 -8q-18 -4 -39 -7.5t-37 -7.5q0 -18 7 -44.5t15 -47.5q20 -51 49 -117.5t56 -128.5q31 -72 61 -145 q57 63 119 131q53 57 113.5 126t115.5 134q27 33 27 56t-21.5 35t-48.5 16q-31 6 -69 6l14 57h547l-14 -53q-27 0 -59.5 -2t-70.5 -14.5t-80 -37t-85 -67.5q-55 -57 -132 -136t-149 -151q-82 -84 -170 -176l260 -518q33 -66 73 -91.5t105 -33.5l-14 -51h-520l14 53 q14 2 31 6q14 4 32.5 7.5t41.5 9.5q0 14 -2 30q-2 14 -4 30t-9 32l-161 395q-72 -74 -140 -143q-59 -61 -123.5 -130t-111.5 -122q-27 -31 -27 -51q0 -27 17.5 -39t41 -17.5t48 -6.5t41.5 -3l-13 -51h-544z" />
<glyph unicode="Y" horiz-adv-x="1265" d="M276 1276l13 55h489l-14 -55q-18 -2 -41 -6q-18 -4 -39.5 -7t-40.5 -8q16 -90 39 -184q18 -82 44 -179t58 -190l36 52q36 53 87 125.5t105.5 150.5t93.5 131q22 32 22 58q0 22 -20.5 34.5t-44.5 16.5q-29 6 -66 6l13 55h481l-14 -57q-16 0 -44 -2t-60 -12.5t-66.5 -34 t-65.5 -66.5q-96 -113 -178 -217q-35 -45 -72 -93t-69.5 -94t-59 -87t-43.5 -74q-31 -59 -51 -132t-35 -138q-16 -76 -24 -152q-10 -38 -10 -61q0 -6 1 -11q0 -14 5 -22q16 -4 36.5 -7t36.5 -8q20 -4 41 -8l-12 -55h-500l15 51q29 6 53 12q23 4 43 9.5t33 7.5l8 16 q4 10 10 27.5t14 48.5q12 53 24.5 97t23 85t21.5 85t21 98q5 22 5 50q0 22 -3 46q-6 57 -20 122.5t-33.5 131t-38 122t-33 95.5t-18.5 51q-14 37 -28.5 58.5t-32 34t-41 18.5t-54.5 10z" />
<glyph unicode="Z" horiz-adv-x="1073" d="M-25 137l9 9q10 8 21 17t20.5 18t13.5 14q225 254 426 522t412 534q-61 -2 -121 -4q-51 -2 -107.5 -3t-97.5 -1q-92 0 -141.5 -25.5t-71.5 -54.5q-27 -35 -29 -78q-18 2 -37 7q-16 4 -32.5 8t-28.5 10l59 221l744 -2q10 -10 25.5 -32.5t27.5 -45.5q14 -27 29 -59l-62 -59 q-205 -260 -418 -526.5t-421 -526.5q68 0 135 2q55 2 116.5 3t106.5 1q96 0 147.5 23.5t73.5 52.5q27 33 31 76q18 -2 37 -5q16 -2 32.5 -5t30.5 -9l-59 -219h-776q-14 0 -29.5 16.5t-30 39t-24 46t-11.5 35.5z" />
<glyph unicode="[" horiz-adv-x="796" d="M121 -262l432 1737h348l-20 -89l-195 -12q-94 -379 -192.5 -767t-190.5 -767q39 -4 94.5 -7t91.5 -7l-20 -88h-348z" />
<glyph unicode="\" horiz-adv-x="569" d="M209 1331h115l157 -1331h-112z" />
<glyph unicode="]" horiz-adv-x="796" d="M-61 -262l20 88l191 12q94 379 192 768t193 768l-187 12l21 89h350l-436 -1737h-344z" />
<glyph unicode="^" horiz-adv-x="864" d="M35 705l442 669h39l442 -669h-127l-335 514l-334 -514h-127z" />
<glyph unicode="_" horiz-adv-x="1024" d="M-16 -328h1056v-112h-1056v112z" />
<glyph unicode="`" d="M391 1278q-2 20 10.5 44t31 40t36.5 21.5t27 -11.5l172 -342l-52 -24q-37 18 -74.5 54t-70.5 76t-55.5 78.5t-24.5 63.5z" />
<glyph unicode="a" horiz-adv-x="952" d="M51 248v16q-1 97 21 209q24 121 77.5 224.5t138.5 172t204 68.5q29 0 66.5 -9t72.5 -20q41 -12 84 -28q25 18 58.5 29.5t64.5 17.5q37 8 75 10q-53 -211 -94 -383q-18 -74 -35.5 -145.5t-32 -130t-24.5 -98.5t-12 -50q-8 -33 -2 -43t16 -10q12 0 31.5 9t40.5 19 q23 12 47 29q2 -16 4 -28.5t2 -20.5v-16q-66 -27 -119 -50q-47 -18 -90 -33.5t-55 -15.5q-33 0 -44 33t-11 71t5 71l5 32q-16 -20 -51 -55t-75 -69t-81 -58.5t-72 -24.5q-66 0 -106.5 26t-65 65.5t-34 89t-9.5 96.5zM254 227q4 -66 21.5 -93.5t56.5 -27.5q31 0 70.5 27 t77.5 72t71 103.5t49 123.5q16 57 29.5 121.5t23.5 118.5q12 63 23 125q-18 16 -41 30q-20 12 -48 23.5t-63 17.5q-10 1 -19 1q-54 0 -98 -49q-51 -58 -87 -154q-34 -96 -52 -214q-14 -96 -15 -185q0 -20 1 -40z" />
<glyph unicode="b" horiz-adv-x="964" d="M61 14l308 1246q6 27 2 32.5t-11 5.5q-14 0 -38.5 -2t-47.5 -4q-27 -4 -57 -6q-2 10 -3 17.5t-1 15.5v16q55 12 115 27q51 12 112.5 28.5t120.5 34.5q4 -8 10 -18q4 -10 7.5 -21.5t3.5 -25.5q0 -16 -2 -41t-11 -55l-120 -484q20 23 48.5 50.5t60.5 52t62.5 42t55.5 17.5 q66 0 108.5 -25.5t66 -65.5t33.5 -89q8 -40 8 -80q0 -8 -1 -16q-2 -47 -13.5 -109.5t-31 -132.5t-46 -137.5t-57.5 -122.5q-55 -98 -136 -144.5t-156 -46.5q-53 0 -107.5 14.5t-95.5 37.5l-146 -52zM272 102q20 -16 43 -28q20 -10 45 -18.5t52 -8.5q59 0 107 75t83 181 q10 31 24.5 79t28 103.5t21.5 110.5q6 40 6 75q0 13 -1 25q-3 45 -20.5 74t-54.5 29q-25 0 -56.5 -15.5t-63 -45t-58.5 -72.5t-39 -97z" />
<glyph unicode="c" horiz-adv-x="729" d="M54 313q9 84 26 148q10 41 36.5 122t75 160.5t121 139t174.5 59.5q86 0 164 -31.5t117 -91.5q-10 -35 -30.5 -57.5t-43.5 -34.5q-25 -16 -53 -22q0 29 -9 57.5t-26.5 52t-41 37.5t-50.5 14q-39 0 -69.5 -27.5t-56.5 -74.5t-47 -111.5t-44 -138.5q-10 -35 -19.5 -78 t-15.5 -83t-9 -74.5t-3 -55.5q0 -70 21.5 -99.5t60.5 -29.5q29 0 86 10.5t133 69.5l12 -20q4 -10 9.5 -23.5t9.5 -30.5q-49 -35 -103 -61q-47 -23 -102 -43.5t-109 -20.5h-7q-94 1 -140 51q-47 52 -61 128q-9 47 -9 96q0 31 3 63z" />
<glyph unicode="d" horiz-adv-x="921" d="M43 236q0 59 11.5 132.5t35 150.5t60 150.5t86 131t111 92.5t136.5 35q49 0 101.5 -13.5t91.5 -33.5l94 381q6 27 2 32.5t-10 5.5q-14 0 -39 -2t-47 -4q-27 -4 -58 -6q-2 10 -3 17.5t-1 15.5v16q55 12 115 27q51 12 112.5 28.5t121.5 34.5q4 -8 10 -18q4 -10 7 -21.5 t3 -25.5q0 -16 -2 -41t-10 -55l-283 -1129q-8 -29 -4 -43t14 -10q10 2 32 11t42 20q23 12 49 26q2 -16 4 -28.5t2 -20.5v-16q-63 -29 -116 -51q-45 -18 -87 -34t-55 -16q-41 0 -69 39q-17 25 -17 65q0 23 6 52q-18 -20 -44.5 -50t-58.5 -56.5t-65.5 -46t-62.5 -19.5 q-66 0 -106.5 25.5t-65.5 66.5t-34 89t-9 96zM246 211v-11q0 -56 18 -82q20 -28 60 -28q31 0 65.5 26.5t66 66.5t56.5 87t35 88l108 443q-20 14 -43 24q-20 10 -44.5 18.5t-51.5 8.5q-43 0 -80 -37t-66.5 -95t-52 -131t-38 -143.5t-24.5 -133t-9 -101.5z" />
<glyph unicode="e" horiz-adv-x="882" d="M57 252q2 86 28 203.5t78 226.5t134 184.5t199 75.5q178 0 260 -108q61 -80 61 -209q0 -45 -8 -97q-16 -14 -33 -28q-14 -12 -29.5 -24.5t-27.5 -18.5l-430 -2q-19 -71 -27 -131q-7 -48 -6 -85v-16q0 -70 20.5 -99.5t59.5 -29.5q29 0 88 10.5t133 69.5q6 -8 12 -18 q4 -10 9.5 -24.5t9.5 -31.5q-51 -37 -105 -63q-47 -23 -102 -42.5t-109 -19.5q-70 0 -111.5 26t-65 65.5t-31 89t-7.5 96.5zM303 514q72 6 153 10t152 11q10 23 19 49q6 23 12 54.5t6 66.5q0 66 -30.5 113.5t-96.5 47.5q-39 0 -71.5 -31.5t-58.5 -82t-47.5 -114 t-37.5 -124.5z" />
<glyph unicode="f" horiz-adv-x="612" d="M-92 -315q27 41 56.5 95t47.5 134l228 924h-115q2 10 7 20t9 21q6 10 13 22q16 -2 34 0q33 0 74 10q4 25 12 52q4 23 11.5 49t13.5 49q31 121 81 194.5t108.5 113.5t119.5 51q46 8 86 8q15 0 29 -1q43 -4 82 -23.5t66.5 -47t44 -59t16.5 -60.5q0 -43 -42 -73.5 t-140 -30.5q-14 104 -37 160.5t-76 56.5q-41 0 -66.5 -49.5t-42.5 -114.5l-69 -268q33 2 65 4q29 2 60.5 2t56.5 2q4 -4 4 -13q0 -16 -8 -30q-14 -16 -31 -31q-8 -8 -20 -14h-146q-47 -186 -92 -368.5t-92 -369.5q-25 -98 -57.5 -171.5t-70.5 -126t-78 -87t-77 -55.5 q-16 4 -28.5 8t-20.5 8q-10 4 -16 9z" />
<glyph unicode="g" horiz-adv-x="811" d="M-14 -295q16 39 47 80q27 35 69.5 80t108.5 92l55 -14q-25 -35 -43 -68q-16 -29 -29.5 -56.5t-13.5 -43.5q0 -18 38 -29.5t91 -11.5q31 0 67 4t67.5 14t58 26.5t43.5 41.5q14 21 14 47q0 12 -3 25q-9 40 -57 75t-140.5 59.5t-237.5 24.5q-39 0 -37 36t29.5 84t71.5 98 t89 81q-115 41 -156 136q-27 59 -27 125q0 37 9 77q27 117 115 186.5t219 69.5q109 0 180 -43q53 2 94.5 6t69.5 8q33 6 56 13l24 -8q0 -14 -4 -33q-4 -16 -8 -34.5t-12 -41.5q-41 6 -69 10t-46 8q-23 4 -37 5q45 -41 70 -112q14 -41 14 -86q0 -33 -8 -69q-12 -57 -45 -103 t-78 -79t-100.5 -50.5t-112.5 -17.5q-35 0 -68 7q-27 -29 -42 -51.5t-23 -39.5q-8 -20 -13 -34q41 0 95.5 -8.5t107.5 -27t99.5 -47t76 -69.5t34.5 -94q1 -8 1 -16q0 -47 -24 -105q-35 -78 -89.5 -126t-114 -75.5t-115.5 -37t-95 -9.5q-111 0 -185.5 33t-80.5 88zM262 625 q-4 -29 -4 -55q0 -61 22 -107q33 -66 99 -66q43 0 80 19.5t66.5 52.5t50 76t26.5 90q4 29 4 54q0 68 -31 111q-43 60 -108 60q-41 0 -76 -19.5t-60.5 -51t-43 -74.5t-25.5 -90z" />
<glyph unicode="h" horiz-adv-x="987" d="M39 25l309 1237q8 27 3 32.5t-11 5.5q-16 0 -41 -2t-47 -4q-27 -4 -57 -6l-3.5 17.5t-1.5 15.5v16q49 10 107 25q47 12 110.5 28.5t131.5 39.5q4 -8 10 -19q4 -10 7 -22.5t3 -26.5q0 -16 -2 -42t-10 -54q-31 -123 -59.5 -227.5t-59.5 -231.5q20 23 46 47.5t56.5 44 t62.5 32.5t64 13q104 0 158.5 -59.5t54.5 -163.5q0 -55 -10 -119.5t-26 -142.5q-20 -78 -37 -144q-14 -57 -27.5 -109t-17.5 -71q-8 -31 -5 -42t11 -11q12 0 32.5 9t40.5 22q23 14 50 32q4 -18 5 -31.5t3 -21.5q2 -10 2 -16q-63 -29 -117 -51q-45 -18 -87 -34t-54 -16 q-20 0 -39 9.5t-31 28t-16 45t4 61.5l84 340q23 88 32 149.5t9 102.5q0 33 -8.5 53t-20.5 30.5t-27.5 13.5t-29.5 3q-43 0 -80 -25.5t-66.5 -66.5t-50 -91t-31.5 -100l-122 -489q-6 -6 -25.5 -15.5t-42 -19.5t-43 -18.5t-29.5 -10.5q-14 10 -24 20.5t-19 16.5q-8 8 -18 13z " />
<glyph unicode="i" horiz-adv-x="581" d="M80 58q4 -26 16.5 -45t30.5 -28.5t39 -9.5q20 0 63 15.5t86 34.5q51 23 109 51v16q0 8 -2 20.5t-4 28.5q-25 -18 -47 -30q-20 -10 -42 -19.5t-36 -9.5q-20 0 -8 51q2 6 9 38t19.5 80t26.5 107.5t31 120.5q37 143 80 322q6 24 6 44q1 37 -19 61q-30 36 -71 36 q-12 0 -54.5 -16.5t-87.5 -34.5q-53 -23 -114 -49v-17q0 -8 1 -20t3 -29q25 14 47 27q20 10 41.5 19t38.5 14q14 4 13 -13.5t-5 -38.5q-2 -6 -9.5 -37.5t-19.5 -78.5t-27.5 -106.5t-29.5 -121.5q-37 -143 -80 -321q-5 -23 -5 -43q0 -9 1 -18zM360 1247q0 43 33 75t76 32 q45 0 77 -32t32 -75q0 -45 -32 -75.5t-77 -30.5q-43 0 -76 30.5t-33 75.5z" />
<glyph unicode="j" horiz-adv-x="507" d="M-68 -309q6 -6 13 -15q12 -16 16 -16q39 20 87 52t90 71t73 81t35 85q10 78 28 151q45 174 88.5 350.5t86.5 350.5q6 24 6 44q0 35 -19 59q-28 38 -71 38q-12 0 -54.5 -16.5t-87.5 -34.5q-53 -23 -114 -49q0 -12 2 -23q2 -10 2 -22.5t2 -22.5q27 16 51 31 q20 10 41.5 20.5t32.5 10.5q10 0 13 -10.5t-5 -43.5l-12.5 -50t-25.5 -104.5t-33.5 -139t-39.5 -156.5q-47 -186 -104 -418q-23 -78 -50.5 -136.5t-50.5 -86.5zM360 1247q0 43 33 75t76 32q45 0 77 -32t32 -75q0 -45 -32 -75.5t-77 -30.5q-43 0 -76 30.5t-33 75.5z" />
<glyph unicode="k" horiz-adv-x="1034" d="M39 20l309 1240q6 27 2 32.5t-10 5.5q-16 0 -41 -2t-47 -4q-27 -4 -57 -6l-3.5 17.5t-1.5 15.5v16q55 14 115 29q51 12 112 28.5t118 34.5q6 -8 12 -18q4 -10 9 -21.5t5 -27.5t-3 -42t-11 -54q-76 -301 -153 -611.5t-152 -611.5q-8 -8 -28.5 -19.5t-45.5 -21.5 t-46.5 -18.5t-29.5 -10.5q-10 8 -19.5 16.5t-17.5 16.5zM436 537q92 41 151.5 89t95.5 91t50.5 76.5t14.5 48.5q0 16 -34 18h-14q-31 0 -75 -6l6 57q59 0 121 2q51 2 110.5 3.5t108.5 5.5q4 -10 6 -21q1 -7 1 -14v-7q-1 -12 -7 -24q-37 -72 -98.5 -130t-121 -101t-104.5 -69 t-51 -28q0 -109 42 -192.5t99.5 -144t118.5 -94.5t102 -40q-10 -23 -26 -41q-16 -16 -40 -28.5t-61 -12.5q-66 0 -128 28t-111 86t-82 152.5t-39 229.5q-10 16 -17.5 26.5t-11.5 20.5q-6 8 -6 19z" />
<glyph unicode="l" horiz-adv-x="569" d="M78 58q-1 9 -1 18q0 20 5 43l283 1143q6 27 1.5 32.5t-10.5 5.5q-14 0 -38.5 -2t-47.5 -4q-27 -4 -57 -6q-2 10 -3 17.5t-1 15.5v16q55 12 115 27q51 12 112.5 28.5t120.5 34.5q4 -8 10 -18q4 -10 7.5 -21.5t3.5 -25.5q0 -16 -2.5 -41t-10.5 -55l-282 -1129 q-8 -29 -4 -41t14 -12t30.5 9t41.5 20q23 12 51 28q2 -16 4 -28.5t2 -20.5v-16q-63 -29 -117 -51q-45 -18 -87 -34t-54 -16q-20 0 -39 9.5t-31 28.5t-16 45z" />
<glyph unicode="m" horiz-adv-x="1458" d="M37 25l190 759q8 51 -8 52q-12 0 -32.5 -9.5t-41.5 -19.5q-23 -12 -51 -29q-6 31 -6 47v19q63 27 117 49q45 18 86 34.5t55 16.5q35 0 54.5 -43t19.5 -100q18 31 47 56.5t63.5 45t69.5 29.5t66 10q70 0 111.5 -36t58.5 -87q18 16 50 38t69.5 40t77.5 31.5t75 13.5 q102 0 147 -58.5t45 -162.5q0 -55 -10 -119.5t-28 -140.5t-35 -142q-14 -55 -27.5 -108t-17.5 -74q-8 -31 -5 -42t13 -11q14 0 34.5 8t41.5 19q22 12 49 28q2 -12 4 -22.5t2 -20.5v-20q-63 -29 -117 -51q-45 -18 -87 -34t-54 -16q-43 0 -71 38q-17 24 -17 60q0 21 6 46 l84 342q10 45 24.5 106.5t18.5 118.5q1 12 1 24q1 42 -11 73q-14 40 -60 40q-16 0 -40.5 -6t-52 -17.5t-55.5 -29.5t-48 -43q-4 -143 -43 -298t-78 -294q-14 -53 4 -53q10 0 25.5 5t29.5 11q16 8 35 19q0 -10 1 -20.5t1 -20.5v-21q-51 -23 -94 -41q-37 -16 -72 -27.5 t-47 -11.5q-44 0 -72 38q-18 24 -18 61q0 21 6 45l86 342q29 109 40 177.5t11 109.5q0 47 -15 61t-34 14q-25 0 -59.5 -15t-69.5 -50t-66.5 -90.5t-52.5 -135.5l-120 -487q-51 -35 -89 -49t-55 -21q-14 10 -24.5 20.5t-18.5 16.5q-8 8 -16 13z" />
<glyph unicode="n" horiz-adv-x="985" d="M39 25l190 759q8 51 -8 52q-12 0 -32.5 -9.5t-41.5 -19.5q-23 -12 -51 -29q-6 31 -6 47v19q63 27 117 49q45 18 86 34.5t55 16.5t27.5 -14.5t23 -37t13.5 -50t2 -51.5q23 25 51.5 52t59 48.5t62 36t62.5 14.5q106 0 154.5 -46t59.5 -118q5 -33 5 -68q0 -42 -7 -88 q-13 -85 -30 -163q-20 -78 -36 -144q-14 -57 -27.5 -109t-17.5 -71q-8 -31 -5 -42t11 -11q12 0 32.5 9t40.5 22q23 14 50 32q4 -18 5 -31.5t3 -21.5q2 -10 2 -16q-63 -29 -117 -51q-45 -18 -87 -34t-54 -16q-20 0 -39 9.5t-31 28t-16 45t4 61.5l84 340q23 88 32 149.5 t9 102.5q0 33 -9.5 53t-23.5 30.5t-29.5 13.5t-29.5 3q-33 0 -66 -20.5t-60.5 -52t-48 -69.5t-28.5 -71l-137 -553q-51 -35 -89 -49t-55 -21q-14 10 -24.5 20.5t-18.5 16.5q-8 8 -16 13z" />
<glyph unicode="o" horiz-adv-x="874" d="M40 318v15q0 73 9 128q14 84 46 170t90.5 154.5t144.5 112.5t207 44q72 0 131 -22.5t100 -72.5q40 -50 60 -128q15 -60 15 -139q0 -24 -1 -50q-6 -102 -44 -202.5t-107.5 -178t-170 -126t-231.5 -48.5q-96 0 -148.5 53.5t-76 130.5t-24.5 159zM244 352q-1 -25 -1 -48 q0 -44 4 -86q7 -66 30.5 -114.5t74.5 -48.5q31 0 70 11.5t77 48.5t72.5 108.5t57.5 194.5q14 82 20 163q2 32 2 62q0 44 -5 82q-9 63 -36.5 102t-81.5 39q-59 0 -104 -33.5t-79 -89t-56.5 -129t-34.5 -153.5q-6 -41 -10 -109z" />
<glyph unicode="p" horiz-adv-x="942" d="M-164 -399q0 12 2 22t2 20.5t4 18.5h74q20 0 34.5 25.5t39 116t66.5 267.5t120 478q-16 -16 -41.5 -50t-48.5 -61q-10 20 -18 43q-6 18 -11.5 41t-5.5 43q66 41 98.5 63.5t50 49.5t27 70t27.5 126q6 6 24.5 16.5t40 21t41 18.5t29.5 12q6 -6 18.5 -14t22.5 -15 q12 -8 27 -16l-19 -63q18 16 44 35.5t54.5 36t58 27.5t56.5 11q70 0 117 -24.5t74.5 -65.5t37.5 -94q6 -37 6 -76q0 -16 -1 -33q-2 -66 -15.5 -140.5t-40 -150t-66.5 -145.5t-92 -123t-119 -85t-146 -32q-43 0 -87.5 14.5t-78.5 30.5l-64 -251q-12 -45 -12 -70q0 -7 1 -13 q5 -24 21 -24h107q0 -23 -4 -43q-2 -10 -2 -18q-59 2 -124 2h-95q-47 0 -88 -1t-74 -1h-72zM262 109q14 -14 33 -25q16 -10 35.5 -17.5t44.5 -7.5q57 0 117.5 72t105.5 178q53 129 68.5 224.5t15.5 154.5q0 68 -36 95.5t-79 27.5q-18 0 -41.5 -9t-45 -24.5t-39 -33 t-25.5 -35.5q-29 -72 -55.5 -173.5t-49.5 -197.5q-25 -113 -49 -229z" />
<glyph unicode="q" horiz-adv-x="989" d="M40 269q5 79 25.5 161t52.5 162t66 143q57 104 152 166q72 47 164 47q29 0 59 -4q27 -4 56.5 -12t53 -17.5t39.5 -16.5l15 -7q0 -2 36 16.5t91 36.5q8 -6 16 -14q8 -6 15.5 -15.5t17.5 -19.5l-20 -100q0 -2 12 -9.5t28.5 -18.5t34 -23.5t29.5 -24.5q-4 -16 -13 -34.5 t-20 -35.5q-10 -20 -24 -39q-12 27 -25.5 46.5t-23.5 31.5q-12 14 -25 25q-61 -252 -111 -455q-20 -86 -40.5 -170t-38 -151.5t-27.5 -113.5t-12 -54q-10 -39 -10 -67q0 -32 22 -32l104 -2q0 -10 -2 -21.5t-4 -21.5q-4 -12 -6 -24q-59 2 -121.5 2h-109.5t-87 -1t-71 -1h-66 q0 14 2 26q2 10 2 21.5t5 19.5h84q12 0 22 24.5t21 59.5q27 111 56.5 216.5t53.5 203.5q-25 -31 -56.5 -65.5t-66.5 -63.5t-68.5 -48.5t-58.5 -19.5q-90 6 -141 47t-71 104q-17 52 -17 113q0 15 1 30zM252 306q-4 -35 -4 -66q0 -40 7 -73q13 -58 64 -58q27 0 67 25.5 t80 71.5t74.5 108.5t51.5 134.5q10 47 25.5 109.5t29.5 119.5q16 68 33 135q-16 14 -37 25q-16 10 -37.5 17t-46.5 11q-6 1 -13 1q-31 0 -58 -17q-33 -21 -61 -57.5t-51.5 -85t-43.5 -97.5q-23 -53 -46.5 -138t-33.5 -166z" />
<glyph unicode="r" d="M39 16l190 766q6 27 2 33t-10 6q-16 0 -39.5 -2t-46.5 -4q-27 -4 -57 -6q-2 10 -3 17.5t-1 15.5v16q53 12 110 27q49 12 110.5 28.5t123.5 34.5q18 -18 21 -46t-1 -57.5t-11 -57t-11 -46.5q23 23 48 46.5t50 44t47.5 33t40.5 12.5q23 0 51.5 -7.5t53.5 -17.5 q29 -10 59 -25q-12 -43 -30.5 -82.5t-35.5 -68.5q-20 -37 -43 -66q-12 27 -28 49q-14 20 -37 38t-53 24q-5 1 -11 1q-36 0 -84 -45q-54 -52 -90 -188q-29 -115 -56.5 -224t-55.5 -222q-8 -8 -32 -18.5t-49.5 -20.5t-49 -18.5t-31.5 -10.5q-14 14 -21.5 22.5t-11.5 12.5 q-6 6 -8 6z" />
<glyph unicode="s" horiz-adv-x="686" d="M-25 131q0 37 28 63.5t77 26.5q16 0 27.5 -3t21.5 -7t18 -8q-6 -25 -6 -47q0 -18 4 -33q4 -29 26 -53.5t71 -24.5q35 0 68.5 33t33.5 98q0 96 -104 260q-53 86 -82 163t-29 146q0 74 55 129.5t178 69.5q36 4 66 4q38 0 70 -6q56 -10 92.5 -32.5t52.5 -53.5t16 -59 q0 -37 -21.5 -68t-74.5 -31q-12 0 -26.5 2t-24.5 7q-12 4 -25 8q-2 51 -16 88q-12 33 -40 57q-22 20 -61 20q-9 0 -20 -1q-27 -4 -44 -22.5t-15 -51.5q2 -47 32.5 -126t110.5 -204q86 -137 86 -246q0 -106 -74.5 -173.5t-199.5 -80.5q-31 -3 -58 -3q-42 0 -74 8 q-52 12 -83 36.5t-43.5 55t-12.5 59.5z" />
<glyph unicode="t" horiz-adv-x="598" d="M80 119q43 178 89 360.5t89 360.5h-121q4 10 9.5 21t9.5 22q6 12 12 26q16 -4 35 -4q14 0 30.5 2t30.5 13q16 10 25.5 42.5t17.5 67.5q8 41 15 92q18 10 40 23q18 10 45 25.5t58 31.5l76 -49l-66 -233l182 8q-12 -25 -25.5 -43.5t-31.5 -44.5h-147q-6 -27 -20.5 -85.5 t-33 -133t-37 -154.5t-35 -149.5t-28.5 -118.5t-14 -62q-4 -16 -2 -26.5t8 -15.5t15 -6t16 -1q27 0 55.5 9t50.5 20q27 12 53 30v-55q0 -14 -2 -31q-55 -25 -112 -43q-49 -16 -108.5 -29.5t-117.5 -13.5q-41 0 -59 39q-10 20 -10 48q0 25 8 57z" />
<glyph unicode="u" horiz-adv-x="978" d="M61 825v19q63 27 117 49q45 18 86 34.5t55 16.5q41 0 70 -38q18 -24 18 -59q0 -21 -6 -46l-84 -340q-10 -43 -24 -107q-15 -62 -19 -122q-1 -15 0 -29q0 -41 10 -73q14 -42 58 -42q61 0 107.5 36t81 97.5t59 141t45 166.5t38 176.5t38.5 168.5q31 16 61 31 q27 12 53.5 24.5t44.5 18.5q12 -12 21.5 -21t15.5 -18q8 -8 11 -14l-173 -713q-8 -31 -9.5 -64.5t18.5 -33.5q10 0 30.5 9t40.5 20q23 12 52 28q2 -16 4 -28.5t2 -20.5v-16q-63 -29 -117 -51q-45 -18 -86 -34t-53 -16q-31 0 -46.5 24t-23.5 52q-8 33 -10 76q-18 -20 -47 -47 t-63 -49.5t-71.5 -39t-74.5 -16.5q-96 0 -141.5 51.5t-56.5 125.5q-6 37 -5.5 76t5.5 81q11 84 28 152q18 76 35 141q14 55 26.5 108.5t18.5 73.5v-2q6 31 4 42.5t-15 11.5q-12 0 -32.5 -9.5t-40.5 -19.5q-23 -12 -49 -29q-6 31 -7 47z" />
<glyph unicode="v" horiz-adv-x="866" d="M68 821v23q61 27 114 49q45 18 85 34.5t55 16.5q42 0 70 -38q18 -24 17 -58q0 -21 -6 -45q-20 -84 -41.5 -171t-42.5 -171q-29 -121 -43 -196t-14 -115q0 -39 16.5 -53.5t40.5 -14.5q43 0 103.5 54t117 138t96.5 188.5t40 207.5q0 25 -4 81t-31 109q14 23 37 41 q18 16 44 29.5t60 13.5q45 0 71 -30.5t26 -84.5q0 -63 -21.5 -146t-61.5 -172t-95.5 -177t-122 -161t-142.5 -124t-157 -65q-33 -6 -62 -6q-11 0 -21 1q-38 3 -66 21t-43 55t-15 97q0 59 14 138t37 171q18 76 35 141q14 55 27.5 107.5t17.5 74.5q10 53 -6 54q-16 0 -38 -9.5 t-40 -19.5q-22 -13 -45 -29q-4 8 -5 19.5t-1 21.5z" />
<glyph unicode="w" horiz-adv-x="1280" d="M49 821v23q61 27 115 49q45 18 85 34.5t54 16.5q41 0 69 -38q18 -24 19 -60q0 -20 -6 -43q-20 -84 -41.5 -171t-42.5 -171q-29 -121 -43 -196t-14 -115q0 -39 15 -53.5t40 -14.5q43 0 100.5 54t110.5 138t90 188.5t37 207.5q0 25 -4 81t-31 109q14 23 37 41 q18 16 44 29.5t60 13.5q45 0 70 -30.5t25 -84.5q0 -45 -14.5 -99t-36 -113.5t-48 -124t-51.5 -130.5q-18 -49 -28 -98q-7 -34 -6 -65q0 -13 1 -25q4 -41 22.5 -66.5t57.5 -25.5q43 0 102.5 54t115 138t94 188.5t38.5 207.5q0 25 -4 81t-30 109q14 23 36 41q18 16 44 29.5 t61 13.5q45 0 70.5 -30.5t25.5 -84.5q0 -63 -20.5 -146t-57 -172t-90 -177t-117 -161t-138 -124t-156.5 -65q-32 -6 -60 -6q-47 0 -81 16q-56 26 -66 125q-55 -53 -115.5 -88t-126.5 -47q-33 -6 -62 -6q-11 0 -21 1q-38 3 -65.5 21t-43 55t-15.5 97q0 59 14.5 138t36.5 171 q18 76 35 141q14 55 27.5 107.5t17.5 74.5q10 53 -6 54q-16 0 -37.5 -9.5t-40.5 -19.5q-22 -13 -45 -29q-4 8 -5 19.5t-1 21.5z" />
<glyph unicode="x" horiz-adv-x="917" d="M-18 92q0 16 4 38t32 48q10 -16 25 -26q12 -10 29.5 -17.5t40.5 -3.5q43 6 86 53t77 101q39 63 78 143q-37 74 -72.5 144.5t-65.5 129t-51.5 97.5t-29.5 47q-12 12 -30.5 16t-34.5 6q-20 2 -39 0q-8 10 -11.5 19.5t-5.5 17.5t0 19q33 -2 70 -4q31 -2 66.5 -3.5t70.5 -1.5 h58.5t50.5 3q8 -45 24 -99q14 -45 36 -105.5t56 -127.5q49 84 96.5 158.5t78.5 105.5q47 49 92 69.5t82 20.5q55 0 89 -34t34 -77q0 -18 -13.5 -43.5t-42.5 -54.5q-8 18 -22 31q-12 10 -30.5 19.5t-45.5 6.5q-53 -4 -100.5 -48t-83.5 -97q-43 -61 -80 -139 q37 -74 74.5 -145.5t68.5 -128t50.5 -91.5t19.5 -37q20 -31 51 -45q22 -10 58 -10q16 0 34 2v-16t-2 -17q-2 -8 -2 -16q-33 2 -76 2h-76h-170q-10 43 -28 96q-16 47 -39 109.5t-51 136.5q-31 -57 -58.5 -121.5t-61.5 -118t-78 -89t-108 -35.5q-55 0 -89.5 33.5t-34.5 78.5z " />
<glyph unicode="y" horiz-adv-x="864" d="M-227 -316q-1 10 -1 20q0 26 7 52q10 37 24 62q41 -25 74 -32t76 -7t102.5 31.5t110.5 69.5t83 70t17 30q-21 -2 -40 -2q-67 0 -105 28q-49 35 -49 146q0 59 14 138t37 171q18 76 35 141q14 55 27.5 107.5t17.5 74.5q10 53 -6 54q-16 0 -38 -9.5t-40 -19.5 q-22 -13 -45 -29q-4 8 -5 19.5t-1 21.5v23q61 27 114 49q45 18 85 34.5t55 16.5q41 0 70 -38q17 -24 17 -58q0 -21 -6 -45q-20 -84 -41.5 -171t-42.5 -171q-29 -121 -43 -196t-14 -115q0 -39 16.5 -53.5t40.5 -14.5q43 0 103.5 54t117 138t96.5 188.5t40 207.5q0 25 -4 81 t-31 109q14 23 37 41q18 16 44 29.5t60 13.5q45 0 71 -30.5t26 -84.5q0 -113 -54.5 -248t-142.5 -271t-198.5 -264t-222 -227.5t-213 -158.5t-173.5 -59q-51 0 -74.5 24.5t-27.5 58.5z" />
<glyph unicode="z" horiz-adv-x="796" d="M-45 63l561 777h-162q-66 0 -118 -13.5t-91 -29.5q-45 -20 -82 -43q0 27 5 55q4 25 9 53.5t17 57.5h586q14 -16 24.5 -28.5t14.5 -23.5q6 -12 8 -22l-559 -764h209h18q59 0 104 11q52 13 87 30q39 18 67 43q-2 -27 -6 -53q-4 -23 -11 -53.5t-18 -59.5h-616q-18 12 -33 37 q-8 12 -14 26z" />
<glyph unicode="{" horiz-adv-x="819" d="M224 -100.5q7 69.5 24.5 144.5t30.5 128l51 207q12 47 15 95t-3 91t-25.5 80t-52.5 62q92 47 149.5 114.5t82.5 163.5l49 199q12 51 30.5 109.5t44 105.5t60.5 77.5t82 28.5q49 -4 82 -4t55 -2q23 -2 39 -2l-8 -53q-55 4 -88 -1t-54.5 -32t-38 -81t-40.5 -146l-50 -199 q-29 -115 -79 -173t-95 -81q-55 -27 -114 -24q49 -10 82 -48q29 -33 44 -98t-10 -182l-47 -219q-29 -135 -43 -216t-4 -124t48 -56.5t116 -13.5l-14 -49q-39 -2 -82 -2q-37 0 -85 4t-102 14q-39 8 -48 60.5t-2 122z" />
<glyph unicode="|" horiz-adv-x="563" d="M55 -164l373 1495h111l-375 -1495h-109z" />
<glyph unicode="}" horiz-adv-x="819" d="M-72 -299l13 53q66 0 103.5 9.5t62 44t45 106.5t53.5 199l55 209q31 115 79 189.5t95 117.5q53 51 113 78q-55 12 -90 49q-31 33 -46.5 98.5t13.5 179.5l55 230q14 63 20.5 101t-5 56.5t-44 21.5t-94.5 1l15 51q41 2 80 4q33 2 68.5 4t60.5 2q70 0 80 -68.5t-17 -172.5 l-55 -230q-12 -47 -16.5 -95t2 -92t25.5 -79.5t54 -60.5q-47 -25 -84 -71t-65.5 -100.5t-48 -110.5t-31.5 -103l-51 -207q-14 -53 -28.5 -119t-35 -125t-46 -102t-62.5 -50q-53 -10 -101.5 -13t-87.5 -5q-45 -2 -84 0z" />
<glyph unicode="~" horiz-adv-x="1107" d="M66 453q8 55 40 102q29 41 85.5 75t160.5 44q74 6 133.5 -18.5t113.5 -57.5t106.5 -64.5t107.5 -39.5q49 -8 85 7t60.5 41.5t39 61.5t22.5 68h61l25 -58q-14 -74 -51 -127q-16 -23 -40 -43t-55.5 -34.5t-73.5 -19.5t-93 3q-57 8 -111.5 39t-109 63.5t-107.5 57.5t-107 20 q-49 -4 -83.5 -21t-59.5 -43t-40 -55.5t-28 -58.5h-61z" />
<glyph unicode="&#xa1;" d="M137 -398.5q8 -19.5 27.5 -28.5t49.5 -9t62 8q53 12 82 50t35 73l146 885q-23 -4 -40.5 -7.5t-31.5 -7.5q-16 -4 -29 -6l-299 -905q-10 -33 -2 -52.5zM420 817q10 47 52 86t95 39q57 0 86 -36t19 -89q-10 -49 -49 -89t-99 -40q-70 0 -93 37t-11 92z" />
<glyph unicode="&#xa2;" horiz-adv-x="729" d="M54 316q9 83 26 145q10 41 36.5 122t75 160.5t121 139t174.5 59.5h11v90l110 -10l-22 -90q57 -14 105 -42t77 -71q-10 -35 -30.5 -57.5t-43.5 -34.5q-25 -16 -53 -22q0 43 -20.5 84.5t-55.5 62.5l-190 -756q33 4 78 19.5t98 58.5l12 -20q4 -10 9.5 -23.5t9.5 -30.5 q-35 -23 -72 -45q-33 -18 -75 -37.5t-87 -29.5v-94l-108 10l16 71q-94 2 -139 54.5t-58.5 128t-4.5 158.5zM250 223q0 -90 39 -117l188 752q-61 -25 -101 -120t-79 -224q-10 -35 -19.5 -78t-15.5 -83t-9 -75t-3 -55z" />
<glyph unicode="&#xa3;" horiz-adv-x="1341" d="M35 6l90 76q63 53 142 97t154 105.5t133 153.5t79 240h-187q6 35 53.5 53.5t139.5 28.5q23 162 52.5 285.5t80.5 206.5t130 125t200 42q109 0 174 -49t85.5 -114.5t-6 -134t-102.5 -105.5q-27 -12 -56.5 -12t-54 7t-41 16t-14.5 13q16 39 33 87.5t17 91.5t-22.5 71.5 t-82.5 28.5q-55 0 -91 -42t-55.5 -116t-25.5 -176t-6 -221q51 0 117.5 6t126.5 14q68 8 139 21q-12 -35 -28.5 -59.5t-32.5 -40.5q-18 -18 -37 -31l-295 4q0 -57 -20.5 -111.5t-54.5 -102.5t-78 -91t-89 -80q-106 -84 -242 -156q14 2 45 10.5t77 13.5t105.5 5t133.5 -10 q92 -14 174 -38t146.5 -33t105.5 5t49 78q6 43 -5 69.5t-32.5 42t-50.5 20.5t-59 3q-74 -4 -170 -35q-16 39 -10.5 76t30.5 65.5t67 46t97 17.5t105.5 -19.5t88 -53t61 -79t23.5 -96.5q0 -61 -29.5 -110t-78.5 -83t-114.5 -51.5t-137.5 -17.5q-78 0 -152.5 12.5t-151.5 26.5 t-155 26.5t-160 12.5q-66 0 -125 -19.5t-116 -66.5z" />
<glyph unicode="&#xa4;" horiz-adv-x="1163" d="M88 102q33 29 70 60q31 27 67.5 56.5t75.5 53.5q-35 43 -52.5 100.5t-10.5 116.5q6 59 35.5 113.5t72.5 102.5q-35 27 -66.5 55t-56.5 55q-29 29 -55 59l108 87l134 -205q90 59 208 59q119 0 197 -65q41 49 89 105t89 101l86 -86q-35 -31 -71 -61q-31 -27 -69 -56.5 t-75 -54.5q33 -45 49.5 -100.5t10.5 -112.5q-6 -59 -35 -116.5t-70 -98.5q33 -27 64.5 -56.5t58.5 -55.5q31 -31 57 -62l-112 -88l-135 211q-88 -59 -207 -59q-59 0 -106.5 15t-88.5 44q-41 -47 -89 -103.5t-89 -103.5zM377 489q-6 -51 5 -95t35.5 -76.5t59.5 -52t78 -19.5 q41 0 80 18.5t70.5 51t53 76.5t27.5 93t-6 93.5t-36.5 77t-59.5 52t-76 19.5q-43 0 -82 -18.5t-70.5 -50t-52 -75.5t-26.5 -94z" />
<glyph unicode="&#xa5;" horiz-adv-x="1265" d="M248 276l20 86h264q10 41 20.5 82t20.5 93q2 8 2 30h-266l21 86h241q-8 70 -28.5 152t-44 154.5t-42 127t-24.5 68.5q-14 37 -28.5 58.5t-32 34t-41 18.5t-54.5 10l13 55h489l-14 -55q-18 -2 -41 -6q-18 -4 -39.5 -7t-40.5 -8q16 -90 39 -184q18 -82 44 -179t58 -190 l36 52q36 53 87 125.5t105.5 150.5t93.5 131q23 33 22 60q0 20 -20.5 32.5t-44.5 16.5q-29 6 -66 6l13 55h481l-14 -57q-16 0 -44 -2t-60 -12.5t-66.5 -34t-65.5 -66.5q-88 -102 -166 -198q-33 -41 -66.5 -84t-64.5 -84t-57.5 -77t-42.5 -63h207l-21 -86h-223 q-14 -41 -28.5 -96t-26.5 -109h237l-20 -86h-238q-6 -23 -9 -42t-7 -33q-4 -16 -6 -29q-12 -47 -9 -72q0 -14 5 -22q16 -4 36.5 -7t36.5 -8q20 -4 41 -8l-12 -55h-500l15 51q29 6 53 12q23 4 43 9.5t33 7.5l8 16q4 10 10 27.5t14 48.5q6 29 13.5 54.5t13.5 49.5h-262z" />
<glyph unicode="&#xa6;" horiz-adv-x="563" d="M55 -164l164 662h111l-166 -662h-109zM262 668l166 663h111l-166 -663h-111z" />
<glyph unicode="&#xa7;" horiz-adv-x="1038" d="M197 164q4 10 12 18t20.5 17.5t34.5 19.5q27 10 50.5 15.5t41.5 7.5q23 2 41 -2q-4 -59 4 -105q8 -39 33 -70.5t78 -31.5q45 0 77 13t51 31.5t28.5 39t11.5 35.5q6 43 -26.5 83.5t-86 80.5t-116 80t-114.5 84t-85 92.5t-25 105.5q10 74 54.5 118t91.5 66q55 27 123 37 q-63 16 -111 49q-41 29 -71.5 77t-20.5 126q8 59 42 107.5t87 83t123.5 53t154.5 18.5q80 0 134.5 -21.5t86 -54t44 -69.5t8.5 -70q-4 -10 -12 -18t-21.5 -17.5t-34.5 -19.5q-27 -12 -51.5 -16.5t-42.5 -6.5q-23 -2 -41 2q6 59 -2 107q-8 41 -33.5 73.5t-79.5 32.5 q-45 0 -75.5 -14t-50 -34.5t-28.5 -42t-12 -34.5q-6 -47 27 -87t85 -78.5t114.5 -78.5t115 -83t84 -92.5t23.5 -108.5q-10 -76 -49 -118t-82 -64q-52 -25 -113 -35q33 -12 68 -31.5t62.5 -50.5t42 -73t5.5 -101q-16 -117 -126.5 -184.5t-278.5 -67.5q-78 0 -132 20.5t-86 51 t-44 66.5t-8 69zM399.5 688.5q20.5 -63.5 92.5 -110.5q35 -25 72.5 -38.5t72.5 -15.5t64.5 7.5t48.5 31.5q39 45 18.5 108.5t-92.5 110.5q-68 49 -142.5 52.5t-113.5 -39.5q-41 -43 -20.5 -106.5z" />
<glyph unicode="&#xa8;" d="M215 1195q-2 17 0 32q2 14 9 31.5t20.5 34t33 27.5t48.5 11h8q27 0 44 -11t26.5 -27.5t11.5 -34t0 -31.5t-9.5 -31.5t-21.5 -34t-34.5 -28t-47.5 -11.5h-8q-29 0 -45.5 11.5t-24.5 28t-10 33.5zM637 1195q-2 17 0 32q2 14 9 31.5t20.5 34t33 27.5t48.5 11h6q29 0 46 -11 t26.5 -27.5t11.5 -34t0 -31.5t-10.5 -31.5t-21.5 -34t-33.5 -28t-49.5 -11.5h-6q-29 0 -45.5 11.5t-24.5 28t-10 33.5z" />
<glyph unicode="&#xa9;" horiz-adv-x="1230" d="M117 506q14 111 69.5 207t138.5 168.5t187 114.5t219 42q113 0 206 -42t156.5 -114.5t91 -169t13.5 -206.5q-16 -111 -71.5 -208t-138.5 -170t-188.5 -115t-217.5 -42q-115 0 -207 42t-155.5 115t-91.5 170t-11 208zM176 506q-14 -98 12.5 -186.5t84 -153t139.5 -102 t178 -37.5t189 37.5t168 102t127 153t67 186.5q14 98 -13.5 185t-85 152.5t-140.5 103.5t-177 38q-96 0 -188.5 -38t-168 -103.5t-127 -152.5t-65.5 -185zM313 498q10 74 46 138t93.5 112.5t130 77t156.5 28.5q61 0 117.5 -17.5t104.5 -50.5q-6 -23 -11 -45q-4 -20 -7 -45.5 t-5 -52.5q-10 -4 -20 -4t-21.5 2t-22.5 8q-6 37 -24 66q-16 25 -45 45t-82 20q-102 0 -156.5 -78.5t-70.5 -203.5q-18 -127 13.5 -206t133.5 -79q53 0 88 20.5t57 45.5q25 28 43 65q4 2 16.5 3t22.5 3q12 2 27 2q-6 -23 -9 -48t-5 -48q-2 -27 -4 -51q-55 -29 -116 -45.5 t-122 -16.5q-84 0 -149.5 28t-108.5 76t-61.5 112.5t-8.5 138.5z" />
<glyph unicode="&#xaa;" horiz-adv-x="608" d="M71.5 763q-10.5 91 11 196.5t71 196.5t121 151.5t159.5 60.5q45 0 93 -16.5t87 -36.5q18 12 45 21.5t54 13.5q31 6 63 8q-45 -176 -82 -320q-16 -61 -30.5 -120.5t-26.5 -108.5t-21.5 -83t-11.5 -42q-8 -33 1.5 -38t25.5 -1q27 8 55 21q16 8 33 14q0 -10 1 -19.5t1 -15.5 v-14q-45 -23 -86 -41q-35 -16 -71 -27.5t-58 -11.5q-29 0 -48.5 30.5t-4.5 96.5q-27 -37 -56 -64q-25 -25 -58.5 -44t-70.5 -19q-90 0 -138 60.5t-58.5 151.5zM245 870.5q-5 -88.5 12 -137.5t50 -61.5t70 6t70.5 64.5t52.5 116q0 2 4 19.5t11 45t15.5 63.5t18.5 73 q23 86 47 194q-20 12 -43 21q-20 8 -44 15t-48 7q-55 0 -100 -58t-72 -148q-39 -131 -44 -219.5z" />
<glyph unicode="&#xab;" horiz-adv-x="1024" d="M92 496q0 8 15.5 24.5t41 37t57.5 44t66 45.5q80 53 181 115l30 -53q-53 -45 -100 -84q-41 -35 -79 -71t-56 -58q18 -23 56 -59t79 -70q47 -39 100 -84l-30 -54q-100 61 -181 115q-35 23 -66.5 45.5t-57 43t-41 36.5t-15.5 27zM383 496q0 8 15.5 24.5t42 37t59 44 t67.5 45.5q82 53 185 115l30 -53q-53 -45 -100 -84q-41 -35 -79 -71t-56 -58q18 -23 56 -59t79 -70q47 -39 100 -84l-30 -54q-102 61 -185 115q-35 23 -67.5 45.5t-59 43t-42 36.5t-15.5 27z" />
<glyph unicode="&#xac;" horiz-adv-x="833" d="M49 444v107h721v-410h-106v303h-615z" />
<glyph unicode="&#xad;" d="M61 391l13 94l528 64l-43 -156q-53 6 -127 8q-63 2 -155.5 1t-215.5 -11z" />
<glyph unicode="&#xae;" horiz-adv-x="997" d="M127 1124q12 88 54 165t105.5 134.5t144.5 91t171 33.5t164 -33.5t124 -91t72.5 -134.5t10.5 -165q-12 -86 -56.5 -162.5t-110 -134t-148.5 -90t-173 -32.5t-161.5 32.5t-119.5 90t-68.5 134t-8.5 162.5zM186 1124q-10 -76 8.5 -142.5t60.5 -115.5t102.5 -77.5 t134.5 -28.5q72 0 142.5 28.5t128.5 77.5t98 116t50 142q10 76 -10 143.5t-64 117t-106.5 78t-134.5 28.5q-74 0 -142.5 -28.5t-125 -78t-94 -117t-48.5 -143.5zM317 885l5 35q29 4 43 12t18 33l47 335q4 23 0 29q-2 4 -4 6q-23 4 -28 5t-15 6l4 34h186q84 0 130.5 -29.5 t35.5 -95.5q-12 -98 -121 -122l70 -152q10 -27 20.5 -40t20.5 -17q10 -6 21 -4l-9 -35h-92q-16 0 -27.5 8t-19.5 35l-67 219q49 6 74.5 32.5t33.5 82.5q4 29 -13.5 51t-70.5 22h-33l-49 -348q-4 -16 -5 -35.5t9 -23.5q6 -4 17.5 -5t21.5 -3l-4 -35h-199z" />
<glyph unicode="&#xaf;" d="M246 1141l35 108h600l-35 -108h-600z" />
<glyph unicode="&#xb0;" horiz-adv-x="442" d="M45 1184q0 74 51 125t125 51q37 0 69 -14.5t55.5 -38t37.5 -55t14 -68.5t-14 -69t-37.5 -56.5t-55.5 -37.5t-69 -13t-68.5 14t-55 37.5t-38 55.5t-14.5 69zM111 1184q0 -47 31.5 -81t78.5 -34t79 34t32 81t-33 80.5t-80 33.5q-45 0 -76.5 -33.5t-31.5 -80.5z" />
<glyph unicode="&#xb1;" horiz-adv-x="817" d="M49 0v106h721v-106h-721zM70 459v106h286v287h107v-287h287v-106h-287v-287h-107v287h-286z" />
<glyph unicode="&#xb2;" horiz-adv-x="757" d="M63 795l66 16q96 45 178 98q70 47 136.5 106.5t91.5 127.5t-7 99.5t-82 31.5q-25 0 -52 -7t-50 -22q-23 -14 -40 -29.5t-28 -29.5q-12 -16 -20 -33q-18 0 -37 2q-33 0 -53 4q4 29 10 55q10 51 27 84q31 16 69 29q35 10 82 19.5t107 9.5q119 0 187.5 -48t58.5 -130 q-6 -37 -35 -84q-41 -66 -107.5 -119t-133 -93t-117 -63.5t-56.5 -25.5h205q57 -4 95 6t71 51q29 4 65 -16l-32 -54q-14 -23 -29 -50.5t-25 -51.5h-506q-6 18 -14 39q-6 16 -13 36.5t-12 41.5z" />
<glyph unicode="&#xb3;" horiz-adv-x="788" d="M98 702q2 16 8.5 35t14.5 37q8 20 18 43q27 -20 58 -37q27 -14 61.5 -25.5t75.5 -11.5q92 0 147.5 43t63.5 95q6 47 -37 82.5t-141 37.5q-8 -4 -21.5 -8t-19.5 -8q-16 14 -31 27q-12 10 -22.5 21t-14.5 18q10 4 25 8q12 4 30.5 5t40.5 3q4 0 33 6t62.5 21.5t61.5 40 t32 61.5q4 41 -23.5 64.5t-68.5 23.5q-27 0 -56.5 -9t-57.5 -26.5t-50.5 -42t-34.5 -57.5q-14 0 -25 2q-10 2 -20 3t-21 5q6 33 13 62q4 23 9 45t9 30q27 16 64 29q31 10 76.5 20.5t107.5 10.5q135 0 196.5 -45.5t53.5 -102.5q-6 -45 -59.5 -90t-149.5 -74q123 -10 178 -60 t45 -114q-6 -39 -35.5 -76.5t-84 -66.5t-131.5 -47t-177 -18q-53 0 -91 6t-63 14q-29 8 -49 20z" />
<glyph unicode="&#xb4;" d="M408 1030l172 342q8 16 26.5 11t37 -21t30.5 -40t10 -44q-4 -25 -25.5 -63.5t-54.5 -78.5t-70.5 -76t-74.5 -54z" />
<glyph unicode="&#xb5;" horiz-adv-x="978" d="M-133 -371q27 37 49 80q20 37 40.5 84t33.5 101l131 567q18 76 35 141q14 55 26.5 108.5t18.5 73.5v-2q6 31 4 42.5t-15 11.5q-12 0 -32.5 -9.5t-40.5 -19.5q-23 -12 -49 -29q-6 31 -7 47v19q63 27 117 49q45 18 86 34.5t55 16.5q41 0 70 -38t12 -105l-84 -340 q-10 -43 -24 -106.5t-18.5 -123t9 -101.5t58.5 -42q72 0 142.5 79t129.5 239q25 68 46.5 149.5t37.5 153.5q18 82 33 165q29 16 55 31q23 12 48.5 24.5t44.5 18.5q12 -12 22 -21t19 -18l14 -14l-191 -760q-12 -51 11 -51q10 0 30.5 9t40.5 20q23 12 52 28q2 -16 4 -28.5 t2 -20.5v-16q-63 -29 -117 -51q-45 -18 -86 -34t-53 -16q-23 0 -39.5 16.5t-26.5 40t-14 49t0 46.5q-18 -20 -47 -47t-63 -49.5t-71.5 -39t-74.5 -16.5q-45 0 -78 13q-6 -35 -13 -89.5t-16 -105.5q-8 -59 -18 -125q-53 -18 -105.5 -26.5t-95.5 -12.5q-51 -4 -98 0z" />
<glyph unicode="&#xb6;" horiz-adv-x="1071" d="M206 919.5q-7 65.5 9 133.5t59 120t104.5 86.5t138.5 53t161 18.5h55h422l-14 -53q-23 -4 -47.5 -7t-53.5 -7q-10 -14 -18 -31q-8 -14 -17.5 -31.5t-13.5 -38.5l-248 -995q-6 -20 -7 -38.5t1 -33.5q2 -16 4 -30q27 -2 49.5 -5.5t45.5 -7.5l-15 -53h-227l311 1243h-88 l-311 -1243h-227l14 53q23 4 47.5 7t50.5 6q10 14 19 30q8 14 17 32.5t15 39.5l269 1075h-54q-88 0 -142 -58.5t-71 -142.5q-6 -35 -6 -67.5t10.5 -63t36 -55.5t70.5 -39q-12 -20 -33 -39q-16 -16 -40.5 -31.5t-59.5 -23.5q-61 -14 -107.5 10.5t-74 72.5t-34.5 113.5z" />
<glyph unicode="&#xb7;" horiz-adv-x="512" d="M176 537q8 49 44 84.5t95 35.5h11q59 0 84.5 -35.5t17.5 -84.5q-6 -47 -45 -82t-92 -35h-10q-53 0 -82 34.5t-23 82.5z" />
<glyph unicode="&#xb8;" d="M39 -406l20 48q25 0 63 2t73.5 12t62.5 29.5t31 52.5q2 74 -86 74q-4 0 -19 18q-8 8 -14 20l104 150h52l-70 -139q20 0 50 -4t57.5 -15.5t46 -33t16.5 -58.5q-4 -49 -40 -84t-91 -55.5t-123 -24.5t-133 8z" />
<glyph unicode="&#xb9;" horiz-adv-x="575" d="M82 678l8 57q18 4 37 8q16 4 34.5 6.5t35.5 6.5l4 9t12 43t19.5 100.5t27.5 181.5q4 35 3 55t-5 31q-4 12 -10 18q-27 -2 -51.5 -4t-49.5 -4l-8 57q37 8 80 25q37 14 86 35.5t107 52.5l39 -21q-29 -207 -42.5 -321.5t-18.5 -172t-4 -70.5t1 -15q14 -4 30.5 -6t33.5 -7 q18 -4 34 -6l-8 -59h-395z" />
<glyph unicode="&#xba;" horiz-adv-x="876" d="M60.5 1008q19.5 90 76 166.5t148.5 128t213 53.5q102 0 168.5 -24.5t102.5 -71t43 -112t-9 -142.5q-16 -76 -54 -139.5t-95.5 -108.5t-133.5 -70.5t-168 -25.5q-123 0 -192.5 51t-94 128t-5 167zM220 877.5q3 -50.5 21.5 -80t51.5 -42t74 -12.5q39 0 78.5 12.5t73.5 42 t61.5 80t44.5 128.5q16 78 10 130t-27.5 82.5t-55.5 44t-73 13.5q-41 0 -79 -13.5t-69.5 -44t-56.5 -82.5t-41 -130t-13 -128.5z" />
<glyph unicode="&#xbb;" horiz-adv-x="1024" d="M178 283q51 45 98 84q41 35 80 70.5t58 58.5q-18 23 -57.5 58.5t-80.5 70.5q-47 39 -98 84l31 53q102 -61 184 -115q35 -23 68 -46t59.5 -43.5t42 -37t15.5 -24.5q0 -10 -15.5 -26.5t-42 -37t-59.5 -43t-68 -45.5q-82 -53 -184 -115zM477 283q51 45 98 84q41 35 80 70.5 t58 58.5q-18 23 -57.5 58.5t-80.5 70.5q-47 39 -98 84l31 53q100 -61 180 -115q33 -23 65.5 -46t58.5 -43.5t41 -37t15 -24.5q0 -10 -15 -26.5t-41 -37t-58.5 -43t-65.5 -45.5q-80 -53 -180 -115z" />
<glyph unicode="&#xbc;" horiz-adv-x="1536" d="M139 678l8 57q18 4 37 8q16 4 35 6.5t35 6.5l4 9t12.5 43t19.5 100.5t27 181.5q4 35 3 55t-5 31q-4 12 -10 18q-27 -2 -51.5 -4t-48.5 -4l-8 57q37 8 79 25q37 14 86.5 35.5t106.5 52.5l39 -21q-29 -207 -42 -321.5t-18.5 -172t-4.5 -70.5t1 -15q14 -4 31 -6t33 -7 q18 -4 35 -6l-8 -59h-396zM313 0l865 1331h131l-869 -1331h-127zM784 203l387 385q12 12 24.5 27.5t23.5 27.5q10 14 22 31q55 -23 82 -35q14 -8 25 -14l-52 -371q25 4 59 11t56 11q-14 -51 -29 -77q-8 -18 -16 -31h-76q-4 -25 -4 -42v-28q0 -12 2 -20q16 -4 31.5 -7 t26.5 -8l24 -8l-12 -55h-365l13 55l28 8q12 4 28.5 7.5t37.5 7.5l10 20q10 25 16 70h-321q-6 6 -10 12q-4 4 -7.5 10.5t-3.5 12.5zM954 256h193l37 256q-33 -33 -72 -76t-74 -84q-41 -47 -84 -96z" />
<glyph unicode="&#xbd;" horiz-adv-x="1536" d="M139 678l8 57q18 4 37 8q16 4 35 6.5t35 6.5l4 9t12.5 43t19.5 100.5t27 181.5q4 35 3 55t-5 31q-4 12 -10 18q-27 -2 -51.5 -4t-48.5 -4l-8 57q37 8 79 25q37 14 86.5 35.5t106.5 52.5l39 -21q-29 -207 -42 -321.5t-18.5 -172t-4.5 -70.5t1 -15q14 -4 31 -6t33 -7 q18 -4 35 -6l-8 -59h-396zM313 0l865 1331h131l-869 -1331h-127zM891 117l65 16q90 45 168 98q66 47 129.5 106.5t87.5 127.5q25 68 -6.5 99.5t-81.5 31.5q-25 0 -52 -7t-50 -22q-23 -14 -40 -29.5t-28 -29.5q-12 -16 -20 -33q-18 0 -37 2q-33 0 -53 4q4 29 10 56 q10 51 27 84q31 16 69 28q35 10 82 19.5t107 9.5q119 0 187.5 -48t57.5 -130q-6 -37 -34 -84q-41 -66 -107.5 -119t-133.5 -93t-117 -63.5t-56 -25.5h205q57 0 95 8t71 49q29 4 65 -16q-16 -27 -33 -54q-14 -23 -28.5 -50t-24.5 -52h-485q-6 18 -15 39q-6 16 -13 36.5 t-11 41.5z" />
<glyph unicode="&#xbe;" horiz-adv-x="1536" d="M51 702q2 16 8.5 35t14.5 37q8 20 18 43q27 -20 58 -37q27 -14 61.5 -25.5t75.5 -11.5q92 0 147 43t64 95q6 47 -37 82.5t-142 37.5q-8 -4 -21 -8t-19 -8q-16 14 -31 27q-12 10 -22.5 21t-14.5 18q10 4 25 8q12 4 30.5 5t40.5 3q4 0 33 6t62.5 21.5t61.5 40t32 61.5 q4 41 -24 64.5t-69 23.5q-27 0 -56.5 -9t-57 -26.5t-50 -42t-34.5 -57.5q-14 0 -25 2q-10 2 -20 3t-21 5q6 33 13 62q4 23 9 45t9 30q27 16 63 29q31 10 77 20.5t108 10.5q135 0 196.5 -45.5t53.5 -102.5q-6 -45 -59.5 -90t-149.5 -74q123 -10 178 -60t45 -114 q-6 -39 -36 -76.5t-84 -66.5t-131 -47t-177 -18q-53 0 -91 6t-63 14q-29 8 -49 20zM313 0l865 1331h131l-869 -1331h-127zM784 203l387 385q12 12 24.5 27.5t23.5 27.5q10 14 22 31q55 -23 82 -35q14 -8 25 -14l-52 -371q25 4 59 11t56 11q-14 -51 -29 -77q-8 -18 -16 -31 h-76q-4 -25 -4 -42v-28q0 -12 2 -20q16 -4 31.5 -7t26.5 -8l24 -8l-12 -55h-365l13 55l28 8q12 4 28.5 7.5t37.5 7.5l10 20q10 25 16 70h-321q-6 6 -10 12q-4 4 -7.5 10.5t-3.5 12.5zM954 256h193l37 256q-33 -33 -72 -76t-74 -84q-41 -47 -84 -96z" />
<glyph unicode="&#xbf;" horiz-adv-x="1024" d="M177 -249q7 -48 41 -90t98.5 -70.5t172.5 -28.5q102 0 176 27.5t118 68.5t59.5 89t0 91t-62.5 74t-125 35q4 -84 -10 -150q-14 -57 -49 -103t-107 -46q-43 0 -65.5 24.5t-28.5 60.5t0.5 73.5t18.5 64.5q20 45 58 82t81 72.5t86 72.5t74 82q53 80 70.5 156t13.5 135 q-4 70 -25 133q-23 -4 -37 -11t-24 -15t-19 -19q-6 -20 -9 -50t-13.5 -68t-28.5 -82t-55 -91q-43 -55 -103.5 -94t-121 -82t-109.5 -100.5t-72 -151.5q-10 -41 -3 -89zM674 817q12 47 56 86t97 39h11q53 0 76.5 -39t11.5 -86q-12 -49 -52 -89t-100 -40h-10q-59 0 -80.5 40 t-9.5 89z" />
<glyph unicode="&#xc0;" horiz-adv-x="1394" d="M-20 0l10 57q31 0 56.5 3t49 15.5t45 36t45.5 62.5h-2l590 1014q12 14 23 37q18 39 41 100q12 4 34 10q18 4 47 10.5t70 12.5l164 -1192q4 -18 7.5 -45t15.5 -43q16 -16 39.5 -18.5t68.5 -2.5l-16 -57h-516l14 57q47 0 79 2t62 19h-2q25 14 26 46t-3 71 q-10 78 -22.5 158.5t-22.5 156.5h-369q-25 -47 -46.5 -88t-44 -85t-48 -96.5t-58.5 -121.5q-10 -23 3.5 -35t36 -18.5t47 -7.5t34.5 -1l-16 -57h-442zM559 590h313q-10 66 -17 122t-15.5 110.5t-15.5 110.5t-15 122q-61 -117 -124.5 -232.5t-125.5 -232.5zM776 1698 q-2 20 10.5 43.5t31 40t36.5 21.5t27 -11l172 -342l-52 -25q-37 18 -74.5 54.5t-70.5 76t-55.5 78.5t-24.5 64z" />
<glyph unicode="&#xc1;" horiz-adv-x="1394" d="M-20 0h442l16 57q-10 0 -34.5 1t-47 7.5t-36 18.5t-3.5 35q33 70 58.5 122t48 96t44 85t46.5 88h369q10 -76 22.5 -157t22.5 -158q4 -39 3 -71t-26 -46h2q-31 -16 -62.5 -18.5t-78.5 -2.5l-14 -57h516l16 57q-45 0 -68.5 2.5t-39.5 18.5q-12 16 -15.5 42.5t-7.5 45.5 l-164 1192q-41 -6 -69.5 -12.5t-47.5 -10.5q-23 -6 -34 -10q-23 -61 -41 -100q-10 -23 -23 -37l-590 -1014h2q-25 -39 -46 -62.5t-44.5 -36t-49.5 -15.5t-56 -3zM559 590q61 117 125 232.5t125 232.5q8 -66 15 -122t15.5 -110.5t15.5 -111t17 -121.5h-313zM813 1450l172 342 q8 16 26.5 11t37 -21.5t31 -40t10.5 -43.5q-4 -25 -26 -64t-54.5 -78.5t-70.5 -75.5t-75 -55z" />
<glyph unicode="&#xc2;" horiz-adv-x="1394" d="M-20 0l10 57q31 0 56.5 3t49 15.5t45 36t45.5 62.5h-2l590 1014q12 14 23 37q18 39 41 100q12 4 34 10q18 4 47 10.5t70 12.5l164 -1192q4 -18 7.5 -45t15.5 -43q16 -16 39.5 -18.5t68.5 -2.5l-16 -57h-516l14 57q47 0 79 2t62 19h-2q25 14 26 46t-3 71 q-10 78 -22.5 158.5t-22.5 156.5h-369q-25 -47 -46.5 -88t-44 -85t-48 -96.5t-58.5 -121.5q-10 -23 3.5 -35t36 -18.5t47 -7.5t34.5 -1l-16 -57h-442zM559 590h313q-10 66 -17 122t-15.5 110.5t-15.5 110.5t-15 122q-61 -117 -124.5 -232.5t-125.5 -232.5zM678 1473 q2 0 20.5 23.5t46 58t61.5 76.5t64.5 78t55 59.5t37.5 23.5q10 0 26.5 -15.5t34.5 -41t38.5 -57t39.5 -64.5q45 -80 96 -178l-72 -35l-67 90q-29 37 -58.5 74t-48.5 57q-27 -20 -63.5 -52t-71.5 -65q-39 -37 -82 -78z" />
<glyph unicode="&#xc3;" horiz-adv-x="1394" d="M-20 0l10 57q31 0 56.5 3t49 15.5t45 36t45.5 62.5h-2l590 1014q12 14 23 37q18 39 41 100q12 4 34 10q18 4 47 10.5t70 12.5l164 -1192q4 -18 7.5 -45t15.5 -43q16 -16 39.5 -18.5t68.5 -2.5l-16 -57h-516l14 57q47 0 79 2t62 19h-2q25 14 26 46t-3 71 q-10 78 -22.5 158.5t-22.5 156.5h-369q-25 -47 -46.5 -88t-44 -85t-48 -96.5t-58.5 -121.5q-10 -23 3.5 -35t36 -18.5t47 -7.5t34.5 -1l-16 -57h-442zM559 590h313q-10 66 -17 122t-15.5 110.5t-15.5 110.5t-15 122q-61 -117 -124.5 -232.5t-125.5 -232.5zM653 1516 q14 41 37 75q20 29 50 52.5t75 23.5q41 0 90 -15.5t94 -31.5q53 -23 105 -47l145 74q-10 -43 -32 -76q-18 -29 -50 -52.5t-80 -23.5q-57 0 -109 14.5t-93 30.5q-49 20 -90 45z" />
<glyph unicode="&#xc4;" horiz-adv-x="1394" d="M-20 0h442l16 57q-10 0 -34.5 1t-47 7.5t-36 18.5t-3.5 35q33 70 58.5 122t48 96t44 85t46.5 88h369q10 -76 22.5 -157t22.5 -158q4 -39 3 -71t-26 -46h2q-31 -16 -62.5 -18.5t-78.5 -2.5l-14 -57h516l16 57q-45 0 -68.5 2.5t-39.5 18.5q-12 16 -15.5 42.5t-7.5 45.5 l-164 1192q-41 -6 -69.5 -12.5t-47.5 -10.5q-23 -6 -34 -10q-23 -61 -41 -100q-10 -23 -23 -37l-590 -1014h2q-25 -39 -46 -62.5t-44.5 -36t-49.5 -15.5t-56 -3zM559 590q61 117 125 232.5t125 232.5q8 -66 15 -122t15.5 -110.5t15.5 -111t17 -121.5h-313zM627 1485.5 q-2 17.5 0 32.5q2 14 9 31.5t20.5 33.5t33 27.5t47.5 11.5h8q27 0 44.5 -11.5t26.5 -27.5t11 -33.5t0 -31.5t-9 -32t-21.5 -34t-34.5 -27.5t-47 -11.5h-8q-29 0 -45.5 11.5t-24.5 27.5t-10 33.5zM1049 1485.5q-2 17.5 0 32.5q2 14 9 31.5t20.5 33.5t32.5 27.5t48 11.5h6 q29 0 46.5 -11.5t26.5 -27.5t11 -33.5t0 -31.5t-10 -32t-21.5 -34t-33.5 -27.5t-49 -11.5h-7q-29 0 -45 11.5t-24 27.5t-10 33.5z" />
<glyph unicode="&#xc5;" horiz-adv-x="1394" d="M-20 0l10 57q31 0 56.5 3t49 15.5t45 36t45.5 62.5h-2l590 1014q12 14 23 37q18 39 41 100q12 4 34 10q18 4 47 10.5t70 12.5l164 -1192q4 -18 7.5 -45t15.5 -43q16 -16 39.5 -18.5t68.5 -2.5l-16 -57h-516l14 57q47 0 79 2t62 19h-2q25 14 26 46t-3 71 q-10 78 -22.5 158.5t-22.5 156.5h-369q-25 -47 -46.5 -88t-44 -85t-48 -96.5t-58.5 -121.5q-10 -23 3.5 -35t36 -18.5t47 -7.5t34.5 -1l-16 -57h-442zM559 590h313q-10 66 -17 122t-15.5 110.5t-15.5 110.5t-15 122q-61 -117 -124.5 -232.5t-125.5 -232.5zM762 1597 q27 57 105.5 89t170.5 20t126 -62.5t3 -105.5q-31 -57 -108.5 -87t-169.5 -17q-92 12 -123 60t-4 103zM871 1552.5q1 -16.5 7.5 -32t20.5 -27.5t39 -14q90 -6 117 84q10 35 -7.5 67.5t-66.5 34.5q-47 2 -73.5 -28.5t-33.5 -55.5q-4 -12 -3 -28.5z" />
<glyph unicode="&#xc6;" horiz-adv-x="1767" d="M-20 0l10 57q31 0 56.5 3t48 15.5t44 35t47.5 63.5q172 264 306.5 466t219.5 339t116.5 209t0.5 76l-84 14l7 53h1116l-31 -221q-16 -8 -33.5 -11t-31.5 -7q-18 -4 -33 -5q0 49 -4 81t-19.5 49.5t-46.5 24.5t-82 9h-254q-33 -127 -62.5 -254t-62.5 -254h195q51 0 83 11.5 t52.5 34t32.5 56.5t26 79h66l-109 -443h-65q8 37 12 70t-3 57.5t-33.5 39t-80.5 14.5h-198l-70 -290t-72 -290h316q37 0 77 7t75.5 24.5t62.5 45t35 70.5q16 0 35 -2q14 -2 30.5 -5t26.5 -7l-74 -215h-964l14 53q14 4 36.5 8.5t43.5 8.5q23 6 49 12q6 12 12 27 q4 12 10.5 27.5t10.5 35.5q2 10 10 40t19.5 75t25.5 102t31 121h-377l-232 -391q-12 -20 1.5 -32.5t36 -19t48 -8.5t35.5 -2l-16 -57h-442zM596 590h350q25 100 50.5 200.5t46 182.5l34 136l15.5 62q4 29 -3.5 45.5t-21.5 25.5t-31.5 12t-31.5 3z" />
<glyph unicode="&#xc7;" horiz-adv-x="1343" d="M160 580q-2 31 3 78t15 87q35 137 113 250t188.5 193t248.5 124t298 44q74 0 132.5 -9.5t105.5 -24.5t88 -38.5t82 -50.5l-66 -264h-92q8 37 6 89t-29.5 100t-89 82t-172.5 34q-213 0 -352 -141.5t-201 -387.5q-23 -94 -22 -178q0 -102 24.5 -194t68.5 -163t105.5 -112 t135.5 -41q88 0 155.5 30t114.5 74t75.5 98t41.5 103h98l-76 -299q-51 -23 -112 -40q-53 -16 -124 -31t-153 -17l-57 -114q20 0 50 -4t57.5 -15.5t46 -33t16.5 -58.5q-4 -49 -40 -84t-91.5 -55.5t-123 -24.5t-132.5 8l20 48q25 0 62.5 2t73.5 12t62.5 29.5t30.5 52.5 q2 74 -86 74q-4 0 -18 18q-8 8 -14 20l88 125q-129 6 -229.5 56.5t-171 132.5t-109.5 188.5t-45 227.5z" />
<glyph unicode="&#xc8;" horiz-adv-x="1132" d="M23 0l14 53q14 4 36.5 8.5t43.5 8.5q23 6 49 12q6 12 12 27q4 12 10.5 27.5t10.5 35.5q27 115 58.5 241t64 253t64.5 252.5t60 240.5q4 23 6.5 41.5t2.5 28.5q0 12 -2 22q-35 6 -72 17q-20 6 -39 10l12 53h873l-31 -221q-16 -8 -33.5 -11t-32.5 -7q-18 -4 -32 -5 q0 49 -4 81t-19.5 49.5t-46.5 24.5t-82 9h-254q-33 -127 -62.5 -254t-62.5 -254h195q51 0 83 11.5t52.5 34t32.5 56.5t26 79h66l-109 -443h-65q8 37 12 70t-3 57.5t-33.5 39t-80.5 14.5h-198l-70 -290t-72 -290h316q37 0 77 7t75.5 24.5t62.5 45t35 70.5q16 0 35 -2 q14 -2 30.5 -5t26.5 -7l-74 -215h-964zM682 1698q-2 20 10.5 43.5t30.5 40t36.5 21.5t26.5 -11l172 -342l-51 -25q-37 18 -74.5 54.5t-70.5 76t-55.5 78.5t-24.5 64z" />
<glyph unicode="&#xc9;" horiz-adv-x="1132" d="M23 0h964l74 215q-10 4 -26.5 7t-30.5 5q-19 2 -35 2q-8 -43 -35 -70.5t-62.5 -45t-75.5 -24.5t-77 -7h-316q37 145 72 289.5t70 290.5h198q53 0 80 -14.5t34 -39t3 -57.5t-12 -70h65l109 443h-66q-14 -45 -26 -79t-32.5 -56.5t-52.5 -34t-83 -11.5h-195q33 127 62.5 254 t62.5 254h254q51 -2 82 -9t46.5 -24.5t19.5 -49t4 -81.5q14 0 32 5q14 4 32 7t34 11l31 221h-873l-12 -53q18 -4 39 -10q37 -10 72 -17q2 -10 2 -22q0 -10 -2 -28.5t-7 -41.5q-29 -115 -60.5 -240.5t-64 -252.5t-64.5 -253t-58 -241q-4 -20 -10.5 -35.5t-10.5 -27.5 q-6 -14 -12 -27q-27 -6 -49 -12q-20 -4 -43 -8.5t-37 -8.5zM737 1450l172 342q8 16 26.5 11t37 -21.5t31 -40t10.5 -43.5q-4 -25 -25.5 -64t-54.5 -78.5t-71 -75.5t-75 -55z" />
<glyph unicode="&#xca;" horiz-adv-x="1132" d="M23 0l14 53q14 4 36.5 8.5t43.5 8.5q23 6 49 12q6 12 12 27q4 12 10.5 27.5t10.5 35.5q27 115 58.5 241t64 253t64.5 252.5t60 240.5q4 23 6.5 41.5t2.5 28.5q0 12 -2 22q-35 6 -72 17q-20 6 -39 10l12 53h873l-31 -221q-16 -8 -33.5 -11t-32.5 -7q-18 -4 -32 -5 q0 49 -4 81t-19.5 49.5t-46.5 24.5t-82 9h-254q-33 -127 -62.5 -254t-62.5 -254h195q51 0 83 11.5t52.5 34t32.5 56.5t26 79h66l-109 -443h-65q8 37 12 70t-3 57.5t-33.5 39t-80.5 14.5h-198l-70 -290t-72 -290h316q37 0 77 7t75.5 24.5t62.5 45t35 70.5q16 0 35 -2 q14 -2 30.5 -5t26.5 -7l-74 -215h-964zM596 1473q2 0 20.5 23.5t46 58t61.5 76.5t64.5 78t55 59.5t37.5 23.5q10 0 26.5 -15.5t35 -41t38.5 -57t39 -64.5q45 -80 96 -178l-72 -35l-67 90q-29 37 -58.5 74t-48.5 57q-27 -20 -63.5 -52t-71.5 -65q-39 -37 -82 -78z" />
<glyph unicode="&#xcb;" horiz-adv-x="1132" d="M23 0h964l74 215q-10 4 -26.5 7t-30.5 5q-19 2 -35 2q-8 -43 -35 -70.5t-62.5 -45t-75.5 -24.5t-77 -7h-316q37 145 72 289.5t70 290.5h198q53 0 80 -14.5t34 -39t3 -57.5t-12 -70h65l109 443h-66q-14 -45 -26 -79t-32.5 -56.5t-52.5 -34t-83 -11.5h-195q33 127 62.5 254 t62.5 254h254q51 -2 82 -9t46.5 -24.5t19.5 -49t4 -81.5q14 0 32 5q14 4 32 7t34 11l31 221h-873l-12 -53q18 -4 39 -10q37 -10 72 -17q2 -10 2 -22q0 -10 -2 -28.5t-7 -41.5q-29 -115 -60.5 -240.5t-64 -252.5t-64.5 -253t-58 -241q-4 -20 -10.5 -35.5t-10.5 -27.5 q-6 -14 -12 -27q-27 -6 -49 -12q-20 -4 -43 -8.5t-37 -8.5zM545 1485.5q-2 17.5 0 32.5q2 14 9 31.5t20.5 33.5t33 27.5t47.5 11.5h9q27 0 44 -11.5t26 -27.5t11.5 -33.5t-0.5 -31.5q-2 -14 -9 -32t-21.5 -34t-34.5 -27.5t-47 -11.5h-8q-29 0 -45.5 11.5t-24.5 27.5 t-10 33.5zM967 1485.5q-2 17.5 0 32.5q2 14 9 31.5t20.5 33.5t33 27.5t47.5 11.5h6q29 0 46.5 -11.5t26.5 -27.5t11 -33.5t0 -31.5t-10 -32t-21.5 -34t-33.5 -27.5t-49 -11.5h-6q-29 0 -45.5 11.5t-24.5 27.5t-10 33.5z" />
<glyph unicode="&#xcc;" horiz-adv-x="743" d="M63 0l15 51q18 4 39.5 10.5t42.5 10.5q23 6 47 8l8 16q4 10 10 27.5t15 48.5q29 115 61.5 240t65 253t64.5 253.5t56 240.5q4 23 6.5 41.5t2.5 28.5q0 12 -4 22q-18 4 -38 8.5t-36 8.5q-18 6 -35 10l12 53h500l-14 -53q-18 -2 -41 -8q-18 -4 -43 -10.5t-52 -10.5 q-6 -8 -12 -20q-4 -10 -10 -27.5t-12 -42.5q-47 -190 -93 -371q-18 -78 -39.5 -160.5t-41 -163.5t-38 -156t-32.5 -136q-8 -29 -9 -47.5t1 -28.5q2 -12 4 -18q16 -4 37.5 -7t38.5 -8q20 -4 39 -8l-15 -55h-500zM539 1698q-2 20 10 43.5t30.5 40t37 21.5t26.5 -11l172 -342 l-51 -25q-37 18 -75 54.5t-70.5 76t-55 78.5t-24.5 64z" />
<glyph unicode="&#xcd;" horiz-adv-x="743" d="M63 0h500l15 55q-18 4 -39 8q-16 4 -38 7.5t-38 7.5q-2 6 -4 18q-2 10 -1 28.5t9 47.5q14 61 32.5 136t38 156t41 164t39.5 160q45 180 93 371q6 25 12 42.5t10 27.5q6 12 12 20q27 4 51.5 10.5t43.5 10.5q23 6 41 8l14 53h-500l-12 -53q16 -4 35 -10q16 -4 35.5 -8.5 t38.5 -8.5q4 -10 4 -22q0 -10 -2 -28.5t-7 -41.5q-25 -115 -56.5 -240.5t-64 -253.5t-65.5 -253t-61 -240q-8 -31 -14.5 -48.5t-10.5 -27.5l-8 -16q-25 -2 -47 -8q-20 -4 -42 -10.5t-40 -10.5zM618 1450l173 342q8 16 26.5 11t36.5 -21.5t30.5 -40t10.5 -43.5 q-4 -25 -25.5 -64t-54.5 -78.5t-70.5 -75.5t-74.5 -55z" />
<glyph unicode="&#xce;" horiz-adv-x="743" d="M63 0l15 51q18 4 39.5 10.5t42.5 10.5q23 6 47 8l8 16q4 10 10 27.5t15 48.5q29 115 61.5 240t65 253t64.5 253.5t56 240.5q4 23 6.5 41.5t2.5 28.5q0 12 -4 22q-18 4 -38 8.5t-36 8.5q-18 6 -35 10l12 53h500l-14 -53q-18 -2 -41 -8q-18 -4 -43 -10.5t-52 -10.5 q-6 -8 -12 -20q-4 -10 -10 -27.5t-12 -42.5q-47 -190 -93 -371q-18 -78 -39.5 -160.5t-41 -163.5t-38 -156t-32.5 -136q-8 -29 -9 -47.5t1 -28.5q2 -12 4 -18q16 -4 37.5 -7t38.5 -8q20 -4 39 -8l-15 -55h-500zM401 1473q2 0 20.5 23.5t46.5 58t61.5 76.5t64.5 78t55.5 59.5 t36.5 23.5q10 0 26.5 -15.5t35 -41t39 -57t38.5 -64.5q45 -80 97 -178l-72 -35l-68 90q-29 37 -58.5 74t-47.5 57q-27 -20 -64 -52t-71 -65q-39 -37 -82 -78z" />
<glyph unicode="&#xcf;" horiz-adv-x="743" d="M63 0h500l15 55q-18 4 -39 8q-16 4 -38 7.5t-38 7.5q-2 6 -4 18q-2 10 -1 28.5t9 47.5q14 61 32.5 136t38 156t41 164t39.5 160q45 180 93 371q6 25 12 42.5t10 27.5q6 12 12 20q27 4 51.5 10.5t43.5 10.5q23 6 41 8l14 53h-500l-12 -53q16 -4 35 -10q16 -4 35.5 -8.5 t38.5 -8.5q4 -10 4 -22q0 -10 -2 -28.5t-7 -41.5q-25 -115 -56.5 -240.5t-64 -253.5t-65.5 -253t-61 -240q-8 -31 -14.5 -48.5t-10.5 -27.5l-8 -16q-25 -2 -47 -8q-20 -4 -42 -10.5t-40 -10.5zM360 1485.5q-2 17.5 0 32.5q2 14 9.5 31.5t20.5 33.5t32.5 27.5t48.5 11.5h8 q27 0 44.5 -11.5t26.5 -27.5t11 -33.5t0 -31.5t-9 -32t-21.5 -34t-34.5 -27.5t-47 -11.5h-9q-29 0 -45 11.5t-24.5 27.5t-10.5 33.5zM782 1485.5q-2 17.5 0 32.5q2 14 9.5 31.5t20.5 33.5t32.5 27.5t48.5 11.5h6q29 0 46.5 -11.5t26.5 -27.5t11 -33.5t0 -31.5t-10 -32 t-21.5 -34t-34 -27.5t-49.5 -11.5h-6q-29 0 -45 11.5t-24.5 27.5t-10.5 33.5z" />
<glyph unicode="&#xd0;" horiz-adv-x="1388" d="M31 0l16 53q20 4 41 10.5t39 10.5q20 6 41 8q6 10 14 24l14.5 29t14.5 39v-2q33 129 64.5 259t66.5 261l-188 -20l32 106h176q25 96 48.5 190.5t48.5 190.5q6 39 4 64q-2 16 -4 30l-15 3q-14 4 -31.5 8l-35 8t-23.5 6l11 53h542q121 0 214 -37t157.5 -103.5t98.5 -160.5 t34 -209q0 -37 -4 -75.5t-10 -79.5q-25 -154 -94.5 -277t-177 -210t-251 -133t-317.5 -46h-526zM412 82h198q98 0 179 31.5t146.5 99.5t117 175t90.5 259q18 72 30.5 147.5t10.5 141.5q-2 72 -17.5 130t-49.5 99t-86 63.5t-128 22.5h-196q-31 -121 -61 -238.5t-60 -234.5 l209 6l-33 -92h-199q-39 -154 -76.5 -305t-74.5 -305z" />
<glyph unicode="&#xd1;" horiz-adv-x="1445" d="M27 0l10 57q63 0 117.5 20.5t72.5 94.5l236 922q6 27 0 59.5t-25.5 61t-53.5 48t-83 19.5l-4 49q23 6 49 15q23 6 53.5 11t65.5 5q84 0 132 -28.5t75 -76.5q25 -47 59.5 -112.5t74.5 -140t83 -154.5t84 -156q96 -178 198 -372q57 221 104.5 425.5t90.5 413.5q8 37 0 58.5 t-26.5 34t-45 16.5t-55.5 6l14 55h439l-11 -55q-31 0 -62.5 -4t-59 -16.5t-49 -35t-29.5 -59.5l-293 -1161h-105l-536 1026q-55 -223 -105.5 -433t-99.5 -421q-8 -37 1 -59.5t28.5 -33.5t47 -15.5t56.5 -6.5l-10 -57h-438zM694 1516q14 41 37 75q20 29 50 52.5t75 23.5 q41 0 90 -15.5t94 -31.5q53 -23 105 -47l145 74q-10 -43 -33 -76q-18 -29 -49.5 -52.5t-79.5 -23.5q-57 0 -109 14.5t-93 30.5q-49 20 -90 45z" />
<glyph unicode="&#xd2;" horiz-adv-x="1495" d="M168 590q0 156 63.5 294t172 241.5t255 163t312.5 59.5q129 0 232.5 -47.5t176 -130.5t109.5 -195.5t33 -243.5q-6 -152 -72 -289t-174.5 -243.5t-250.5 -169t-300 -62.5q-127 0 -229.5 50.5t-175 135.5t-112.5 197.5t-40 239.5zM418 616q-6 -125 17.5 -229t72.5 -179 t119.5 -115t160.5 -34q94 6 179.5 60.5t151 141.5t106.5 201.5t47 239.5q6 115 -10.5 219.5t-57.5 183.5t-108.5 124t-163.5 39q-111 -6 -203 -67.5t-159.5 -155t-106.5 -207t-45 -222.5zM866 1698q-2 20 10.5 43.5t31 40t37 21.5t26.5 -11l172 -342l-51 -25 q-37 18 -75 54.5t-71 76t-55.5 78.5t-24.5 64z" />
<glyph unicode="&#xd3;" horiz-adv-x="1495" d="M168 590q0 -127 40 -239.5t112.5 -197.5t175 -135.5t229.5 -50.5q158 0 300 62.5t250.5 169t174.5 244t72 288.5q4 131 -33 243.5t-109.5 195.5t-176 130.5t-232.5 47.5q-166 0 -312.5 -59.5t-255 -163t-172 -241.5t-63.5 -294zM418 616q6 109 45 222.5t106.5 207 t159.5 155t203 67.5q96 6 163.5 -39t108.5 -124t57.5 -183.5t10.5 -219.5q-6 -125 -47 -239.5t-106.5 -201.5t-150.5 -141t-180 -61q-90 -6 -160.5 34t-119.5 115t-72.5 179.5t-17.5 228.5zM977 1450l172 342q8 16 26.5 11t37 -21.5t30.5 -40t10 -43.5q-4 -25 -25.5 -64 t-54 -78.5t-70.5 -75.5t-75 -55z" />
<glyph unicode="&#xd4;" horiz-adv-x="1495" d="M168 590q0 156 63.5 294t172 241.5t255 163t312.5 59.5q129 0 232.5 -47.5t176 -130.5t109.5 -195.5t33 -243.5q-6 -152 -72 -289t-174.5 -243.5t-250.5 -169t-300 -62.5q-127 0 -229.5 50.5t-175 135.5t-112.5 197.5t-40 239.5zM418 616q-6 -125 17.5 -229t72.5 -179 t119.5 -115t160.5 -34q94 6 179.5 60.5t151 141.5t106.5 201.5t47 239.5q6 115 -10.5 219.5t-57.5 183.5t-108.5 124t-163.5 39q-111 -6 -203 -67.5t-159.5 -155t-106.5 -207t-45 -222.5zM752 1473q2 0 20.5 23.5t46 58t61 76.5t64.5 78t55.5 59.5t36.5 23.5 q10 0 26.5 -15.5t35 -41t39 -57t39.5 -64.5q45 -80 96 -178l-72 -35l-67 90q-29 37 -59 74t-48 57q-27 -20 -63.5 -52t-71.5 -65q-39 -37 -82 -78z" />
<glyph unicode="&#xd5;" horiz-adv-x="1495" d="M168 590q0 156 63.5 294t172 241.5t255 163t312.5 59.5q129 0 232.5 -47.5t176 -130.5t109.5 -195.5t33 -243.5q-6 -152 -72 -289t-174.5 -243.5t-250.5 -169t-300 -62.5q-127 0 -229.5 50.5t-175 135.5t-112.5 197.5t-40 239.5zM418 616q-6 -125 17.5 -229t72.5 -179 t119.5 -115t160.5 -34q94 6 179.5 60.5t151 141.5t106.5 201.5t47 239.5q6 115 -10.5 219.5t-57.5 183.5t-108.5 124t-163.5 39q-111 -6 -203 -67.5t-159.5 -155t-106.5 -207t-45 -222.5zM780 1516q14 41 37 75q20 29 50 52.5t75 23.5q41 0 90 -15.5t94 -31.5 q53 -23 105 -47l145 74q-10 -43 -33 -76q-18 -29 -49.5 -52.5t-79.5 -23.5q-57 0 -109 14.5t-93 30.5q-49 20 -90 45z" />
<glyph unicode="&#xd6;" horiz-adv-x="1495" d="M168 590q0 -127 40 -239.5t112.5 -197.5t175 -135.5t229.5 -50.5q158 0 300 62.5t250.5 169t174.5 244t72 288.5q4 131 -33 243.5t-109.5 195.5t-176 130.5t-232.5 47.5q-166 0 -312.5 -59.5t-255 -163t-172 -241.5t-63.5 -294zM418 616q6 109 45 222.5t106.5 207 t159.5 155t203 67.5q96 6 163.5 -39t108.5 -124t57.5 -183.5t10.5 -219.5q-6 -125 -47 -239.5t-106.5 -201.5t-150.5 -141t-180 -61q-90 -6 -160.5 34t-119.5 115t-72.5 179.5t-17.5 228.5zM688 1485.5q-2 17.5 0 32.5q2 14 9.5 31.5t20.5 33.5t32.5 27.5t48.5 11.5h8 q27 0 44 -11.5t26.5 -27.5t11.5 -33.5t0 -31.5t-9.5 -32t-21.5 -34t-34.5 -27.5t-47.5 -11.5h-8q-29 0 -45 11.5t-24.5 27.5t-10.5 33.5zM1110 1485.5q-2 17.5 0 32.5q2 14 9 31.5t20.5 33.5t33 27.5t48.5 11.5h6q29 0 46 -11.5t26.5 -27.5t11.5 -33.5t0 -31.5t-10.5 -32 t-21.5 -34t-33.5 -27.5t-49.5 -11.5h-6q-29 0 -45.5 11.5t-24.5 27.5t-10 33.5z" />
<glyph unicode="&#xd7;" horiz-adv-x="1382" d="M377 246l250 250l-250 249l69 70l250 -250l250 250l70 -70l-250 -249l250 -250l-70 -70l-250 250l-250 -250z" />
<glyph unicode="&#xd8;" horiz-adv-x="1495" d="M115 -29l207 181q-76 86 -117 199.5t-41 242.5q0 156 63.5 294t172 241.5t255 163t312.5 59.5q106 0 194 -32t158 -91l90 121h172l-205 -176q72 -84 109 -196t33 -243q-6 -152 -72 -289t-174.5 -243.5t-250.5 -169t-300 -62.5q-102 0 -188.5 33t-155.5 92l-94 -125h-168z M414 621q-8 -182 45 -322l743 805q-41 82 -108.5 128t-165.5 40q-111 -6 -203 -67.5t-159.5 -155t-106.5 -206.5t-45 -222zM496 223q49 -80 122.5 -123t165.5 -37q94 6 179.5 60.5t151 141.5t106.5 202t47 240q4 86 -3.5 165.5t-29.5 147.5z" />
<glyph unicode="&#xd9;" horiz-adv-x="1583" d="M240 309q0 23 5 73t17 97q39 154 81 323t81 322q18 78 -1.5 114t-96.5 36l14 57h500l-17 -57q-53 0 -83.5 -11.5t-48 -27.5t-23.5 -36.5t-11 -39.5l-161 -649q-25 -98 -25 -176q0 -123 65.5 -188.5t172.5 -65.5q70 0 139.5 19.5t131.5 68.5t113.5 132t84.5 210 q33 125 60.5 241.5t49.5 209.5q25 106 45 198q10 43 -2 66.5t-35.5 34t-50 12.5t-45.5 2l14 57h439l-17 -57q-29 0 -58.5 -2t-57 -12.5t-49 -34t-31.5 -66.5q-37 -152 -70 -285q-14 -57 -28.5 -115.5t-29 -111.5t-25.5 -97t-17 -71q-43 -168 -119 -268t-165 -152.5t-184 -68 t-179 -15.5q-29 0 -92.5 8.5t-128 41t-113.5 99t-49 185.5zM881 1698q-2 20 10 43.5t30.5 40t37 21.5t26.5 -11l172 -342l-51 -25q-37 18 -75 54.5t-70.5 76t-55 78.5t-24.5 64z" />
<glyph unicode="&#xda;" horiz-adv-x="1583" d="M240 309q0 -119 49 -185.5t113.5 -99t128 -41t92.5 -8.5q84 0 179 15.5t184 68t165 152.5t119 268q6 27 17 71t25.5 97t29 111.5t28.5 115.5q33 133 70 285q10 43 31.5 66.5t49 34t57.5 12.5t58 2l17 57h-439l-14 -57q18 0 45 -2t50.5 -12.5t35.5 -34t2 -66.5 q-20 -92 -45 -198q-23 -92 -50.5 -209t-59.5 -242q-33 -127 -84.5 -210t-113.5 -132t-132 -68.5t-139 -19.5q-106 0 -172 65.5t-66 188.5q0 78 25 176l161 649q4 18 10.5 39t24 37t48 27.5t83.5 11.5l17 57h-500l-14 -57q78 0 97 -36t1 -114q-39 -154 -81 -322.5t-81 -322.5 q-12 -47 -17 -97t-5 -73zM952 1450l172 342q8 16 26.5 11t37 -21.5t31 -40t10.5 -43.5q-4 -25 -25.5 -64t-54.5 -78.5t-71 -75.5t-74 -55z" />
<glyph unicode="&#xdb;" horiz-adv-x="1583" d="M240 309q0 23 5 73t17 97q39 154 81 323t81 322q18 78 -1.5 114t-96.5 36l14 57h500l-17 -57q-53 0 -83.5 -11.5t-48 -27.5t-23.5 -36.5t-11 -39.5l-161 -649q-25 -98 -25 -176q0 -123 65.5 -188.5t172.5 -65.5q70 0 139.5 19.5t131.5 68.5t113.5 132t84.5 210 q33 125 60.5 241.5t49.5 209.5q25 106 45 198q10 43 -2 66.5t-35.5 34t-50 12.5t-45.5 2l14 57h439l-17 -57q-29 0 -58.5 -2t-57 -12.5t-49 -34t-31.5 -66.5q-37 -152 -70 -285q-14 -57 -28.5 -115.5t-29 -111.5t-25.5 -97t-17 -71q-43 -168 -119 -268t-165 -152.5t-184 -68 t-179 -15.5q-29 0 -92.5 8.5t-128 41t-113.5 99t-49 185.5zM772 1473q2 0 20.5 23.5t46 58t61.5 76.5t64.5 78t55 59.5t37.5 23.5q10 0 26.5 -15.5t35 -41t39 -57t38.5 -64.5q45 -80 96 -178l-71 -35l-68 90q-29 37 -58.5 74t-47.5 57q-27 -20 -64 -52t-72 -65 q-39 -37 -82 -78z" />
<glyph unicode="&#xdc;" horiz-adv-x="1583" d="M240 309q0 -119 49 -185.5t113.5 -99t128 -41t92.5 -8.5q84 0 179 15.5t184 68t165 152.5t119 268q6 27 17 71t25.5 97t29 111.5t28.5 115.5q33 133 70 285q10 43 31.5 66.5t49 34t57.5 12.5t58 2l17 57h-439l-14 -57q18 0 45 -2t50.5 -12.5t35.5 -34t2 -66.5 q-20 -92 -45 -198q-23 -92 -50.5 -209t-59.5 -242q-33 -127 -84.5 -210t-113.5 -132t-132 -68.5t-139 -19.5q-106 0 -172 65.5t-66 188.5q0 78 25 176l161 649q4 18 10.5 39t24 37t48 27.5t83.5 11.5l17 57h-500l-14 -57q78 0 97 -36t1 -114q-39 -154 -81 -322.5t-81 -322.5 q-12 -47 -17 -97t-5 -73zM741 1485.5q-2 17.5 0 32.5q2 14 9.5 31.5t20.5 33.5t32.5 27.5t48.5 11.5h8q27 0 44.5 -11.5t26.5 -27.5t11 -33.5t0 -31.5t-9 -32t-21.5 -34t-35 -27.5t-47.5 -11.5h-8q-29 0 -45 11.5t-24.5 27.5t-10.5 33.5zM1163 1485.5q-2 17.5 0 32.5 q2 14 9.5 31.5t20.5 33.5t32.5 27.5t48.5 11.5h6q29 0 46 -11.5t26.5 -27.5t11.5 -33.5t0 -31.5t-10 -32t-21.5 -34t-34 -27.5t-49.5 -11.5h-6q-29 0 -45 11.5t-24.5 27.5t-10.5 33.5z" />
<glyph unicode="&#xdd;" horiz-adv-x="1265" d="M276 1276q31 -4 54.5 -10t41 -18.5t32 -34t28.5 -58.5q4 -12 18.5 -51t33 -95.5t38 -122t33.5 -131t20.5 -123t-2.5 -95.5q-10 -53 -21 -97.5t-21.5 -85.5t-22.5 -85t-25 -97q-8 -31 -14 -48.5t-10 -27.5l-8 -16q-12 -2 -33 -7t-43 -10q-25 -6 -53 -12l-15 -51h500l12 55 q-20 4 -41 8q-16 4 -36.5 7.5t-36.5 7.5q-4 8 -5 22q-4 25 9 72q8 76 24 152q14 66 34.5 138.5t51.5 131.5q16 33 43 74t59.5 87t69.5 94t72 93q82 104 178 217q31 43 65.5 66.5t66.5 34t59.5 12.5t44.5 2l14 57h-481l-13 -55q37 0 66 -6q25 -4 45 -16.5t20 -32.5 q0 -27 -22 -60q-39 -53 -93.5 -131t-105.5 -150.5t-87 -125.5l-36 -52q-33 92 -58.5 189.5t-43.5 179.5q-23 94 -39 184q18 4 40 7.5t40 7.5q23 4 41 6l14 55h-489zM868 1450l172 342q8 16 26.5 11t37 -21.5t31 -40t10.5 -43.5q-4 -25 -25.5 -64t-54.5 -78.5t-71 -75.5 t-74 -55z" />
<glyph unicode="&#xde;" horiz-adv-x="1216" d="M-51 -399l12 53q23 4 45 10q18 4 39 8t37 9q4 2 19.5 27.5t25.5 66.5l330 1327q4 18 5 35.5t1 29.5q0 14 -2 27q-18 2 -38 6t-36 8q-20 6 -37 11l12 55h508l-12 -55q-23 -4 -45 -11q-18 -4 -40.5 -8t-39.5 -6q-4 -4 -18.5 -27.5t-24.5 -64.5l-41 -170h103q94 0 178 -15.5 t143.5 -53.5t85 -102.5t0.5 -162.5q-23 -90 -76 -153.5t-127.5 -103.5t-166 -58.5t-191.5 -18.5q-16 23 -20 47q-3 13 -3 25q141 16 221.5 74.5t102.5 181.5q10 55 9 103t-19.5 82t-57 53.5t-102.5 19.5h-100l-269 -1075q-4 -20 -5 -37t-1 -29q0 -14 2 -28q35 -8 70 -17 q20 -6 41 -10l-12 -53h-506z" />
<glyph unicode="&#xdf;" horiz-adv-x="1183" d="M31 0l14 57l100 19q10 14 19 30q16 31 26 72l203 799q29 119 91.5 204t137 140t150.5 82t135 27q123 0 188.5 -45.5t91 -104.5t20.5 -118.5t-21 -88.5q-8 -14 -23 -22q-12 -8 -34.5 -14.5t-59.5 -6.5q-43 0 -87 -37t-69.5 -94t-26.5 -124t42 -124q37 -49 74.5 -90 t65.5 -87t38 -102.5t-8 -133.5q-6 -23 -25.5 -67t-61.5 -87t-111 -76t-171 -33q-92 0 -139 53.5t-47 117t49 116.5t151 53q-33 -74 -43 -131q-4 -25 -5 -48t4.5 -40.5t19.5 -29t41 -11.5q37 0 65.5 15.5t49 38t34 47t17.5 43.5q14 61 -1.5 108t-47 88t-70.5 82t-68.5 88 t-44 105.5t5.5 136.5q33 125 119 195.5t182 97.5q59 242 -110 241q-66 0 -109 -22.5t-72.5 -65.5t-51 -104.5t-40.5 -136.5l-206 -834q-6 -20 -7.5 -38.5t-1.5 -35.5q0 -18 3 -32q33 -6 40 -7.5t8 0t7 0t41 -7.5l-15 -57h-456z" />
<glyph unicode="&#xe0;" horiz-adv-x="952" d="M51 248q-2 104 21.5 225t77 224.5t138.5 172t204 68.5q29 0 66.5 -9t72.5 -20q41 -12 84 -28q25 18 58.5 29.5t64.5 17.5q37 8 75 10q-53 -211 -94 -383q-18 -74 -35.5 -145.5t-32 -130t-24.5 -98.5t-12 -50q-8 -33 -2 -43t16 -10q12 0 31.5 9t40.5 19q23 12 47 29 q2 -16 4 -28.5t2 -20.5v-16q-66 -27 -119 -50q-47 -18 -90 -33.5t-55 -15.5q-33 0 -44 33t-11 71t5 71l5 32q-16 -20 -51 -55t-75 -69t-81 -58.5t-72 -24.5q-66 0 -106.5 26t-65 65.5t-34 89t-9.5 96.5zM254 227q4 -66 21.5 -93.5t56.5 -27.5q31 0 70.5 27t77.5 72t71 103.5 t49 123.5q16 57 29.5 121.5t23.5 118.5q12 63 23 125q-18 16 -41 30q-20 12 -48 23.5t-63 17.5q-66 10 -117 -48t-86.5 -154.5t-53 -214t-13.5 -224.5zM506 1278q-2 20 10 44t30.5 40t37 21.5t26.5 -11.5l172 -342l-51 -24q-37 18 -75 54t-70.5 76t-55 78.5t-24.5 63.5z" />
<glyph unicode="&#xe1;" horiz-adv-x="952" d="M51 248q0 -47 9.5 -96.5t34 -89t65.5 -65.5t106 -26q31 0 72 24.5t81 58.5t74.5 69t51.5 55l-5 -32q-5 -33 -5 -71t11 -71t44 -33q12 0 55 15.5t90 33.5q53 23 119 50v16q0 8 -2 20.5t-4 28.5q-25 -16 -47 -29q-20 -10 -40 -19t-32 -9q-10 0 -16 10t2 43q2 10 12 50 t24.5 98.5t32 130t35.5 145.5q41 172 94 383q-39 -2 -75 -10q-31 -6 -65 -17.5t-58 -29.5q-43 16 -84 28q-35 10 -73 19.5t-66 9.5q-119 0 -204 -68.5t-138.5 -172t-77 -224.5t-21.5 -225zM254 227q-4 106 13.5 224t53 214.5t87 155t116.5 47.5q35 -6 62.5 -17t48.5 -24 q23 -14 41 -30q-10 -61 -23 -125q-10 -53 -23.5 -118t-29.5 -122q-16 -66 -49 -124t-71 -103t-77.5 -72t-70.5 -27q-39 0 -56.5 28t-21.5 93zM635 1030l172 342q8 16 26.5 11t37 -21t30.5 -40t10 -44q-4 -25 -25.5 -63.5t-54 -78.5t-70.5 -76t-75 -54z" />
<glyph unicode="&#xe2;" horiz-adv-x="952" d="M51 248q-2 104 21.5 225t77 224.5t138.5 172t204 68.5q29 0 66.5 -9t72.5 -20q41 -12 84 -28q25 18 58.5 29.5t64.5 17.5q37 8 75 10q-53 -211 -94 -383q-18 -74 -35.5 -145.5t-32 -130t-24.5 -98.5t-12 -50q-8 -33 -2 -43t16 -10q12 0 31.5 9t40.5 19q23 12 47 29 q2 -16 4 -28.5t2 -20.5v-16q-66 -27 -119 -50q-47 -18 -90 -33.5t-55 -15.5q-33 0 -44 33t-11 71t5 71l5 32q-16 -20 -51 -55t-75 -69t-81 -58.5t-72 -24.5q-66 0 -106.5 26t-65 65.5t-34 89t-9.5 96.5zM254 227q4 -66 21.5 -93.5t56.5 -27.5q31 0 70.5 27t77.5 72t71 103.5 t49 123.5q16 57 29.5 121.5t23.5 118.5q12 63 23 125q-18 16 -41 30q-20 12 -48 23.5t-63 17.5q-66 10 -117 -48t-86.5 -154.5t-53 -214t-13.5 -224.5zM403 1085q2 0 20.5 24t46.5 58.5t61.5 76.5t64.5 78t55.5 59.5t36.5 23.5q10 0 26.5 -15.5t35 -41t39 -57t38.5 -64.5 q45 -80 97 -178l-72 -35l-68 90q-29 37 -58.5 73.5t-47.5 57.5q-27 -20 -63.5 -52t-71.5 -65q-39 -37 -82 -78z" />
<glyph unicode="&#xe3;" horiz-adv-x="952" d="M51 248q-2 104 21.5 225t77 224.5t138.5 172t204 68.5q29 0 66.5 -9t72.5 -20q41 -12 84 -28q25 18 58.5 29.5t64.5 17.5q37 8 75 10q-53 -211 -94 -383q-18 -74 -35.5 -145.5t-32 -130t-24.5 -98.5t-12 -50q-8 -33 -2 -43t16 -10q12 0 31.5 9t40.5 19q23 12 47 29 q2 -16 4 -28.5t2 -20.5v-16q-66 -27 -119 -50q-47 -18 -90 -33.5t-55 -15.5q-33 0 -44 33t-11 71t5 71l5 32q-16 -20 -51 -55t-75 -69t-81 -58.5t-72 -24.5q-66 0 -106.5 26t-65 65.5t-34 89t-9.5 96.5zM254 227q4 -66 21.5 -93.5t56.5 -27.5q31 0 70.5 27t77.5 72t71 103.5 t49 123.5q16 57 29.5 121.5t23.5 118.5q12 63 23 125q-18 16 -41 30q-20 12 -48 23.5t-63 17.5q-66 10 -117 -48t-86.5 -154.5t-53 -214t-13.5 -224.5zM442 1214q14 41 37 76q20 29 50 52.5t75 23.5q41 0 90 -15.5t94 -31.5q53 -23 105 -47l145 74q-10 -43 -32 -76 q-18 -29 -50 -52.5t-79 -23.5q-57 0 -109.5 14.5t-93.5 30.5q-49 20 -90 45z" />
<glyph unicode="&#xe4;" horiz-adv-x="952" d="M51 248q0 -47 9.5 -96.5t34 -89t65.5 -65.5t106 -26q31 0 72 24.5t81 58.5t74.5 69t51.5 55l-5 -32q-5 -33 -5 -71t11 -71t44 -33q12 0 55 15.5t90 33.5q53 23 119 50v16q0 8 -2 20.5t-4 28.5q-25 -16 -47 -29q-20 -10 -40 -19t-32 -9q-10 0 -16 10t2 43q2 10 12 50 t24.5 98.5t32 130t35.5 145.5q41 172 94 383q-39 -2 -75 -10q-31 -6 -65 -17.5t-58 -29.5q-43 16 -84 28q-35 10 -73 19.5t-66 9.5q-119 0 -204 -68.5t-138.5 -172t-77 -224.5t-21.5 -225zM254 227q-4 106 13.5 224t53 214.5t87 155t116.5 47.5q35 -6 62.5 -17t48.5 -24 q23 -14 41 -30q-10 -61 -23 -125q-10 -53 -23.5 -118t-29.5 -122q-16 -66 -49 -124t-71 -103t-77.5 -72t-70.5 -27q-39 0 -56.5 28t-21.5 93zM385 1195q-2 17 0 32q2 14 9 31.5t20.5 34t33 27.5t48.5 11h8q27 0 44 -11t26.5 -27.5t11.5 -34t0 -31.5t-9.5 -31.5t-21.5 -34 t-34.5 -28t-47.5 -11.5h-8q-29 0 -45.5 11.5t-24.5 28t-10 33.5zM807 1195q-2 17 0 32q2 14 9 31.5t20.5 34t33 27.5t48.5 11h6q29 0 46 -11t26.5 -27.5t11.5 -34t0 -31.5t-10.5 -31.5t-21.5 -34t-33.5 -28t-49.5 -11.5h-6q-29 0 -45.5 11.5t-24.5 28t-10 33.5z" />
<glyph unicode="&#xe5;" horiz-adv-x="952" d="M51 248q-2 104 21.5 225t77 224.5t138.5 172t204 68.5q29 0 66.5 -9t72.5 -20q41 -12 84 -28q25 18 58.5 29.5t64.5 17.5q37 8 75 10q-53 -211 -94 -383q-18 -74 -35.5 -145.5t-32 -130t-24.5 -98.5t-12 -50q-8 -33 -2 -43t16 -10q12 0 31.5 9t40.5 19q23 12 47 29 q2 -16 4 -28.5t2 -20.5v-16q-66 -27 -119 -50q-47 -18 -90 -33.5t-55 -15.5q-33 0 -44 33t-11 71t5 71l5 32q-16 -20 -51 -55t-75 -69t-81 -58.5t-72 -24.5q-66 0 -106.5 26t-65 65.5t-34 89t-9.5 96.5zM254 227q4 -66 21.5 -93.5t56.5 -27.5q31 0 70.5 27t77.5 72t71 103.5 t49 123.5q16 57 29.5 121.5t23.5 118.5q12 63 23 125q-18 16 -41 30q-20 12 -48 23.5t-63 17.5q-66 10 -117 -48t-86.5 -154.5t-53 -214t-13.5 -224.5zM496.5 1151.5q-25.5 50.5 5.5 103.5q14 27 43.5 48.5t68.5 33t83 13t89 -6.5q92 -20 121 -72t-6 -106 q-37 -53 -116.5 -77.5t-170.5 -6.5q-92 20 -117.5 70.5zM607 1202.5q-1 -16.5 4 -32t18.5 -29t38.5 -17.5q88 -16 123 74q12 35 -2.5 68.5t-63.5 40.5q-45 4 -74.5 -24t-38.5 -52q-4 -12 -5 -28.5z" />
<glyph unicode="&#xe6;" horiz-adv-x="1406" d="M59 252q2 45 14.5 108.5t32 132t45 137t56.5 124.5q57 94 123.5 141t169.5 47q29 0 72.5 -9t91 -23.5t93.5 -32t79 -31.5q45 45 99 70.5t122 25.5q178 0 260 -108.5t53 -305.5q-16 -14 -33 -28q-14 -12 -29.5 -24.5t-27.5 -18.5l-430 -2q-18 -72 -26.5 -131.5 t-6.5 -100.5q0 -70 20.5 -99.5t59.5 -29.5q29 0 88 10.5t133 69.5q6 -8 12 -18q4 -10 9.5 -24.5t9.5 -31.5q-51 -37 -105 -63q-47 -23 -102 -42.5t-108 -19.5q-68 0 -111 25t-66.5 63.5t-31 86t-7.5 94.5q-37 -45 -85 -93.5t-96 -87t-92 -63.5t-71 -25q-66 0 -107.5 26 t-66 65.5t-34 89t-7.5 96.5zM262 227q0 -66 19.5 -93.5t58.5 -27.5q31 0 70 30t75.5 73t64.5 92t38 86q4 14 11 41t15.5 59.5t17.5 69.5t17 74q20 84 43 182q-20 14 -45 27q-23 10 -51.5 19t-63.5 9q-29 0 -56 -20.5t-52 -55t-45.5 -81.5t-34.5 -101q-82 -266 -82 -383z M864 514q72 6 153 10t152 11q10 23 19 49q6 23 12 54.5t6 66.5q0 66 -30.5 113.5t-96.5 47.5q-39 0 -71.5 -31.5t-58 -82t-47.5 -114t-38 -124.5z" />
<glyph unicode="&#xe7;" horiz-adv-x="720" d="M39 -406l20 48q25 0 63 2t73.5 12t62.5 29.5t31 52.5q2 74 -86 74q-4 0 -19 18q-8 8 -14 20l86 125q-96 2 -141 55.5t-57.5 128t-3.5 157.5t26 145q10 41 36.5 122t75 160.5t121 139t174.5 59.5q86 0 164 -31.5t117 -91.5q-10 -35 -30.5 -57.5t-43.5 -34.5 q-25 -16 -53 -22q0 29 -9 57.5t-26.5 52t-41 37.5t-50.5 14q-39 0 -69.5 -27.5t-56.5 -74.5t-47 -111.5t-44 -138.5q-10 -35 -19.5 -78t-15.5 -83t-9 -74.5t-3 -55.5q0 -70 21.5 -99.5t60.5 -29.5q29 0 86 10.5t133 69.5l12 -20q4 -10 9.5 -23.5t9.5 -30.5q-41 -29 -86 -51 q-39 -20 -86.5 -40.5t-96.5 -28.5l-57 -119q20 0 50 -4t57.5 -15.5t46 -33t16.5 -58.5q-4 -49 -40 -84t-91 -55.5t-123 -24.5t-133 8z" />
<glyph unicode="&#xe8;" horiz-adv-x="882" d="M57 252q2 86 28 203.5t78 226.5t134 184.5t199 75.5q178 0 260 -108.5t53 -305.5q-16 -14 -33 -28q-14 -12 -29.5 -24.5t-27.5 -18.5l-430 -2q-18 -72 -26.5 -131.5t-6.5 -100.5q0 -70 20.5 -99.5t59.5 -29.5q29 0 88 10.5t133 69.5q6 -8 12 -18q4 -10 9.5 -24.5 t9.5 -31.5q-51 -37 -105 -63q-47 -23 -102 -42.5t-109 -19.5q-70 0 -111.5 26t-65 65.5t-31 89t-7.5 96.5zM303 514q72 6 153 10t152 11q10 23 19 49q6 23 12 54.5t6 66.5q0 66 -30.5 113.5t-96.5 47.5q-39 0 -71.5 -31.5t-58.5 -82t-47.5 -114t-37.5 -124.5zM506 1278 q-2 20 10 44t30.5 40t37 21.5t26.5 -11.5l172 -342l-51 -24q-37 18 -75 54t-70.5 76t-55 78.5t-24.5 63.5z" />
<glyph unicode="&#xe9;" horiz-adv-x="882" d="M57 252q0 -47 7.5 -96.5t31 -89t65.5 -65.5t111 -26q53 0 108.5 19.5t102.5 42.5q53 27 105 63q-4 16 -9.5 30.5t-9.5 25.5q-6 10 -12 18q-74 -59 -133 -69.5t-88 -10.5q-39 0 -59.5 30t-20.5 99q-2 41 6 100.5t27 131.5l430 2q12 6 27.5 18t29.5 25q17 14 33 28 q29 197 -53 305.5t-260 108.5q-117 0 -199 -75.5t-134 -184.5t-78 -226.5t-28 -203.5zM303 514q16 61 37.5 124.5t47.5 114t58.5 82t71.5 31.5q66 0 96.5 -48t30.5 -113q0 -35 -6 -67t-12 -54q-8 -27 -19 -49q-72 -6 -152.5 -10.5t-152.5 -10.5zM573 1030l172 342 q8 16 27 11t37 -21t30.5 -40t10.5 -44q-4 -25 -25.5 -63.5t-54.5 -78.5t-70.5 -76t-74.5 -54z" />
<glyph unicode="&#xea;" horiz-adv-x="882" d="M57 252q2 86 28 203.5t78 226.5t134 184.5t199 75.5q178 0 260 -108.5t53 -305.5q-16 -14 -33 -28q-14 -12 -29.5 -24.5t-27.5 -18.5l-430 -2q-18 -72 -26.5 -131.5t-6.5 -100.5q0 -70 20.5 -99.5t59.5 -29.5q29 0 88 10.5t133 69.5q6 -8 12 -18q4 -10 9.5 -24.5 t9.5 -31.5q-51 -37 -105 -63q-47 -23 -102 -42.5t-109 -19.5q-70 0 -111.5 26t-65 65.5t-31 89t-7.5 96.5zM303 514q72 6 153 10t152 11q10 23 19 49q6 23 12 54.5t6 66.5q0 66 -30.5 113.5t-96.5 47.5q-39 0 -71.5 -31.5t-58.5 -82t-47.5 -114t-37.5 -124.5zM338 1085 q2 0 20.5 24t46 58.5t61.5 76.5t64.5 78t55 59.5t37.5 23.5q10 0 26.5 -15.5t34.5 -41t38.5 -57t39.5 -64.5q45 -80 96 -178l-72 -35l-67 90q-29 37 -58.5 73.5t-48.5 57.5q-27 -20 -63.5 -52t-71.5 -65q-39 -37 -82 -78z" />
<glyph unicode="&#xeb;" horiz-adv-x="882" d="M57 252q0 -47 7.5 -96.5t31 -89t65.5 -65.5t111 -26q53 0 108.5 19.5t102.5 42.5q53 27 105 63q-4 16 -9.5 30.5t-9.5 25.5q-6 10 -12 18q-74 -59 -133 -69.5t-88 -10.5q-39 0 -59.5 30t-20.5 99q-2 41 6 100.5t27 131.5l430 2q12 6 27.5 18t29.5 25q17 14 33 28 q29 197 -53 305.5t-260 108.5q-117 0 -199 -75.5t-134 -184.5t-78 -226.5t-28 -203.5zM283 1195q-2 17 0 32q2 14 9 31.5t20.5 34t33 27.5t47.5 11h8q27 0 44.5 -11t26.5 -27.5t11 -34t0 -31.5t-9 -31.5t-21.5 -34t-35 -28t-46.5 -11.5h-9q-29 0 -45 11.5t-24 28t-10 33.5z M303 514q16 61 37.5 124.5t47.5 114t58.5 82t71.5 31.5q66 0 96.5 -48t30.5 -113q0 -35 -6 -67t-12 -54q-8 -27 -19 -49q-72 -6 -152.5 -10.5t-152.5 -10.5zM704.5 1195q-2.5 17 0.5 32q2 14 9 31.5t20.5 34t32.5 27.5t48 11h6q29 0 46.5 -11t26.5 -27.5t11 -34t0 -31.5 t-10 -31.5t-21.5 -34t-33.5 -28t-49 -11.5h-7q-29 0 -45 11.5t-24 28t-10.5 33.5z" />
<glyph unicode="&#xec;" horiz-adv-x="569" d="M80 57.5q-4 26.5 4 61.5q43 178 80 321q14 61 29.5 121t27.5 107t19.5 78.5t9.5 37.5q4 20 5 38t-13 14q-16 -4 -38 -13.5t-42 -19.5q-23 -12 -47 -27q-2 16 -3 28.5t-1 20.5v17q61 27 114 49q45 18 87.5 34.5t54.5 16.5q41 0 70.5 -37t13.5 -104q-43 -178 -80 -322 q-16 -61 -30.5 -120.5t-27 -107.5t-19.5 -80t-9 -38q-12 -51 8 -51q14 0 35.5 9t42.5 20q23 12 47 30q2 -16 4 -28.5t2 -20.5v-16q-57 -29 -109 -51q-43 -18 -86 -34t-63 -16t-38.5 9.5t-31 28t-16.5 45zM266 1278q-2 20 10.5 44t31 40t36.5 21.5t27 -11.5l172 -342l-51 -24 q-37 18 -75 54t-71 76t-55.5 78.5t-24.5 63.5z" />
<glyph unicode="&#xed;" horiz-adv-x="569" d="M80 57.5q4 -26.5 16.5 -45t30.5 -28t39 -9.5q20 0 63 15.5t86 34.5q51 23 109 51v16q0 8 -2 20.5t-4 28.5q-25 -18 -47 -30q-20 -10 -42 -19.5t-36 -9.5q-20 0 -8 51q2 6 9 38t19.5 80t26.5 107.5t31 120.5q37 143 80 322q16 68 -13.5 104.5t-70.5 36.5 q-12 0 -54.5 -16.5t-87.5 -34.5q-53 -23 -114 -49v-17q0 -8 1 -20t3 -29q25 14 47 27q20 10 41.5 19t38.5 14q14 4 13 -13.5t-5 -38.5q-2 -6 -9.5 -37.5t-19.5 -78.5t-27.5 -106.5t-29.5 -121.5q-37 -143 -80 -321q-8 -35 -4 -61.5zM270 1030l172 342q8 16 26.5 11t37 -21 t31 -40t10.5 -44q-4 -25 -25.5 -63.5t-54.5 -78.5t-71 -76t-74 -54z" />
<glyph unicode="&#xee;" horiz-adv-x="569" d="M80 57.5q-4 26.5 4 61.5q43 178 80 321q14 61 29.5 121t27.5 107t19.5 78.5t9.5 37.5q4 20 5 38t-13 14q-16 -4 -38 -13.5t-42 -19.5q-23 -12 -47 -27q-2 16 -3 28.5t-1 20.5v17q61 27 114 49q45 18 87.5 34.5t54.5 16.5q41 0 70.5 -37t13.5 -104q-43 -178 -80 -322 q-16 -61 -30.5 -120.5t-27 -107.5t-19.5 -80t-9 -38q-12 -51 8 -51q14 0 35.5 9t42.5 20q23 12 47 30q2 -16 4 -28.5t2 -20.5v-16q-57 -29 -109 -51q-43 -18 -86 -34t-63 -16t-38.5 9.5t-31 28t-16.5 45zM147 1085q2 0 20.5 24t46.5 58.5t61.5 76.5t64.5 78t55.5 59.5 t36.5 23.5q10 0 26.5 -15.5t35 -41t39 -57t38.5 -64.5q45 -80 97 -178l-72 -35l-68 90q-29 37 -58.5 73.5t-47.5 57.5q-27 -20 -63.5 -52t-71.5 -65q-39 -37 -82 -78z" />
<glyph unicode="&#xef;" horiz-adv-x="569" d="M80 57.5q4 -26.5 16.5 -45t30.5 -28t39 -9.5q20 0 63 15.5t86 34.5q51 23 109 51v16q0 8 -2 20.5t-4 28.5q-25 -18 -47 -30q-20 -10 -42 -19.5t-36 -9.5q-20 0 -8 51q2 6 9 38t19.5 80t26.5 107.5t31 120.5q37 143 80 322q16 68 -13.5 104.5t-70.5 36.5 q-12 0 -54.5 -16.5t-87.5 -34.5q-53 -23 -114 -49v-17q0 -8 1 -20t3 -29q25 14 47 27q20 10 41.5 19t38.5 14q14 4 13 -13.5t-5 -38.5q-2 -6 -9.5 -37.5t-19.5 -78.5t-27.5 -106.5t-29.5 -121.5q-37 -143 -80 -321q-8 -35 -4 -61.5zM102 1195q-2 17 0 32q2 14 9.5 31.5 t20.5 34t32.5 27.5t48.5 11h8q27 0 44.5 -11t26.5 -27.5t11 -34t0 -31.5t-9 -31.5t-21.5 -34t-35 -28t-47.5 -11.5h-8q-29 0 -45 11.5t-24.5 28t-10.5 33.5zM524 1195q-2 17 0 32q2 14 9.5 31.5t20.5 34t32.5 27.5t48.5 11h6q29 0 46.5 -11t26.5 -27.5t11 -34t0 -31.5 t-10 -31.5t-21.5 -34t-34 -28t-49.5 -11.5h-6q-29 0 -45 11.5t-24.5 28t-10.5 33.5z" />
<glyph unicode="&#xf0;" horiz-adv-x="1024" d="M68 340q-12 102 16.5 206.5t82.5 188.5t126 137.5t147 53.5q43 0 79 -6.5t65 -12.5q31 -8 57 -18q-4 -25 -14.5 -41.5t-20.5 -26.5q-12 -12 -28 -18q-12 8 -29 16q-14 6 -31.5 12.5t-40.5 6.5q-45 0 -80 -57.5t-56.5 -144.5t-28.5 -187.5t6.5 -187.5t49 -144.5 t97.5 -57.5q47 0 89 33t77 89.5t60.5 133t37.5 164.5q12 78 9 162t-24.5 171t-63.5 176t-109 177q-53 -23 -103.5 -43t-91.5 -32l-43 45l176 102q-27 29 -57.5 56.5t-65.5 54.5l62 82q25 -16 54.5 -37t57.5 -41q31 -23 64 -49l186 108l29 -127q-16 -10 -37 -18 q-18 -8 -42.5 -19.5t-53.5 -23.5q180 -195 243.5 -390.5t38.5 -363.5q-14 -104 -57 -195.5t-107.5 -159t-150.5 -105.5t-186 -38q-98 0 -168 24.5t-116 72t-71.5 116t-33.5 156.5z" />
<glyph unicode="&#xf1;" horiz-adv-x="985" d="M39 25l190 759q8 51 -8 52q-12 0 -32.5 -9.5t-41.5 -19.5q-23 -12 -51 -29q-6 31 -6 47v19q63 27 117 49q45 18 86 34.5t55 16.5t27.5 -14.5t23 -37t13.5 -50t2 -51.5q23 25 51.5 52t59 48.5t62 36t62.5 14.5q106 0 154.5 -46t59.5 -117.5t-2 -156.5t-30 -163 q-20 -78 -36 -144q-14 -57 -27.5 -109t-17.5 -71q-8 -31 -5 -42t11 -11q12 0 32.5 9t40.5 22q23 14 50 32q4 -18 5 -31.5t3 -21.5q2 -10 2 -16q-63 -29 -117 -51q-45 -18 -87 -34t-54 -16q-20 0 -39 9.5t-31 28t-16 45t4 61.5l84 340q23 88 32 149.5t9 102.5q0 33 -9.5 53 t-23.5 30.5t-29.5 13.5t-29.5 3q-33 0 -66 -20.5t-60.5 -52t-48 -69.5t-28.5 -71l-137 -553q-51 -35 -89 -49t-55 -21q-14 10 -24.5 20.5t-18.5 16.5q-8 8 -16 13zM371 1214q14 41 37 76q20 29 49.5 52.5t74.5 23.5q41 0 90.5 -15.5t94.5 -31.5q53 -23 104 -47l146 74 q-10 -43 -33 -76q-18 -29 -50 -52.5t-79 -23.5q-57 0 -109.5 14.5t-93.5 30.5q-49 20 -90 45z" />
<glyph unicode="&#xf2;" horiz-adv-x="874" d="M40 318.5q-1 82.5 9 142.5q14 84 46 170t90.5 154.5t144.5 112.5t207 44q72 0 131 -22.5t100 -72.5t60.5 -128t13.5 -189q-6 -102 -44 -202.5t-107.5 -178t-170 -126t-231.5 -48.5q-96 0 -148.5 53.5t-76 130.5t-24.5 159.5zM244 352.5q-4 -67.5 3 -134t30.5 -115 t74.5 -48.5q31 0 70 11.5t77 48.5t72.5 108.5t57.5 194.5q14 82 20 163t-3 144t-36.5 102t-81.5 39q-59 0 -104 -33.5t-79 -89t-56.5 -129t-34.5 -153.5q-6 -41 -10 -108.5zM506 1278q-2 20 10 44t30.5 40t37 21.5t26.5 -11.5l172 -342l-51 -24q-37 18 -75 54t-70.5 76 t-55 78.5t-24.5 63.5z" />
<glyph unicode="&#xf3;" horiz-adv-x="874" d="M40 319q1 -83 24.5 -160t76 -130.5t148.5 -53.5q131 0 231.5 48.5t170 126t107.5 178t44 202.5q6 111 -13.5 189t-60.5 128t-100 72.5t-131 22.5q-121 0 -207 -44t-144.5 -112.5t-90.5 -154.5t-46 -170q-10 -59 -9 -142zM244 352.5q4 67.5 10 108.5q12 80 34.5 153.5 t56.5 129t79 89t104 33.5q53 0 81 -39t37 -102t3 -144t-20 -163q-23 -123 -57.5 -194.5t-72.5 -108.5t-77 -48.5t-70 -11.5q-51 0 -74.5 48.5t-30.5 115t-3 134zM553 1030l172 342q8 16 26.5 11t37 -21t30.5 -40t10 -44q-4 -25 -25.5 -63.5t-54 -78.5t-70.5 -76t-75 -54z " />
<glyph unicode="&#xf4;" horiz-adv-x="874" d="M40 318.5q-1 82.5 9 142.5q14 84 46 170t90.5 154.5t144.5 112.5t207 44q72 0 131 -22.5t100 -72.5t60.5 -128t13.5 -189q-6 -102 -44 -202.5t-107.5 -178t-170 -126t-231.5 -48.5q-96 0 -148.5 53.5t-76 130.5t-24.5 159.5zM244 352.5q-4 -67.5 3 -134t30.5 -115 t74.5 -48.5q31 0 70 11.5t77 48.5t72.5 108.5t57.5 194.5q14 82 20 163t-3 144t-36.5 102t-81.5 39q-59 0 -104 -33.5t-79 -89t-56.5 -129t-34.5 -153.5q-6 -41 -10 -108.5zM313 1085q2 0 20.5 24t46.5 58.5t61.5 76.5t64.5 78t55.5 59.5t36.5 23.5q10 0 26.5 -15.5t35 -41 t39 -57t38.5 -64.5q45 -80 97 -178l-72 -35l-68 90q-29 37 -58.5 73.5t-47.5 57.5q-27 -20 -64 -52t-71 -65q-39 -37 -82 -78z" />
<glyph unicode="&#xf5;" horiz-adv-x="874" d="M40 318.5q-1 82.5 9 142.5q14 84 46 170t90.5 154.5t144.5 112.5t207 44q72 0 131 -22.5t100 -72.5t60.5 -128t13.5 -189q-6 -102 -44 -202.5t-107.5 -178t-170 -126t-231.5 -48.5q-96 0 -148.5 53.5t-76 130.5t-24.5 159.5zM244 352.5q-4 -67.5 3 -134t30.5 -115 t74.5 -48.5q31 0 70 11.5t77 48.5t72.5 108.5t57.5 194.5q14 82 20 163t-3 144t-36.5 102t-81.5 39q-59 0 -104 -33.5t-79 -89t-56.5 -129t-34.5 -153.5q-6 -41 -10 -108.5zM324 1214q14 41 36 76q20 29 50 52.5t75 23.5q41 0 90.5 -15.5t94.5 -31.5q53 -23 104 -47l146 74 q-10 -43 -33 -76q-18 -29 -50 -52.5t-79 -23.5q-57 0 -109.5 14.5t-93.5 30.5q-49 20 -90 45z" />
<glyph unicode="&#xf6;" horiz-adv-x="874" d="M40 319q1 -83 24.5 -160t76 -130.5t148.5 -53.5q131 0 231.5 48.5t170 126t107.5 178t44 202.5q6 111 -13.5 189t-60.5 128t-100 72.5t-131 22.5q-121 0 -207 -44t-144.5 -112.5t-90.5 -154.5t-46 -170q-10 -59 -9 -142zM244 352.5q4 67.5 10 108.5q12 80 34.5 153.5 t56.5 129t79 89t104 33.5q53 0 81 -39t37 -102t3 -144t-20 -163q-23 -123 -57.5 -194.5t-72.5 -108.5t-77 -48.5t-70 -11.5q-51 0 -74.5 48.5t-30.5 115t-3 134zM272 1195q-2 17 0 32q2 14 9.5 31.5t20.5 34t32.5 27.5t48.5 11h8q27 0 44.5 -11t26.5 -27.5t11 -34t0 -31.5 t-9 -31.5t-21.5 -34t-35 -28t-47.5 -11.5h-8q-29 0 -45 11.5t-24.5 28t-10.5 33.5zM694 1195q-2 17 0 32q2 14 9.5 31.5t20.5 34t32.5 27.5t48.5 11h6q29 0 46 -11t26.5 -27.5t11.5 -34t0 -31.5t-10 -31.5t-21.5 -34t-34 -28t-49.5 -11.5h-6q-29 0 -45 11.5t-24.5 28 t-10.5 33.5z" />
<glyph unicode="&#xf7;" horiz-adv-x="1382" d="M147 446h1078v107h-1078v-107zM571 186q0 45 28 77t81 32h10q53 0 81 -32t28 -77q0 -43 -31 -71.5t-78 -28.5h-10q-47 0 -78 28.5t-31 71.5zM571 809q0 45 28 77t81 32h10q53 0 81 -32t28 -77q0 -43 -31 -71.5t-78 -28.5h-10q-47 0 -78 28.5t-31 71.5z" />
<glyph unicode="&#xf8;" horiz-adv-x="874" d="M29 -59l86 116q-31 39 -48.5 92.5t-23.5 108.5t-3 108.5t9 94.5q14 84 46 170t90.5 154.5t144.5 112.5t207 44q76 0 135 -24l55 100l100 -31l-84 -115q53 -47 80 -131t19 -211q-6 -102 -44 -202.5t-107.5 -178t-170 -126t-231.5 -48.5q-66 0 -113 29l-51 -94zM244 256 l368 567q-33 43 -84 43q-59 0 -104 -33.5t-79 -89t-56.5 -129t-34.5 -153.5q-4 -35 -9 -90.5t-1 -114.5zM262 137q12 -37 46 -59.5t73 -22.5q25 0 57.5 9.5t66.5 46t65.5 108.5t58.5 199q16 82 22 163t-4 144z" />
<glyph unicode="&#xf9;" horiz-adv-x="978" d="M61 825v19q63 27 117 49q45 18 86 34.5t55 16.5q41 0 70 -38t12 -105l-84 -340q-10 -43 -24 -106.5t-18.5 -123t9 -101.5t58.5 -42q61 0 107.5 36t81 97.5t59 141t45 166.5t38 176.5t38.5 168.5q31 16 61 31q27 12 53.5 24.5t44.5 18.5q12 -12 21.5 -21t15.5 -18 q8 -8 11 -14l-173 -713q-8 -31 -9.5 -64.5t18.5 -33.5q10 0 30.5 9t40.5 20q23 12 52 28q2 -16 4 -28.5t2 -20.5v-16q-63 -29 -117 -51q-45 -18 -86 -34t-53 -16q-31 0 -46.5 24t-23.5 52q-8 33 -10 76q-18 -20 -47 -47t-63 -49.5t-71.5 -39t-74.5 -16.5q-96 0 -141.5 51.5 t-56.5 125t0 157.5t28 152q18 76 35 141q14 55 26.5 108.5t18.5 73.5v-2q6 31 4 42.5t-15 11.5q-12 0 -32.5 -9.5t-40.5 -19.5q-23 -12 -49 -29q-6 31 -7 47zM381 1278q-2 20 10 44t30.5 40t37 21.5t26.5 -11.5l172 -342l-51 -24q-37 18 -74.5 54t-70.5 76t-55.5 78.5 t-24.5 63.5z" />
<glyph unicode="&#xfa;" horiz-adv-x="978" d="M61 825q0 -16 7 -47q27 16 49 29q20 10 40.5 19.5t32.5 9.5t14.5 -11.5t-3.5 -42.5v2q-6 -20 -18.5 -73.5t-26.5 -108.5q-16 -66 -35 -141q-16 -68 -27.5 -152t-0.5 -157.5t56.5 -125t141.5 -51.5q37 0 74.5 16.5t71.5 39t62.5 49t47.5 47.5q2 -43 10 -76 q8 -29 23.5 -52.5t46.5 -23.5q12 0 53 15.5t86 34.5q53 23 117 51v16q0 8 -2 20.5t-4 28.5q-29 -16 -52 -28q-20 -10 -40.5 -19.5t-30.5 -9.5q-20 0 -18.5 34t9.5 64l173 713q-2 6 -11 14q-6 8 -15 17.5t-22 21.5q-18 -6 -44.5 -18t-53.5 -25q-31 -14 -61 -31 q-20 -80 -38 -169t-38.5 -176t-45 -166.5t-59 -141t-81 -97.5t-107.5 -36q-45 0 -58.5 42t-9 101.5t18.5 123t24 106.5l84 340q16 68 -12.5 105.5t-69.5 37.5q-14 0 -55 -16.5t-86 -34.5q-53 -23 -117 -49v-19zM508 1030l172 342q8 16 26.5 11t37 -21t30.5 -40t10 -44 q-4 -25 -25.5 -63.5t-54 -78.5t-70.5 -76t-75 -54z" />
<glyph unicode="&#xfb;" horiz-adv-x="978" d="M61 825v19q63 27 117 49q45 18 86 34.5t55 16.5q41 0 70 -38t12 -105l-84 -340q-10 -43 -24 -106.5t-18.5 -123t9 -101.5t58.5 -42q61 0 107.5 36t81 97.5t59 141t45 166.5t38 176.5t38.5 168.5q31 16 61 31q27 12 53.5 24.5t44.5 18.5q12 -12 21.5 -21t15.5 -18 q8 -8 11 -14l-173 -713q-8 -31 -9.5 -64.5t18.5 -33.5q10 0 30.5 9t40.5 20q23 12 52 28q2 -16 4 -28.5t2 -20.5v-16q-63 -29 -117 -51q-45 -18 -86 -34t-53 -16q-31 0 -46.5 24t-23.5 52q-8 33 -10 76q-18 -20 -47 -47t-63 -49.5t-71.5 -39t-74.5 -16.5q-96 0 -141.5 51.5 t-56.5 125t0 157.5t28 152q18 76 35 141q14 55 26.5 108.5t18.5 73.5v-2q6 31 4 42.5t-15 11.5q-12 0 -32.5 -9.5t-40.5 -19.5q-23 -12 -49 -29q-6 31 -7 47zM322 1085q2 0 20 24t46 58.5t61.5 76.5t64.5 78t55.5 59.5t36.5 23.5q10 0 26.5 -15.5t35 -41t39 -57t38.5 -64.5 q45 -80 97 -178l-72 -35l-68 90q-29 37 -58.5 73.5t-47.5 57.5q-27 -20 -63.5 -52t-71.5 -65q-39 -37 -82 -78z" />
<glyph unicode="&#xfc;" horiz-adv-x="978" d="M61 825q0 -16 7 -47q27 16 49 29q20 10 40.5 19.5t32.5 9.5t14.5 -11.5t-3.5 -42.5v2q-6 -20 -18.5 -73.5t-26.5 -108.5q-16 -66 -35 -141q-16 -68 -27.5 -152t-0.5 -157.5t56.5 -125t141.5 -51.5q37 0 74.5 16.5t71.5 39t62.5 49t47.5 47.5q2 -43 10 -76 q8 -29 23.5 -52.5t46.5 -23.5q12 0 53 15.5t86 34.5q53 23 117 51v16q0 8 -2 20.5t-4 28.5q-29 -16 -52 -28q-20 -10 -40.5 -19.5t-30.5 -9.5q-20 0 -18.5 34t9.5 64l173 713q-2 6 -11 14q-6 8 -15 17.5t-22 21.5q-18 -6 -44.5 -18t-53.5 -25q-31 -14 -61 -31 q-20 -80 -38 -169t-38.5 -176t-45 -166.5t-59 -141t-81 -97.5t-107.5 -36q-45 0 -58.5 42t-9 101.5t18.5 123t24 106.5l84 340q16 68 -12.5 105.5t-69.5 37.5q-14 0 -55 -16.5t-86 -34.5q-53 -23 -117 -49v-19zM283 1195q-2 17 0 32q2 14 9 31.5t20.5 34t33 27.5t47.5 11h8 q27 0 44.5 -11t26.5 -27.5t11 -34t0 -31.5t-9 -31.5t-21.5 -34t-34.5 -28t-47 -11.5h-9q-29 0 -45 11.5t-24 28t-10 33.5zM704.5 1195q-2.5 17 0.5 32q2 14 9 31.5t20.5 34t32.5 27.5t48 11h6q29 0 46.5 -11t26.5 -27.5t11 -34t0 -31.5t-10 -31.5t-21.5 -34t-33.5 -28 t-49 -11.5h-7q-29 0 -45 11.5t-24 28t-10.5 33.5z" />
<glyph unicode="&#xfd;" horiz-adv-x="864" d="M-227 -315.5q4 -34.5 27.5 -59t74.5 -24.5q72 0 173.5 59t213 158.5t222 227.5t198.5 264t142.5 271.5t54.5 247.5q0 53 -26 84t-71 31q-35 0 -60.5 -13t-43.5 -30q-23 -18 -37 -41q27 -53 31 -109.5t4 -80.5q0 -102 -40 -207t-96.5 -189t-117 -138t-103.5 -54 q-25 0 -41 14.5t-16 53.5q0 41 14.5 115.5t42.5 195.5q20 84 42 171t42 171q16 66 -12.5 103.5t-68.5 37.5q-14 0 -54.5 -16.5t-85.5 -34.5q-53 -23 -114 -49v-23q0 -10 1 -21.5t5 -19.5q23 16 45 29q18 10 39.5 19.5t38.5 9.5q16 0 6 -54q-4 -23 -17.5 -75t-27.5 -107 q-16 -66 -35 -141q-23 -92 -37 -171t-14 -138q0 -111 49 -147t145 -25q14 2 -17.5 -30t-82.5 -70t-110.5 -69.5t-102.5 -31.5t-76 7t-74 32q-14 -25 -24 -62t-6 -71.5zM508 1030l172 342q8 16 26.5 11t37 -21t30.5 -40t10 -44q-4 -25 -25.5 -63.5t-54 -78.5t-70.5 -76 t-75 -54z" />
<glyph unicode="&#xfe;" horiz-adv-x="880" d="M-143 -399q0 10 2 18t2 17.5t4 19.5h63q12 0 37 67.5t56.5 177t68.5 250t72 288t65.5 287.5t50 249.5t26.5 177.5t-5 68h-98q0 16 4 36q2 8 4 19q90 -2 169 -2h138q70 0 131 2q0 -10 -2 -19q-2 -8 -3 -17t-3 -19h-64q-33 0 -43 -33t-20 -74l-72 -280q29 31 66 55 q29 20 68.5 37.5t80.5 17.5q102 0 156.5 -71.5t67 -179t-14 -233.5t-86 -233.5t-148.5 -179.5t-202 -72q-49 0 -97 10.5t-89 34.5q-23 -90 -42.5 -163.5t-23.5 -94.5q-14 -59 -8 -82.5t31 -23.5h98q0 -16 -4 -37q-2 -8 -4 -18q-90 2 -168 2h-137q-68 0 -127 -2zM260 102 q16 -14 35 -24q16 -10 36.5 -16.5t43.5 -6.5q70 0 126 73t97 177q96 254 85 380t-99 126q-43 0 -77 -18.5t-59.5 -49t-43 -70.5t-27.5 -81q-29 -117 -60.5 -244t-56.5 -246z" />
<glyph unicode="&#xff;" horiz-adv-x="864" d="M-227 -315.5q4 -34.5 27.5 -59t74.5 -24.5q72 0 173.5 59t213 158.5t222 227.5t198.5 264t142.5 271.5t54.5 247.5q0 53 -26 84t-71 31q-35 0 -60.5 -13t-43.5 -30q-23 -18 -37 -41q27 -53 31 -109.5t4 -80.5q0 -102 -40 -207t-96.5 -189t-117 -138t-103.5 -54 q-25 0 -41 14.5t-16 53.5q0 41 14.5 115.5t42.5 195.5q20 84 42 171t42 171q16 66 -12.5 103.5t-68.5 37.5q-14 0 -54.5 -16.5t-85.5 -34.5q-53 -23 -114 -49v-23q0 -10 1 -21.5t5 -19.5q23 16 45 29q18 10 39.5 19.5t38.5 9.5q16 0 6 -54q-4 -23 -17.5 -75t-27.5 -107 q-16 -66 -35 -141q-23 -92 -37 -171t-14 -138q0 -111 49 -147t145 -25q14 2 -17.5 -30t-82.5 -70t-110.5 -69.5t-102.5 -31.5t-76 7t-74 32q-14 -25 -24 -62t-6 -71.5zM283 1195q-2 17 0 32q2 14 9 31.5t20.5 34t33 27.5t47.5 11h8q27 0 44.5 -11t26.5 -27.5t11 -34t0 -31.5 t-9 -31.5t-21.5 -34t-34.5 -28t-47 -11.5h-9q-29 0 -45 11.5t-24 28t-10 33.5zM704.5 1195q-2.5 17 0.5 32q2 14 9 31.5t20.5 34t32.5 27.5t48 11h6q29 0 46.5 -11t26.5 -27.5t11 -34t0 -31.5t-10 -31.5t-21.5 -34t-33.5 -28t-49 -11.5h-7q-29 0 -45 11.5t-24 28t-10.5 33.5 z" />
<glyph unicode="&#x152;" horiz-adv-x="1730" d="M168 590q0 156 48 294t143.5 241.5t236.5 163t326 59.5q37 0 94 -3.5t117 -13.5h720l-30 -221q-16 -8 -33.5 -11t-32.5 -7q-18 -4 -33 -5q0 49 -4 81t-19 49.5t-46 24.5t-82 9h-254q-33 -127 -62.5 -254t-62.5 -254h195q51 0 82.5 11.5t52 34t33 56.5t26.5 79h66 l-109 -443h-65q8 37 12 70t-3 57.5t-34 39t-80 14.5h-199q-35 -145 -69.5 -290t-71.5 -290h316q37 0 76.5 7t75.5 24.5t62.5 45t34.5 70.5q16 0 35 -2q14 -2 30.5 -5t27.5 -7l-74 -215h-604q-16 -8 -54 -14t-81.5 -10.5t-85 -6.5t-64.5 -2q-147 0 -252.5 50.5t-173.5 135.5 t-99.5 197.5t-31.5 239.5zM418 616q-6 -123 16.5 -223t69.5 -174t115.5 -116t154.5 -44q43 106 87 246.5t84 295.5t73 313.5t51 302.5q-6 12 -22.5 22t-37 16.5t-42 9.5t-35.5 3q-111 0 -203 -60.5t-159.5 -156t-106.5 -211t-45 -224.5z" />
<glyph unicode="&#x153;" horiz-adv-x="1404" d="M44 318.5q-1 82.5 9 142.5q14 84 46 170t90.5 154.5t144.5 112.5t207 44q86 0 151.5 -31.5t104.5 -103.5q49 59 112.5 97t143.5 38q178 0 260 -108.5t53 -305.5q-16 -14 -33 -28q-14 -12 -29.5 -24.5t-27.5 -18.5l-430 -2q-18 -72 -26.5 -131.5t-6.5 -100.5 q0 -70 20.5 -99.5t59.5 -29.5q29 0 88 10.5t133 69.5q6 -8 12 -18q4 -10 9.5 -24.5t9.5 -31.5q-51 -37 -105 -63q-47 -23 -102 -42.5t-109 -19.5q-82 0 -126 34t-66 85q-66 -55 -152 -87t-192 -32q-96 0 -148.5 53.5t-76 130.5t-24.5 159.5zM248 352.5q-4 -67.5 3 -134 t30.5 -115t74.5 -48.5q31 0 70 11.5t77 48.5t72.5 108.5t57.5 194.5q14 82 20 163t-3 144t-36.5 102t-81.5 39q-59 0 -104 -33.5t-79 -89t-56.5 -129t-34.5 -153.5q-6 -41 -10 -108.5zM860 514q72 6 153 10t152 11q10 23 19 49q6 23 12 54.5t6 66.5q0 66 -30.5 113.5 t-96.5 47.5q-39 0 -71.5 -31.5t-58 -82t-47.5 -114t-38 -124.5z" />
<glyph unicode="&#x178;" horiz-adv-x="1265" d="M276 1276q31 -4 54.5 -10t41 -18.5t32 -34t28.5 -58.5q4 -12 18.5 -51t33 -95.5t38 -122t33.5 -131t20.5 -123t-2.5 -95.5q-10 -53 -21 -97.5t-21.5 -85.5t-22.5 -85t-25 -97q-8 -31 -14 -48.5t-10 -27.5l-8 -16q-12 -2 -33 -7t-43 -10q-25 -6 -53 -12l-15 -51h500l12 55 q-20 4 -41 8q-16 4 -36.5 7.5t-36.5 7.5q-4 8 -5 22q-4 25 9 72q8 76 24 152q14 66 34.5 138.5t51.5 131.5q16 33 43 74t59.5 87t69.5 94t72 93q82 104 178 217q31 43 65.5 66.5t66.5 34t59.5 12.5t44.5 2l14 57h-481l-13 -55q37 0 66 -6q25 -4 45 -16.5t20 -32.5 q0 -27 -22 -60q-39 -53 -93.5 -131t-105.5 -150.5t-87 -125.5l-36 -52q-33 92 -58.5 189.5t-43.5 179.5q-23 94 -39 184q18 4 40 7.5t40 7.5q23 4 41 6l14 55h-489zM627 1485.5q-2 17.5 0 32.5q2 14 9 31.5t20.5 33.5t33 27.5t47.5 11.5h8q27 0 44.5 -11.5t26.5 -27.5 t11 -33.5t0 -31.5t-9 -32t-21.5 -34t-35 -27.5t-46.5 -11.5h-8q-29 0 -45.5 11.5t-24.5 27.5t-10 33.5zM1049 1485.5q-2 17.5 0 32.5q2 14 9 31.5t20.5 33.5t32.5 27.5t48 11.5h6q29 0 46.5 -11.5t26.5 -27.5t11 -33.5t0 -31.5t-10 -32t-21.5 -34t-33.5 -27.5t-49 -11.5h-7 q-29 0 -45 11.5t-24 27.5t-10 33.5z" />
<glyph unicode="&#x2c6;" d="M309 1085q2 0 20.5 24t46 58.5t61.5 76.5t64.5 78t55.5 59.5t37 23.5q10 0 26.5 -15.5t35 -41t39 -57t38.5 -64.5q45 -80 96 -178l-71 -35l-68 90q-29 37 -58.5 73.5t-47.5 57.5q-27 -20 -64 -52t-71 -65q-39 -37 -82 -78z" />
<glyph unicode="&#x2dc;" d="M242 1214q14 41 37 76q20 29 49.5 52.5t74.5 23.5q41 0 90.5 -15.5t94.5 -31.5q53 -23 104 -47l146 74q-10 -43 -33 -76q-18 -29 -50 -52.5t-79 -23.5q-57 0 -109.5 14.5t-93.5 30.5q-49 20 -90 45z" />
<glyph unicode="&#x2000;" horiz-adv-x="902" />
<glyph unicode="&#x2001;" horiz-adv-x="1804" />
<glyph unicode="&#x2002;" horiz-adv-x="902" />
<glyph unicode="&#x2003;" horiz-adv-x="1804" />
<glyph unicode="&#x2004;" horiz-adv-x="601" />
<glyph unicode="&#x2005;" horiz-adv-x="451" />
<glyph unicode="&#x2006;" horiz-adv-x="300" />
<glyph unicode="&#x2007;" horiz-adv-x="300" />
<glyph unicode="&#x2008;" horiz-adv-x="225" />
<glyph unicode="&#x2009;" horiz-adv-x="360" />
<glyph unicode="&#x200a;" horiz-adv-x="100" />
<glyph unicode="&#x2010;" d="M61 391l13 94l528 64l-43 -156q-53 6 -127 8q-63 2 -155.5 1t-215.5 -11z" />
<glyph unicode="&#x2011;" d="M61 391l13 94l528 64l-43 -156q-53 6 -127 8q-63 2 -155.5 1t-215.5 -11z" />
<glyph unicode="&#x2012;" d="M61 391l13 94l528 64l-43 -156q-53 6 -127 8q-63 2 -155.5 1t-215.5 -11z" />
<glyph unicode="&#x2013;" horiz-adv-x="1024" d="M23 399v113h978v-113h-978z" />
<glyph unicode="&#x2014;" horiz-adv-x="1185" d="M23 399v113h1142v-113h-1142z" />
<glyph unicode="&#x2018;" horiz-adv-x="471" d="M168 1087q0 55 29.5 102.5t72.5 85.5t90.5 64.5t81.5 42.5q6 -10 13 -18q4 -8 8 -14.5t4 -3.5q-33 -25 -61 -50q-25 -23 -49.5 -48t-37.5 -50q25 -29 46 -51q16 -20 31.5 -41t15.5 -29q0 -12 -5.5 -30.5t-19.5 -35t-39.5 -28.5t-64.5 -12q-41 0 -63.5 13t-34 32.5 t-14.5 39t-3 31.5z" />
<glyph unicode="&#x2019;" horiz-adv-x="475" d="M174 1012q33 25 62 49q25 23 49 47.5t37 50.5q-27 29 -48 51q-16 20 -30.5 40t-14.5 30q0 12 5.5 30.5t19.5 35t39.5 28.5t64.5 12t62.5 -13t35 -32.5t14.5 -39t3 -31.5q0 -55 -29.5 -102.5t-72.5 -85.5t-90.5 -65.5t-81.5 -41.5q-6 10 -13 18q-4 4 -8 13q-2 4 -4 6z" />
<glyph unicode="&#x201a;" d="M41 -180q33 25 61 49q25 23 49.5 47.5t36.5 50.5q-27 29 -47 51q-16 20 -30.5 40t-14.5 30q0 12 5 30.5t19.5 35t40 29t64.5 12.5t62.5 -13.5t35 -33t14.5 -39t3 -31.5q0 -55 -29.5 -102.5t-72.5 -85t-90.5 -65.5t-81.5 -42q-6 10 -13 18q-4 4 -8 13q-2 4 -4 6z" />
<glyph unicode="&#x201c;" horiz-adv-x="811" d="M125 1087q0 55 29.5 102.5t72.5 85.5t90.5 64.5t81.5 42.5q6 -10 13 -18q4 -8 8 -14.5t4 -3.5q-33 -25 -62 -50q-25 -23 -49 -48t-37 -50q25 -29 46 -51q16 -20 31.5 -41t15.5 -29q0 -12 -5.5 -30.5t-19.5 -35t-39.5 -28.5t-64.5 -12q-41 0 -63.5 13t-34 32.5t-14.5 39 t-3 31.5zM502 1087q0 55 29.5 102.5t72.5 85.5t90 64.5t82 42.5q6 -10 12 -18q4 -8 8.5 -14.5t4.5 -3.5q-33 -25 -62 -50q-25 -23 -49 -48t-37 -50q25 -29 45 -51q16 -20 31.5 -41t15.5 -29q0 -12 -5 -30.5t-19 -35t-40 -28.5t-65 -12q-41 0 -63.5 13t-33.5 32.5t-14 39 t-3 31.5z" />
<glyph unicode="&#x201d;" d="M217 1012q33 25 62 49q25 23 49 47.5t37 50.5q-27 29 -48 51q-16 20 -30.5 40t-14.5 30q0 12 5.5 30.5t19.5 35t39.5 28.5t64.5 12t62.5 -13t35 -32.5t14.5 -39t3 -31.5q0 -55 -29.5 -102.5t-72.5 -85.5t-90.5 -65.5t-81.5 -41.5q-6 10 -13 18q-4 4 -8 13q-2 4 -4 6z M594 1012q33 25 61 49q25 23 49.5 47.5t36.5 50.5q-27 29 -47 51q-16 20 -30.5 40t-14.5 30q0 12 5 30.5t19.5 35t40 28.5t64.5 12t62.5 -13t35 -32.5t14.5 -39t3 -31.5q0 -55 -29.5 -102.5t-72.5 -85.5t-90.5 -65.5t-82.5 -41.5q-6 10 -12 18q-4 4 -8 13q-2 4 -4 6z" />
<glyph unicode="&#x201e;" horiz-adv-x="1148" d="M131 -180q33 25 62 49q25 23 49 47.5t37 50.5q-27 29 -48 51q-16 20 -30.5 40t-14.5 30q0 12 5.5 30.5t19.5 35t39.5 29t64.5 12.5t62.5 -13.5t35 -33t14.5 -39t3 -31.5q0 -55 -29.5 -102.5t-72.5 -85t-90.5 -65.5t-81.5 -42q-6 10 -13 18q-4 4 -8 13q-2 4 -4 6z M508 -180q33 25 61 49q25 23 49.5 47.5t36.5 50.5q-27 29 -47 51q-16 20 -30.5 40t-14.5 30q0 12 5 30.5t19.5 35t40 29t64.5 12.5t62.5 -13.5t35 -33t14.5 -39t3 -31.5q0 -55 -29.5 -102.5t-72.5 -85t-90.5 -65.5t-82.5 -42q-6 10 -12 18q-4 4 -8 13q-2 4 -4 6z" />
<glyph unicode="&#x2022;" horiz-adv-x="507" d="M84 592q0 72 50 119t122 47t123 -47t51 -119t-51 -120t-123 -48t-122 48t-50 120z" />
<glyph unicode="&#x2026;" horiz-adv-x="1937" d="M170 82q6 41 37 76t82 35h10q51 0 71.5 -35t14.5 -76q-4 -41 -38 -74t-79 -33h-10q-45 0 -68.5 33t-19.5 74zM836 82q6 41 36.5 76t81.5 35h11q51 0 71.5 -35t14.5 -76q-4 -41 -38 -74t-79 -33h-10q-45 0 -69 33t-19 74zM1503 82q6 41 37 76t82 35h10q51 0 71.5 -35 t14.5 -76q-4 -41 -37.5 -74t-78.5 -33h-11q-45 0 -68.5 33t-19.5 74z" />
<glyph unicode="&#x202f;" horiz-adv-x="360" />
<glyph unicode="&#x2039;" d="M82 496q0 8 15.5 24.5t42 37t59 44t67.5 45.5q82 53 185 115l30 -53q-53 -45 -100 -84q-41 -35 -79 -71t-56 -58q18 -23 56 -59t79 -70q47 -39 100 -84l-30 -54q-102 61 -185 115q-35 23 -67.5 45.5t-59 43t-42 36.5t-15.5 27z" />
<glyph unicode="&#x203a;" d="M199 283q51 45 98 84q41 35 80 70.5t57 58.5q-18 23 -57 58.5t-80 70.5q-47 39 -98 84l30 53q102 -61 185 -115q35 -23 67.5 -46t59 -43.5t42 -37t15.5 -24.5q0 -10 -15.5 -26.5t-42 -37t-59 -43t-67.5 -45.5q-82 -53 -185 -115z" />
<glyph unicode="&#x205f;" horiz-adv-x="451" />
<glyph unicode="&#x20ac;" horiz-adv-x="1343" d="M39 500l12 96h109q0 29 3 65.5t11 71.5h-115l13 96l133 2q47 119 122.5 216.5t177 166t227.5 105.5t274 37q74 0 132 -9.5t105 -24.5t88 -38.5t82 -50.5l-65 -264h-93q8 37 6.5 89t-29.5 100t-89.5 82t-171.5 34q-195 0 -314.5 -117t-191.5 -323l328 4l-50 -105h-309 q-14 -68 -18 -133l264 4l-49 -104h-213q8 -92 34.5 -172t69.5 -140.5t101.5 -95.5t126.5 -35q88 0 155.5 30t114.5 74t75.5 98t41.5 103h98l-76 -299q-55 -25 -121 -45q-55 -16 -129.5 -29.5t-160.5 -13.5q-127 0 -226.5 41t-173.5 112t-119 166t-61 206h-129z" />
<glyph unicode="&#x2122;" horiz-adv-x="1079" d="M49 1235l23 96h420l-3 -96q-10 -4 -18 -6t-14 -4q-8 -2 -15 -2q0 27 -6 45t-47 18h-53l-43 -303q-2 -12 2 -29q2 -8 2 -12q10 -2 23.5 -3t21.5 -3l-4 -35h-219l4 33l47 8q2 2 6 13.5t6 27.5l43 303h-61q-43 0 -54.5 -18.5t-17.5 -44.5q-6 0 -14 2q-6 2 -14.5 4t-14.5 6z M428 901l4 35q16 -2 29 2q10 2 20.5 8t14.5 19q20 78 39 141q16 53 28 101t17 59q2 23 -17 34q-8 6 -20 9l-4 22h155q-2 -12 -2 -22q-4 -20 0 -37l60 -244q14 27 31.5 58.5t36 64.5t34.5 64.5t31 56.5q4 8 7 18t5 21q2 10 2 20h148l-15 -31q-10 0 -18 -2q-16 -4 -17 -12 l-2 -344l52 -8l-5 -33h-215l4 33l64 8v115q0 45 1 87t1 58q-18 -33 -38.5 -71.5t-42 -78.5t-42 -79t-39.5 -72h-61l-62 266q-6 -18 -13 -45.5t-15.5 -57.5t-15.5 -56.5t-11 -44.5q-4 -12 5 -17.5t20 -7.5q12 -2 30 -2l-4 -35h-180z" />
<glyph unicode="&#xe000;" horiz-adv-x="942" d="M0 0v942h942v-942h-942z" />
</font>
</defs>
</svg>
