<?xml version="1.0" standalone="no"?>
<!DOCTYPE svg PUBLIC "-//W3C//DTD SVG 1.1//EN" "http://www.w3.org/Graphics/SVG/1.1/DTD/svg11.dtd" >
<svg xmlns="http://www.w3.org/2000/svg">
<metadata></metadata>
<defs>
<font id="slabtallxregular" horiz-adv-x="1007" >
<font-face units-per-em="2048" ascent="1638" descent="-410" />
<missing-glyph horiz-adv-x="681" />
<glyph horiz-adv-x="2048" />
<glyph horiz-adv-x="2048" />
<glyph horiz-adv-x="682" />
<glyph horiz-adv-x="548" d="M18 1423q25 -125 97 -187t166 -62t165.5 62t96.5 187h-82q-23 -82 -71 -118.5t-109 -36.5t-109.5 36.5t-71.5 118.5h-82z" />
<glyph horiz-adv-x="626" d="M213 1225h156v155h-156v-155z" />
<glyph horiz-adv-x="573" d="M115 1323q0 -74 52 -126t126 -52t126 52t52 126t-52 126t-126 52t-126 -52t-52 -126zM180 1323q0 47 33 80t80 33t80 -33t33 -80t-33 -80t-80 -33t-80 33t-33 80z" />
<glyph unicode="&#xa;" horiz-adv-x="524" d="M145 1161h82l224 301l-129 -2zM356 1161h84l224 301l-132 -2z" />
<glyph horiz-adv-x="579" d="M170 -178q0 -92 54.5 -142.5t140.5 -50.5q35 0 61.5 7.5t48.5 21.5v92q-29 -16 -49 -18q-10 -2 -21.5 -3t-23.5 -1q-41 0 -74 32.5t-33 96.5q0 49 18.5 89t49.5 66h-78q-39 -27 -66.5 -77t-27.5 -113z" />
<glyph horiz-adv-x="538" d="M10 1456l201 -291h127l201 291h-103l-162 -211l-161 211h-103z" />
<glyph unicode="&#xd;" horiz-adv-x="559" d="M59 0h469v111h-163v907h-306v-107h170v-800h-170v-111z" />
<glyph horiz-adv-x="466" d="M-190 0h84l878 1442h-84z" />
<glyph horiz-adv-x="1071" d="M16 0h457v111h-151v800h190v107h-190v112q0 123 36.5 167t108.5 44q59 0 91 -34.5t44 -96.5l143 7q-4 45 -20 88t-49 76.5t-83 53t-120 19.5q-289 0 -289 -326v-110h-139v-107h139v-800h-168v-111zM520 911h328v-800h-156v-111h449v111h-158v907h-463v-107zM834 1319 q0 -45 8 -55.5t49 -10.5t49 10.5t8 57.5q0 45 -8 55t-49 10t-49 -10t-8 -57z" />
<glyph horiz-adv-x="1071" d="M14 0h457v111h-152v800h162v107h-162v102q0 53 6.5 93t26 68t54 41t90.5 13q72 0 123 -21.5t90 -58.5l45 76v-1220h-158v-111h453v111h-158v1316h-250q-55 27 -154 27q-154 0 -229.5 -82t-75.5 -256v-98h-139v-107h139v-800h-168v-111z" />
<glyph horiz-adv-x="1048" d="M12 518l217 152v-555h-200v-115h972v516h-139v-397h-487v651l248 172v111l-248 -172v432h217v114h-569v-114h206v-533l-217 -151v-111z" />
<glyph horiz-adv-x="530" d="M4 567l199 133v-589h-172v-111h475v111h-168v680l194 131v90l-194 -131v546h-309v-106h174v-530l-199 -134v-90z" />
<glyph horiz-adv-x="1099" d="M66 0h962v401h-127v-286h-672l779 1181v131h-912v-385h129v271h613l-772 -1176v-137zM291 1862l201 -291h127l201 291h-103l-162 -211l-161 211h-103z" />
<glyph horiz-adv-x="921" d="M96 0h731v362h-114v-251h-484l596 796v111h-696v-342h115v233h426l-574 -794v-115zM203 1456l201 -291h127l201 291h-103l-162 -211l-161 211h-103z" />
<glyph unicode=" "  horiz-adv-x="681" />
<glyph unicode="&#x09;" horiz-adv-x="681" />
<glyph unicode="&#xa0;" horiz-adv-x="681" />
<glyph unicode="!" horiz-adv-x="589" d="M248 1427l10 -479l25 -592h94l20 588l9 483h-158zM252 -2h154v195h-154v-195z" />
<glyph unicode="&#x22;" horiz-adv-x="518" d="M61 1440l5 -219l22 -301h82l23 299l4 221h-136zM356 1440l4 -219l23 -301h82l22 299l5 221h-136z" />
<glyph unicode="#" horiz-adv-x="1146" d="M98 483h201l-82 -475h96l82 475h289l-82 -475h96l82 475h248v95h-231l55 315h203v94h-187l80 461h-96l-80 -461h-289l80 461h-96l-80 -461h-262v-94h246l-56 -315h-217v-95zM412 578l55 315h289l-56 -315h-288z" />
<glyph unicode="$" horiz-adv-x="993" d="M88 209h74v80q18 -150 112 -230q74 -61 187 -75v-187h94v185q156 8 254 106q111 107 111 281q0 80 -16.5 143t-58.5 113.5t-112.5 89.5t-177.5 69q-68 18 -124 42t-98 58t-64.5 80t-22.5 107q0 111 64.5 176.5t170.5 65.5q135 0 204 -84t73 -225l119 -3v203h-72v-71 q-8 150 -109 217q-66 45 -141 61v137h-94v-129q-158 -10 -252 -98q-104 -98 -105 -256q0 -160 84 -251t281 -144q84 -23 143.5 -49.5t98.5 -62.5t56 -84t17 -114q0 -123 -72.5 -196.5t-191.5 -73.5q-125 0 -210 85t-97 241h-125v-207z" />
<glyph unicode="%" horiz-adv-x="1619" d="M162 1087q0 -174 62.5 -272t185.5 -98t185 97t62 271q0 178 -60 272.5t-185 94.5q-123 0 -186.5 -98.5t-63.5 -266.5zM276 1081q0 131 35 210t103 79q72 0 102.5 -73.5t30.5 -209.5q0 -135 -33 -210.5t-102 -75.5q-72 0 -104 72.5t-32 207.5zM303 -12h96l912 1454h-94z M958 354q0 -174 62.5 -271t185.5 -97q125 0 186.5 96t61.5 270q0 178 -58.5 272.5t-187.5 94.5q-119 0 -184.5 -98.5t-65.5 -266.5zM1073 348q0 131 34.5 210t102.5 79q72 0 102.5 -74t30.5 -209t-32.5 -209.5t-102.5 -74.5q-72 0 -103.5 71.5t-31.5 206.5z" />
<glyph unicode="&#x26;" horiz-adv-x="1353" d="M113 395q0 -80 27.5 -156.5t79.5 -136t129 -95.5t175 -36q119 0 221 56q70 37 132 104q23 -33 46 -65.5t46 -65.5h303v115h-221l-88 125q57 86 86 176q35 102 51 252h170v112h-369v-65h80q0 -92 -29 -211q-23 -90 -61 -158l-309 442q113 51 196 140q90 96 90 233 q0 68 -22.5 122t-62.5 92t-92 58.5t-113 20.5q-70 0 -128.5 -21.5t-101.5 -61.5t-66.5 -96t-23.5 -124q0 -88 43 -170q23 -41 46.5 -79t45.5 -73q-113 -55 -190 -145q-90 -109 -90 -289zM262 414q0 115 62 198q45 62 141 117q57 -80 111.5 -160t107.5 -157 q31 -45 61.5 -90.5t63.5 -90.5q-55 -59 -102 -90q-82 -51 -170 -51q-57 0 -107.5 24.5t-87.5 68.5t-58.5 103.5t-21.5 127.5zM401 1159q0 92 50.5 140.5t117.5 48.5q74 0 120 -50.5t46 -142.5q0 -98 -73 -172q-58 -57 -144 -102l-8 12q-18 27 -36.5 60.5t-35 68.5t-27 70.5 t-10.5 66.5z" />
<glyph unicode="'" horiz-adv-x="331" d="M117 1440l4 -219l22 -301h82l23 299l4 221h-135z" />
<glyph unicode="(" horiz-adv-x="634" d="M150 522q0 -309 89 -549.5t248 -371.5l76 43q-129 119 -200.5 344t-71.5 534t71.5 534.5t200.5 344.5l-76 43q-160 -131 -248.5 -372t-88.5 -550z" />
<glyph unicode=")" horiz-adv-x="634" d="M63 -356l76 -43q82 66 146.5 160t109.5 211.5t68.5 257t23.5 292.5q0 154 -23.5 293t-68.5 257t-109.5 212t-146.5 160l-76 -43q131 -119 207 -344.5t76 -534.5t-75.5 -534.5t-207.5 -343.5z" />
<glyph unicode="*" horiz-adv-x="882" d="M104 1092q113 -33 152 -35q23 -2 68 -10.5t116 -22.5q-49 -55 -77.5 -84t-51 -51.5t-44 -47t-56.5 -69.5l111 -82q33 45 50 75t31.5 58.5t33 65.5t55.5 98q37 -61 55 -98t32.5 -65.5t32 -58.5t50.5 -75l110 82q-35 45 -56.5 69.5t-44 47t-51 51.5t-77.5 84 q72 14 117 22.5t67 10.5q39 2 152 35l-43 133q-53 -20 -84 -33.5t-60.5 -27t-66.5 -32t-103 -49.5q8 72 14.5 113t11.5 72.5t8 65.5t5 89h-139q2 -55 5 -87.5t8 -65.5t11.5 -74t14.5 -113q-66 31 -102.5 49.5t-66.5 32t-60.5 26.5t-84.5 34z" />
<glyph unicode="+" horiz-adv-x="1245" d="M145 645h424v-479h107v479h424v107h-424v473h-107v-473h-424v-107z" />
<glyph unicode="," horiz-adv-x="540" d="M176 -236l60 -36q14 0 33.5 29.5t36 70.5t28.5 84t12 70v219l-80 -2h-84l2 -88q2 -39 1 -61.5t-3 -29.5q0 -12 27 -20h49q0 -31 -10 -72t-22.5 -77.5t-27 -61.5t-22.5 -25z" />
<glyph unicode="-" horiz-adv-x="632" d="M86 559h467v121h-467v-121z" />
<glyph unicode="." horiz-adv-x="487" d="M80 -2h160v201h-160v-201z" />
<glyph unicode="/" horiz-adv-x="649" d="M2 -16h119l489 1458h-118z" />
<glyph unicode="0" horiz-adv-x="946" d="M96 715q0 -172 22.5 -309.5t68.5 -231.5t118 -144t170 -50q100 0 173 50t119 144t68.5 231.5t22.5 309.5q0 174 -21.5 311t-67.5 231.5t-118.5 144.5t-173.5 50q-98 0 -171 -50t-119 -144.5t-68.5 -231.5t-22.5 -311zM242 715q0 147 12 263t40 197.5t73 124.5t108 43 t109.5 -43t74 -124.5t41 -197.5t13.5 -263q0 -145 -13.5 -261t-41 -198t-72.5 -125t-109 -43q-66 0 -109.5 43t-72.5 125t-41 197.5t-12 261.5z" />
<glyph unicode="1" horiz-adv-x="1032" d="M305 1147q72 29 137.5 65.5t124.5 77.5v-1179h-209v-111h555v111h-202v1316h-97q-74 -39 -151.5 -73.5t-157.5 -67.5v-139z" />
<glyph unicode="2" horiz-adv-x="1009" d="M104 0h768l7 406h-117v-289h-535q35 113 109 212t203 212q102 88 164.5 159.5t97.5 134t46 121t11 123.5q0 84 -24.5 152.5t-70.5 118t-110.5 76t-144.5 26.5q-184 0 -282.5 -117.5t-98.5 -322.5v-17h141v15q0 154 59.5 241.5t176.5 87.5q92 0 150.5 -73.5t58.5 -190.5 q0 -55 -10.5 -101t-42 -97.5t-90 -115t-152.5 -153.5q-76 -59 -130.5 -122.5t-91 -127t-58 -124t-34.5 -111.5v-123z" />
<glyph unicode="3" horiz-adv-x="1011" d="M94 420q6 -209 112.5 -324.5t293.5 -115.5q86 0 158.5 28.5t124 81.5t80 128t28.5 167q0 150 -77 244t-214 110q129 37 191.5 124t62.5 210q0 86 -25.5 155.5t-71.5 119t-110.5 77t-144.5 27.5q-172 0 -270.5 -104.5t-102.5 -290.5h143q2 135 59.5 208.5t155.5 73.5 q104 0 164 -73.5t60 -190.5q0 -135 -77 -209.5t-212 -74.5l-8 2v-115l35 4q141 0 221 -77t80 -218q0 -61 -19.5 -115.5t-54.5 -93.5t-82 -61.5t-102 -22.5q-113 0 -179.5 89t-74.5 237h-144z" />
<glyph unicode="4" horiz-adv-x="1019" d="M74 539l6 -140h510v-288h-191v-111h473v111h-155v288h217v107h-217v928h-154zM188 506l402 782v-782h-402z" />
<glyph unicode="5" horiz-adv-x="1005" d="M125 389q4 -92 31.5 -168t77 -130t116 -82.5t150.5 -28.5q92 0 166.5 33.5t127 96t80 150.5t27.5 199q0 100 -24.5 184t-70.5 143.5t-110.5 92t-144.5 32.5q-88 0 -163 -38.5t-124 -120.5l39 553h442l9 -179h100v301h-676l-47 -786l129 -25q41 92 106.5 139.5t147.5 47.5 q117 0 182.5 -96.5t65.5 -255.5q0 -162 -66.5 -260.5t-189.5 -98.5q-100 0 -162.5 78t-75.5 219h-143z" />
<glyph unicode="6" horiz-adv-x="1011" d="M127 682q0 -188 27.5 -321.5t80 -217.5t127 -123.5t170.5 -39.5q86 0 156 34.5t119 97t75.5 150t26.5 191.5q0 102 -23.5 186t-67.5 143.5t-106.5 92t-138.5 32.5q-106 0 -208 -78q-49 -39 -103 -131q2 293 60 463q59 180 221 180q100 2 154.5 -72.5t58.5 -197.5h139 q-6 186 -100.5 283.5t-247.5 97.5q-217 0 -318.5 -194.5t-101.5 -575.5zM272 436l17 -39l-2 45q-4 82 14 144.5t53 107.5q76 104 187 105q111 0 171 -94.5t60 -253.5q0 -162 -64.5 -262.5t-175.5 -100.5q-117 0 -194 127q-46 76 -66 221z" />
<glyph unicode="7" horiz-adv-x="1013" d="M121 1073h131v232h522q-86 -154 -151.5 -290t-114.5 -275.5t-83 -293t-58 -340.5l-82 3v-109h317v109l-86 -3q18 180 49 329t78 287t111.5 279.5t154.5 307.5v118h-788v-354z" />
<glyph unicode="8" horiz-adv-x="1009" d="M100 389q0 -92 29 -168t83 -130t130 -82.5t168 -28.5t166 28.5t127 82.5t81.5 130t28.5 170q0 137 -64.5 230.5t-211.5 123.5q135 33 195.5 117t60.5 213q0 174 -103.5 275.5t-281.5 101.5q-86 0 -156.5 -27.5t-121 -78t-78 -121t-27.5 -156.5q0 -119 61.5 -206 t190.5 -120q-135 -27 -206 -120t-71 -234zM242 399q0 137 70.5 215t199.5 78q119 0 190.5 -80t71.5 -215q0 -143 -72.5 -226t-197.5 -83q-123 0 -192.5 84t-69.5 227zM260 1071q0 123 68.5 199t185.5 76q111 0 177.5 -74t66.5 -197q0 -129 -66.5 -205.5t-179.5 -76.5 q-117 0 -184.5 76.5t-67.5 201.5z" />
<glyph unicode="9" horiz-adv-x="1011" d="M111 977q0 -102 23.5 -185t67.5 -143.5t105.5 -93.5t138.5 -33q106 0 209 78q27 20 51.5 53t51.5 80q-2 -150 -16.5 -265.5t-41.5 -199.5q-59 -180 -213 -180q-106 -2 -161.5 70.5t-61.5 201.5h-141q8 -186 102 -283t254 -97q215 0 314.5 196.5t99.5 573.5 q0 186 -27.5 320t-79 218t-127 124t-170.5 40q-86 0 -155.5 -34t-119.5 -96t-76.5 -150.5t-26.5 -194.5zM250 977q0 166 64.5 266t177.5 100q119 0 192 -129q46 -76 66 -223l-19 41l2 -45q4 -80 -14.5 -142.5t-52.5 -109.5q-78 -102 -185 -102q-111 0 -171 95t-60 249z" />
<glyph unicode=":" horiz-adv-x="589" d="M240 -2h159v201h-159v-201zM240 799h159v200h-159v-200z" />
<glyph unicode=";" horiz-adv-x="589" d="M201 -236l59 -36q14 0 33.5 29.5t36 70.5t29 84t12.5 70v219l-80 -2h-84l2 -88q2 -39 1 -61.5t-3 -29.5q0 -12 26 -20h50q0 -31 -10.5 -72t-22.5 -77.5t-26.5 -61.5t-22.5 -25zM236 799h159v200h-159v-200z" />
<glyph unicode="&#x3c;" horiz-adv-x="1245" d="M127 645l991 -483v114l-860 418l860 418v115l-991 -484v-98z" />
<glyph unicode="=" horiz-adv-x="1224" d="M131 446h954v107h-954v-107zM131 836h954v106h-954v-106z" />
<glyph unicode="&#x3e;" horiz-adv-x="1245" d="M129 162l991 483v98l-991 484v-115l860 -418l-860 -418v-114z" />
<glyph unicode="?" horiz-adv-x="862" d="M70 1063h143q2 125 57.5 198.5t153.5 73.5q104 0 159.5 -75.5t55.5 -188.5q0 -135 -71.5 -204.5t-188.5 -98.5q-25 -25 -38 -47.5t-20.5 -47t-9.5 -52t-2 -62.5l19 -203h112l13 150q4 59 11 93t44 71q156 70 215 171t59 238q0 70 -23.5 137.5t-67.5 118.5t-109.5 83 t-149.5 32q-88 0 -154.5 -28.5t-112.5 -80t-69.5 -122t-25.5 -156.5zM305 -2h154v195h-154v-195z" />
<glyph unicode="@" horiz-adv-x="1579" d="M158 401q0 -145 49 -276t138 -231.5t213 -159t271 -58.5q98 0 189.5 27t166.5 69t131 92t83 99l-68 29q-29 -47 -80 -90t-118.5 -78t-148.5 -55.5t-167 -20.5q-111 0 -216 48t-187 134t-132.5 204t-50.5 257q0 137 47.5 256t127 207t186 138t227.5 50q111 0 207 -42 t167 -112.5t110.5 -163.5t39.5 -196q0 -98 -27.5 -184t-69.5 -151.5t-92 -103.5t-93 -38q-23 0 -43 21q-10 14 -10 45l2 30l133 621h-96l-29 -125q-12 41 -36 70.5t-52.5 50t-59 30t-57.5 9.5q-90 0 -162.5 -44t-125 -115t-80 -160t-27.5 -181q0 -78 21.5 -138.5t57 -102.5 t82 -64.5t93.5 -22.5q41 0 80 13.5t71.5 35t58 47t42.5 50.5q12 -86 37.5 -117t54.5 -31q70 0 141.5 44t127.5 120t92 176.5t36 210.5q0 119 -44 225.5t-124 187.5t-189.5 129t-240.5 48q-139 0 -259 -59.5t-208 -157.5t-139 -227t-51 -269zM522 295q0 80 20.5 156.5 t59.5 138t92 99.5t119 38q37 0 69.5 -16.5t57.5 -43t39 -61.5t14 -74q0 -66 -18.5 -147.5t-54 -154t-87 -123t-116.5 -50.5q-35 0 -70 14.5t-62.5 44t-45 75t-17.5 104.5z" />
<glyph unicode="A" horiz-adv-x="1304" d="M-16 0h503v115h-192l115 393h493l115 -393h-189v-115h502v115h-157l-400 1194h88v118h-403v-118h88l-400 -1194h-163v-115zM444 621l215 704l207 -704h-422z" />
<glyph unicode="B" horiz-adv-x="1159" d="M43 0h602q205 0 315.5 105.5t110.5 302.5q0 141 -74.5 232t-210.5 112q106 20 170 106t64 205q0 178 -92 271t-266 93h-619v-114h195v-1198h-195v-115zM383 113v569h254q285 0 285 -279q0 -135 -82 -212.5t-224 -77.5h-233zM383 793v522h242q247 0 247 -246 q0 -133 -73.5 -204.5t-208.5 -71.5h-207z" />
<glyph unicode="C" horiz-adv-x="1349" d="M123 713q0 -168 40 -304.5t114.5 -231.5t183 -146t246.5 -51q219 0 366.5 120.5t188.5 374.5l-142 27q-35 -209 -140.5 -303.5t-258.5 -94.5q-104 0 -185 44.5t-138.5 124t-87 192.5t-29.5 252q0 141 29.5 253.5t87 191.5t139 122t186.5 43q76 0 142.5 -22.5t117.5 -70.5 t84 -120t39 -170l127 2v481h-121v-221q-66 123 -174.5 183.5t-237.5 60.5q-131 0 -237.5 -53.5t-182 -150.5t-116.5 -232t-41 -301z" />
<glyph unicode="D" horiz-adv-x="1331" d="M31 1313h202v-1198h-200v-115h559q174 0 298 52t202.5 147.5t114.5 225.5t36 288q0 166 -38 298t-116.5 224t-199.5 142t-287 50h-571v-114zM379 113v1202h219q248 0 372 -158t124 -455q0 -293 -124 -441t-380 -148h-211z" />
<glyph unicode="E" horiz-adv-x="1202" d="M33 1313h196v-1198h-194v-115h1067v399h-129v-286h-598v559h344v-111h94v334h-94v-111h-344v531h600v-275h127v387h-1069v-114z" />
<glyph unicode="F" horiz-adv-x="1069" d="M25 1313h196v-1198h-194v-115h557v115h-217v544h325v-112h94v330h-94l-2 -105h-323v543h551v-279h126v391h-1019v-114z" />
<glyph unicode="G" horiz-adv-x="1452" d="M111 715q0 -166 41 -302.5t116.5 -232.5t185 -148t248.5 -52q117 0 199 35.5t131 86t78 102.5t38 86t9 36v-328h125v575l90 -2v105h-530v-113h297q0 -104 -34 -189t-90.5 -145.5t-133 -93.5t-162.5 -33q-104 0 -187 43t-142.5 123t-91.5 192t-32 247q0 141 30 255.5 t86 195.5t137 126t183 45q76 0 146 -24.5t125 -72.5t91 -121t42 -171l127 -2v489h-127v-217q-29 55 -73 99.5t-97 75t-114.5 48t-123.5 17.5q-135 0 -243.5 -53.5t-185 -149.5t-117.5 -231t-41 -301z" />
<glyph unicode="H" horiz-adv-x="1370" d="M49 1313h189v-1198h-187v-115h524v115h-192v559h623v-559h-193v-115h526v115h-188v1198h186v114h-526v-114h195v-522h-623v522h190v114h-524v-114z" />
<glyph unicode="I" horiz-adv-x="587" d="M57 1313h193v-1198h-191v-115h527v115h-193v1198h191v114h-527v-114z" />
<glyph unicode="J" horiz-adv-x="716" d="M-49 -2q14 -117 68.5 -171t166.5 -54q174 0 253 93t79 286v1161h180v114h-540v-114h215v-1155q0 -137 -37 -202t-131 -65q-61 0 -104.5 44.5t-55.5 115.5v21q-27 -18 -48.5 -30.5t-45.5 -21.5v-22z" />
<glyph unicode="K" horiz-adv-x="1159" d="M2 1313h199v-1198h-197v-115h541v115h-199v639v559h197v114h-541v-114zM354 754l461 -639h-182v-115h520v115h-143l-521 647l502 551h127v114h-475v-114h170z" />
<glyph unicode="L" horiz-adv-x="1048" d="M33 1313h203v-1198h-201v-115h973v516h-140v-397h-487v1194h217v114h-565v-114z" />
<glyph unicode="M" horiz-adv-x="1669" d="M51 0h500v115h-178v1231l424 -1346h73l428 1343l5 -1228h-187v-115h514v115h-190l-4 1198h194v114h-432l-356 -1208l-355 1208h-436v-114h197l4 -1198h-201v-115z" />
<glyph unicode="N" horiz-adv-x="1386" d="M39 0h528v115h-205v1173l635 -1298h177l-5 1323h197v114h-520v-114h203v-1145l-609 1259h-401v-114h199l4 -1198h-203v-115z" />
<glyph unicode="O" horiz-adv-x="1431" d="M109 715q0 -164 44 -299t123.5 -232.5t192.5 -150.5t250 -53t249.5 53t192.5 150.5t124 232.5t44 299t-44 299t-124 232t-192.5 150.5t-249.5 53.5t-250 -53.5t-192.5 -150.5t-123.5 -232t-44 -299zM264 715q0 137 32 250.5t91 195.5t143 127t189 45q104 0 188 -45 t143.5 -127t91.5 -195.5t32 -250.5t-32 -251t-91.5 -196t-143.5 -127t-188 -45t-188.5 45t-143.5 127t-91 196t-32 251z" />
<glyph unicode="P" horiz-adv-x="1091" d="M37 0h563v115h-219v473h291q86 0 154.5 29.5t117.5 84t74.5 132t25.5 174.5q0 205 -102 312t-299 107h-606v-114h199v-1198h-199v-115zM381 700v615h217q160 0 229.5 -74t69.5 -240q0 -301 -281 -301h-235z" />
<glyph unicode="Q" horiz-adv-x="1431" d="M86 715q0 -164 44 -299t124 -232.5t192.5 -150.5t249.5 -53h13h-13q2 0 29 -3.5t68 -9.5t88 -14t89 -15.5t72.5 -13.5t36.5 -8q68 -23 139.5 -32t147.5 -9l20 2l19 117l-27 -4q-121 0 -250 37q-33 10 -66.5 17t-70.5 11q90 57 148 127q168 205 168 533q0 164 -44 299 t-124 232t-192.5 150.5t-250.5 53.5q-137 0 -249.5 -53.5t-192.5 -150.5t-124 -232t-44 -299zM242 715q0 137 31.5 250.5t91 195.5t143.5 127t188 45t188.5 -45t143.5 -127t91 -195.5t32 -250.5t-32 -251t-91 -196t-143 -127t-189 -45q-104 0 -188 45t-143.5 127t-91 196 t-31.5 251z" />
<glyph unicode="R" horiz-adv-x="1169" d="M25 0h553v115h-199v555h203q39 -18 74.5 -52t70.5 -87.5t67.5 -132.5t67.5 -185l68 -213h254v115h-166l-53 186q-27 68 -50.5 121t-50 100t-58.5 91t-75 92q150 16 226.5 116.5t76.5 245.5q0 174 -90 267t-256 93h-663v-114h208v-1198h-208v-115zM379 782v533h274 q233 0 234 -258q0 -274 -273 -275h-235z" />
<glyph unicode="S" horiz-adv-x="1026" d="M88 2h125v186q47 -111 138 -159.5t198 -48.5q86 0 158.5 29.5t125 82.5t82 127t29.5 162q0 80 -17.5 143.5t-62.5 113.5t-119.5 90t-187.5 75q-68 20 -126 44.5t-101 57.5t-68.5 77t-25.5 105q0 111 65.5 178.5t169.5 67.5q137 0 218 -89t81 -230v-13l125 -2v428h-125 v-141q-49 86 -133 125t-182 39q-82 0 -149.5 -26.5t-116 -75t-75 -116t-26.5 -147.5t20.5 -140t64.5 -107t115.5 -85t176.5 -71q86 -29 147.5 -56.5t101.5 -61.5t59.5 -80t19.5 -109q0 -123 -72 -199t-189 -76q-70 0 -128 28t-101 77t-66.5 115.5t-23.5 144.5v24h-125v-487z " />
<glyph unicode="T" horiz-adv-x="1183" d="M57 975h129v330h332v-1190h-209v-115h563v115h-208v1190h327v-330h129v452h-1063v-452z" />
<glyph unicode="U" horiz-adv-x="1273" d="M8 1313h180v-862q0 -109 31 -196t89.5 -148.5t140 -94t184.5 -32.5q217 0 334.5 129t117.5 364v840h181v114h-514v-114h198v-840q0 -180 -78.5 -275.5t-232.5 -95.5q-150 0 -227.5 95.5t-77.5 269.5v846h198v114h-524v-114z" />
<glyph unicode="V" horiz-adv-x="1269" d="M-12 1313h149l430 -1321h138l430 1321h149v114h-481v-114h190l-346 -1149l-354 1149h194v114h-499v-114z" />
<glyph unicode="W" horiz-adv-x="1802" d="M-6 1313h147l293 -1321h168l291 1333l313 -1333h164l291 1321h143v114h-469v-114h195l-236 -1161l-274 1169l84 -2v108h-391v-108l80 2l-267 -1163l-237 1155h192v114h-487v-114z" />
<glyph unicode="X" horiz-adv-x="1290" d="M27 0h532v115h-205l295 510l287 -510h-201v-115h547v115h-168l-371 633l328 565h170v114h-510v-114h182l-256 -457l-256 457h181v114h-529v-114h174l338 -580l-368 -618h-170v-115z" />
<glyph unicode="Y" horiz-adv-x="1181" d="M-12 1313h147l383 -701v-497h-211v-115h572v115h-215v497l389 701h141v114h-479v-114h186l-299 -572l-299 572h193v114h-508v-114z" />
<glyph unicode="Z" horiz-adv-x="1099" d="M66 0h962v401h-127v-286h-672l779 1181v131h-912v-385h129v271h613l-772 -1176v-137z" />
<glyph unicode="[" horiz-adv-x="630" d="M221 -399h332v102h-191l-10 -2v1642l10 -2h191v103h-332v-1843z" />
<glyph unicode="\" horiz-adv-x="882" d="M84 1442l504 -1454h117l-504 1454h-117z" />
<glyph unicode="]" horiz-adv-x="645" d="M94 -297v-102h332v1843h-332v-103h191l10 2v-1642l-10 2h-191z" />
<glyph unicode="^" horiz-adv-x="1228" d="M168 618l94 -28l352 710l353 -710l94 28l-418 822h-57z" />
<glyph unicode="_" horiz-adv-x="890" d="M0 -332v-117h922v117h-922z" />
<glyph unicode="`" horiz-adv-x="563" d="M98 1462l221 -301h87l-179 299z" />
<glyph unicode="a" horiz-adv-x="978" d="M96 289q0 -68 18.5 -124t54.5 -97t86 -64.5t114 -23.5q94 0 177 51t134 145v-176h297v111h-166v622q0 313 -338 314q-154 0 -238.5 -75t-111.5 -204l127 -10q16 82 68.5 136t156.5 54q100 0 152.5 -54t52.5 -177v-148q-63 20 -123.5 28.5t-110.5 8.5q-174 0 -262 -84 t-88 -233zM238 285q0 106 60 165.5t191 59.5q59 0 101.5 -12.5t89.5 -36.5v-88q-16 -61 -42 -115.5t-62.5 -93.5t-81.5 -61.5t-97 -22.5q-80 0 -119.5 59.5t-39.5 145.5z" />
<glyph unicode="b" horiz-adv-x="1116" d="M35 0h309v197q49 -111 130 -160t167 -49q98 0 176 37.5t131 107.5t82 168t29 221q0 119 -27.5 216.5t-79 166t-127 105.5t-170.5 37q-82 0 -168 -50.5t-143 -171.5v602h-305v-106h170v-1210h-174v-111zM340 518q0 94 21.5 172t61.5 133.5t94 86t120 30.5 q63 0 115.5 -30.5t89.5 -86t57.5 -133.5t20.5 -170q0 -96 -20.5 -174t-57.5 -133t-91.5 -86t-121.5 -31q-137 0 -213 108.5t-76 313.5z" />
<glyph unicode="c" horiz-adv-x="913" d="M80 506q0 -119 29.5 -216t85 -166t134.5 -106.5t177 -37.5q137 0 236.5 87t123.5 246l-121 19q-23 -100 -85 -169t-154 -69q-66 0 -117 31t-88 85t-56.5 131t-19.5 169q0 197 72 309.5t203 112.5q98 0 165.5 -80t67.5 -217l109 2v381h-109v-133q-37 74 -102.5 118 t-159.5 44q-86 0 -158.5 -40t-124 -113t-80 -172t-28.5 -216z" />
<glyph unicode="d" horiz-adv-x="1103" d="M82 512q0 -117 27.5 -213t80 -164.5t126 -107.5t165.5 -39t177.5 51t132.5 168v-207h309v111h-174v1316h-320v-106h182v-490q-59 121 -144 168.5t-167 47.5q-92 0 -165.5 -38t-124 -109t-78 -169t-27.5 -219zM217 518q0 92 21.5 169t59.5 133.5t91 88t115 31.5 q63 0 116.5 -30.5t91.5 -87t58.5 -136.5t20.5 -178q0 -92 -19.5 -169t-56.5 -132t-89.5 -85t-117.5 -30q-66 0 -119 32t-92 88t-59.5 135t-20.5 171z" />
<glyph unicode="e" d="M94 506q0 -121 31 -218.5t87 -166t139 -105t188 -36.5q68 0 131 21.5t116.5 60t92.5 95t57 124.5l-121 20q-12 -41 -38.5 -80t-62.5 -70.5t-79 -51t-90 -19.5q-150 0 -232 117q-78 109 -84 284h592l123 -2q-6 295 -112.5 431.5t-299.5 136.5q-96 0 -176 -36t-138 -105.5 t-91 -170t-33 -229.5zM231 586q14 143 80 239q82 119 211 119q125 0 199 -97t80 -263l-33 2h-537z" />
<glyph unicode="f" horiz-adv-x="505" d="M14 0h498v111h-197v800h177v107h-177v149q0 100 32 135t89 35q31 0 58.5 -17t42 -31.5l16.5 -16.5l47 76l-14 16q-13 16 -36.5 36.5t-56 37t-69.5 16.5q-119 0 -182.5 -74.5t-63.5 -216.5v-145h-139v-107h139v-800h-164v-111z" />
<glyph unicode="g" horiz-adv-x="1103" d="M76 518q0 -121 27.5 -218t80 -167t127 -107.5t168.5 -37.5q98 0 180.5 50t137.5 163v-172q0 -344 -281 -344q-88 0 -144.5 37.5t-82.5 99.5l-127 -35q72 -213 346 -213q203 0 313.5 115.5t110.5 333.5v897h164v98l-312 2v-203q-61 127 -138 177t-167 50 q-92 0 -165.5 -38.5t-127 -108.5t-82 -166t-28.5 -213zM219 510q0 92 20.5 169t59.5 132t91 86t118 31q63 0 116.5 -32t91.5 -89t59.5 -134t21.5 -169q0 -88 -22.5 -163t-61.5 -130t-94.5 -86t-118.5 -31q-66 0 -117 31t-88 85t-56.5 131t-19.5 169z" />
<glyph unicode="h" horiz-adv-x="1060" d="M41 0h479v111h-168v573q37 111 108.5 180.5t151.5 69.5q86 0 119 -56.5t33 -175.5v-591h-174v-111h477v111h-166v641q0 141 -62.5 218t-185.5 77q-88 0 -165.5 -43t-135.5 -125v548h-311v-106h174v-1210h-174v-111z" />
<glyph unicode="i" horiz-adv-x="559" d="M61 0h469v111h-163v907h-306v-107h170v-800h-170v-111zM199 1208h159v201h-159v-201z" />
<glyph unicode="j" horiz-adv-x="493" d="M6 -266v-113l86 -10q141 0 198.5 76.5t57.5 220.5v1110h-317v-107h180v-983q0 -117 -30.5 -160.5t-102.5 -43.5zM199 1208h159v201h-159v-201z" />
<glyph unicode="k" horiz-adv-x="999" d="M37 1321h176v-1210h-174v-111h475v111h-164v292l103 95l313 -392h-123v-106h379v113h-121l-373 465l344 333h136v107h-443v-107h156l-371 -360v876h-313v-106z" />
<glyph unicode="l" horiz-adv-x="530" d="M29 1321h174v-1210h-172v-111h475v111h-168v1316h-309v-106z" />
<glyph unicode="m" horiz-adv-x="1568" d="M33 911h176v-800h-172v-111h469v111h-162v573q37 117 106.5 183.5t149.5 66.5q72 0 104.5 -51.5t32.5 -151.5v-620h-164v-111h463v111h-162v579q41 111 108 177.5t148 66.5q72 0 104 -51.5t32 -151.5v-620h-166v-111h454v111h-153v641q0 141 -64.5 218t-187.5 77 q-39 0 -81 -13.5t-81 -40t-72.5 -63.5t-54.5 -82q-23 92 -80 145.5t-145 53.5q-86 0 -166 -45.5t-125 -143.5v160h-311v-107z" />
<glyph unicode="n" horiz-adv-x="1048" d="M25 0h477v111h-162v573q37 111 107.5 180.5t150.5 69.5q82 0 114.5 -56.5t32.5 -175.5v-591h-170v-111h467v111h-159v641q0 141 -62.5 218t-179.5 77q-92 0 -170 -43t-131 -148v162h-313v-107h176v-800h-178v-111z" />
<glyph unicode="o" d="M80 512q0 -117 30.5 -215t87 -169t135.5 -109.5t177 -38.5t177 38.5t136.5 109.5t88 169t30.5 215q0 119 -30.5 217t-87 169t-136.5 110t-178 39t-177 -39t-135.5 -110t-87 -169t-30.5 -217zM221 512q0 193 77 308.5t212 115.5q137 0 214 -115.5t77 -308.5 q0 -190 -77 -306t-214 -116q-135 0 -212 116t-77 306z" />
<glyph unicode="p" horiz-adv-x="1095" d="M8 -272v-111h486v111h-175v471q57 -123 138.5 -171t167.5 -48q94 0 168.5 37.5t126 108.5t79 171t27.5 223q0 117 -26.5 214t-78 167t-123 108t-161.5 38q-41 0 -84 -11.5t-84 -38t-80 -71.5t-70 -113v205h-301v-107h164v-1183h-174zM317 514v10q0 193 80 304.5 t211 111.5q135 0 211 -117.5t76 -310.5q0 -92 -20.5 -170t-57.5 -134t-90 -88t-117 -32q-68 0 -122 29.5t-92 85t-58.5 134.5t-20.5 177z" />
<glyph unicode="q" horiz-adv-x="964" d="M80 512q0 -109 25.5 -201t73.5 -160.5t117 -111.5t155 -55q25 -123 96.5 -183.5t163.5 -60.5q94 0 165.5 62.5t96.5 187.5h-82q-23 -82 -71 -119t-109 -37q-59 0 -106.5 35t-72.5 111q92 6 168 47t130.5 110.5t83 164.5t28.5 210q0 119 -30.5 217t-87 169t-136.5 110 t-178 39t-177 -39t-135.5 -110t-87 -169t-30.5 -217zM221 512q0 193 77 308.5t212 115.5q137 0 214 -115.5t77 -308.5q0 -190 -77 -306t-214 -116q-135 0 -212 116t-77 306z" />
<glyph unicode="r" horiz-adv-x="704" d="M45 0h516v111h-201v428q0 193 70 284.5t229 91.5l29 -4v129h-8q-59 0 -107.5 -11t-87.5 -38.5t-69.5 -75t-55.5 -120.5v223h-315v-107h178v-800h-178v-111z" />
<glyph unicode="s" horiz-adv-x="897" d="M88 2h113v145q49 -98 119.5 -132.5t158.5 -34.5q147 0 236.5 84t89.5 221q0 61 -13.5 110t-47 86t-95 63.5t-155.5 43.5q-74 12 -121 26.5t-74 35t-37 48t-10 66.5q0 74 48 125t136 51q106 0 168 -68.5t64 -179.5h110v332h-110v-115q-41 72 -104.5 105t-145.5 33 q-61 0 -115.5 -20.5t-94.5 -57.5t-62.5 -91.5t-22.5 -121.5q0 -141 73.5 -204t227.5 -85q76 -12 125 -27.5t76.5 -37t38 -51t10.5 -72.5q0 -88 -60.5 -142.5t-146.5 -54.5q-123 0 -190.5 71.5t-75.5 200.5h-113v-352z" />
<glyph unicode="t" horiz-adv-x="573" d="M10 911h146v-688q0 -123 50 -181t163 -58q86 0 136 49t62 131l-65 47q-25 -119 -111 -119q-51 0 -74.5 29.5t-23.5 97.5v692h225v107h-225v287l-137 -74v-213h-146v-107z" />
<glyph unicode="u" horiz-adv-x="1060" d="M25 911h168v-616q0 -156 56 -231.5t185 -75.5q94 0 172 45t125 137v-170h305v111h-168v907h-311v-107h174v-544q-18 -59 -46 -108.5t-62.5 -85.5t-74.5 -56.5t-83 -20.5q-76 0 -105.5 56.5t-29.5 173.5v692h-305v-107z" />
<glyph unicode="v" horiz-adv-x="980" d="M10 911h133l289 -919h139l279 919h129v107h-416v-107h154l-213 -792l-217 792h153v107h-430v-107z" />
<glyph unicode="w" horiz-adv-x="1511" d="M20 911h125l236 -919h145l234 907l233 -907h137l242 919h127v107h-416v-107h154l-176 -766l-213 871h10q12 0 4 1t-49 1h-139l-6 -45l-211 -836l-174 774h147v107h-410v-107z" />
<glyph unicode="x" horiz-adv-x="1003" d="M33 0h416v111h-152l211 323l219 -323h-141v-111h411v111h-114l-295 409l272 391h117v107h-395v-107h135l-195 -303l-196 303h131v107h-406v-107h117l274 -383l-292 -417h-117v-111z" />
<glyph unicode="y" horiz-adv-x="1005" d="M18 911h132l317 -899l-72 -233q-22 -62 -55 -62h-4l-152 9v-115l181 -6h6q35 0 63 21q31 24 58 106l387 1179h120v107h-421v-107h161l-213 -733l-229 733h162v107h-441v-107z" />
<glyph unicode="z" horiz-adv-x="921" d="M96 0h731v362h-114v-251h-484l596 796v111h-696v-342h115v233h426l-574 -794v-115z" />
<glyph unicode="{" horiz-adv-x="593" d="M86 494q82 -8 119 -72t37 -180v-359q0 -61 11 -112.5t38.5 -89t74 -59t113.5 -21.5h35v51h8q-37 0 -66.5 11t-49 39t-29.5 75t-10 119v325q0 135 -45.5 207t-118.5 94q74 23 119 94.5t45 206.5v326q0 72 10 118t29.5 73.5t49 40t66.5 12.5h-8v51h-35q-68 0 -114 -21.5 t-73.5 -59.5t-38.5 -89t-11 -113v-358q0 -117 -37 -180.5t-119 -71.5v-57z" />
<glyph unicode="|" horiz-adv-x="1183" d="M528 -227h117v1669h-117v-1669z" />
<glyph unicode="}" horiz-adv-x="593" d="M82 -348h10v-51h33q68 0 113 21.5t71.5 59t37.5 89t11 112.5v359q0 117 35 180t113 72v57q-78 8 -113 71.5t-35 180.5v358q0 61 -11 112.5t-37.5 89.5t-71.5 59.5t-113 21.5h-33v-51h-10q37 0 65.5 -12.5t48 -40t28.5 -73.5t9 -118v-326q0 -135 43 -206.5t115 -94.5 q-72 -23 -115 -94.5t-43 -206.5v-325q0 -72 -9 -119t-28.5 -75t-48 -39t-65.5 -11z" />
<glyph unicode="~" horiz-adv-x="1232" d="M125 676q43 -41 43 -60q-2 -6 -2 -12t-2 -14q57 68 112.5 107.5t118.5 39.5q55 0 213 -75q78 -39 138.5 -56.5t101.5 -17.5q49 0 90 15t73.5 40t59.5 55.5t49 61.5q-45 45 -45 59q2 8 2 15q0 6 2 12q-63 -68 -114.5 -108t-116.5 -40q-29 0 -83 17.5t-132 56.5 q-158 76 -238 76q-49 0 -89 -15.5t-72.5 -40t-60.5 -55t-48 -61.5z" />
<glyph unicode="&#xa1;" horiz-adv-x="589" d="M250 -391h158l-11 479l-24 592h-94l-21 -588zM250 844h153v194h-153v-194z" />
<glyph unicode="&#xa2;" horiz-adv-x="970" d="M113 504q0 -238 112 -381q63 -84 178 -123l-45 -317h76l43 303q10 -2 24.5 -3t33.5 -1q137 0 235 87t123 246l-121 19q-23 -100 -84 -169t-153 -69q-14 0 -23.5 1t-17.5 3l114 807q27 -10 47.5 -26.5t36.5 -36.5q68 -80 68 -217l108 2v381h-108v-133q-37 72 -103 116 q-8 4 -15 9.5t-17 9.5l43 309h-76l-41 -287q-10 2 -23.5 3t-27.5 1q-86 0 -158 -40t-122 -111.5t-78.5 -168.5t-28.5 -214zM258 508q0 193 70.5 304.5t199.5 111.5h7l-113 -799q-57 35 -90 86q-74 113 -74 297z" />
<glyph unicode="&#xa3;" horiz-adv-x="983" d="M61 106q0 -51 36 -86.5t87 -35.5q10 0 15 2q-6 -23 -9 -33l-4 -10l4 11q5 11 11 32q33 4 57.5 22t36.5 47q123 -31 262 -47t274 -16q29 0 49.5 42t20.5 109v189h-119v-109q0 -29 -2 -51t-4 -37q-4 -29 -20 -29q-92 0 -174 22t-168 58l10 86l-2 416h211v115h-209 q-14 74 -30.5 148.5t-16.5 135.5q0 129 49 189.5t135 60.5q94 0 137 -65q16 -27 28.5 -59.5t8.5 -71.5l-2 -31h141v27q0 137 -75 221q-82 94 -242 94q-80 0 -141.5 -27.5t-101.5 -79t-60.5 -121t-20.5 -153.5q0 -37 3.5 -68.5t9.5 -62.5t14 -63.5t21 -73.5h-195v-115h197 l8 -139l-4 -338q-2 2 -15 -21q-16 16 -38.5 27.5t-49.5 11.5q-51 0 -87 -35.5t-36 -87.5z" />
<glyph unicode="&#xa4;" horiz-adv-x="1349" d="M-16 518h153q41 -252 188.5 -395t381.5 -143q219 0 366.5 120.5t188.5 374.5l-142 27q-35 -209 -140.5 -303.5t-258.5 -94.5q-168 0 -276.5 111t-145.5 303h762v86h-774q-6 51 -6 113q0 59 6 114h774v87h-762q37 193 145.5 301t278.5 108q76 0 142.5 -22.5t117.5 -70.5 t84 -120t39 -170l127 2v481h-121v-221q-66 123 -174.5 183.5t-237.5 60.5q-111 0 -202.5 -38t-163.5 -106.5t-121 -167t-72 -220.5h-157v-87h145q-6 -59 -6 -118q0 -29 1 -55.5t3 -53.5h-143v-86z" />
<glyph unicode="&#xa5;" horiz-adv-x="1013" d="M-49 1313h149l181 -391h-301v-93h344l92 -196h-436v-92h452v-426h-211v-115h570v115h-216v426h455v92h-440l96 196h344v93h-299l189 391h145v114h-481v-114h184q-49 -113 -81 -184.5t-57.5 -130t-51 -116t-62.5 -141.5q-61 143 -123.5 285.5t-124.5 286.5h191v114h-508 v-114z" />
<glyph unicode="&#xa6;" horiz-adv-x="1183" d="M528 -227h117v669h-117v-669zM528 770h117v672h-117v-672z" />
<glyph unicode="&#xa7;" horiz-adv-x="909" d="M88 588q0 -55 14.5 -98.5t44 -80t76.5 -69.5t113 -70l115 -63q109 -59 164 -109.5t55 -128.5q0 -49 -17.5 -87t-46 -62.5t-63.5 -36.5t-68 -12q-92 0 -149.5 58t-61.5 187l-147 -4q0 -94 27.5 -160.5t75.5 -108.5t111.5 -61.5t137.5 -19.5t135.5 21.5t107.5 61.5 t71.5 98.5t25.5 131.5q0 86 -39.5 153t-107.5 112q74 43 119.5 116.5t45.5 167.5q0 55 -14 98.5t-44 80t-77 69.5t-112 70l-115 63q-109 59 -164 109.5t-55 128.5q0 49 17.5 87t46 62.5t62.5 36.5t68 12q92 0 149.5 -58t61.5 -187l148 4q0 94 -28 160.5t-76 108.5 t-111.5 61.5t-137.5 19.5t-135 -21.5t-107 -61.5t-72 -98.5t-26 -131.5q0 -86 40 -152.5t108 -112.5q-74 -43 -120 -116.5t-46 -167.5zM227 610q0 68 31 124t78 89l213 -112q82 -43 110.5 -90.5t28.5 -118.5q0 -66 -30.5 -122t-75.5 -91l-215 114q-82 43 -111 90.5 t-29 116.5z" />
<glyph unicode="&#xa8;" horiz-adv-x="626" d="M47 1122h156v156h-156v-156zM420 1122h155v156h-155v-156z" />
<glyph unicode="&#xa9;" horiz-adv-x="1505" d="M82 655q0 -141 53 -265t146.5 -216t217.5 -145.5t265 -53.5t265 53.5t216 145.5t145.5 216t53.5 265t-53.5 265t-146.5 216.5t-217 145.5t-265 53t-265 -53t-216.5 -145.5t-145.5 -216t-53 -265.5zM172 655q0 123 46 230.5t127 187.5t188.5 126t230.5 46t230.5 -46 t187.5 -126t126 -187.5t46 -230.5t-46 -230.5t-127 -187t-188.5 -125.5t-230.5 -46t-230.5 46t-187.5 125.5t-126 187t-46 230.5zM401 653q0 -92 27 -165.5t76 -126t116.5 -80t147.5 -27.5q123 0 211 64.5t119 170.5l-33 5l-66 26q-20 -78 -81.5 -130t-147.5 -52 q-61 0 -109.5 25.5t-82 68.5t-51 100.5t-17.5 122.5q0 66 18.5 123.5t52 100.5t84 67.5t111.5 24.5q86 0 141.5 -47t67.5 -113l72 20h35q-12 39 -37 77t-65 68t-93 48t-121 18q-86 0 -154.5 -29.5t-117.5 -81.5t-76 -124t-27 -154z" />
<glyph unicode="&#xaa;" horiz-adv-x="616" d="M96 1016q0 -74 43 -124t119 -50q55 0 104 28.5t78 81.5v-98h176v61h-98v349q0 176 -199 176q-92 0 -141 -42t-65 -114l73 -6q10 47 41 76.5t92 29.5q59 0 90 -30.5t31 -98.5v-81l-137 20q-100 0 -153.5 -46t-53.5 -132zM180 1014q0 125 148 125q37 0 61.5 -6.5 t50.5 -20.5v-49q-18 -70 -61 -117t-105 -47q-47 0 -70.5 33t-23.5 82z" />
<glyph unicode="&#xab;" horiz-adv-x="946" d="M106 524l216 -467h122l-204 467l206 467h-122zM506 524l215 -467h123l-205 467l207 467h-123z" />
<glyph unicode="&#xac;" horiz-adv-x="1245" d="M150 842h847v-498h107v604h-954v-106z" />
<glyph unicode="&#xad;" horiz-adv-x="632" d="M86 559h467v121h-467v-121z" />
<glyph unicode="&#xae;" horiz-adv-x="1505" d="M82 655q0 -141 53 -265t146.5 -216t217.5 -145.5t265 -53.5t265 53.5t216 145.5t145.5 216t53.5 265t-53.5 265t-146.5 216.5t-217 145.5t-265 53t-265 -53t-216.5 -145.5t-145.5 -216t-53 -265.5zM172 655q0 123 46 230.5t127 187.5t188.5 126t230.5 46t230.5 -46 t187.5 -126t126 -187.5t46 -230.5t-46 -230.5t-127 -187t-188.5 -125.5t-230.5 -46t-230.5 46t-187.5 125.5t-126 187t-46 230.5zM483 352l4 -53v-27h97v27l6 53v256h119q51 0 135 -110q88 -119 131 -226l127 -10q-16 37 -48 96.5t-69 114.5t-72.5 97t-56.5 46 q111 8 170 61.5t59 153.5q0 86 -59 145.5t-199 59.5h-340v-26l-4 -54v-604zM590 692v264h196q92 0 140.5 -26.5t48.5 -102.5q0 -61 -44 -98t-163 -37h-178z" />
<glyph unicode="&#xaf;" horiz-adv-x="542" d="M14 1268h527v75h-527v-75z" />
<glyph unicode="&#xb0;" horiz-adv-x="743" d="M109 1153q0 -55 21.5 -103.5t57 -84t85 -57t104.5 -21.5t103 21.5t84 57t57.5 85t21.5 104.5t-21.5 103.5t-57.5 84t-85 57t-104 21.5t-103.5 -21.5t-84 -57t-57 -85t-21.5 -104.5zM193 1155q0 37 14 71t38.5 58.5t58.5 38.5t73 14q37 0 70.5 -14t58 -38.5t39 -58.5 t14.5 -73q0 -37 -14.5 -70.5t-39 -58.5t-58 -39t-72.5 -14q-37 0 -71 14t-58.5 39t-38.5 58.5t-14 72.5z" />
<glyph unicode="&#xb1;" horiz-adv-x="1245" d="M145 0h955v109h-955v-109zM145 723h424v-475h109v475h422v108h-422v474h-109v-474h-424v-108z" />
<glyph unicode="&#xb2;" horiz-adv-x="604" d="M61 641h484l4 227h-74v-161h-336q23 63 68 117.5t129 119.5q63 49 103 88t61.5 75t29 68.5t7.5 69.5q0 94 -60.5 151.5t-161.5 57.5q-117 0 -178 -64.5t-61 -181.5v-10h90v8q0 86 38 135.5t109 49.5q57 0 94 -41t37 -107q0 -31 -6 -56.5t-26.5 -54t-56.5 -64.5t-95 -87 q-96 -66 -140 -139.5t-59 -130.5v-70z" />
<glyph unicode="&#xb3;" horiz-adv-x="604" d="M66 877q4 -117 71.5 -182.5t184.5 -65.5q111 0 178 61.5t67 165.5q0 86 -48 138.5t-134 60.5q80 20 120 69.5t40 116.5q0 98 -59.5 155.5t-163.5 57.5q-106 0 -169 -58.5t-65 -162.5h90q2 74 38 116t97 42q66 0 104 -41t38 -107q0 -76 -48.5 -118t-140.5 -40v-65l23 2 q92 0 141 -43t49 -121q0 -70 -47 -117t-117 -47t-111.5 48.5t-47.5 134.5h-90z" />
<glyph unicode="&#xb4;" horiz-adv-x="565" d="M172 1161h84l223 301l-131 -2z" />
<glyph unicode="&#xb5;" horiz-adv-x="1071" d="M35 911h168v-1294h137v436q20 -27 51 -46t80 -19q86 0 155.5 45t108.5 137v-170h305v111h-168v907h-311v-107h174v-544q-35 -117 -106.5 -194t-157.5 -77q-76 0 -103.5 56.5t-27.5 173.5v692h-305v-107z" />
<glyph unicode="&#xb6;" horiz-adv-x="1069" d="M84 1040q0 -86 25.5 -158.5t73.5 -126t116 -84t154 -32.5v-987h120v1644h158v-1644h121v1642h186v133h-557q-90 0 -162.5 -27.5t-125 -77.5t-81 -122t-28.5 -160z" />
<glyph unicode="&#xb8;" horiz-adv-x="575" d="M102 -410q12 -4 37 -11t54 -7q119 0 185 46t66 134q0 70 -36.5 110t-102.5 40l-29 -6l58 108h-64l-77 -170l4 -14l34 10q45 0 74 -24.5t29 -63.5q0 -51 -39 -77.5t-105 -26.5q-25 0 -49 8l-24 8z" />
<glyph unicode="&#xb9;" horiz-adv-x="604" d="M150 1284q45 14 85.5 35.5t77.5 44.5v-662h-131v-61h350v61h-129v738h-59l-194 -78v-78z" />
<glyph unicode="&#xba;" horiz-adv-x="634" d="M90 1141q0 -131 68.5 -215t185.5 -84t185.5 84t68.5 215q0 135 -68.5 217t-185.5 82t-185.5 -82t-68.5 -217zM172 1141q0 111 46 174t126 63t125 -63t45 -174q0 -106 -45 -171t-125 -65t-126 64.5t-46 171.5z" />
<glyph unicode="&#xbb;" horiz-adv-x="946" d="M98 991l205 -467l-203 -467h121l215 467l-217 467h-121zM498 991l204 -467l-202 -467h121l215 467l-218 467h-120z" />
<glyph unicode="&#xbc;" horiz-adv-x="1546" d="M68 1284q45 14 86 35.5t77 44.5v-662h-131v-61h351v61h-129v738h-60l-194 -78v-78zM295 0h84l878 1442h-83zM911 301l17 -78h309v-162h-121v-61h299v61h-98v162h137v60h-137v520h-96zM983 283l254 438v-438h-254z" />
<glyph unicode="&#xbd;" horiz-adv-x="1546" d="M68 1284q45 14 86 35.5t77 44.5v-662h-131v-61h351v61h-129v738h-60l-194 -78v-78zM260 0h84l879 1442h-84zM1004 0h483l4 227h-74v-161h-336q23 63 68 117.5t129 119.5q63 49 103 88t61.5 75t29 68.5t7.5 69.5q0 94 -60.5 151.5t-161.5 57.5q-117 0 -178 -64.5 t-61 -181.5v-10h90v8q0 86 38 135.5t109 49.5q57 0 94 -41t37 -107q0 -31 -6 -56.5t-26.5 -54t-56 -64.5t-95.5 -87q-96 -66 -140 -139.5t-58 -130.5v-70z" />
<glyph unicode="&#xbe;" horiz-adv-x="1546" d="M51 877q4 -117 71.5 -182.5t184.5 -65.5q111 0 178.5 61.5t67.5 165.5q0 86 -48 138.5t-134 60.5q80 20 119.5 69.5t39.5 116.5q0 98 -59 155.5t-164 57.5q-106 0 -168.5 -58.5t-64.5 -162.5h90q2 74 38 116t97 42q66 0 103.5 -41t37.5 -107q0 -76 -48 -118t-140 -40v-65 l22 2q92 0 141.5 -43t49.5 -121q0 -70 -47 -117t-117 -47t-112 48.5t-48 134.5h-90zM369 0h84l878 1442h-84zM985 301l16 -78h310v-162h-121v-61h299v61h-98v162h137v60h-137v520h-97zM1057 283l254 438v-438h-254z" />
<glyph unicode="&#xbf;" horiz-adv-x="860" d="M88 -41q0 -72 23.5 -138.5t67.5 -117.5t109.5 -83t149.5 -32q88 0 156 29t114 80t69.5 121.5t25.5 156.5h-144q-2 -125 -58 -198.5t-155 -73.5q-100 0 -157.5 76t-57.5 188q0 135 72 205t191 98q25 25 38 47.5t20 47t9 52t2 62.5l-18 201h-113l-12 -148q-2 -31 -4 -53 t-7.5 -40.5t-16.5 -35t-30 -34.5q-154 -70 -214 -171.5t-60 -238.5zM414 846h153v194h-153v-194z" />
<glyph unicode="&#xc0;" horiz-adv-x="1304" d="M-16 0h503v115h-192l115 393h493l115 -393h-189v-115h502v115h-157l-400 1194h88v118h-403v-118h88l-400 -1194h-163v-115zM444 621l215 704l207 -704h-422zM467 1868l221 -301h87l-179 299z" />
<glyph unicode="&#xc1;" horiz-adv-x="1304" d="M-16 0h503v115h-192l115 393h493l115 -393h-189v-115h502v115h-157l-400 1194h88v118h-403v-118h88l-400 -1194h-163v-115zM444 621l215 704l207 -704h-422zM539 1567h84l223 301l-131 -2z" />
<glyph unicode="&#xc2;" horiz-adv-x="1304" d="M-16 0h503v115h-192l115 393h493l115 -393h-189v-115h502v115h-157l-400 1194h88v118h-403v-118h88l-400 -1194h-163v-115zM391 1571h103l161 211l162 -211h103l-201 291h-127zM444 621l215 704l207 -704h-422z" />
<glyph unicode="&#xc3;" horiz-adv-x="1304" d="M-16 0h503v115h-192l115 393h493l115 -393h-189v-115h502v115h-157l-400 1194h88v118h-403v-118h88l-400 -1194h-163v-115zM363 1612h59q14 55 39 78t57 23q23 0 54.5 -13.5t74.5 -36.5q86 -47 146 -47q63 0 105.5 49.5t56.5 141.5h-60q-14 -55 -38.5 -78t-57.5 -23 q-45 0 -131 48q-43 23 -79 36t-64 13q-63 0 -105.5 -49.5t-56.5 -141.5zM444 621l215 704l207 -704h-422z" />
<glyph unicode="&#xc4;" horiz-adv-x="1304" d="M-16 0h503v115h-192l115 393h493l115 -393h-189v-115h502v115h-157l-400 1194h88v118h-403v-118h88l-400 -1194h-163v-115zM383 1528h156v156h-156v-156zM444 621l215 704l207 -704h-422zM756 1528h155v156h-155v-156z" />
<glyph unicode="&#xc5;" horiz-adv-x="1304" d="M-16 0h503v115h-192l115 393h493l115 -393h-189v-115h502v115h-157l-400 1194h88v118h-403v-118h88l-400 -1194h-163v-115zM444 621l215 704l207 -704h-422zM477 1726q0 -74 52 -126t126 -52t126 52t52 126t-52 126t-126 52t-126 -52t-52 -126zM542 1726q0 47 33 80 t80 33t80 -33t33 -80t-33 -80t-80 -33t-80 33t-33 80z" />
<glyph unicode="&#xc6;" horiz-adv-x="1794" d="M-49 0h446v115h-184l205 463h446l23 -463h-219v-115h1024v399h-129v-286h-531l-37 559h334v-111h74v334h-74v-111h-344l-37 531h617v-275h127v387h-1160v-45h115l-584 -1267h-112v-115zM473 690l291 639h47l47 -639h-385z" />
<glyph unicode="&#xc7;" horiz-adv-x="1349" d="M123 713q0 -168 40 -304.5t114.5 -231.5t183 -146t246.5 -51q219 0 366.5 120.5t188.5 374.5l-142 27q-35 -209 -140.5 -303.5t-258.5 -94.5q-104 0 -185 44.5t-138.5 124t-87 192.5t-29.5 252q0 141 29.5 253.5t87 191.5t139 122t186.5 43q76 0 142.5 -22.5t117.5 -70.5 t84 -120t39 -170l127 2v481h-121v-221q-66 123 -174.5 183.5t-237.5 60.5q-131 0 -237.5 -53.5t-182 -150.5t-116.5 -232t-41 -301zM505 -410q12 -4 37 -11t54 -7q119 0 185 46t66 134q0 70 -36.5 110t-102.5 40l-29 -6l58 108h-64l-77 -170l4 -14l34 10q45 0 74 -24.5 t29 -63.5q0 -51 -39 -77.5t-105 -26.5q-25 0 -49 8l-24 8z" />
<glyph unicode="&#xc8;" horiz-adv-x="1202" d="M33 1313h196v-1198h-194v-115h1067v399h-129v-286h-598v559h344v-111h94v334h-94v-111h-344v531h600v-275h127v387h-1069v-114zM417 1868l221 -301h87l-179 299z" />
<glyph unicode="&#xc9;" horiz-adv-x="1202" d="M33 1313h196v-1198h-194v-115h1067v399h-129v-286h-598v559h344v-111h94v334h-94v-111h-344v531h600v-275h127v387h-1069v-114zM491 1567h84l223 301l-131 -2z" />
<glyph unicode="&#xca;" horiz-adv-x="1202" d="M33 1313h196v-1198h-194v-115h1067v399h-129v-286h-598v559h344v-111h94v334h-94v-111h-344v531h600v-275h127v387h-1069v-114zM342 1571h103l161 211l162 -211h103l-201 291h-127z" />
<glyph unicode="&#xcb;" horiz-adv-x="1202" d="M33 1313h196v-1198h-194v-115h1067v399h-129v-286h-598v559h344v-111h94v334h-94v-111h-344v531h600v-275h127v387h-1069v-114zM336 1528h156v156h-156v-156zM709 1528h155v156h-155v-156z" />
<glyph unicode="&#xcc;" horiz-adv-x="587" d="M57 1313h193v-1198h-191v-115h527v115h-193v1198h191v114h-527v-114zM110 1868l221 -301h87l-179 299z" />
<glyph unicode="&#xcd;" horiz-adv-x="587" d="M57 1313h193v-1198h-191v-115h527v115h-193v1198h191v114h-527v-114zM182 1567h84l223 301l-131 -2z" />
<glyph unicode="&#xce;" horiz-adv-x="587" d="M57 1313h193v-1198h-191v-115h527v115h-193v1198h191v114h-527v-114zM57 1571h103l161 211l162 -211h103l-201 291h-127z" />
<glyph unicode="&#xcf;" horiz-adv-x="587" d="M57 1313h193v-1198h-191v-115h527v115h-193v1198h191v114h-527v-114zM78 1528h156v156h-156v-156zM451 1528h155v156h-155v-156z" />
<glyph unicode="&#xd0;" horiz-adv-x="1331" d="M18 1317l203 2v-524h-198v-97h198v-583h-201v-115h560q174 0 297.5 52t202.5 147.5t115 225.5t36 288q0 166 -38 298t-117 224t-199.5 142t-286.5 50h-572v-110zM367 113v585h362v97h-362v520h219q248 0 371.5 -158t123.5 -455q0 -293 -123.5 -441t-379.5 -148h-211z" />
<glyph unicode="&#xd1;" horiz-adv-x="1386" d="M39 0h528v115h-205v1173l635 -1298h177l-5 1323h197v114h-520v-114h203v-1145l-609 1259h-401v-114h199l4 -1198h-203v-115zM408 1612h59q14 55 39 78t57 23q23 0 54.5 -13.5t74.5 -36.5q86 -47 146 -47q63 0 105.5 49.5t56.5 141.5h-60q-14 -55 -38.5 -78t-57.5 -23 q-45 0 -131 48q-43 23 -79 36t-64 13q-63 0 -105.5 -49.5t-56.5 -141.5z" />
<glyph unicode="&#xd2;" horiz-adv-x="1431" d="M109 715q0 -164 44 -299t123.5 -232.5t192.5 -150.5t250 -53t249.5 53t192.5 150.5t124 232.5t44 299t-44 299t-124 232t-192.5 150.5t-249.5 53.5t-250 -53.5t-192.5 -150.5t-123.5 -232t-44 -299zM264 715q0 137 32 250.5t91 195.5t143 127t189 45q104 0 188 -45 t143.5 -127t91.5 -195.5t32 -250.5t-32 -251t-91.5 -196t-143.5 -127t-188 -45t-188.5 45t-143.5 127t-91 196t-32 251zM530 1868l221 -301h87l-179 299z" />
<glyph unicode="&#xd3;" horiz-adv-x="1431" d="M109 715q0 -164 44 -299t123.5 -232.5t192.5 -150.5t250 -53t249.5 53t192.5 150.5t124 232.5t44 299t-44 299t-124 232t-192.5 150.5t-249.5 53.5t-250 -53.5t-192.5 -150.5t-123.5 -232t-44 -299zM264 715q0 137 32 250.5t91 195.5t143 127t189 45q104 0 188 -45 t143.5 -127t91.5 -195.5t32 -250.5t-32 -251t-91.5 -196t-143.5 -127t-188 -45t-188.5 45t-143.5 127t-91 196t-32 251zM604 1567h84l223 301l-131 -2z" />
<glyph unicode="&#xd4;" horiz-adv-x="1431" d="M109 715q0 -164 44 -299t123.5 -232.5t192.5 -150.5t250 -53t249.5 53t192.5 150.5t124 232.5t44 299t-44 299t-124 232t-192.5 150.5t-249.5 53.5t-250 -53.5t-192.5 -150.5t-123.5 -232t-44 -299zM264 715q0 137 32 250.5t91 195.5t143 127t189 45q104 0 188 -45 t143.5 -127t91.5 -195.5t32 -250.5t-32 -251t-91.5 -196t-143.5 -127t-188 -45t-188.5 45t-143.5 127t-91 196t-32 251zM454 1571h103l161 211l162 -211h103l-201 291h-127z" />
<glyph unicode="&#xd5;" horiz-adv-x="1431" d="M109 715q0 -164 44 -299t123.5 -232.5t192.5 -150.5t250 -53t249.5 53t192.5 150.5t124 232.5t44 299t-44 299t-124 232t-192.5 150.5t-249.5 53.5t-250 -53.5t-192.5 -150.5t-123.5 -232t-44 -299zM264 715q0 137 32 250.5t91 195.5t143 127t189 45q104 0 188 -45 t143.5 -127t91.5 -195.5t32 -250.5t-32 -251t-91.5 -196t-143.5 -127t-188 -45t-188.5 45t-143.5 127t-91 196t-32 251zM428 1612h59q14 55 39 78t57 23q23 0 54.5 -13.5t74.5 -36.5q86 -47 146 -47q63 0 105.5 49.5t56.5 141.5h-60q-14 -55 -38.5 -78t-57.5 -23 q-45 0 -131 48q-43 23 -79 36t-64 13q-63 0 -105.5 -49.5t-56.5 -141.5z" />
<glyph unicode="&#xd6;" horiz-adv-x="1431" d="M109 715q0 -164 44 -299t123.5 -232.5t192.5 -150.5t250 -53t249.5 53t192.5 150.5t124 232.5t44 299t-44 299t-124 232t-192.5 150.5t-249.5 53.5t-250 -53.5t-192.5 -150.5t-123.5 -232t-44 -299zM264 715q0 137 32 250.5t91 195.5t143 127t189 45q104 0 188 -45 t143.5 -127t91.5 -195.5t32 -250.5t-32 -251t-91.5 -196t-143.5 -127t-188 -45t-188.5 45t-143.5 127t-91 196t-32 251zM448 1528h156v156h-156v-156zM821 1528h155v156h-155v-156z" />
<glyph unicode="&#xd7;" horiz-adv-x="1359" d="M174 266l78 -78l428 428l428 -428l78 78l-428 428l428 428l-78 78l-428 -428l-428 428l-78 -78l428 -428z" />
<glyph unicode="&#xd8;" horiz-adv-x="1431" d="M111 715q0 -328 168 -533l-119 -159l61 -56l115 156q143 -143 385 -143q137 0 249.5 53t192.5 150.5t124 232.5t44 299q0 330 -168 530l117 160l-61 55l-113 -153q-143 143 -385 143q-137 0 -250 -53.5t-192.5 -150.5t-123.5 -232t-44 -299zM266 715q0 137 32 250.5 t91.5 195.5t143 127t188.5 45q190 0 303 -137l-657 -893q-100 156 -101 412zM418 233l657 893q100 -156 101 -411q0 -137 -32 -251t-91.5 -196t-143.5 -127t-188 -45q-190 0 -303 137z" />
<glyph unicode="&#xd9;" horiz-adv-x="1273" d="M8 1313h180v-862q0 -109 31 -196t89.5 -148.5t140 -94t184.5 -32.5q217 0 334.5 129t117.5 364v840h181v114h-514v-114h198v-840q0 -180 -78.5 -275.5t-232.5 -95.5q-150 0 -227.5 95.5t-77.5 269.5v846h198v114h-524v-114zM454 1868l221 -301h87l-179 299z" />
<glyph unicode="&#xda;" horiz-adv-x="1273" d="M8 1313h180v-862q0 -109 31 -196t89.5 -148.5t140 -94t184.5 -32.5q217 0 334.5 129t117.5 364v840h181v114h-514v-114h198v-840q0 -180 -78.5 -275.5t-232.5 -95.5q-150 0 -227.5 95.5t-77.5 269.5v846h198v114h-524v-114zM526 1567h84l223 301l-131 -2z" />
<glyph unicode="&#xdb;" horiz-adv-x="1273" d="M8 1313h180v-862q0 -109 31 -196t89.5 -148.5t140 -94t184.5 -32.5q217 0 334.5 129t117.5 364v840h181v114h-514v-114h198v-840q0 -180 -78.5 -275.5t-232.5 -95.5q-150 0 -227.5 95.5t-77.5 269.5v846h198v114h-524v-114zM379 1571h103l161 211l162 -211h103l-201 291 h-127z" />
<glyph unicode="&#xdc;" horiz-adv-x="1273" d="M8 1313h180v-862q0 -109 31 -196t89.5 -148.5t140 -94t184.5 -32.5q217 0 334.5 129t117.5 364v840h181v114h-514v-114h198v-840q0 -180 -78.5 -275.5t-232.5 -95.5q-150 0 -227.5 95.5t-77.5 269.5v846h198v114h-524v-114zM371 1528h156v156h-156v-156zM744 1528h155 v156h-155v-156z" />
<glyph unicode="&#xdd;" horiz-adv-x="1181" d="M-12 1313h147l383 -701v-497h-211v-115h572v115h-215v497l389 701h141v114h-479v-114h186l-299 -572l-299 572h193v114h-508v-114zM483 1567h84l223 301l-131 -2z" />
<glyph unicode="&#xde;" horiz-adv-x="1091" d="M31 1313h205v-1198h-199v-115h567v115h-223v913h217q160 0 229.5 -73.5t69.5 -235.5q0 -301 -281 -301h-235v-111h291q174 0 273 112.5t99 305.5q0 203 -102 309.5t-299 106.5h-262v172h217v114h-567v-114z" />
<glyph unicode="&#xdf;" horiz-adv-x="1093" d="M20 0h439v111h-127v931q0 86 17.5 144.5t48 94.5t74.5 50.5t99 14.5q47 0 88 -13.5t72 -43t48.5 -74t17.5 -105.5q0 -111 -59.5 -174.5t-153.5 -63.5v-116h-9q135 0 217 -80t82 -258q0 -68 -15 -126.5t-45 -101.5t-74 -66.5t-103 -23.5l-35 11v-111h-8l47 -6 q94 0 165 31.5t117 88t68.5 136.5t22.5 176q0 162 -77 269.5t-230 129.5q119 27 175 107t56 184q0 160 -95 248t-274 88q-172 0 -273 -94t-101 -309v-938h-175v-111z" />
<glyph unicode="&#xe0;" horiz-adv-x="978" d="M35 289q0 -68 18.5 -124t54 -97t86 -64.5t113.5 -23.5q94 0 177 51t134 145v-176h297v111h-165v622q0 313 -338 314q-154 0 -239 -75t-112 -204l127 -10q16 82 68.5 136t157.5 54q100 0 152 -54t52 -177v-148q-63 20 -123.5 28.5t-109.5 8.5q-174 0 -262 -84t-88 -233z M176 285q0 106 60.5 165.5t191.5 59.5q59 0 101 -12.5t89 -36.5v-88q-16 -61 -41.5 -115.5t-62.5 -93.5t-82 -61.5t-96 -22.5q-80 0 -120 59.5t-40 145.5zM231 1462l222 -301h86l-179 299z" />
<glyph unicode="&#xe1;" horiz-adv-x="978" d="M35 289q0 -68 18.5 -124t54 -97t86 -64.5t113.5 -23.5q94 0 177 51t134 145v-176h297v111h-165v622q0 313 -338 314q-154 0 -239 -75t-112 -204l127 -10q16 82 68.5 136t157.5 54q100 0 152 -54t52 -177v-148q-63 20 -123.5 28.5t-109.5 8.5q-174 0 -262 -84t-88 -233z M176 285q0 106 60.5 165.5t191.5 59.5q59 0 101 -12.5t89 -36.5v-88q-16 -61 -41.5 -115.5t-62.5 -93.5t-82 -61.5t-96 -22.5q-80 0 -120 59.5t-40 145.5zM307 1161h84l223 301l-131 -2z" />
<glyph unicode="&#xe2;" horiz-adv-x="978" d="M35 289q0 -68 18.5 -124t54 -97t86 -64.5t113.5 -23.5q94 0 177 51t134 145v-176h297v111h-165v622q0 313 -338 314q-154 0 -239 -75t-112 -204l127 -10q16 82 68.5 136t157.5 54q100 0 152 -54t52 -177v-148q-63 20 -123.5 28.5t-109.5 8.5q-174 0 -262 -84t-88 -233z M158 1165h102l162 211l162 -211h102l-201 291h-127zM176 285q0 106 60.5 165.5t191.5 59.5q59 0 101 -12.5t89 -36.5v-88q-16 -61 -41.5 -115.5t-62.5 -93.5t-82 -61.5t-96 -22.5q-80 0 -120 59.5t-40 145.5z" />
<glyph unicode="&#xe3;" horiz-adv-x="978" d="M35 289q0 -68 18.5 -124t54 -97t86 -64.5t113.5 -23.5q94 0 177 51t134 145v-176h297v111h-165v622q0 313 -338 314q-154 0 -239 -75t-112 -204l127 -10q16 82 68.5 136t157.5 54q100 0 152 -54t52 -177v-148q-63 20 -123.5 28.5t-109.5 8.5q-174 0 -262 -84t-88 -233z M129 1206h59q14 55 39 78t58 23q23 0 54.5 -13.5t74.5 -36.5q86 -47 145 -47q63 0 105.5 49.5t56.5 141.5h-59q-14 -55 -39 -78t-58 -23q-45 0 -131 48q-43 23 -79 36t-64 13q-63 0 -105.5 -49.5t-56.5 -141.5zM176 285q0 106 60.5 165.5t191.5 59.5q59 0 101 -12.5 t89 -36.5v-88q-16 -61 -41.5 -115.5t-62.5 -93.5t-82 -61.5t-96 -22.5q-80 0 -120 59.5t-40 145.5z" />
<glyph unicode="&#xe4;" horiz-adv-x="978" d="M35 289q0 -68 18.5 -124t54 -97t86 -64.5t113.5 -23.5q94 0 177 51t134 145v-176h297v111h-165v622q0 313 -338 314q-154 0 -239 -75t-112 -204l127 -10q16 82 68.5 136t157.5 54q100 0 152 -54t52 -177v-148q-63 20 -123.5 28.5t-109.5 8.5q-174 0 -262 -84t-88 -233z M145 1143h156v155h-156v-155zM176 285q0 106 60.5 165.5t191.5 59.5q59 0 101 -12.5t89 -36.5v-88q-16 -61 -41.5 -115.5t-62.5 -93.5t-82 -61.5t-96 -22.5q-80 0 -120 59.5t-40 145.5zM518 1143h156v155h-156v-155z" />
<glyph unicode="&#xe5;" horiz-adv-x="978" d="M35 289q0 -68 18.5 -124t54 -97t86 -64.5t113.5 -23.5q94 0 177 51t134 145v-176h297v111h-165v622q0 313 -338 314q-154 0 -239 -75t-112 -204l127 -10q16 82 68.5 136t157.5 54q100 0 152 -54t52 -177v-148q-63 20 -123.5 28.5t-109.5 8.5q-174 0 -262 -84t-88 -233z M176 285q0 106 60.5 165.5t191.5 59.5q59 0 101 -12.5t89 -36.5v-88q-16 -61 -41.5 -115.5t-62.5 -93.5t-82 -61.5t-96 -22.5q-80 0 -120 59.5t-40 145.5zM246 1323q0 -74 52 -126t126 -52t126 52t52 126t-52 126t-126 52t-126 -52t-52 -126zM311 1323q0 47 33 80t80 33 t80 -33t33 -80t-33 -80t-80 -33t-80 33t-33 80z" />
<glyph unicode="&#xe6;" horiz-adv-x="1538" d="M121 289q0 -68 19.5 -124t56 -97t90 -64.5t121.5 -23.5t123 20t97 54t72.5 76t49.5 85q61 -131 151 -183t203 -52q61 0 116.5 21.5t100.5 60t78 95t49 124.5l-121 20q-10 -41 -33.5 -80t-56.5 -70.5t-72 -51t-82 -19.5q-133 0 -209 117q-68 106 -73 284h520l135 -2 q-4 129 -27.5 233.5t-68.5 178.5t-109.5 115t-148.5 41q-117 0 -194 -51.5t-124 -155.5q-27 111 -99.5 159t-188.5 48q-154 0 -238 -75t-111 -204l127 -10q16 82 65.5 136t147.5 54t146.5 -54t48.5 -177v-148q-61 20 -119.5 28.5t-103.5 8.5q-168 0 -253 -84t-85 -233z M262 285q0 106 56.5 165.5t185.5 59.5q53 0 92 -12.5t86 -36.5v-88q-16 -61 -42 -115.5t-59.5 -93.5t-76.5 -61.5t-92 -22.5q-76 0 -113 59.5t-37 145.5zM803 586q12 145 69 239q74 119 191 119t181.5 -97t68.5 -263l-41 2h-469z" />
<glyph unicode="&#xe7;" horiz-adv-x="913" d="M80 506q0 -119 29.5 -216t85 -166t134.5 -106.5t177 -37.5q137 0 236.5 87t123.5 246l-121 19q-23 -100 -85 -169t-154 -69q-66 0 -117 31t-88 85t-56.5 131t-19.5 169q0 197 72 309.5t203 112.5q98 0 165.5 -80t67.5 -217l109 2v381h-109v-133q-37 74 -102.5 118 t-159.5 44q-86 0 -158.5 -40t-124 -113t-80 -172t-28.5 -216zM284 -410q12 -4 37 -11t54 -7q119 0 185 46t66 134q0 70 -36.5 110t-102.5 40l-29 -6l58 108h-64l-77 -170l4 -14l34 10q45 0 74 -24.5t29 -63.5q0 -51 -39 -77.5t-105 -26.5q-25 0 -49 8l-24 8z" />
<glyph unicode="&#xe8;" d="M94 506q0 -121 31 -218.5t87 -166t139 -105t188 -36.5q68 0 131 21.5t116.5 60t92.5 95t57 124.5l-121 20q-12 -41 -38.5 -80t-62.5 -70.5t-79 -51t-90 -19.5q-150 0 -232 117q-78 109 -84 284h592l123 -2q-6 295 -112.5 431.5t-299.5 136.5q-96 0 -176 -36t-138 -105.5 t-91 -170t-33 -229.5zM231 586q14 143 80 239q82 119 211 119q125 0 199 -97t80 -263l-33 2h-537zM323 1462l221 -301h87l-179 299z" />
<glyph unicode="&#xe9;" d="M94 506q0 -121 31 -218.5t87 -166t139 -105t188 -36.5q68 0 131 21.5t116.5 60t92.5 95t57 124.5l-121 20q-12 -41 -38.5 -80t-62.5 -70.5t-79 -51t-90 -19.5q-150 0 -232 117q-78 109 -84 284h592l123 -2q-6 295 -112.5 431.5t-299.5 136.5q-96 0 -176 -36t-138 -105.5 t-91 -170t-33 -229.5zM231 586q14 143 80 239q82 119 211 119q125 0 199 -97t80 -263l-33 2h-537zM395 1161h84l223 301l-131 -2z" />
<glyph unicode="&#xea;" d="M94 506q0 -121 31 -218.5t87 -166t139 -105t188 -36.5q68 0 131 21.5t116.5 60t92.5 95t57 124.5l-121 20q-12 -41 -38.5 -80t-62.5 -70.5t-79 -51t-90 -19.5q-150 0 -232 117q-78 109 -84 284h592l123 -2q-6 295 -112.5 431.5t-299.5 136.5q-96 0 -176 -36t-138 -105.5 t-91 -170t-33 -229.5zM231 586q14 143 80 239q82 119 211 119q125 0 199 -97t80 -263l-33 2h-537zM248 1165h103l161 211l162 -211h103l-201 291h-127z" />
<glyph unicode="&#xeb;" d="M94 506q0 -121 31 -218.5t87 -166t139 -105t188 -36.5q68 0 131 21.5t116.5 60t92.5 95t57 124.5l-121 20q-12 -41 -38.5 -80t-62.5 -70.5t-79 -51t-90 -19.5q-150 0 -232 117q-78 109 -84 284h592l123 -2q-6 295 -112.5 431.5t-299.5 136.5q-96 0 -176 -36t-138 -105.5 t-91 -170t-33 -229.5zM199 1122h156v156h-156v-156zM231 586q14 143 80 239q82 119 211 119q125 0 199 -97t80 -263l-33 2h-537zM572 1122h155v156h-155v-156z" />
<glyph unicode="&#xec;" horiz-adv-x="559" d="M59 0h469v111h-163v907h-306v-107h170v-800h-170v-111zM96 1462l221 -301h87l-179 299z" />
<glyph unicode="&#xed;" horiz-adv-x="559" d="M59 0h469v111h-163v907h-306v-107h170v-800h-170v-111zM168 1161h84l223 301l-131 -2z" />
<glyph unicode="&#xee;" horiz-adv-x="559" d="M59 0h469v111h-163v907h-306v-107h170v-800h-170v-111zM59 1165h103l161 211l162 -211h103l-201 291h-127z" />
<glyph unicode="&#xef;" horiz-adv-x="559" d="M59 0h469v111h-163v907h-306v-107h170v-800h-170v-111zM80 1122h156v156h-156v-156zM453 1122h155v156h-155v-156z" />
<glyph unicode="&#xf0;" horiz-adv-x="1021" d="M82 494q0 -113 31.5 -208.5t90 -164t138.5 -106.5t178 -38t176 42t132.5 119t84 184.5t29.5 238.5q0 346 -172 590q-23 31 -52.5 64.5t-68.5 72.5l211 127l-67 60l-215 -129q-100 80 -285 129l-29 -95q135 -47 209 -98l-213 -129l64 -61l225 137q23 -20 41 -36.5 t31 -31.5q123 -133 157 -270q-57 66 -128.5 98.5t-149.5 32.5q-92 0 -169 -40t-132.5 -110.5t-86 -167t-30.5 -210.5zM223 496q0 92 20.5 168.5t57.5 132t90 86t119 30.5q68 0 121 -29.5t90 -82.5t56.5 -127t19.5 -162q0 -92 -20.5 -170t-58.5 -134t-91.5 -88t-116.5 -32 q-61 0 -114.5 31t-91.5 85t-59.5 129t-21.5 163z" />
<glyph unicode="&#xf1;" horiz-adv-x="1048" d="M25 0h477v111h-162v573q37 111 107.5 180.5t150.5 69.5q82 0 114.5 -56.5t32.5 -175.5v-591h-170v-111h467v111h-159v641q0 141 -62.5 218t-179.5 77q-92 0 -170 -43t-131 -148v162h-313v-107h176v-800h-178v-111zM238 1206h59q14 55 39 78t57 23q23 0 54.5 -13.5 t74.5 -36.5q86 -47 146 -47q63 0 105.5 49.5t56.5 141.5h-60q-14 -55 -38.5 -78t-57.5 -23q-45 0 -131 48q-43 23 -79 36t-64 13q-63 0 -105.5 -49.5t-56.5 -141.5z" />
<glyph unicode="&#xf2;" d="M80 512q0 -117 30.5 -215t87 -169t135.5 -109.5t177 -38.5t177 38.5t136.5 109.5t88 169t30.5 215q0 119 -30.5 217t-87 169t-136.5 110t-178 39t-177 -39t-135.5 -110t-87 -169t-30.5 -217zM221 512q0 193 77 308.5t212 115.5q137 0 214 -115.5t77 -308.5 q0 -190 -77 -306t-214 -116q-135 0 -212 116t-77 306zM323 1462l221 -301h87l-179 299z" />
<glyph unicode="&#xf3;" d="M80 512q0 -117 30.5 -215t87 -169t135.5 -109.5t177 -38.5t177 38.5t136.5 109.5t88 169t30.5 215q0 119 -30.5 217t-87 169t-136.5 110t-178 39t-177 -39t-135.5 -110t-87 -169t-30.5 -217zM221 512q0 193 77 308.5t212 115.5q137 0 214 -115.5t77 -308.5 q0 -190 -77 -306t-214 -116q-135 0 -212 116t-77 306zM395 1161h84l223 301l-131 -2z" />
<glyph unicode="&#xf4;" d="M80 512q0 -117 30.5 -215t87 -169t135.5 -109.5t177 -38.5t177 38.5t136.5 109.5t88 169t30.5 215q0 119 -30.5 217t-87 169t-136.5 110t-178 39t-177 -39t-135.5 -110t-87 -169t-30.5 -217zM221 512q0 193 77 308.5t212 115.5q137 0 214 -115.5t77 -308.5 q0 -190 -77 -306t-214 -116q-135 0 -212 116t-77 306zM248 1165h103l161 211l162 -211h103l-201 291h-127z" />
<glyph unicode="&#xf5;" d="M80 512q0 -117 30.5 -215t87 -169t135.5 -109.5t177 -38.5t177 38.5t136.5 109.5t88 169t30.5 215q0 119 -30.5 217t-87 169t-136.5 110t-178 39t-177 -39t-135.5 -110t-87 -169t-30.5 -217zM219 1206h59q14 55 39 78t57 23q23 0 54.5 -13.5t74.5 -36.5q86 -47 146 -47 q63 0 105.5 49.5t56.5 141.5h-60q-14 -55 -38.5 -78t-57.5 -23q-45 0 -131 48q-43 23 -79 36t-64 13q-63 0 -105.5 -49.5t-56.5 -141.5zM221 512q0 193 77 308.5t212 115.5q137 0 214 -115.5t77 -308.5q0 -190 -77 -306t-214 -116q-135 0 -212 116t-77 306z" />
<glyph unicode="&#xf6;" d="M80 512q0 -117 30.5 -215t87 -169t135.5 -109.5t177 -38.5t177 38.5t136.5 109.5t88 169t30.5 215q0 119 -30.5 217t-87 169t-136.5 110t-178 39t-177 -39t-135.5 -110t-87 -169t-30.5 -217zM221 512q0 193 77 308.5t212 115.5q137 0 214 -115.5t77 -308.5 q0 -190 -77 -306t-214 -116q-135 0 -212 116t-77 306zM240 1122h156v156h-156v-156zM613 1122h155v156h-155v-156z" />
<glyph unicode="&#xf7;" horiz-adv-x="1224" d="M131 641h954v107h-954v-107zM553 166h160v201h-160v-201zM553 1024h160v201h-160v-201z" />
<glyph unicode="&#xf8;" d="M78 512q0 -229 110 -377l-104 -145l61 -51l99 137q102 -96 264 -96q98 0 177 38.5t136.5 109.5t88 169t30.5 215q0 233 -113 377l109 151l-62 54l-102 -144q-100 96 -264 97q-98 0 -177 -39t-135.5 -110t-87 -169t-30.5 -217zM219 512q0 193 77 308.5t212 115.5 q123 0 190 -88l-428 -598q-51 100 -51 262zM315 176l430 600q53 -100 54 -264q0 -190 -77 -306t-214 -116q-123 0 -193 86z" />
<glyph unicode="&#xf9;" horiz-adv-x="1060" d="M25 911h168v-616q0 -156 56 -231.5t185 -75.5q94 0 172 45t125 137v-170h305v111h-168v907h-311v-107h174v-544q-18 -59 -46 -108.5t-62.5 -85.5t-74.5 -56.5t-83 -20.5q-76 0 -105.5 56.5t-29.5 173.5v692h-305v-107zM344 1462l221 -301h87l-179 299z" />
<glyph unicode="&#xfa;" horiz-adv-x="1060" d="M25 911h168v-616q0 -156 56 -231.5t185 -75.5q94 0 172 45t125 137v-170h305v111h-168v907h-311v-107h174v-544q-18 -59 -46 -108.5t-62.5 -85.5t-74.5 -56.5t-83 -20.5q-76 0 -105.5 56.5t-29.5 173.5v692h-305v-107zM418 1161h84l223 301l-131 -2z" />
<glyph unicode="&#xfb;" horiz-adv-x="1060" d="M25 911h168v-616q0 -156 56 -231.5t185 -75.5q94 0 172 45t125 137v-170h305v111h-168v907h-311v-107h174v-544q-18 -59 -46 -108.5t-62.5 -85.5t-74.5 -56.5t-83 -20.5q-76 0 -105.5 56.5t-29.5 173.5v692h-305v-107zM268 1165h103l161 211l162 -211h103l-201 291h-127z " />
<glyph unicode="&#xfc;" horiz-adv-x="1060" d="M25 911h168v-616q0 -156 56 -231.5t185 -75.5q94 0 172 45t125 137v-170h305v111h-168v907h-311v-107h174v-544q-18 -59 -46 -108.5t-62.5 -85.5t-74.5 -56.5t-83 -20.5q-76 0 -105.5 56.5t-29.5 173.5v692h-305v-107zM221 1122h156v156h-156v-156zM594 1122h155v156 h-155v-156z" />
<glyph unicode="&#xfd;" horiz-adv-x="1005" d="M18 911h132l317 -899l-72 -233q-23 -66 -59 -62l-152 9v-115l181 -6q39 -2 69.5 21.5t57.5 105.5l387 1179h120v107h-421v-107h161l-213 -733l-229 733h162v107h-441v-107zM391 1161h84l223 301l-131 -2z" />
<glyph unicode="&#xfe;" horiz-adv-x="1095" d="M16 -272v-111h486v111h-174v471q57 -123 138 -171t167 -48q94 0 169 37.5t126 108.5t78.5 171t27.5 223q0 117 -26.5 214t-77.5 167t-123 108t-162 38q-41 0 -84 -11.5t-84 -38t-80 -71.5t-69 -113v614h-312v-106h174v-1593h-174zM326 514v10q0 193 79.5 304.5 t210.5 111.5q135 0 211 -117.5t76 -310.5q0 -92 -20.5 -170t-57.5 -134t-90 -88t-117 -32q-68 0 -122 29.5t-91.5 85t-58 134.5t-20.5 177z" />
<glyph unicode="&#xff;" horiz-adv-x="1005" d="M18 911h132l317 -899l-72 -233q-23 -66 -59 -62l-152 9v-115l181 -6q39 -2 69.5 21.5t57.5 105.5l387 1179h120v107h-421v-107h161l-213 -733l-229 733h162v107h-441v-107zM235 1122h156v156h-156v-156zM608 1122h155v156h-155v-156z" />
<glyph unicode="&#x152;" horiz-adv-x="1869" d="M106 723q0 -172 41 -308t120 -229.5t195 -142.5t265 -47l256 4h766v399h-129v-286h-565v559h331v-111h74v334h-74v-111h-331v531h567v-275h127v387h-768l-254 11q-147 6 -263 -42t-195 -142.5t-121 -229.5t-42 -301zM260 707q0 303 126 467.5t382 150.5l141 -8v-1202 l-153 -6q-123 -4 -215 34.5t-154.5 115.5t-94.5 190.5t-32 257.5z" />
<glyph unicode="&#x153;" horiz-adv-x="1572" d="M80 512q0 -117 26.5 -215t78 -169t123 -109.5t161.5 -38.5q123 0 210 65t122 188q45 -129 134 -191t208 -62q61 0 116.5 21.5t101.5 60t79 95t49 124.5l-121 20q-10 -41 -32.5 -80t-54.5 -70.5t-69.5 -51t-76.5 -19.5q-131 0 -201 117q-66 109 -72 284h498l137 -2 q-4 129 -27.5 233.5t-68.5 178.5t-110.5 115t-151.5 41q-129 0 -211 -68t-125 -193q-29 117 -112 189t-218 72q-92 0 -164.5 -39t-123 -110t-78 -169t-27.5 -217zM221 512q0 193 67.5 308.5t190.5 115.5t190.5 -115.5t67.5 -308.5q0 -190 -68.5 -306t-189.5 -116 q-123 0 -190.5 116t-67.5 306zM864 586q8 143 68 239q70 119 182 119q111 0 173.5 -97t66.5 -263l-45 2h-445z" />
<glyph unicode="&#x178;" horiz-adv-x="1181" d="M-12 1313h147l383 -701v-497h-211v-115h572v115h-215v497l389 701h141v114h-479v-114h186l-299 -572l-299 572h193v114h-508v-114zM328 1528h156v156h-156v-156zM701 1528h155v156h-155v-156z" />
<glyph unicode="&#x2c6;" horiz-adv-x="538" d="M10 1165h103l161 211l162 -211h103l-201 291h-127z" />
<glyph unicode="&#x2dc;" horiz-adv-x="552" d="M-10 1206h59q14 55 39 78t57 23q23 0 54.5 -13.5t74.5 -36.5q86 -47 146 -47q63 0 105.5 49.5t56.5 141.5h-60q-14 -55 -38.5 -78t-57.5 -23q-45 0 -131 48q-43 23 -79 36t-64 13q-63 0 -105.5 -49.5t-56.5 -141.5z" />
<glyph unicode="&#x2000;" horiz-adv-x="952" />
<glyph unicode="&#x2001;" horiz-adv-x="1904" />
<glyph unicode="&#x2002;" horiz-adv-x="952" />
<glyph unicode="&#x2003;" horiz-adv-x="1904" />
<glyph unicode="&#x2004;" horiz-adv-x="634" />
<glyph unicode="&#x2005;" horiz-adv-x="476" />
<glyph unicode="&#x2006;" horiz-adv-x="317" />
<glyph unicode="&#x2007;" horiz-adv-x="317" />
<glyph unicode="&#x2008;" horiz-adv-x="238" />
<glyph unicode="&#x2009;" horiz-adv-x="380" />
<glyph unicode="&#x200a;" horiz-adv-x="105" />
<glyph unicode="&#x2010;" horiz-adv-x="632" d="M86 559h467v121h-467v-121z" />
<glyph unicode="&#x2011;" horiz-adv-x="632" d="M86 559h467v121h-467v-121z" />
<glyph unicode="&#x2012;" horiz-adv-x="632" d="M86 559h467v121h-467v-121z" />
<glyph unicode="&#x2013;" horiz-adv-x="1081" d="M0 479h1040v119h-1040v-119z" />
<glyph unicode="&#x2014;" horiz-adv-x="2048" d="M0 479h2007v119h-2007v-119z" />
<glyph unicode="&#x2018;" horiz-adv-x="487" d="M188 956h166v103v78q0 10 -26 16h-47q0 25 9 66t21.5 78.5t26.5 65.5t24 28l-59 36q-16 0 -35.5 -30.5t-37 -71.5t-30 -85t-12.5 -71v-213z" />
<glyph unicode="&#x2019;" horiz-adv-x="487" d="M176 993l60 -37q16 0 35.5 31t37 72t28.5 84t11 71v213h-84h-82q2 0 2 -98q0 -74 -2 -80q0 -10 27 -18h49q0 -25 -9 -66t-22.5 -78.5t-28 -65.5t-22.5 -28z" />
<glyph unicode="&#x201a;" horiz-adv-x="487" d="M182 -238l60 -36q16 0 35.5 30.5t37 71.5t28.5 84t11 72v213h-84h-82q2 0 2 -99q0 -74 -2 -80q0 -10 27 -18h49q0 -25 -9 -65.5t-22.5 -78.5t-28 -66t-22.5 -28z" />
<glyph unicode="&#x201c;" horiz-adv-x="954" d="M197 956h165v103v78q0 10 -26 16h-47q0 25 9 66t21.5 78.5t26.5 65.5t25 28l-60 36q-16 0 -35.5 -30.5t-37 -71.5t-29.5 -85t-12 -71v-213zM631 956h166v103v78q0 10 -27 16h-47q0 25 9 66t21.5 78.5t27 65.5t24.5 28l-60 36q-16 0 -35.5 -30.5t-37 -71.5t-29.5 -85 t-12 -71v-213z" />
<glyph unicode="&#x201d;" horiz-adv-x="954" d="M199 993l59 -37q16 0 35.5 31t37 72t29 84t11.5 71v213h-84h-82q2 0 2 -98q0 -74 -2 -80q0 -10 26 -18h50q0 -25 -9.5 -66t-22.5 -78.5t-27.5 -65.5t-22.5 -28zM633 993l59 -37q16 0 36 31t37 72t28.5 84t11.5 71v213h-84h-82q2 0 2 -98q0 -74 -2 -80q0 -10 27 -18h49 q0 -25 -9.5 -66t-22.5 -78.5t-27.5 -65.5t-22.5 -28z" />
<glyph unicode="&#x201e;" horiz-adv-x="954" d="M197 -238l59 -36q16 0 35.5 30.5t37 71.5t29 84t11.5 72v213h-84h-82q2 0 2 -99q0 -74 -2 -80q0 -10 26 -18h50q0 -25 -9.5 -65.5t-23 -78.5t-27.5 -66t-22 -28zM635 -238l59 -36q16 0 36 30.5t37 71.5t28.5 84t11.5 72v213h-84h-82q2 0 2 -99q0 -74 -2 -80q0 -10 27 -18 h49q0 -25 -9.5 -65.5t-22.5 -78.5t-27.5 -66t-22.5 -28z" />
<glyph unicode="&#x2022;" horiz-adv-x="911" d="M207 715q0 -43 16.5 -81t44 -66.5t65.5 -45t81 -16.5t80.5 16.5t65.5 45t44.5 66.5t16.5 81t-16.5 81t-44.5 66.5t-65.5 45t-80.5 16.5t-81 -16.5t-65.5 -45t-44 -66.5t-16.5 -81z" />
<glyph unicode="&#x2026;" horiz-adv-x="1843" d="M186 -2h160v201h-160v-201zM868 -2h160v201h-160v-201zM1548 -2h160v201h-160v-201z" />
<glyph unicode="&#x202f;" horiz-adv-x="380" />
<glyph unicode="&#x2039;" horiz-adv-x="477" d="M78 524l215 -467h123l-205 467l207 467h-123z" />
<glyph unicode="&#x203a;" horiz-adv-x="477" d="M70 991l204 -467l-202 -467h121l215 467l-218 467h-120z" />
<glyph unicode="&#x205f;" horiz-adv-x="476" />
<glyph unicode="&#x2122;" horiz-adv-x="1775" d="M115 1323h10l22 2h203v-723h111v723h203l22 -2h10v104h-581v-104zM801 602h117v725l208 -725h68l223 725v-725h111v825h-182l-185 -628l-174 628h-186v-825z" />
<glyph unicode="&#xe000;" horiz-adv-x="1013" d="M0 0v1014h1014v-1014h-1014z" />
</font>
</defs>
</svg>
